<?xml version="1.0" encoding="utf-8"?>
<!-- Generator: Adobe Illustrator 19.1.0, SVG Export Plug-In . SVG Version: 6.00 Build 0)  -->
<!DOCTYPE svg PUBLIC "-//W3C//DTD SVG 1.1//EN" "http://www.w3.org/Graphics/SVG/1.1/DTD/svg11.dtd">
<svg version="1.1" id="Layer_1" xmlns="http://www.w3.org/2000/svg" xmlns:xlink="http://www.w3.org/1999/xlink" x="0px" y="0px"
	 viewBox="0 0 200 70" style="enable-background:new 0 0 200 70;" xml:space="preserve">
<style type="text/css">
	.st0{fill:#FFFFFF;}
</style>
<g>
	<g>
		<path class="st0" d="M178.2,51.6c0,0,0,0.1,0,0.1c0,0,0,0,0,0c0,0-0.1,0-0.3,0.1c-0.1,0-0.1,0-0.1,0c0,0,0,0-0.1,0c0,0,0,0-0.1,0
			c0,0,0,0,0,0c0,0,0,0,0,0c0,0,0,0,0,0c0,0-0.1,0-0.1,0c0,0,0,0,0,0c0,0,0,0,0,0c0,0,0,0,0,0c0,0,0,0-0.1,0c0,0-0.1,0-0.1,0
			c0,0,0,0,0,0c0,0,0,0,0,0c0,0-0.1,0-0.1,0c0,0,0,0,0,0c0,0-0.1,0-0.1,0c0,0,0,0,0,0c0,0,0,0,0,0c0,0,0,0,0,0c0,0,0,0,0,0
			c0,0,0,0,0,0c0,0,0,0,0,0c0,0,0,0,0,0c0,0,0,0,0,0c0,0,0,0,0,0c0,0,0,0,0,0c0,0,0,0,0,0c0,0-0.1,0-0.1,0c0,0,0,0,0,0
			c0,0-0.1,0-0.2,0c-0.1,0-0.2,0-0.3,0c0,0-0.1,0-0.1,0c0,0-0.1,0-0.1,0c0,0-0.1,0-0.1,0c-0.1,0-0.1,0-0.1,0c0,0,0,0,0,0
			c0,0,0,0-0.1,0c-4.4,0-10.7,0-18.4,0c-18.2,0-43.2,0-72,0c-13.8,0-26.1,0-27.6,0c-1.5,0-2.9,0-3.5,0c-0.5,0-1.6,0-2.4,0
			c-1.8,0-24.1,0-24.8,0c-0.2,0-2.2,0-5.4,0c-0.2,0-0.3,0-0.5,0l-0.2,0c-0.1,0,0-0.1,0-0.2c0-0.3,0-0.7,0-1c0-0.6,0-1.2,0-1.8
			c0-0.8,0-1.6,0-2.4c0-1.7,0-3.6,0-5.5c0-3.8,0-7.9,0-11.5c0-2.2,0-4.4,0-6.7c0-1.5,0-3,0-4.5c0-0.1,0-0.2,0-0.2h0.2l0.4,0l0.8,0
			l1.4,0l1.7,0c4.4,0,8.7,0,12.9,0c8.3,0,15.7,0,21.1,0c6.2,0,13,0,15,0c2,0,4,0,4.5,0c0.5,0,18.6,0,40.3,0c21.7,0,44.8,0,51.5,0
			c2.2,0,4.3,0,6.3,0c0.9,0,1.8,0,2.7,0h0.2l0.1,0c0,0,0,0.1,0,0.1v0.4l0,0.7c0,0.5,0,0.9,0,1.4c0,1,0,2,0,3c0,3.8,0,7.3,0,10.6
			c0,5.5,0,10.1,0,13.9c0,0.1,0,0.2,0,0.2c0,0,0,0,0,0c0,0,0,0,0,0.1c0,0,0,0.1,0,0.1c0,0,0,0,0,0.1c0,0,0,0,0,0c0,0,0,0,0,0
			c0,0,0,0.1,0,0.1c0,0,0,0,0,0c0,0,0,0,0,0c0,0,0,0,0,0.1c0,0.1,0,0.2,0,0.2c0,0,0,0,0,0c0,0,0,0.1,0,0.1c0,0,0,0,0,0s0,0,0,0
			s0,0,0,0.1c0,0.1,0,0.1,0,0.1c0,0,0,0,0,0c0,0,0,0,0,0c0,0.1,0,0.2,0,0.2c0,0,0,0,0,0c0,0,0,0,0,0c0,0,0,0,0,0c0,0,0,0,0,0
			c0,0,0,0,0,0.1c0,0,0,0.1,0,0.1c0,0,0,0,0,0c0,0,0,0,0,0.1c0,0,0,0,0,0.1c0,0,0,0.1,0,0.1c0,0,0,0,0,0.1c0,0.1,0,0.1,0,0.1
			c0,0,0,0,0,0c0,0,0,0,0,0.1c0,0,0,0,0,0c0,0,0,0,0,0c0,0,0,0,0,0c0,0-0.1,0-0.1,0.1c0,0,0,0,0,0c0,0,0,0-0.1,0c0,0,0,0,0,0
			c0,0,0,0,0,0c0,0,0,0.1-0.1,0c0,0,0,0,0,0c0,0,0,0-0.1,0c-0.1,0-0.1,0-0.1,0c0,0,0,0,0,0c0,0,0,0,0,0c0,0-0.1,0.1-0.1,0
			c0,0,0,0-0.1,0c-0.1,0-0.2,0-0.2,0c0,0,0,0,0,0c0,0,0,0,0,0c0,0,0,0,0,0c0,0,0,0,0,0c0,0,0,0,0,0c0,0,0,0,0,0.1c0,0,0,0-0.1,0
			c0,0-0.1,0-0.1,0c0,0,0,0-0.1,0c0,0,0,0-0.1,0c0,0,0,0,0,0c0,0,0,0,0,0c0,0-0.1,0.1-0.1,0c0,0,0,0,0,0c0,0,0,0-0.1,0
			c0,0-0.1,0-0.1,0c0,0,0,0,0,0c0,0,0,0,0,0c0,0,0,0,0,0c0,0,0,0,0,0c0,0,0,0,0,0c0,0,0,0,0,0c0,0,0,0,0,0c0,0,0,0,0,0c0,0,0,0,0,0
			s0,0,0,0c0,0-0.1,0-0.1,0c0,0,0,0,0,0c0,0-0.1,0-0.1,0c0,0-0.1-0.1-0.1,0c0,0,0,0,0,0c0,0,0,0,0,0c0,0,0,0,0,0c0,0,0,0,0,0
			c0,0,0,0,0,0c0,0,0,0,0,0c0,0,0,0,0,0c0,0,0,0,0,0c0,0-0.1-0.1,0-0.1c0,0,0-0.1,0-0.1c0,0,0-0.1,0-0.1c0,0,0,0,0,0c0,0,0,0,0-0.1
			c0,0,0,0,0-0.1c0,0,0-0.2,0-0.2c0,0,0-0.1,0-0.1c0,0,0-0.1,0-0.1c0,0,0-0.1,0-0.1c0,0,0,0,0,0c0,0,0,0,0-0.1c0,0,0,0,0,0
			c0,0,0,0,0-0.1c0,0,0-0.1,0-0.1c0,0,0,0,0,0c0,0,0-0.1,0-0.1c0,0,0-0.1,0-0.1c0,0,0-0.1,0-0.1c0,0,0,0,0,0c0,0,0-0.2,0-0.2
			c0,0,0,0,0-0.1c0,0,0-0.1,0-0.1c0,0,0,0,0-0.1c0,0,0-0.1,0-0.1c0,0,0,0,0,0c0,0,0,0,0,0c0,0,0,0,0-0.1c0-1.3,0-3,0-5.3
			c0-5.9,0-13.1,0-21.2c0-0.3,0-0.7,0-1l0-0.1c0,0-0.1,0-0.1,0c-0.8,0-1.7,0-2.6,0c-2.1,0-4.4,0-6.6,0c-4.5,0-9.3,0-14.2,0
			c-19.7,0-42.5,0-66.7,0c-12.1,0-24.6,0-37.1,0c-6.3,0-12.6,0-19,0l-4.8,0l-2.4,0l-0.5,0l-0.1,0c0,0,0,0,0,0.1c0,2.9,0,5.8,0,8.8
			c0,5,0,10,0,14.9c0,1.2,0,2.5,0,3.7l0,1.3c0,0,0,0.1,0,0.1l0.1,0c2.3,0,4.7,0,7,0c75.4,0,141.5,0,145.3,0c0,0,0.1,0,0.1,0
			c0.1,0,0.1,0,0.1,0c0,0,0,0,0,0c0,0,0,0,0,0c0,0,0,0,0.1,0c0,0,0.1,0,0.1,0c0,0,0,0,0,0c0,0,0,0,0-0.1c0.1,0,0.1,0,0.1,0
			c0,0,0.1,0,0.1,0c0,0,0,0,0,0c0,0,0.1,0,0.1,0c0,0,0.1,0,0.1,0c0,0,0,0,0.1,0c0,0,0.1,0,0.2,0c0.1,0,0.1,0,0.1,0c0,0,0,0,0,0
			c0,0,0,0,0,0c0,0,0,0,0,0c0,0,0,0,0,0c0,0,0,0,0,0c0,0,0,0,0,0c0,0,0.1,0,0.1,0c0,0,0.1,0,0.1,0c0,0,0.1,0,0.1,0c0,0,0,0,0,0
			c0,0,0,0,0,0c0,0,0,0,0,0c0,0,0,0,0,0c0,0,0.1,0,0.2,0c0,0,0,0,0.1,0c0,0,0,0,0.1,0c0,0,0,0,0,0c0,0,0,0,0,0c0,0,0.1,0,0.1,0
			c0,0,0,0,0,0c0,0,0,0,0.1,0c0,0,0.1,0,0.1,0c0,0,0,0,0.1,0c0.1,0,0.1,0,0.1,0.1c0,0,0,0,0,0c0,0,0,0,0,0c0,0,0,0,0,0c0,0,0,0,0,0
			c0,0,0,0.1,0,0.1c0,0,0,0.1,0,0.1c0,0,0,0.1,0,0.1c0,0.1,0,0.1,0,0.1c0,0,0,0,0,0c0,0,0,0.1,0,0.1c0,0.1,0,0.1,0,0.1c0,0,0,0,0,0
			c0,0,0,0.2,0,0.2c0,0,0,0,0,0.1c0,0,0,0.1,0,0.1c0,0,0,0.1,0,0.1c0,0,0,0.2,0,0.2c0,0,0,0.1,0,0.2c0,0.2,0,0.3,0,0.3
			C178.2,51.5,178.2,51.5,178.2,51.6C178.2,51.6,178.2,51.6,178.2,51.6z"/>
	</g>
</g>
<g>
	<path class="st0" d="M72.4,35.3c0.1,0,0.7-0.4,1.1-0.8c0.1-0.2,0.3-0.5,0.5-0.6c0.6-0.7,1.5-1.6,2.2-2.5c0.8-1.1,1-1.8,1-2
		c0-0.1,0-0.1-0.1-0.1c-1.1,0-2,0.4-2.9,1c-0.1,0.1-0.2,0.1-0.2,0.3c-0.1,0.3-0.3,0.6-0.4,0.9C73.3,32.3,72.3,34.6,72.4,35.3
		C72.3,35.3,72.4,35.3,72.4,35.3z"/>
	<path class="st0" d="M116.3,30.9c-0.1,0-0.1-0.1-0.1-0.2c0-0.1-0.1-0.2-0.1-0.2s-0.3,0-0.8,0.6c-1.3,1.3-2.4,3.1-2.9,4.9
		c-0.1,0.3-0.2,0.7-0.2,1.2c0,0.1-0.1,0.9-0.1,1.4c0,0.9,0.3,1.5,0.7,1.9c0.1,0.1,0.4,0.2,0.7,0.2c0.5,0,1.1-0.3,1.4-0.7
		c2.1-3.2,2.5-6.6,2.5-7.2c0-0.4,0-0.5,0-0.7C117,31.6,116.8,31.1,116.3,30.9z"/>
	<path class="st0" d="M76.4,35.1c-0.9,0-2.1,0.8-2.6,1.1c-0.5,0.3-1.1,0.7-1.6,0.7c-0.2,0-0.2,0-0.2,0.2c-0.1,0.6-0.6,2.3-0.6,2.8
		c0,0.1,0,0.2,0.1,0.3c0.6,0.6,1.5,1.3,2.6,1.3c1.1,0,1.8-1.3,2.8-3.3c0.5-1,0.5-1.7,0.5-2.1c0-0.3,0-0.4-0.2-0.6
		S76.7,35.1,76.4,35.1z"/>
	<path class="st0" d="M21.8,19.3v31.3h156.5V19.3H21.8z M77.3,40.8c-0.7,1.1-1.9,1.5-3.2,1.5c-0.6,0-1.7-0.1-2.1-0.4
		c-0.2-0.1-0.6-0.2-1-0.6c-0.1,0-0.2,0-0.3,0c-0.4,0-0.8-0.4-1.2-0.7c-0.1-0.1-0.1-0.2-0.1-0.2c0-0.3-0.8-1-0.8-1.2
		c0-0.4-0.3-0.5-0.3-0.9c0-0.3,0.2-0.3,1.1-0.3c0.1,0,0.3,0.1,0.4,0.1s0.2,0,0.2-0.3c0.6-2.5,1-4.1,1.9-6.3c0,0,0-0.1-0.1-0.1
		c-0.2-0.2-0.2-0.4-0.2-0.7c0-0.2,0-0.2,0.1-0.3c0.6-0.2,0.8-0.7,1.1-1.6c0.3-0.8,0.5-0.9,0.7-0.9c0.5,0,0.9,0.5,1.4,0.5
		c0.1,0,0.3-0.1,0.5-0.2c0.2-0.1,0.8-0.3,1.4-0.3c0.7,0,1.5,0.2,1.9,0.7c0.3,0.2,0.4,0.5,0.4,0.7c0,0.2-0.1,1.1-1.7,3
		c-0.5,0.6-1.1,1.4-1.1,1.4s0,0.1,0.1,0.1c0.4,0.2,0.9,0.1,1.3,0.2c0.7,0.3,1.2,0.8,1.5,1.3c0.1,0.2,0.1,0.4,0.1,0.7
		C79.3,37.9,78.3,39.1,77.3,40.8z M92.8,31.3c-0.3,0.8-0.9,1.6-1.2,2.5c-1,2.6-1.4,5.2-1.4,7.9c0,0.4,0,0.5,0,0.6
		c0,0.1-0.1,0.2-0.3,0.2c-0.3,0-0.2-0.1-0.5-0.1c-0.2-0.1-0.4-0.2-0.7-0.4c-0.2-0.1-0.4-0.1-0.4-0.4c0-0.1,0-0.3,0.1-0.4
		c0.1-0.1,0.1-0.2,0.1-0.3c0.2-1.4,0.2-2.7,0.5-3.9c0-0.2,0.1-0.2,0.1-0.3c0-0.1,0-0.1-0.1-0.1c0,0-0.1,0-0.2,0.1
		c-1.4,1.6-3.1,3.6-4.7,5c-0.2,0.2-0.6,0.3-0.9,0.3c-0.2,0-0.6-0.1-0.8-0.3c-0.4-0.4-0.8-0.1-1.1-0.6c-0.1-0.1-0.1-0.7-0.1-1.3
		c0-1.2,0.3-2.4,0.5-3.2c0.7-2.3,1.8-4.6,2.6-6.9c0.1-0.2,0.2-0.3,0.2-0.4c0.1-0.3,0.3-0.5,0.6-0.5c0.1,0,0.2,0.1,0.6,0.2
		c0.2,0.1,0.4,0.1,0.5,0.3c0.1,0.1,0.1,0.4,0.1,0.5c0,0.1-0.1,0.4-0.2,0.5c-1.2,3-2.8,5.7-3.2,8.6c0,0.3-0.1,0.6-0.1,1.1
		c0,0.2,0,0.3,0.1,0.3c0.2,0,0.5-0.1,0.8-0.4c3.7-3.7,5.8-6.7,6.9-8.4c0.2-0.4,0.1-0.3,0.5-0.9c0.1-0.2,0.5-0.6,0.6-0.6
		c0.1,0,0.3,0.1,0.7,0.1c0.1,0,0.2,0.1,0.2,0.2l0.3,0.4c0.1,0.1,0.1,0.2,0.1,0.3C92.9,30.9,92.9,31.1,92.8,31.3z M108,31
		c-1.7,2.9-2.9,5.7-3.5,9.1c-0.1,0.3-0.1,0.4-0.1,0.7c0,0.2,0,0.3,0,0.5c0,0.4-0.1,0.6-0.5,0.6c-0.3,0-0.7-0.2-1-0.4
		c-0.1-0.1-0.3-0.3-0.3-0.5c0-0.1,0.1-0.6,0.1-0.8c0.8-3.2,1.7-6.2,3.2-9.2c0-0.1,0-0.1-0.1-0.1c-0.3,0-1,0.1-1.5,0.1
		c-0.4,0-0.9-0.1-1.1-0.3c0,0,0-0.1,0-0.3c-0.2-0.1-0.3-0.1-0.4-0.1c-1.1,0-2.1,0.1-3,0.3c0.1,0.1,0.1,0.2,0.1,0.2c0,0,0,0.1,0,0.1
		c-1.7,2.9-2.9,5.7-3.5,9.1c-0.1,0.3-0.1,0.4-0.1,0.7c0,0.2,0,0.3,0,0.5c0,0.4-0.1,0.6-0.5,0.6c-0.3,0-0.7-0.2-1-0.4
		c-0.1-0.1-0.3-0.3-0.3-0.5c0-0.1,0.1-0.6,0.1-0.8c0.8-3.2,1.7-6.2,3.2-9.2c0-0.1,0-0.1-0.1-0.1c-0.3,0-1,0.1-1.5,0.1
		c-0.4,0-0.9-0.1-1.1-0.3c0,0,0-0.1,0-0.6c0-0.5,0.3-0.7,0.4-0.7c0.2,0,0.2,0.1,1.5,0.1c1.9,0,3.8-0.6,5.8-0.6
		c0.5,0,1.1,0.3,1.5,0.6c0.2,0,0.5,0,0.8,0c1.9,0,3.8-0.6,5.8-0.6c0.7,0,1.8,0.8,1.8,1c0,0.4-0.1,0.6-0.3,0.6
		c-0.1,0-0.3,0.2-0.6,0.2c-0.2,0-0.1-0.1-0.4-0.3c-0.4-0.1-0.4-0.2-0.6-0.2c-1.1,0-2.1,0.1-3,0.3c0.1,0.1,0.1,0.2,0.1,0.2
		C108,31,108,31,108,31z M118.7,34.6c-0.6,2.4-1.3,4.7-2.7,6.3c-0.6,0.8-1.7,1.2-2.8,1.2c-0.4,0-0.7,0-1.2-0.2
		c-0.3-0.1-0.8-0.5-1.1-1c-0.5-0.7-0.6-1.3-0.6-2.3c0-2.8,0.9-4.9,2.4-7c0.7-1.1,1.4-1.9,2.3-2.4c0.3-0.2,0.4-0.2,0.5-0.2
		c0.1,0,0.3,0,0.4,0.1c0.2,0.1,0.8,0.3,1,0.3c0.1,0,0.3,0,0.4,0.2c0.8,0.7,1.4,1.8,1.4,3.5C118.9,33.6,118.9,33.8,118.7,34.6z
		 M132.2,30.3c-0.1,0.2-0.1,0.4-0.3,0.8c-1,2.7-1.8,5.9-3.4,10c-0.2,0.4-0.2,0.4-0.3,0.5c-0.4,0.4-0.6,0.5-0.9,0.5
		c-0.2,0-0.3,0-0.7-0.2c-0.7-0.4-0.9-0.7-1-1.2c-0.7-2.4-1-6.1-1.4-7.7c-0.1-0.2-0.1-0.3-0.2-0.3c-0.1,0-0.1,0.1-0.2,0.3
		c-0.4,1.5-1.8,5.4-2.1,8.1c0,0.4-0.1,0.7-0.1,0.7c0,0.2-0.3,0.4-0.7,0.4c-0.6,0-0.5-0.1-0.8-0.2c-0.2-0.1-0.3-0.2-0.3-0.3
		c0-0.9,2.1-7.4,2.2-7.9l0.2-0.7c0.3-1.3,0.6-2.1,0.8-3.2c0.1-0.3,0.4-0.1,0.4-0.4c0-0.2-0.3-0.5-0.3-1.1c0-0.1,0-0.1,0.2-0.2
		c0.2-0.1,0.7-0.2,1.2-0.2c0.1,0,0.2,0.1,0.3,0.3c1.3,3.9,1,7.7,2.1,11.6c0.1,0.2,0.1,0.3,0.2,0.3c0,0,0.1,0,0.2-0.3
		c1.1-2.3,1.8-4.8,2.5-7.4c0.1-0.5,0.2-0.6,0.4-1.1c0.2-0.7,0.1-1.5,0.3-2.2c0.1-0.4,0.1-0.4,0.4-0.4c0.3,0,0.6,0.1,0.8,0.1
		c0.3,0,0.7,0.6,0.7,0.7C132.4,29.8,132.4,29.9,132.2,30.3z"/>
</g>
</svg>
