<?xml version="1.0" encoding="utf-8"?>
<!-- Generator: Adobe Illustrator 19.2.0, SVG Export Plug-In . SVG Version: 6.00 Build 0)  -->
<svg version="1.1" id="Layer_1" xmlns="http://www.w3.org/2000/svg" xmlns:xlink="http://www.w3.org/1999/xlink" x="0px" y="0px"
	 viewBox="0 0 200 200" style="enable-background:new 0 0 200 200;" xml:space="preserve">
<style type="text/css">
	.st0{fill:#FFFFFF;}
	.st1{fill:none;stroke:#FFFFFF;stroke-width:3;stroke-linecap:round;stroke-linejoin:round;}
	.st2{fill:none;stroke:#FFFFFF;stroke-width:0.8;stroke-miterlimit:10;}
	.st3{fill:#AB2023;}
	.st4{fill:#1A5A5A;}
	.st5{fill:#00AF89;}
	.st6{fill:#D02227;}
	.st7{fill:#555655;}
	.st8{fill:#4D74B9;}
	.st9{fill:#155C91;}
	.st10{fill:none;stroke:#FFFFFF;stroke-width:2;stroke-miterlimit:10;}
</style>
<g>
	<g id="XMLID_3_">
		<g>
			<path class="st3" d="M100.2,161.8c14.5,11,34.8,13,51.7,3.5c22.7-12.8,30.6-41.6,17.8-64.3c-5.2-9.1-12.9-15.9-21.8-19.8
				c-1.7,14.4-10,27.7-23.6,35.4c-2,1.1-4.1,2.1-6.2,3C119.9,135.4,113.3,151.6,100.2,161.8z"/>
			<path class="st4" d="M94.5,165.6c2-1.1,3.9-2.4,5.7-3.8c-5-3.8-9.3-8.6-12.6-14.4c-5.2-9.1-7-19.2-5.8-28.9
				c-8.9-4-16.6-10.7-21.8-19.8c-3.3-5.8-5.2-12-5.8-18.2c-2.1,0.8-4.2,1.8-6.2,2.9c-22.7,12.8-30.6,41.6-17.8,64.3
				S71.8,178.4,94.5,165.6z"/>
			<path class="st5" d="M100.2,161.8c13.1-10.2,19.7-26.3,17.9-42.3c-12,4.7-25.1,4.1-36.3-0.9c-1.2,9.7,0.6,19.8,5.8,28.9
				C90.9,153.2,95.2,158,100.2,161.8z"/>
			<path class="st6" d="M118.2,119.5c2.1-0.8,4.2-1.8,6.2-3c13.5-7.7,21.8-21,23.6-35.4c-13.2-5.9-28.9-5.7-42.5,2
				c-2,1.1-3.9,2.4-5.7,3.8c5,3.8,9.3,8.6,12.6,14.4S117.5,113.3,118.2,119.5z"/>
			<path class="st7" d="M81.9,118.5c11.2,5,24.3,5.6,36.3,0.9c-0.7-6.2-2.6-12.4-5.9-18.2s-7.6-10.6-12.6-14.4
				C89.6,94.8,83.4,106.3,81.9,118.5z"/>
			<path class="st8" d="M81.9,118.5c1.5-12.2,7.7-23.7,17.9-31.6c-12.8-9.7-30-12.4-45.5-6.4c0.7,6.2,2.6,12.4,5.8,18.2
				C65.3,107.8,73,114.6,81.9,118.5z"/>
			<path class="st9" d="M105.5,83.1c13.5-7.7,29.3-7.9,42.5-2c1.2-9.7-0.6-19.8-5.8-28.9c-12.8-22.7-41.6-30.7-64.3-17.8
				C61,44,52.3,62.4,54.3,80.5c15.5-6,32.7-3.3,45.5,6.4C101.5,85.5,103.5,84.3,105.5,83.1z"/>
		</g>
		<g>
			<path class="st10" d="M100.2,161.8c-1.8,1.4-3.7,2.7-5.7,3.8c-22.7,12.8-51.5,4.9-64.3-17.8S25.4,96.3,48,83.5
				c2-1.1,4.1-2.1,6.2-2.9c15.5-6,32.7-3.3,45.5,6.4c5,3.8,9.3,8.6,12.6,14.4s5.2,12,5.9,18.2C119.9,135.4,113.3,151.6,100.2,161.8z
				"/>
			<path class="st10" d="M148,81.1c-1.7,14.4-10,27.7-23.6,35.4c-2,1.1-4.1,2.1-6.2,3c-12,4.7-25.1,4.1-36.3-0.9
				c-8.9-4-16.6-10.7-21.8-19.8c-3.3-5.8-5.2-12-5.8-18.2C52.3,62.4,61,44,77.9,34.4c22.7-12.8,51.5-4.9,64.3,17.8
				C147.4,61.3,149.2,71.5,148,81.1z"/>
			<path class="st10" d="M148,81.1c8.9,4,16.6,10.7,21.8,19.8c12.8,22.7,4.9,51.5-17.8,64.3c-16.9,9.6-37.2,7.6-51.7-3.5
				c-5-3.8-9.3-8.6-12.6-14.4c-5.2-9.1-7-19.2-5.8-28.9c1.5-12.2,7.7-23.7,17.9-31.6c1.8-1.4,3.7-2.7,5.7-3.8
				C119,75.4,134.8,75.2,148,81.1z"/>
		</g>
	</g>
</g>
</svg>
