<?xml version="1.0" encoding="utf-8"?>
<!-- Generator: Adobe Illustrator 19.2.1, SVG Export Plug-In . SVG Version: 6.00 Build 0)  -->
<svg version="1.1" id="Layer_2_copy_2" xmlns="http://www.w3.org/2000/svg" xmlns:xlink="http://www.w3.org/1999/xlink" x="0px"
	 y="0px" viewBox="0 0 211 150" style="enable-background:new 0 0 211 150;" xml:space="preserve">
<style type="text/css">
	.st0{fill:#FFFFFF;}
	.st1{enable-background:new    ;}
</style>
<g>
	<g>
		<path class="st0" d="M185.9,58.6L185.9,58.6L185.9,58.6c0,0.1-0.1,0.1-0.3,0.2c-0.1,0-0.1,0-0.1,0s0,0-0.1,0c0,0,0,0-0.1,0l0,0
			l0,0l0,0h-0.1l0,0l0,0l0,0c0,0,0,0-0.1,0H185l0,0l0,0h-0.1l0,0h-0.1l0,0l0,0l0,0l0,0l0,0l0,0l0,0l0,0l0,0l0,0l0,0h-0.1l0,0
			c0,0-0.1,0-0.2,0c-0.1,0-0.2,0-0.3,0h-0.1H184h-0.1c-0.1,0-0.1,0-0.1,0l0,0c0,0,0,0-0.1,0c-6.1,0-14.7,0-25.3,0
			c-1.4,0-2.9,0-4.4,0c-0.1,0-0.1,0-0.1,0.2c0,0.8,0,1.7,0,2.5c0,3.4,0,6.9,0,10.6c0,7.3,0,15.2,0,23.5s0,17.1,0,26.3
			c0,1.3,0,2.5,0,3.8v1.7c0,0.1,0,0.3,0,0.4h-0.4h-0.8c-0.8,0-1.6,0-2.4,0c-2.3,0-4.7,0-7.1,0c-4.8,0-9.6,0-14.6,0
			c-18.9,0-35.9,0-37.8,0c-2,0-4,0-4.8,0c-0.7,0-2.2,0-3.4,0c-2.5,0-33.1,0-34.1,0c-0.2,0-2.5,0-6.2,0c-1.8,0-4,0-6.3,0
			c-1.2,0-2.4,0-3.7,0c-1,0-1.9,0-2.9,0h-0.5c-0.1,0-0.2,0-0.2,0v-0.2v-0.9c0-0.6,0-1.1,0-1.7c0-26.9,0-62.2,0-80.8
			c0-4.3,0-8.7,0-12.5c0-2.2,0-4.2,0-5.8c0-0.2,0-0.3,0-0.5v-0.2v-0.1c0,0,0-0.1,0.1-0.1c0.3,0,0.6,0,0.9,0c0.6,0,1.1,0,1.7,0
			s1,0,1.4,0c2.8,0,5.6,0,6.2,0c0.7,0,25.5,0,55.3,0H165c5.9,0,11.5,0,16.7,0c1.4,0,2.8,0,4.2,0c0.6,0,1.2,0,1.8,0h0.1h0.1v0.2v0.4
			v0.9c0,0.8,0,1.6,0,2.4c0,2.4,0,4.8,0,7c0,7.6,0,13.9,0,19c0,0.1,0,0.2,0,0.2l0,0c0,0,0,0,0,0.1v0.1c0,0,0,0,0,0.1l0,0l0,0v0.1
			l0,0l0,0c0,0,0,0,0,0.1s0,0.2,0,0.2l0,0v0.1l0,0l0,0c0,0,0,0,0,0.1s0,0.1,0,0.1l0,0l0,0c0,0.1,0,0.2,0,0.2l0,0l0,0l0,0l0,0
			c0,0,0,0,0,0.1v0.1l0,0c0,0,0,0,0,0.1c0,0,0,0,0,0.1v0.1c0,0,0,0,0,0.1s0,0.1,0,0.1l0,0c0,0,0,0,0,0.1l0,0l0,0l0,0
			c0,0-0.1,0-0.1,0.1l0,0c0,0,0,0-0.1,0l0,0l0,0c0,0,0,0.1-0.1,0l0,0c0,0,0,0-0.1,0s-0.1,0-0.1,0l0,0l0,0c0,0-0.1,0.1-0.1,0
			c0,0,0,0-0.1,0s-0.2,0-0.2,0l0,0l0,0l0,0l0,0l0,0c0,0,0,0,0,0.1c0,0,0,0-0.1,0h-0.1c0,0,0,0-0.1,0c0,0,0,0-0.1,0l0,0l0,0
			c0,0-0.1,0.1-0.1,0l0,0c0,0,0,0-0.1,0h-0.1l0,0l0,0l0,0l0,0l0,0l0,0l0,0l0,0l0,0l0,0h-0.1l0,0h-0.1c0,0-0.1-0.1-0.1,0l0,0l0,0l0,0
			l0,0l0,0l0,0l0,0l0,0c0,0-0.1-0.1,0-0.1v-0.1V57l0,0c0,0,0,0,0-0.1c0,0,0,0,0-0.1v-0.2v-0.1v-0.1v-0.1l0,0c0,0,0,0,0-0.1l0,0
			c0,0,0,0,0-0.1V56l0,0v-0.1v-0.1v-0.1l0,0v-0.2c0,0,0,0,0-0.1v-0.1c0,0,0,0,0-0.1v-0.1l0,0l0,0c0,0,0-0.1,0-0.2
			c0-5.9,0-13.1,0-21.3c0-1.9,0-3.9,0-6v-0.1h-0.1c-0.4,0-0.7,0-1.1,0c-1.1,0-2.3,0-3.4,0c-4.6,0-9.5,0-14.6,0
			c-20.4,0-44.3,0-70.4,0c-13,0-26.6,0-40.5,0c-7,0-14,0-21.2,0h-2.6c-0.1,0-0.1,0-0.2,0v0.2c0,1.8,0,3.6,0,5.3c0,3.6,0,7.2,0,10.8
			c0,15.6,0,31.5,0,47.4c0,7.9,0,15.9,0,23.8c0,2,0,4,0,5.9v3v1.2c0,0,0,0.2,0,0.1c3.6,0,7.2,0,10.8,0c28.6,0,56.4,0,82.2,0
			c6.4,0,12.8,0,18.9,0c2.7,0,5.4,0,8,0v-0.1v-0.7c0-0.7,0-1.5,0-2.2c0-1.5,0-3,0-4.4c0-11.7,0-22.7,0-32.9c0-5.1,0-10,0-14.6
			c0-2.3,0-4.6,0-6.8c0-1.1,0-2.2,0-3.3c0-0.6,0-1.2,0-1.9c0-0.5,0-1,0-1.5v-0.4v-0.2v-0.1h0.1h0.7c8.6,0,16.2,0,22.6,0
			c3.7,0,6.7,0,8.9,0h0.1h0.1c0.1,0,0.1,0,0.1,0l0,0l0,0c0,0,0,0,0.1,0h0.1l0,0c0,0,0,0,0-0.1c0.1,0,0.1,0,0.1,0h0.1l0,0h0.1h0.1
			c0,0,0,0,0.1,0c0,0,0.1,0,0.2,0c0.1,0,0.1,0,0.1,0l0,0l0,0l0,0l0,0l0,0l0,0h0.1h0.1h0.1l0,0l0,0l0,0l0,0c0,0,0.1,0,0.2,0
			c0,0,0,0,0.1,0c0,0,0,0,0.1,0l0,0l0,0h0.1l0,0c0,0,0,0,0.1,0h0.1c0,0,0,0,0.1,0s0.1,0,0.1,0.1l0,0l0,0l0,0l0,0v0.1v0.1v0.1
			c0,0.1,0,0.1,0,0.1l0,0v0.1c0,0.1,0,0.1,0,0.1l0,0v0.2c0,0,0,0,0,0.1v0.1v0.1v0.2c0,0,0,0.1,0,0.2c0,0.2,0,0.3,0,0.3
			C185.9,58.5,185.9,58.5,185.9,58.6L185.9,58.6z"/>
	</g>
</g>
<path class="st0" d="M99,38.2c-0.1,0-0.1-0.1-0.1-0.2c0-0.1-0.1-0.2-0.1-0.2s-0.3,0-0.8,0.6c-1.3,1.3-2.4,3.1-2.9,4.9
	c-0.1,0.3-0.2,0.7-0.2,1.2c0,0.1-0.1,0.9-0.1,1.4c0,0.9,0.3,1.5,0.7,1.9c0.1,0.1,0.4,0.2,0.7,0.2c0.5,0,1.1-0.3,1.4-0.7
	c2.1-3.2,2.5-6.6,2.5-7.2c0-0.4,0-0.5,0-0.7C99.7,38.9,99.5,38.4,99,38.2z"/>
<path class="st0" d="M67.3,38.2c-0.1,0-0.1-0.1-0.1-0.2c0-0.1-0.1-0.2-0.1-0.2s-0.3,0-0.8,0.6c-1.3,1.3-2.4,3.1-2.9,4.9
	c-0.1,0.3-0.2,0.7-0.2,1.2c0,0.1-0.1,0.9-0.1,1.4c0,0.9,0.3,1.5,0.7,1.9c0.1,0.1,0.4,0.2,0.7,0.2c0.5,0,1.1-0.3,1.4-0.7
	c2.1-3.2,2.5-6.6,2.5-7.2c0-0.4,0-0.5,0-0.7C68,38.9,67.8,38.4,67.3,38.2z"/>
<path class="st0" d="M79.5,37c-0.1,0-0.2,0-0.4,0.1c-1.2,0.3-2.4,0.4-3.3,1.4c-0.5,1.4-1.2,2.9-1.5,4.4c0.5,0.5,0.9,0.7,1.2,0.7
	c0.1,0,0.1,0,0.3-0.1c1.3-0.9,2.5-2.2,3.2-3.6c0.4-0.7,1-2,1-2.7C80,37.1,80,37,79.5,37z"/>
<path class="st0" d="M89.3,37.5c-0.8,0-1.5,0.4-2.1,0.6c0.1,0.1,0.1,0.1,0.1,0.1c0,0.4-0.2,0.3-0.4,0.6c-1.3,3-2.8,6-3.3,9.1
	c0,0.1,0,0.1,0.1,0.2c0.1,0,0.4,0.1,0.6,0.1c0.7,0,1.4-0.3,1.9-0.8c1.9-1.9,3.2-4.1,4.1-6.5c0.2-0.4,0.5-1.1,0.5-1.6
	c0-0.1-0.1-0.8-0.2-1C90.3,37.7,89.8,37.5,89.3,37.5z"/>
<path class="st0" d="M48.1,37.5c-0.8,0-1.5,0.4-2.1,0.6c0.1,0.1,0.1,0.1,0.1,0.1c0,0.4-0.2,0.3-0.4,0.6c-1.3,3-2.8,6-3.3,9.1
	c0,0.1,0,0.1,0.1,0.2c0.1,0,0.4,0.1,0.6,0.1c0.7,0,1.4-0.3,1.9-0.8c1.9-1.9,3.2-4.1,4.1-6.5c0.2-0.4,0.5-1.1,0.5-1.6
	c0-0.1-0.1-0.8-0.2-1C49.1,37.7,48.6,37.5,48.1,37.5z"/>
<path class="st0" d="M57,42.1c1.2-0.8,2.3-2.1,2.3-3.9c0-0.3-0.1-0.5-0.1-0.6c-0.2-0.2-0.5-0.3-0.9-0.3s-0.9,0.1-1.3,0.2
	c-0.1,0-0.2,0.1-0.3,0.2c-0.8,1.4-1.4,2.6-2,4.5c0,0.1,0,0.1,0.1,0.1c0.1,0.1,0.4,0.1,0.5,0.1c0.3,0,0.4,0,0.7-0.1
	C56.4,42.3,56.5,42.5,57,42.1z"/>
<g class="st1">
	<path class="st0" d="M48.8,70.8c0.6-0.4,1.1-0.5,1.3-0.4c0.7,0.2,1.3,0.5,1.7,0.9c0.4,0.4,0.7,1.2,0.9,2.2c0.2,1,0.2,2,0,2.9
		c-0.2,0.9-0.7,2-1.5,3.4c-0.9,1.8-2.1,3.2-3.4,4c-1.3,0.8-2.4,0.9-3.2,0.2c-0.5-0.4-0.8-0.6-0.9-0.8c-0.4-0.6-0.4-1.9,0-3.9
		c0.1-0.1,0.1-0.2,0.1-0.3c0-0.1,0-0.3,0-0.4c0-0.1,0.1-0.3,0.2-0.6c0.1-0.3,0.1-0.5,0.2-0.8c0.6-1.8,1.3-3.3,2.2-4.5
		C47.3,71.8,48.1,71.1,48.8,70.8z M51.3,74.9c0-0.5,0-1,0-1.6c0-0.6-0.2-1-0.4-1.3c-0.4-0.4-0.8-0.5-1.4-0.2c-0.4,0.2-1,0.7-1.8,1.7
		c-0.8,1-1.2,1.6-1.2,1.9c0,0.1,0,0.2-0.1,0.3c-0.4,0.4-0.7,1.2-1.2,2.6c-0.4,1.4-0.6,2.4-0.7,3.2c0,0.7,0,1.1,0,1.1
		c0,0,0.1,0.2,0.3,0.6c0.1,0.1,0.2,0.2,0.4,0.3s0.4,0.1,0.6,0c0.5-0.1,0.9-0.2,1.3-0.5s0.9-0.8,1.6-1.6c0.7-0.8,1.1-1.4,1.4-1.8
		c0.2-0.4,0.5-1.3,0.9-2.5C51.1,76.1,51.3,75.4,51.3,74.9z"/>
	<path class="st0" d="M53.8,80l0.1-0.7c0.2,0,0.3-0.3,0.4-0.8c0-0.1,0.1-0.2,0.1-0.4c0.1-0.3,0.1-0.4,0.1-0.5
		c0.1-0.3,0.3-0.8,0.5-1.3c0.4-1.5,0.8-2.6,1.1-3.4c0.1-0.1,0.1-0.3,0.2-0.4c0.1-0.1,0.1-0.3,0.1-0.3c0-0.1,0-0.1,0.1-0.2
		c0-0.1,0-0.2,0-0.2c-0.2-0.2-0.1-0.5,0.4-0.9c0.2-0.3,0.4-0.4,0.6-0.4c0.2,0,0.4,0,0.7,0c0.3,0,0.8,0,1.5,0c0.1,0,0.2,0.1,0.4,0.2
		c0.5,0.2,0.7,0.3,0.7,0.3c0,0.1,0.1,0.2,0.2,0.2c0.2,0,0.4,0.2,0.7,0.5c0.7,0.8,1,1.6,0.9,2.4c-0.1,0.5-0.1,0.9-0.2,1
		c-0.2,0.2-0.3,0.3-0.3,0.4c0,0.1-0.2,0.4-0.5,0.9s-0.7,0.8-1,1.1c-0.3,0.4-0.8,0.8-1.2,1.1c-1.6,0.7-2.7,1-3.3,1c0,0-0.2,0-0.4,0.1
		s-0.4,0.1-0.5,0.2S55.1,80,55,80.2c-0.1,0.3-0.2,0.5-0.2,0.6c-0.1,0.1-0.3,0.6-0.5,1.5c-0.3,0.8-0.4,1.4-0.5,1.7
		c-0.1,0.3-0.1,0.5-0.2,0.5c-0.1,0-0.2,0.1-0.3,0.1c-0.2,0-0.3-0.1-0.4-0.3c-0.1-0.1-0.2-0.3-0.1-0.6s0.3-1.1,0.6-2.2
		c0.1-0.3,0.1-0.5,0.2-0.8C53.8,80.3,53.8,80,53.8,80z M55.7,77.9l0,0.4c0,0,0,0.1,0,0.1c0,0.1,0.2,0.1,0.6,0
		c0.9-0.1,1.8-0.5,2.8-1.1c0.5-0.3,0.9-0.8,1.4-1.4c0.7-1.2,1.1-2.1,0.9-2.7c-0.1-0.3-0.2-0.7-0.5-1c-0.6-0.6-1.3-0.8-2.3-0.6
		c-0.2,0.1-0.4,0.2-0.5,0.3s-0.2,0.4-0.4,0.8c-0.3,0.6-0.6,1.2-0.8,1.9c-0.3,1-0.5,1.8-0.8,2.3S55.8,77.9,55.7,77.9z"/>
	<path class="st0" d="M70.1,72.1c-0.5,0-0.8,0.1-1,0.1c-0.1,0.4-0.2,0.8-0.5,1.3c0,0.1-0.1,0.3-0.2,0.5c-0.1,0.4-0.2,0.6-0.2,0.7
		c-0.1,0.1-0.3,0.7-0.7,1.9c-0.4,1.2-0.6,1.8-0.6,1.8l-1,2.6c-0.3,0.5-0.5,1-0.6,1.6c-0.1,0.5-0.3,1-0.4,1.3
		c-0.1,0.3-0.2,0.5-0.2,0.6c0,0.1-0.1,0.1-0.1,0.1s-0.1,0-0.2,0s-0.2-0.1-0.3-0.3c-0.1-0.2-0.2-0.4-0.2-0.6c0-0.2,0.1-0.7,0.3-1.4
		s0.4-1.2,0.6-1.6c0-0.2,0.1-0.4,0.1-0.6c0.1-0.2,0.1-0.3,0.1-0.3c0.1-0.2,0.3-0.4,0.3-0.8c0.1-0.4,0.6-1.9,1.5-4.7
		c0.1-0.2,0.2-0.5,0.3-0.8c0.1-0.1,0.2-0.2,0.2-0.4c0.2-0.5,0.3-0.7,0.4-0.7v0c-2,0.2-3.1,0.3-3.3,0.3c-0.6,0.1-0.9-0.1-0.8-0.5
		c0.1-0.3,0.3-0.5,0.8-0.5c0.3-0.1,0.9-0.2,1.9-0.3c0.9-0.1,2.2-0.2,3.9-0.4c0.1,0,0.4,0,0.9,0.1c0.5,0.1,0.8,0.1,1,0.2
		c0.5,0.1,0.9,0.4,1,0.8c0.1,0.2,0,0.3-0.2,0.4c0,0,0,0-0.1,0c-0.5,0.1-0.9,0.2-1.2,0c-0.1-0.1-0.2-0.1-0.2-0.2
		C71.4,72.3,70.9,72.2,70.1,72.1z"/>
	<path class="st0" d="M79.7,70.9c0.7-0.1,1.2-0.1,1.5-0.1c0.3,0,0.4,0.1,0.5,0.3c0.2,0.6,0,0.8-0.4,0.8c-0.2,0.1-0.8,0.1-1.6,0.1
		c-0.9,0.1-1.5,0.2-1.5,0.3c0,0-0.1,0.1-0.1,0.2s-0.1,0.1-0.1,0.2c0,0.1,0,0.5-0.2,0.9s-0.3,1-0.5,1.5c-0.4,1.3-0.7,2.1-0.8,2.2
		c-0.1,0.2-0.1,0.4-0.2,0.6c-0.3,0.9-0.6,1.8-0.9,2.8c-0.3,0.9-0.5,1.6-0.6,2.1c0.3,0,0.8-0.1,1.5-0.1c0.7-0.1,1.2-0.1,1.4-0.1
		c0.2,0,0.3,0.1,0.4,0.3c0.3,0.5,0.3,0.8-0.2,0.9c-0.2,0.1-0.6,0.1-1.1,0.1c-1.1,0-1.8,0.1-2.1,0.1c-0.3,0-0.5,0.1-0.5,0.2
		c0,0.2-0.2,0.2-0.6,0.1c-0.2-0.2-0.8-0.3-1.8-0.3c-0.3,0-0.5,0-0.8-0.1c-0.2-0.1-0.3-0.3-0.3-0.4c0-0.3,0.6-0.5,1.7-0.5l1.1,0
		l0.2-0.4c0.1-0.3,0.2-0.7,0.4-1.1c0.1-0.4,0.3-0.9,0.5-1.4c0.5-1.4,0.7-2.2,0.7-2.3c0.2-0.4,0.4-1.1,0.7-2.1
		c0.6-1.9,0.9-2.9,0.8-2.9c-0.1,0-0.5,0-1.1,0.1c-0.6,0.1-0.9,0.1-1,0.1c-0.1,0.1-0.2,0.1-0.3,0.1s-0.3-0.1-0.3-0.3
		c0-0.2,0-0.4,0.1-0.5c0.1-0.1,0.4-0.2,0.9-0.4s1-0.3,1.5-0.3c0.5-0.1,0.9-0.2,1.2-0.4c0.3-0.1,0.5-0.1,0.7-0.1
		C78.4,71,78.9,71,79.7,70.9z"/>
	<path class="st0" d="M85.5,70.8c0.6-0.4,1.1-0.5,1.3-0.4c0.7,0.2,1.3,0.5,1.7,0.9c0.4,0.4,0.7,1.2,0.9,2.2c0.2,1,0.2,2,0,2.9
		c-0.2,0.9-0.7,2-1.5,3.4c-0.9,1.8-2.1,3.2-3.4,4c-1.3,0.8-2.4,0.9-3.2,0.2c-0.5-0.4-0.8-0.6-0.9-0.8c-0.4-0.6-0.4-1.9,0-3.9
		c0.1-0.1,0.1-0.2,0.1-0.3c0-0.1,0-0.3,0-0.4c0-0.1,0.1-0.3,0.2-0.6c0.1-0.3,0.1-0.5,0.2-0.8c0.6-1.8,1.3-3.3,2.2-4.5
		C84,71.8,84.8,71.1,85.5,70.8z M88,74.9c0-0.5,0-1,0-1.6c0-0.6-0.2-1-0.4-1.3c-0.4-0.4-0.8-0.5-1.4-0.2c-0.4,0.2-1,0.7-1.8,1.7
		c-0.8,1-1.2,1.6-1.2,1.9c0,0.1,0,0.2-0.1,0.3c-0.4,0.4-0.7,1.2-1.2,2.6c-0.4,1.4-0.6,2.4-0.7,3.2c0,0.7,0,1.1,0,1.1
		c0,0,0.1,0.2,0.3,0.6c0.1,0.1,0.2,0.2,0.4,0.3s0.4,0.1,0.6,0c0.5-0.1,0.9-0.2,1.3-0.5s0.9-0.8,1.6-1.6c0.7-0.8,1.1-1.4,1.4-1.8
		c0.2-0.4,0.5-1.3,0.9-2.5C87.9,76.1,88,75.4,88,74.9z"/>
	<path class="st0" d="M94.4,70.7c0.3,0,0.6,0.2,0.7,0.6c0.3,0.8,0.5,2.5,0.4,5c-0.1,1.7,0,2.9,0.2,3.6c0.1,0.6,0.3,1.3,0.4,2
		c0.2,0.7,0.3,1.1,0.4,1.1c0.4,0,1.2-2.1,2.2-6.3c0.2-0.8,0.4-1.6,0.5-2.6c0.4-1.6,0.6-2.5,0.6-2.7v-0.4c0.1,0,0.1-0.1,0.2-0.3
		c0.1-0.2,0.1-0.4,0.1-0.7s0.1-0.5,0.3-0.7c0.1-0.1,0.2-0.2,0.5-0.1c0.3,0.1,0.5,0.2,0.5,0.4c0,0.3-0.1,1.3-0.6,3.1
		c0,0.2-0.1,0.6-0.2,1.3c-0.2,0.7-0.3,1.2-0.3,1.5c-0.1,0.9-0.3,1.3-0.4,1.3c-0.5,2.3-1.2,4.5-2.1,6.4c-0.7,1.6-1.4,1.8-2.3,0.7
		c-0.4-0.6-0.8-1.3-1-2.2c-0.1-0.3-0.2-0.9-0.3-1.8c-0.3-0.7-0.4-1.5-0.3-2.5c0-0.3,0-0.8,0.1-1.4s0.1-1.1,0.1-1.4
		c0-0.9-0.1-1.4-0.2-1.4s-0.3,0.3-0.5,1c-0.2,0.7-0.5,1.3-0.7,1.8c-0.6,1.3-0.9,2.2-1.1,2.4s-0.3,0.7-0.4,1.2
		c-0.9,2.3-1.4,3.9-1.6,4.6c-0.1,0.3-0.2,0.5-0.3,0.6c-0.2,0.3-0.4,0.3-0.8-0.1c-0.2-0.2-0.3-0.4-0.3-0.5c0-0.2,0-0.4,0.1-0.8
		c0.1-0.4,0.3-0.9,0.5-1.5c0.3-0.6,0.4-1.2,0.5-1.7c0.5-1.1,0.8-1.8,0.9-2.3c0.1-0.5,0.3-0.8,0.4-1c0.1-0.2,0.3-0.5,0.4-0.9
		c0.2-0.4,0.3-0.7,0.5-1c0.1-0.3,0.3-0.7,0.4-1.2c0.2-0.5,0.3-0.8,0.4-1.1c0.2-0.7,0.5-1.2,0.8-1.7C93.8,70.9,94.1,70.7,94.4,70.7z"
		/>
	<path class="st0" d="M111.3,73.6c1.1-0.7,1.7-1,1.8-1c0.1,0,0.2,0.1,0.4,0.2s0.2,0.2,0.2,0.3c0.1,0.1,0,0.3-0.1,0.6
		c-0.1,0.3-0.4,0.9-0.7,1.8s-0.5,1.6-0.7,2.1c-0.1,0.5-0.3,0.9-0.4,1.4c-0.2,0.4-0.3,0.8-0.4,1.2c-0.3,0.6-0.5,1.5-0.7,2.5
		c-0.1,0.1-0.1,0.3-0.2,0.5c-0.1,0.4-0.2,0.6-0.3,0.7c-0.1,0.1-0.3,0-0.6-0.3c-0.1-0.1-0.1-0.2-0.1-0.3c0-0.2,0.2-1.2,0.7-2.9
		c0.1-0.1,0.3-0.6,0.6-1.6c0.3-1,0.6-1.9,0.8-2.6l0.4-1.5c-0.7,0.4-1.4,0.8-2.2,1.4c-0.7,0.5-1.2,0.9-1.4,1
		c-0.4,0.3-0.6,0.4-0.7,0.5c-0.1,0-0.2,0-0.3,0c-0.4-0.3-0.5-0.6-0.3-0.9c0,0,0.3-0.2,0.7-0.5c0.5-0.3,0.7-0.5,0.8-0.5
		c0.1,0,0.1,0,0.2-0.1c0.1,0,0.1-0.1,0.2-0.2s0.2-0.1,0.2-0.2c0-0.1,0.2-0.1,0.3-0.3c0.2-0.1,0.5-0.3,0.8-0.6S111,73.7,111.3,73.6z"
		/>
</g>
<g class="st1">
	<path class="st0" d="M48.9,99.1c0.6-0.4,1.1-0.5,1.3-0.4c0.7,0.2,1.3,0.5,1.7,0.9c0.4,0.5,0.6,1.2,0.8,2.2c0.2,1,0.2,2,0,2.9
		c-0.2,0.9-0.7,2-1.6,3.4c-1,1.8-2.1,3.1-3.4,3.9c-1.3,0.8-2.4,0.9-3.3,0.2c-0.5-0.4-0.8-0.7-0.9-0.9c-0.4-0.6-0.3-1.9,0.1-3.9
		c0.1-0.1,0.1-0.2,0.1-0.3c0-0.1,0-0.3,0-0.4c0-0.1,0.1-0.3,0.2-0.6c0.1-0.3,0.2-0.5,0.2-0.8c0.6-1.8,1.4-3.3,2.3-4.4
		C47.4,100,48.3,99.4,48.9,99.1z M51.3,103.3c0-0.5,0-1,0-1.6c0-0.6-0.1-1-0.4-1.3c-0.4-0.4-0.8-0.5-1.4-0.2c-0.4,0.2-1,0.7-1.9,1.7
		c-0.9,1-1.3,1.6-1.3,1.8c0,0.1,0,0.2-0.1,0.3c-0.4,0.4-0.8,1.2-1.2,2.6c-0.4,1.4-0.7,2.4-0.7,3.1c-0.1,0.7-0.1,1.1-0.1,1.1
		c0,0,0.1,0.2,0.3,0.6c0.1,0.1,0.2,0.2,0.4,0.3c0.2,0.1,0.4,0.1,0.6,0.1c0.5,0,0.9-0.2,1.3-0.5c0.4-0.3,1-0.8,1.6-1.6
		c0.7-0.7,1.1-1.3,1.4-1.8c0.3-0.4,0.6-1.3,1-2.5C51.2,104.4,51.3,103.7,51.3,103.3z"/>
	<path class="st0" d="M53.8,108.4l0.1-0.7c0.2,0,0.3-0.3,0.5-0.8c0-0.1,0.1-0.2,0.1-0.4c0.1-0.3,0.1-0.4,0.2-0.5
		c0.1-0.3,0.3-0.8,0.6-1.3c0.4-1.5,0.8-2.6,1.2-3.3c0.1-0.1,0.1-0.3,0.2-0.4c0.1-0.1,0.1-0.3,0.1-0.3c0-0.1,0-0.1,0.1-0.2
		c0-0.1,0-0.2,0-0.2c-0.2-0.2-0.1-0.5,0.4-0.9c0.2-0.2,0.4-0.4,0.6-0.4c0.2,0,0.4,0,0.7,0c0.3,0,0.8,0.1,1.5,0.1
		c0.1,0,0.2,0.1,0.4,0.2c0.5,0.2,0.7,0.3,0.7,0.3c0,0.1,0.1,0.2,0.2,0.2c0.2,0,0.4,0.2,0.7,0.5c0.7,0.8,1,1.6,0.8,2.5
		c-0.1,0.5-0.2,0.9-0.3,1c-0.2,0.2-0.3,0.3-0.3,0.4c0,0.1-0.2,0.4-0.5,0.8c-0.4,0.4-0.7,0.8-1,1.1c-0.4,0.4-0.8,0.7-1.3,1
		c-1.6,0.7-2.7,1-3.3,0.9c0,0-0.2,0-0.4,0c-0.3,0-0.4,0.1-0.5,0.2c-0.1,0.1-0.1,0.2-0.3,0.5c-0.1,0.3-0.2,0.5-0.2,0.6
		c-0.1,0.1-0.3,0.6-0.6,1.5c-0.3,0.8-0.5,1.4-0.6,1.7c-0.1,0.3-0.2,0.5-0.2,0.5c-0.1,0-0.2,0.1-0.3,0.1c-0.2,0-0.3-0.1-0.4-0.3
		c-0.1-0.1-0.2-0.3-0.1-0.6c0.1-0.3,0.3-1,0.7-2.1c0.1-0.3,0.2-0.5,0.2-0.8C53.7,108.7,53.8,108.5,53.8,108.4z M55.7,106.4l0,0.4
		c0,0,0,0.1,0,0.1c0,0.1,0.2,0.1,0.6,0c0.9-0.1,1.8-0.4,2.8-1c0.5-0.3,1-0.8,1.4-1.3c0.8-1.2,1.1-2.1,1-2.7c-0.1-0.3-0.2-0.7-0.5-1
		c-0.5-0.6-1.3-0.8-2.3-0.7c-0.2,0.1-0.4,0.2-0.5,0.3c-0.1,0.1-0.2,0.4-0.4,0.8c-0.3,0.6-0.6,1.2-0.9,1.9c-0.3,1-0.6,1.8-0.8,2.3
		C55.9,106.1,55.7,106.4,55.7,106.4z"/>
	<path class="st0" d="M70.3,100.9c-0.5,0-0.8,0-1,0c-0.1,0.4-0.2,0.8-0.5,1.3c0,0.1-0.1,0.3-0.2,0.5c-0.1,0.4-0.2,0.6-0.2,0.7
		c-0.1,0.1-0.3,0.7-0.7,1.9c-0.4,1.1-0.6,1.7-0.6,1.8l-1,2.6c-0.3,0.5-0.5,1-0.7,1.6c-0.2,0.5-0.3,1-0.4,1.3
		c-0.1,0.3-0.2,0.5-0.2,0.6c0,0.1-0.1,0.1-0.2,0.1c-0.1,0-0.1,0-0.2,0c-0.1,0-0.2-0.1-0.3-0.3c-0.1-0.2-0.2-0.4-0.2-0.6
		c0-0.2,0.1-0.7,0.4-1.4s0.4-1.2,0.6-1.6c0-0.2,0.1-0.4,0.2-0.6c0.1-0.2,0.1-0.3,0.1-0.3c0.2-0.2,0.3-0.4,0.3-0.8
		c0.1-0.4,0.6-1.9,1.6-4.7c0.1-0.2,0.2-0.4,0.4-0.8c0.1-0.1,0.2-0.2,0.2-0.4c0.2-0.4,0.3-0.7,0.4-0.7l0,0c-2,0.1-3.1,0.2-3.3,0.2
		c-0.6,0.1-0.9-0.1-0.7-0.5c0.1-0.3,0.4-0.5,0.9-0.5c0.3-0.1,0.9-0.1,1.9-0.2c0.9-0.1,2.2-0.2,3.9-0.3c0.1,0,0.4,0,0.9,0.1
		c0.5,0.1,0.8,0.1,1,0.2c0.5,0.1,0.8,0.4,0.9,0.8c0,0.2,0,0.3-0.2,0.4c0,0,0,0-0.1,0c-0.5,0.1-0.9,0.1-1.2,0
		c-0.1-0.1-0.2-0.1-0.2-0.2C71.5,101.1,71,101,70.3,100.9z"/>
	<path class="st0" d="M79.8,100c0.7-0.1,1.3-0.1,1.5,0c0.3,0,0.4,0.2,0.5,0.3c0.1,0.6,0,0.8-0.4,0.8c-0.2,0-0.8,0.1-1.6,0.1
		c-0.9,0.1-1.5,0.1-1.5,0.2c0,0-0.1,0.1-0.1,0.2c-0.1,0.1-0.1,0.1-0.1,0.2c0,0.1-0.1,0.5-0.2,0.9c-0.2,0.5-0.3,1-0.5,1.5
		c-0.5,1.3-0.7,2-0.8,2.2c-0.1,0.2-0.2,0.4-0.2,0.6c-0.3,0.9-0.6,1.8-0.9,2.8c-0.3,0.9-0.5,1.6-0.7,2.1c0.3,0,0.8-0.1,1.5-0.1
		c0.7,0,1.2-0.1,1.4,0c0.2,0,0.3,0.1,0.4,0.3c0.3,0.5,0.3,0.8-0.2,0.9c-0.2,0-0.6,0.1-1.1,0c-1.1,0-1.8,0-2.1,0.1
		c-0.3,0-0.5,0.1-0.5,0.2c0,0.2-0.2,0.2-0.6,0.1c-0.2-0.2-0.8-0.4-1.8-0.3c-0.3,0-0.5,0-0.8-0.1c-0.2-0.1-0.3-0.3-0.3-0.4
		c0-0.3,0.6-0.5,1.7-0.5l1.1,0l0.2-0.4c0.1-0.3,0.2-0.7,0.4-1.1c0.1-0.4,0.3-0.9,0.5-1.4c0.5-1.4,0.8-2.1,0.8-2.3
		c0.2-0.4,0.4-1.1,0.7-2.1c0.7-1.9,0.9-2.9,0.8-2.9c-0.1,0-0.5,0-1.1,0c-0.6,0-0.9,0.1-1,0.1c-0.1,0.1-0.2,0.1-0.3,0.1
		c-0.2-0.1-0.3-0.2-0.3-0.3c0-0.2,0-0.4,0.1-0.5c0.1-0.1,0.4-0.2,0.9-0.3c0.5-0.1,1-0.2,1.5-0.3c0.5,0,0.9-0.2,1.2-0.4
		c0.3-0.1,0.5-0.1,0.7-0.1C78.6,100,79,100,79.8,100z"/>
	<path class="st0" d="M85.6,100c0.6-0.4,1.1-0.5,1.3-0.4c0.7,0.2,1.3,0.5,1.7,0.9c0.4,0.5,0.6,1.2,0.8,2.2c0.2,1,0.2,2,0,2.9
		c-0.2,0.9-0.7,2-1.6,3.4c-1,1.8-2.1,3.1-3.4,3.9c-1.3,0.8-2.4,0.9-3.3,0.2c-0.5-0.4-0.8-0.7-0.9-0.9c-0.4-0.6-0.3-1.9,0.1-3.9
		c0.1-0.1,0.1-0.2,0.1-0.3c0-0.1,0-0.3,0-0.4c0-0.1,0.1-0.3,0.2-0.6c0.1-0.3,0.2-0.5,0.2-0.8c0.6-1.8,1.4-3.3,2.3-4.4
		C84.2,100.9,85,100.3,85.6,100z M88,104.1c0-0.5,0-1,0-1.6c0-0.6-0.1-1-0.4-1.3c-0.4-0.4-0.8-0.5-1.4-0.2c-0.4,0.2-1,0.7-1.9,1.7
		c-0.9,1-1.3,1.6-1.3,1.8c0,0.1,0,0.2-0.1,0.3c-0.4,0.4-0.8,1.2-1.2,2.6c-0.4,1.4-0.7,2.4-0.7,3.1c-0.1,0.7-0.1,1.1-0.1,1.1
		c0,0,0.1,0.2,0.3,0.6c0.1,0.1,0.2,0.2,0.4,0.3s0.4,0.1,0.6,0.1c0.5,0,0.9-0.2,1.3-0.5c0.4-0.3,1-0.8,1.6-1.6
		c0.7-0.7,1.1-1.3,1.4-1.8c0.3-0.4,0.6-1.3,1-2.5C87.9,105.3,88,104.6,88,104.1z"/>
	<path class="st0" d="M94.6,100c0.3,0,0.6,0.2,0.7,0.6c0.3,0.8,0.4,2.5,0.3,5c-0.1,1.7,0,2.9,0.1,3.6c0.1,0.6,0.2,1.3,0.4,2
		c0.2,0.7,0.3,1.1,0.4,1.1c0.4,0,1.2-2.1,2.4-6.3c0.2-0.8,0.4-1.6,0.6-2.6c0.5-1.6,0.7-2.5,0.7-2.7l0-0.4c0.1,0,0.1-0.1,0.2-0.3
		c0.1-0.2,0.1-0.4,0.1-0.7c0-0.3,0.1-0.5,0.3-0.7c0.1-0.1,0.2-0.2,0.5-0.1c0.3,0.1,0.5,0.2,0.5,0.4c0,0.3-0.2,1.3-0.6,3
		c0,0.2-0.1,0.6-0.3,1.3c-0.2,0.7-0.3,1.2-0.4,1.5c-0.2,0.9-0.3,1.3-0.4,1.3c-0.6,2.3-1.4,4.5-2.3,6.4c-0.7,1.5-1.5,1.8-2.3,0.7
		c-0.4-0.6-0.7-1.3-0.9-2.2c-0.1-0.3-0.2-0.9-0.3-1.8c-0.3-0.7-0.3-1.5-0.3-2.5c0-0.3,0.1-0.8,0.1-1.4c0.1-0.6,0.1-1.1,0.1-1.4
		c0-0.9,0-1.4-0.1-1.4c-0.1,0-0.3,0.3-0.5,1c-0.3,0.7-0.5,1.3-0.7,1.8c-0.6,1.3-1,2.1-1.1,2.4c-0.1,0.3-0.3,0.7-0.4,1.2
		c-0.9,2.3-1.5,3.8-1.7,4.5c-0.1,0.3-0.2,0.5-0.3,0.6c-0.2,0.3-0.4,0.3-0.8-0.1c-0.2-0.2-0.3-0.4-0.3-0.5c0-0.2,0.1-0.4,0.2-0.8
		c0.1-0.4,0.3-0.8,0.6-1.4c0.3-0.6,0.5-1.2,0.6-1.7c0.5-1,0.8-1.8,0.9-2.2c0.2-0.5,0.3-0.8,0.4-1c0.1-0.2,0.3-0.5,0.5-0.9
		c0.2-0.4,0.4-0.7,0.5-1c0.1-0.3,0.3-0.7,0.4-1.2c0.2-0.5,0.3-0.8,0.4-1.1c0.2-0.7,0.5-1.2,0.8-1.7C94,100.2,94.3,100,94.6,100z"/>
	<path class="st0" d="M111.3,103l0.6,0.1c0.2,0,0.4,0.1,0.6,0.4c0.3,0.3,0.4,0.6,0.6,0.8c0.4,0.6,0.2,1.3-0.5,2.3
		c-0.2,0.2-0.6,0.6-1.3,1.3c-0.7,0.7-1.1,1.1-1.2,1.2c-0.2,0.1-0.7,0.5-1.2,1.2c-0.6,0.7-0.9,1-0.8,1c0,0.1,0,0.1,0,0.1
		s0.2,0,0.5-0.1s0.8-0.2,1.6-0.3c0.8-0.1,1.3-0.1,1.4,0l0.1,0c0.1-0.1,0.2-0.1,0.5-0.1c0.3,0,0.6,0.1,0.9,0.2
		c0.3,0.1,0.5,0.2,0.5,0.3c0,0.1,0.1,0.2,0.2,0.3c0.3,0.3,0.2,0.4-0.2,0.4c-0.2,0-0.4-0.1-0.7-0.1c-0.3,0-0.6,0-0.7,0
		c-0.1,0-0.5,0-1,0.1c-0.4-0.1-0.8,0-1.3,0.1c-0.5,0.2-1.1,0.3-1.7,0.5c-0.7,0.2-1.1,0.2-1.2,0.2c-0.1,0-0.2-0.1-0.4-0.3
		c-0.2-0.2-0.3-0.3-0.3-0.4c0-0.1,0-0.2,0-0.4c0.1-0.2,0.1-0.3,0.2-0.3c0,0,0.2-0.1,0.3-0.3c0.2-0.2,0.3-0.4,0.3-0.5
		c0,0,0.1-0.1,0.3-0.2c0,0,0.1-0.1,0.3-0.4c0.2-0.2,0.4-0.4,0.6-0.6c1.4-1.3,2.2-2.1,2.2-2.3c0.1-0.1,0.2-0.2,0.3-0.3
		c0.1-0.1,0.3-0.2,0.5-0.4c0.1-0.3,0.3-0.6,0.6-0.9c0.2-0.3,0.4-0.6,0.5-0.8c0.1-0.2,0.1-0.4,0-0.4c0,0-0.2-0.1-0.5-0.2
		c-0.8-0.3-1.6-0.2-2.3,0.3c-0.1,0-0.2,0.1-0.3,0.1c-0.3,0.1-0.5,0.1-0.5,0.1c-0.1,0-0.1,0-0.1-0.1c0,0-0.1-0.1-0.1-0.2
		c-0.1-0.1-0.1-0.1-0.1-0.2L108,104l0.6-0.3C109.7,103,110.6,102.8,111.3,103z"/>
</g>
<path class="st0" d="M29.4,26.3v31.3h156.5V26.3H29.4z M50.9,41.6c-0.2,0.3-0.2,0.4-0.4,0.8c-1.4,3-3.1,6-6,7
	c-0.2,0.1-0.4,0.1-0.6,0.1c-0.5,0-1-0.1-1.5-0.3c0,0.2-0.2,0.2-0.5,0.2S41,49,40.8,48.7c-0.6-0.3-1.7-0.7-1.7-1.4
	c0-0.3,0.2-0.3,0.4-0.3s0.4,0.1,0.7,0.1c0.2,0,0.4,0.2,0.5,0.2s0.1,0,0.1-0.1c0.6-2.4,1.5-4.9,2.4-7.3c0-0.1,0-0.1-0.1-0.1
	c-0.2,0-0.6,0.5-1,0.5c-0.2,0-0.4-0.2-0.4-0.4c0-0.9,0-1,1.4-2c1.1-0.8,2.8-1.5,4.2-1.5c0.6,0,1.4,0.1,1.9,0.5s1.1,0.6,1.6,1.3
	c0.3,0.3,0.4,0.7,0.4,1.6C51.4,40.3,51.2,41,50.9,41.6z M57.4,46.3c0.1,0.1,0.1,0.2,0.2,0.3c0.5,0.6,0.8,0.9,1.1,1.2
	c0.7,0.6,1,0.7,1.5,0.8c0.3,0.1,0.6,0.7,0.6,1.1c0,0.2-0.3,0.3-0.6,0.3c-0.5,0-1.1-0.3-1.7-0.7c-2.1-1.3-2.9-3.1-4-5.1
	c-0.1-0.1-0.1-0.1-0.2-0.1c-0.1,0-0.1,0.1-0.2,0.2c-0.5,1.7-0.9,3.8-0.9,4.4c0,0.2-0.3,0.4-0.8,0.4c-0.2,0-0.2,0-0.5-0.2
	c-0.1-0.1-0.4-0.2-0.4-0.4c0.4-2.7,1.1-5.3,2-7.9c0.1-0.3,0.1-0.4,0.3-0.5c0.2-0.2,0.3-0.9,0.5-1.2c0-0.1,0-0.1-0.1-0.1
	c-0.2,0-0.7-0.7-0.7-0.9s0.1-0.2,0.1-0.3c0.8-0.6,2.4-1.4,4.2-1.4c0.6,0,1.3,0.1,1.6,0.2c0.5,0.2,0.5,0.2,0.6,0.3
	c0.5,0.4,0.6,0.5,0.7,0.8c0.1,0.3,0.3,0.8,0.3,1.4c0,1-0.5,2.3-1.6,3.4c-0.8,0.8-1.8,1.1-3.2,1.6c-0.1,0-0.2,0.1-0.2,0.2
	C56.3,44.7,56.9,45.6,57.4,46.3z M69.7,41.9c-0.6,2.4-1.3,4.7-2.7,6.3c-0.6,0.8-1.7,1.2-2.8,1.2c-0.4,0-0.7,0-1.2-0.2
	c-0.3-0.1-0.8-0.5-1.1-1c-0.5-0.7-0.6-1.3-0.6-2.3c0-2.8,0.9-4.9,2.4-7c0.7-1.1,1.4-1.9,2.3-2.4c0.3-0.2,0.4-0.2,0.5-0.2
	s0.3,0,0.4,0.1c0.2,0.1,0.8,0.3,1,0.3c0.1,0,0.3,0,0.4,0.2c0.8,0.7,1.4,1.8,1.4,3.5C69.9,40.9,69.9,41.1,69.7,41.9z M77.3,44.2
	c-0.2,0.2-1.2,0.6-2,0.6c-0.7,0-0.9-0.3-1.3-0.5c-0.1,0-0.1-0.1-0.2-0.1s-0.1,0-0.2,0.3c-0.6,1.8-1.2,4.5-1.2,4.8
	c0,0.1,0,0.1-0.1,0.2c-0.1,0.1-0.3,0.2-0.5,0.2c-0.1,0-0.2,0-0.3-0.1c-0.3-0.3-0.4-0.2-0.7-0.5L70.7,49c0,0,0-0.1,0.1-0.4
	c0.2-0.6,0.4-1.9,0.7-2.6c0-0.1,0.1-0.3,0.1-0.4c0-0.5,0.7-1.9,0.7-2.5c0-0.1,0-0.1-0.1-0.2c-0.2-0.1-0.4-0.3-0.4-0.5s0-0.2,0.1-0.2
	s0.3-0.2,0.6-0.2c0,0,0.1,0,0.1-0.1c0.4-1.1,0.5-1.3,0.7-2c0-0.1,0-0.1-0.1-0.1s-0.1,0-0.3-0.1c-0.4-0.2-0.3-0.4-0.5-0.5
	c-0.1-0.1-0.1-0.2-0.1-0.2c0-0.3,0.2-0.5,0.7-0.8c2-1.3,4-2.6,6.4-2.6c0.6,0,0.9,0,1.4,0.4s0.7,0.6,0.7,1.4c0,1.1-0.4,1.8-0.9,2.8
	C80,41.7,78.6,43.2,77.3,44.2z M92.1,41.6c-0.2,0.3-0.2,0.4-0.4,0.8c-1.4,3-3.1,6-6,7c-0.2,0.1-0.4,0.1-0.6,0.1
	c-0.5,0-1-0.1-1.5-0.3c0,0.2-0.2,0.2-0.5,0.2S82.2,49,82,48.7c-0.6-0.3-1.7-0.7-1.7-1.4c0-0.3,0.2-0.3,0.4-0.3
	c0.2,0,0.4,0.1,0.7,0.1c0.2,0,0.4,0.2,0.5,0.2s0.1,0,0.1-0.1c0.6-2.4,1.5-4.9,2.4-7.3c0-0.1,0-0.1-0.1-0.1c-0.2,0-0.6,0.5-1,0.5
	c-0.2,0-0.4-0.2-0.4-0.4c0-0.9,0-1,1.4-2c1.1-0.8,2.8-1.5,4.2-1.5c0.6,0,1.4,0.1,1.9,0.5s1.1,0.6,1.6,1.3c0.3,0.3,0.4,0.7,0.4,1.6
	C92.6,40.3,92.4,41,92.1,41.6z M101.4,41.9c-0.6,2.4-1.3,4.7-2.7,6.3c-0.6,0.8-1.7,1.2-2.8,1.2c-0.4,0-0.7,0-1.2-0.2
	c-0.3-0.1-0.8-0.5-1.1-1c-0.5-0.7-0.6-1.3-0.6-2.3c0-2.8,0.9-4.9,2.4-7c0.7-1.1,1.4-1.9,2.3-2.4c0.3-0.2,0.4-0.2,0.5-0.2
	s0.3,0,0.4,0.1c0.2,0.1,0.8,0.3,1,0.3c0.1,0,0.3,0,0.4,0.2c0.8,0.7,1.4,1.8,1.4,3.5C101.6,40.9,101.6,41.1,101.4,41.9z M111.6,49
	c-0.2,0.3-0.5,0.7-1,0.7c-0.1,0-0.2-0.1-0.6-0.1c-0.3,0-0.4-0.1-0.6-0.3c-0.1-0.1-0.7-0.2-0.8-0.5c-0.4-0.8-0.4-1.6-0.5-2.7
	c0-0.3-0.1-0.4-0.1-0.4c-0.1,0-0.1,0-0.2,0.2c-0.2,0.3-0.4,0.5-0.7,0.8c-1,0.9-1.8,2.5-2.7,2.5c-0.1,0-0.4-0.2-0.7-0.5
	c-0.2-0.2-0.6-0.1-0.7-0.4c0-0.2,0-0.2,0-0.7c0-0.7,0.1-1.2,0.2-1.7s0-0.5,0.2-1.1c0.6-2.8,1.6-5.6,2.3-8.4c0.1-0.2,0.1-0.3,0.6-0.3
	c0.2,0,0.4,0.1,0.6,0.1c0.1,0,0.5,0.5,0.5,0.5s0,0.1-0.1,0.2c-1.2,2.9-2,6.1-2.7,9.3c-0.1,0.4-0.1,0.6-0.1,0.6c0,0.1,0,0.1,0.1,0.1
	s0.2,0,0.5-0.4c1.3-1.3,2.6-3.1,3.2-4.5c0.2-0.4,0.2-0.5,0.3-0.9c0.1-0.4,0.2-0.7,0.3-1c0.1-0.1,0.1-0.2,0.2-0.2
	c0.2,0,0.4,0.1,0.5,0.1c0.2,0,0.3,0.1,0.4,0.2c0.2,0.3,0.3,0.5,0.3,0.7s0,0.3-0.1,0.5c-0.4,1.2-0.6,2.3-0.6,3.6
	c0,0.8,0.1,1.6,0.3,2.5c0,0.1,0.1,0.2,0.1,0.2c0.1,0,0.2-0.1,0.3-0.3c1.6-2.2,2.6-5.1,3.2-7.8c0.1-0.4,0.1-0.7,0.1-0.9
	c0-0.5,0-0.6,0-1.1c0-0.6-0.4-0.7-0.4-1.3c0-0.5,0-0.7,0.3-0.7c0.2,0,0.3,0,0.6,0c0.4,0,0.7,0,0.9,0.5c0.2,0.4,0.2,0.7,0.3,1.1
	c0,0.3,0,0.6,0,0.8c0,1-0.1,1.7-0.4,3C114.4,43.9,113.3,46.6,111.6,49z M127.8,37.6c-0.1,0.2-0.1,0.4-0.3,0.8c-1,2.7-1.8,5.9-3.4,10
	c-0.2,0.4-0.2,0.4-0.3,0.5c-0.4,0.4-0.6,0.5-0.9,0.5c-0.2,0-0.3,0-0.7-0.2c-0.7-0.4-0.9-0.7-1-1.2c-0.7-2.4-1-6.1-1.4-7.7
	c-0.1-0.2-0.1-0.3-0.2-0.3s-0.1,0.1-0.2,0.3c-0.4,1.5-1.8,5.4-2.1,8.1c0,0.4-0.1,0.7-0.1,0.7c0,0.2-0.3,0.4-0.7,0.4
	c-0.6,0-0.5-0.1-0.8-0.2c-0.2-0.1-0.3-0.2-0.3-0.3c0-0.9,2.1-7.4,2.2-7.9l0.2-0.7c0.3-1.3,0.6-2.1,0.8-3.2c0.1-0.3,0.4-0.1,0.4-0.4
	c0-0.2-0.3-0.5-0.3-1.1c0-0.1,0-0.1,0.2-0.2c0.2-0.1,0.7-0.2,1.2-0.2c0.1,0,0.2,0.1,0.3,0.3c1.3,3.9,1,7.7,2.1,11.6
	c0.1,0.2,0.1,0.3,0.2,0.3c0,0,0.1,0,0.2-0.3c1.1-2.3,1.8-4.8,2.5-7.4c0.1-0.5,0.2-0.6,0.4-1.1c0.2-0.7,0.1-1.5,0.3-2.2
	c0.1-0.4,0.1-0.4,0.4-0.4s0.6,0.1,0.8,0.1c0.3,0,0.7,0.6,0.7,0.7C128,37.1,127.9,37.3,127.8,37.6z M174.4,44.2
	c0,0.1-0.3,0.4-1.2,1.2l-4.3,3.5c-0.1,0.1-0.3,0.2-0.4,0.2c-0.5,0.1-0.8-0.1-0.8-0.2c-0.2-0.2-0.2-0.1-0.5-0.4l-3.6-4.7
	c-0.3-0.4-0.3-0.5-0.4-0.7c-0.1-0.4,0.1-0.2,0.2-0.5c0.2-0.5,0.3-0.6,0.6-0.6c0.1,0,0.6,0.1,0.8,0.4l3.4,4c0.2,0.2,0.2,0.2,0.4,0.2
	c0.1,0,0.1,0,0.3-0.2c3.3-3.1,3.8-3.6,4-4c0.1-0.1,0.2-0.2,0.3-0.2c0.5-0.1,0.9,0.3,1,0.4c0.1,0.1,0.2,0.4,0.3,0.9
	C174.6,43.8,174.4,44.1,174.4,44.2z"/>
</svg>
