<?xml version="1.0" encoding="utf-8"?>
<!-- Generator: Adobe Illustrator 19.2.1, SVG Export Plug-In . SVG Version: 6.00 Build 0)  -->
<svg version="1.1" id="Layer_2_copy_10" xmlns="http://www.w3.org/2000/svg" xmlns:xlink="http://www.w3.org/1999/xlink" x="0px"
	 y="0px" viewBox="0 0 200 200" style="enable-background:new 0 0 200 200;" xml:space="preserve">
<style type="text/css">
	.st0{fill:#FFFFFF;}
	.st1{fill:none;stroke:#63A2FD;stroke-width:0.3976;stroke-miterlimit:10;}
</style>
<g>
	<g>
		<path class="st0" d="M123.2,29.9"/>
		<g>
			<path class="st1" d="M123.2,29.9"/>
		</g>
	</g>
	<g>
		<g>
			<path class="st0" d="M197.7,33.6L197.7,33.6L197.7,33.6c0,0.1-0.1,0.1-0.3,0.2c-0.1,0-0.1,0-0.1,0s0,0-0.1,0c0,0,0,0-0.1,0l0,0
				l0,0l0,0H197l0,0l0,0l0,0c0,0,0,0-0.1,0h-0.1l0,0l0,0h-0.1l0,0h-0.1l0,0l0,0l0,0l0,0l0,0l0,0l0,0l0,0l0,0l0,0l0,0h-0.1l0,0
				c0,0-0.1,0-0.2,0c-0.1,0-0.2,0-0.3,0h-0.1h-0.1h-0.1c-0.1,0-0.1,0-0.1,0l0,0c0,0,0,0-0.1,0c-4.4,0-10.7,0-18.4,0
				c-18.2,0-83.2,0-112,0c-13.8,0-26.1,0-27.6,0s-2.9,0-3.5,0c-0.5,0-1.6,0-2.4,0c-1.8,0-24.1,0-24.8,0c-0.2,0-3.2,0-6.4,0
				c-0.2,0-0.3,0-0.5,0h-0.2c-0.1,0,0-0.1,0-0.2c0-0.3,0-0.7,0-1c0-0.6,0-1.2,0-1.8c0-0.8,0-1.6,0-2.4c0-1.7,0-3.6,0-5.5
				c0-3.8,0-7.9,0-11.5c0-2.2,0-4.4,0-6.7c0-1.5,0-3,0-4.5c0-0.1,0-0.2,0-0.2h0.2h0.4h0.8h1.4h2.7c4.4,0,8.7,0,12.9,0
				c8.3,0,15.7,0,21.1,0c6.2,0,13,0,15,0s4,0,4.5,0S77.3,0,99,0s84.8,0,91.5,0c2.2,0,4.3,0,6.3,0c0.9,0,1.8,0,2.7,0h0.2h0.1v0.1v0.4
				v0.7c0,0.5,0,0.9,0,1.4c0,1,0,2,0,3c0,3.8,0,7.3,0,10.6c0,5.5,0,10.1,0,13.9c0,0.1,0,0.2,0,0.2l0,0c0,0,0,0,0,0.1v0.1
				c0,0,0,0,0,0.1l0,0l0,0v0.1l0,0l0,0c0,0,0,0,0,0.1s0,0.2,0,0.2l0,0v0.1l0,0l0,0c0,0,0,0,0,0.1s0,0.1,0,0.1l0,0l0,0
				c0,0.1,0,0.2,0,0.2l0,0l0,0l0,0l0,0c0,0,0,0,0,0.1v0.1l0,0c0,0,0,0,0,0.1c0,0,0,0,0,0.1V32c0,0,0,0,0,0.1c0,0.1,0,0.1,0,0.1l0,0
				c0,0,0,0,0,0.1l0,0l0,0l0,0c0,0-0.1,0-0.1,0.1l0,0c0,0,0,0-0.1,0l0,0l0,0c0,0,0,0.1-0.1,0l0,0c0,0,0,0-0.1,0s-0.1,0-0.1,0l0,0
				l0,0c0,0-0.1,0.1-0.1,0c0,0,0,0-0.1,0s-0.2,0-0.2,0l0,0l0,0l0,0l0,0l0,0c0,0,0,0,0,0.1c0,0,0,0-0.1,0h-0.1c0,0,0,0-0.1,0
				c0,0,0,0-0.1,0l0,0l0,0c0,0-0.1,0.1-0.1,0l0,0c0,0,0,0-0.1,0h-0.1l0,0l0,0l0,0l0,0l0,0l0,0l0,0l0,0l0,0l0,0h-0.1l0,0H198
				c0,0-0.1-0.1-0.1,0l0,0l0,0l0,0l0,0l0,0l0,0l0,0l0,0c0,0-0.1-0.1,0-0.1v-0.1v-0.1l0,0c0,0,0,0,0-0.1c0,0,0,0,0-0.1v-0.2v-0.1
				v-0.1v-0.1l0,0c0,0,0,0,0-0.1l0,0c0,0,0,0,0-0.1v-0.1l0,0v-0.1V31v-0.1l0,0v-0.2c0,0,0,0,0-0.1v-0.1c0,0,0,0,0-0.1v-0.1l0,0l0,0
				c0,0,0,0,0-0.1c0-1.3,0-3,0-5.3c0-5.9,0-13.1,0-21.2c0-0.3,0-0.7,0-1V2.6h-0.1c-0.8,0-1.7,0-2.6,0c-2.1,0-4.4,0-6.6,0
				c-4.5,0-9.3,0-14.2,0c-19.7,0-82.5,0-106.7,0c-12.1,0-24.6,0-37.1,0c-6.3,0-12.6,0-19,0H6.8H4.4H2.9H2.8c0,0,0,0,0,0.1
				c0,2.9,0,5.8,0,8.8c0,5,0,10,0,14.9c0,1.2,0,2.5,0,3.7v1.3v0.1h0.1c2.3,0,5.7,0,8,0c75.4,0,181.5,0,185.3,0h0.1
				c0.1,0,0.1,0,0.1,0l0,0l0,0c0,0,0,0,0.1,0h0.1l0,0c0,0,0,0,0-0.1c0.1,0,0.1,0,0.1,0h0.1l0,0h0.1h0.1c0,0,0,0,0.1,0
				c0,0,0.1,0,0.2,0c0.1,0,0.1,0,0.1,0l0,0l0,0l0,0l0,0l0,0l0,0h0.1h0.1h0.1l0,0l0,0l0,0l0,0c0,0,0.1,0,0.2,0c0,0,0,0,0.1,0
				c0,0,0,0,0.1,0l0,0l0,0h0.1l0,0c0,0,0,0,0.1,0h0.1c0,0,0,0,0.1,0s0.1,0,0.1,0.1l0,0l0,0l0,0l0,0v0.1v0.1v0.1c0,0.1,0,0.1,0,0.1
				l0,0V32c0,0.1,0,0.1,0,0.1l0,0v0.2c0,0,0,0,0,0.1v0.1v0.1v0.2c0,0,0,0.1,0,0.2c0,0.2,0,0.3,0,0.3
				C197.7,33.5,197.7,33.5,197.7,33.6L197.7,33.6z"/>
		</g>
	</g>
	<g>
		<g>
			<path class="st0" d="M17.4,60.8c0,0,0-0.2,0-0.4s0-0.3,0-0.3V60c0-0.1,0-0.1,0-0.2c0.1-0.1,0.1-0.2,0-0.1c0,0-0.1,0,0,0l0.1-0.1
				c0.1,0,0.1,0,0-0.2c0-0.1,0-0.2,0-0.2c0-0.1,0.1-0.2,0.1-0.3c0-0.1,0-0.2,0.1-0.3c0-0.1,0-0.2,0-0.3c0-0.1,0-0.1,0-0.1s0,0,0-0.1
				c0-0.1-0.1-0.1,0-0.1c0.1-0.1,0.1-0.7,0-0.7l0,0c0.1,0,0.1,0,0.1-0.2c0-0.1,0-0.2,0-0.3c0-0.1,0-0.1,0-0.2
				c-0.1-0.1-0.1-0.1,0-0.1c0,0,0.1-0.1,0-0.2c0-0.1,0-0.2,0-0.3c0,0,0.1-0.1,0-0.1c0,0,0,0,0-0.1c0.1-0.1,0.1-0.1,0-0.1
				s-0.1-0.1,0-0.1c0,0,0.1-0.2,0.1-0.4s0-0.3,0.1-0.3c0,0,0.1-0.1,0.1-0.2c0-0.1,0-0.1-0.1-0.1c-0.1,0.1-0.1,0.1,0,0
				c0-0.1,0.1-0.1,0.1-0.1s0,0,0-0.1c0-0.1,0-0.2,0.1-0.3c0.2-0.3,0.3-0.4,0.9-0.4c0.2,0,0.3,0,0.3-0.1c0,0,0.1,0,0.2,0s0.2,0,0.3,0
				c0.1,0,0.3,0,0.4,0c0.2,0.1,0.3,0.1,0.3,0c0-0.1,0.1-0.1,0.1,0c0,0,0.1,0.1,0.1,0h0.1c0,0,0.1,0.1,0.2,0c0.1,0,0.2,0,0.2,0
				s0.6,0,0.7,0h0.1c0,0,0.2,0,0.5,0s0.5,0,0.5,0s0.1,0,0.6-0.1c0.1,0,0.3,0,0.3,0h0.1h0.1c0,0,0.2,0,0.3,0c0.2,0,0.3,0,0.3,0
				c0,0.1,0.3,0.1,0.3,0v-0.1c-0.1,0-0.1,0,0,0c0,0,0.1,0,0.1,0.1c0,0.1,0.1,0.1,0.2,0c0.1,0,0.2,0,0.2,0c0.1,0,0.2,0.1,0.4,0.1
				c-0.1,0,0.9,0,2,0s2.5,0,4.2,0c5,0.1,9.4,0.1,12.2,0.1c3,0,7.3,0.1,15.2,0.1c3.1,0,6.7,0,8,0.1c1.3,0,2.3,0,2.4,0
				c0,0,0.2,0,0.5,0s0.6,0,0.9,0c0.2,0,1,0,1.8,0s1.5,0,1.5,0s0.1,0,0.2,0s0.2,0,0.2,0s0.1,0,0.2,0s0.1,0.1,0.2,0
				c0.1,0,0.4,0,0.8,0.1c0.1,0,0.2,0,0.3,0c0.2,0,0.2,0,0.3,0.1c0.1,0.1,0.2,0.1,0.3,0.1c0.3,0,0.8,0.6,0.8,0.8c0,0,0,0.2,0.1,0.2
				c0.1,0.1,0.1,0.2,0.1,0.2v0.1c0,0,0,0.1,0,0.3c-0.1,0.4-0.1,1,0,1.1c0,0.1,0,0.1,0,0.2c0,0-0.1,0.3,0,0.6c0,0.3,0,0.6,0,0.6
				c0,0.1,0,0.2,0,0.2c0,0.1,0,0.2,0,0.3c0,0.1-0.1,0.5-0.1,0.9s0,0.8-0.1,0.8c0,0.1,0,0.1,0,0.2c0.1,0.1,0.1,0.6,0,0.8
				c0,0.1,0,0.2-0.1,0.3c-0.1,0.5-0.3,0.7-1.2,0.7c-0.2,0-0.3,0-0.3,0.1c0,0-0.1,0-0.3,0c-0.2,0-0.4,0-0.6,0s-0.3,0-0.4,0
				s-1.7-0.1-2.3,0c-0.3,0-0.5,0-0.5,0h-0.1c-0.1,0.1-0.1,0.1-0.7,0c0,0-0.1,0-0.2,0h-0.1c-0.2,0-0.3,0-0.5,0c-0.7,0-1.4,0-2.2,0
				c-1.5,0-2.9,0-3.6,0c-1.4,0-1.6,0-4,0c-1.2,0-2.4,0-2.6,0c-1.7,0-8.1,0-10.1,0c-4.6,0-15.5-0.1-17.9-0.2c-0.6,0-2.6,0-4.4,0
				c-0.4,0-0.8,0-0.9,0c0,0-0.1,0-0.2,0.1c-0.2,0-0.3,0.1-0.4,0.1c-0.1,0.1-0.1,0.1-0.1,0s0-0.1-0.1,0s-0.5,0.1-0.7,0
				c-0.1,0-0.2-0.1-0.2,0c-0.1,0.1-0.2,0.1-0.4,0c-0.1,0-0.1,0-0.1,0c0,0.1-0.3,0-0.4-0.1c0,0-0.1,0-0.2,0s-0.2,0-0.3,0
				c-0.1,0-0.3,0-0.3,0c-0.1,0-0.1,0-0.1,0s-0.1-0.1-0.2-0.1s-0.7,0.1-0.8,0.1c-0.1,0-0.6-0.1-0.6-0.1s-0.1,0-0.2,0
				c-0.1,0.1-0.1,0.1-0.2,0s-0.4-0.1-0.9,0c-0.1,0-0.2,0-0.2,0l-0.1-0.1c-0.4,0-1-0.3-0.9-0.5c0,0,0-0.1-0.1-0.2
				c-0.1-0.1-0.1-0.1-0.1-0.1s0-0.1-0.1-0.1s-0.1,0,0-0.1c0.1-0.1,0-0.4-0.1-0.5C17.3,61,17.3,60.9,17.4,60.8z"/>
		</g>
	</g>
	<g>
		<g>
			<path class="st0" d="M18.3,75.1L18.3,75.1L18.3,75.1c0-0.1,0.1-0.1,0.3-0.2c0.1,0,0.1,0,0.1,0s0,0,0.1,0c0,0,0,0,0.1,0l0,0l0,0
				l0,0H19l0,0l0,0l0,0c0,0,0,0,0.1,0h0.1l0,0l0,0h0.1l0,0h0.1l0,0l0,0l0,0l0,0l0,0l0,0l0,0l0,0l0,0l0,0l0,0h0.1l0,0
				c0,0,0.1,0,0.2,0s0.2,0,0.3,0h0.1h0.1h0.1c0.1,0,0.1,0,0.1,0l0,0c0,0,0,0,0.1,0c1.3,0,3,0,5.2,0c5.1,0,12.2,0,20.2,0
				c3.9,0,7.3,0,7.8,0c0.4,0,0.8,0,1,0c0.1,0,0.5,0,0.7,0c0.5,0,6.7,0,7,0c0.1,0,1.9,0,4.1,0c5.5,0,12.7,0,16.5,0c1.8,0,3.6,0,4.2,0
				s1.1,0,1.3,0c0.2,0,5.2,0,11.3,0c6.1,0,12.6,0,14.5,0c4.5,0,8,0,10.3,0c0.1,0,0.2,0,0.2,0l0,0c0,0,0,0,0.1,0h0.1c0,0,0,0,0.1,0
				l0,0l0,0h0.1l0,0l0,0c0,0,0,0,0.1,0s0.2,0,0.2,0l0,0h0.1l0,0l0,0c0,0,0,0,0.1,0s0.1,0,0.1,0l0,0l0,0c0.1,0,0.2,0,0.2,0l0,0l0,0
				l0,0l0,0c0,0,0,0,0.1,0h0.1l0,0c0,0,0,0,0.1,0c0,0,0,0,0.1,0h0.1c0,0,0,0,0.1,0s0.1,0,0.1,0l0,0c0,0,0,0,0.1,0l0,0l0,0l0,0
				c0,0,0,0.1,0.1,0.1l0,0c0,0,0,0,0,0.1l0,0l0,0c0,0,0.1,0,0,0.1l0,0c0,0,0,0,0,0.1c0,0.1,0,0.1,0,0.1l0,0l0,0c0,0,0.1,0.1,0,0.1
				c0,0,0,0,0,0.1c0,0.1,0,0.2,0,0.2l0,0l0,0l0,0l0,0l0,0c0,0,0,0,0.1,0c0,0,0,0,0,0.1V76c0,0,0,0,0,0.1c0,0,0,0,0,0.1l0,0l0,0
				c0,0,0.1,0.1,0,0.1l0,0c0,0,0,0,0,0.1v0.1l0,0l0,0l0,0l0,0l0,0l0,0l0,0l0,0l0,0l0,0v0.1l0,0v0.1c0,0-0.1,0.1,0,0.1l0,0l0,0l0,0
				l0,0l0,0l0,0l0,0l0,0c0,0-0.1,0.1-0.1,0h-0.1h-0.1l0,0c0,0,0,0-0.1,0c0,0,0,0-0.1,0h-0.2h-0.1h-0.1H126l0,0c0,0,0,0-0.1,0l0,0
				c0,0,0,0-0.1,0h-0.1l0,0h-0.1h-0.1h-0.1l0,0h-0.2c0,0,0,0-0.1,0H125c0,0,0,0-0.1,0h-0.1l0,0l0,0c-1.3,0-101.7,0-104.3,0h-0.1
				c-0.1,0-0.1,0-0.1,0l0,0l0,0c0,0,0,0-0.1,0h-0.1l0,0c0,0,0,0,0,0.1c-0.1,0-0.1,0-0.1,0h-0.1l0,0h-0.1h-0.1c0,0,0,0-0.1,0
				c0,0-0.1,0-0.2,0s-0.1,0-0.1,0l0,0l0,0l0,0l0,0l0,0l0,0h-0.1h-0.1H19l0,0l0,0l0,0l0,0c0,0-0.1,0-0.2,0c0,0,0,0-0.1,0
				c0,0,0,0-0.1,0l0,0l0,0h-0.1l0,0c0,0,0,0-0.1,0h-0.1c0,0,0,0-0.1,0s-0.1,0-0.1-0.1l0,0l0,0l0,0l0,0v-0.1v-0.1v-0.1
				c0-0.1,0-0.1,0-0.1l0,0v-0.1c0-0.1,0-0.1,0-0.1l0,0V76c0,0,0,0,0-0.1v-0.1v-0.1v-0.2c0,0,0-0.1,0-0.2c0-0.2,0-0.3,0-0.3
				C18.4,75.3,18.4,75.2,18.3,75.1C18.4,75.2,18.4,75.1,18.3,75.1z"/>
		</g>
	</g>
	<g>
		<g>
			<path class="st0" d="M18.3,82.8L18.3,82.8L18.3,82.8c0-0.1,0.1-0.1,0.3-0.2c0.1,0,0.1,0,0.1,0s0,0,0.1,0c0,0,0,0,0.1,0l0,0l0,0
				l0,0H19l0,0l0,0l0,0c0,0,0,0,0.1,0h0.1l0,0l0,0h0.1l0,0h0.1l0,0l0,0l0,0l0,0l0,0l0,0l0,0l0,0l0,0l0,0l0,0h0.1l0,0
				c0,0,0.1,0,0.2,0s0.2,0,0.3,0h0.1h0.1h0.1c0.1,0,0.1,0,0.1,0l0,0c0,0,0,0,0.1,0c1.5,0,3.6,0,6.1,0c6,0,14.3,0,23.9,0
				c4.6,0,8.7,0,9.1,0c0.5,0,1,0,1.2,0s0.5,0,0.8,0c0.6,0,7.9,0,8.2,0c0.1,0,2.3,0,4.9,0c6.5,0,15,0,19.5,0c2.1,0,4.3,0,5,0
				s1.3,0,1.5,0s6.2,0,13.4,0s14.9,0,17.1,0c5.4,0,9.4,0,12.2,0c0.1,0,0.2,0,0.2,0l0,0c0,0,0,0,0.1,0h0.1c0,0,0,0,0.1,0l0,0l0,0h0.1
				l0,0l0,0c0,0,0,0,0.1,0s0.2,0,0.2,0l0,0h0.1l0,0l0,0c0,0,0,0,0.1,0s0.1,0,0.1,0l0,0l0,0c0.1,0,0.2,0,0.2,0l0,0l0,0l0,0l0,0
				c0,0,0,0,0.1,0h0.1l0,0c0,0,0,0,0.1,0c0,0,0,0,0.1,0h0.1c0,0,0,0,0.1,0s0.1,0,0.1,0l0,0c0,0,0,0,0.1,0l0,0l0,0l0,0
				c0,0,0,0.1,0.1,0.1l0,0c0,0,0,0,0,0.1l0,0l0,0c0,0,0.1,0,0,0.1l0,0c0,0,0,0,0,0.1c0,0.1,0,0.1,0,0.1l0,0l0,0c0,0,0.1,0.1,0,0.1
				c0,0,0,0,0,0.1c0,0.1,0,0.2,0,0.2l0,0l0,0l0,0l0,0l0,0c0,0,0,0,0.1,0c0,0,0,0,0,0.1v0.1c0,0,0,0,0,0.1c0,0,0,0,0,0.1l0,0l0,0
				c0,0,0.1,0.1,0,0.1l0,0c0,0,0,0,0,0.1v0.1l0,0l0,0l0,0l0,0l0,0l0,0l0,0l0,0l0,0l0,0v0.1l0,0v0.1c0,0-0.1,0.1,0,0.1l0,0l0,0l0,0
				l0,0l0,0l0,0l0,0l0,0c0,0-0.1,0.1-0.1,0h-0.1h-0.1l0,0c0,0,0,0-0.1,0c0,0,0,0-0.1,0h-0.2H145h-0.1h-0.1l0,0c0,0,0,0-0.1,0l0,0
				c0,0,0,0-0.1,0h-0.1l0,0h-0.1h-0.1h-0.1l0,0H144c0,0,0,0-0.1,0h-0.1c0,0,0,0-0.1,0h-0.1l0,0l0,0c-1.5,0-119.9,0-123,0h-0.1
				c-0.1,0-0.1,0-0.1,0l0,0l0,0c0,0,0,0-0.1,0h-0.1l0,0c0,0,0,0,0,0.1c-0.1,0-0.1,0-0.1,0H20l0,0h-0.1h-0.1c0,0,0,0-0.1,0
				c0,0-0.1,0-0.2,0s-0.1,0-0.1,0l0,0l0,0l0,0l0,0l0,0l0,0h-0.1h-0.1h-0.1l0,0l0,0l0,0l0,0c0,0-0.1,0-0.2,0c0,0,0,0-0.1,0
				c0,0,0,0-0.1,0l0,0l0,0h-0.1l0,0c0,0,0,0-0.1,0h-0.1c0,0,0,0-0.1,0s-0.1,0-0.1-0.1l0,0l0,0l0,0l0,0v-0.1v-0.1v-0.1
				c0-0.1,0-0.1,0-0.1l0,0V84c0-0.1,0-0.1,0-0.1l0,0v-0.2c0,0,0,0,0-0.1v-0.1v-0.1v-0.2c0,0,0-0.1,0-0.2c0-0.2,0-0.3,0-0.3
				C18.4,82.9,18.4,82.9,18.3,82.8C18.4,82.8,18.4,82.8,18.3,82.8z"/>
		</g>
	</g>
	<g>
		<g>
			<path class="st0" d="M17.3,91.7L17.3,91.7L17.3,91.7c0-0.1,0.1-0.1,0.3-0.2c0.1,0,0.1,0,0.1,0s0,0,0.1,0c0,0,0,0,0.1,0l0,0l0,0
				l0,0H18l0,0l0,0l0,0c0,0,0,0,0.1,0h0.1l0,0l0,0h0.1l0,0h0.1l0,0l0,0l0,0l0,0l0,0l0,0l0,0l0,0l0,0l0,0l0,0h0.1l0,0
				c0,0,0.1,0,0.2,0s0.2,0,0.3,0h0.1h0.1h0.1c0.1,0,0.1,0,0.1,0l0,0c0,0,0,0,0.1,0c1.3,0,3,0,5.2,0c5.1,0,12.2,0,20.2,0
				c3.9,0,7.3,0,7.8,0c0.4,0,0.8,0,1,0c0.1,0,0.5,0,0.7,0c0.5,0,6.7,0,7,0c0.1,0,1.9,0,4.1,0c5.5,0,12.7,0,16.5,0c1.8,0,3.6,0,4.2,0
				s1.1,0,1.3,0c0.2,0,5.2,0,11.3,0c6.1,0,12.6,0,14.5,0c4.5,0,8,0,10.3,0c0.1,0,0.2,0,0.2,0l0,0c0,0,0,0,0.1,0h0.1c0,0,0,0,0.1,0
				l0,0l0,0h0.1l0,0l0,0c0,0,0,0,0.1,0s0.2,0,0.2,0l0,0h0.1l0,0l0,0c0,0,0,0,0.1,0s0.1,0,0.1,0l0,0l0,0c0.1,0,0.2,0,0.2,0l0,0l0,0
				l0,0l0,0c0,0,0,0,0.1,0h0.1l0,0c0,0,0,0,0.1,0c0,0,0,0,0.1,0h0.1c0,0,0,0,0.1,0s0.1,0,0.1,0l0,0c0,0,0,0,0.1,0l0,0l0,0l0,0
				c0,0,0,0.1,0.1,0.1l0,0c0,0,0,0,0,0.1l0,0l0,0c0,0,0.1,0,0,0.1l0,0c0,0,0,0,0,0.1s0,0.1,0,0.1l0,0l0,0c0,0,0.1,0.1,0,0.1
				c0,0,0,0,0,0.1s0,0.2,0,0.2l0,0l0,0l0,0l0,0l0,0c0,0,0,0,0.1,0c0,0,0,0,0,0.1v0.1c0,0,0,0,0,0.1c0,0,0,0,0,0.1l0,0l0,0
				c0,0,0.1,0.1,0,0.1l0,0c0,0,0,0,0,0.1v0.1l0,0l0,0l0,0l0,0l0,0l0,0l0,0l0,0l0,0l0,0v0.1l0,0v0.1c0,0-0.1,0.1,0,0.1l0,0l0,0l0,0
				l0,0l0,0l0,0l0,0l0,0c0,0-0.1,0.1-0.1,0h-0.1h-0.1l0,0c0,0,0,0-0.1,0c0,0,0,0-0.1,0h-0.2h-0.1h-0.1H125l0,0c0,0,0,0-0.1,0l0,0
				c0,0,0,0-0.1,0h-0.1l0,0h-0.1h-0.1h-0.1l0,0h-0.2c0,0,0,0-0.1,0H124c0,0,0,0-0.1,0h-0.1l0,0l0,0c-1.3,0-101.7,0-104.3,0h-0.1
				c-0.1,0-0.1,0-0.1,0l0,0l0,0c0,0,0,0-0.1,0h-0.1l0,0c0,0,0,0,0,0.1c-0.1,0-0.1,0-0.1,0h-0.1l0,0h-0.1h-0.1c0,0,0,0-0.1,0
				c0,0-0.1,0-0.2,0s-0.1,0-0.1,0l0,0l0,0l0,0l0,0l0,0l0,0h-0.1h-0.1H18l0,0l0,0l0,0l0,0c0,0-0.1,0-0.2,0c0,0,0,0-0.1,0
				c0,0,0,0-0.1,0l0,0l0,0h-0.1l0,0c0,0,0,0-0.1,0h-0.1c0,0,0,0-0.1,0s-0.1,0-0.1-0.1l0,0l0,0l0,0l0,0v-0.1v-0.1v-0.1
				c0-0.1,0-0.1,0-0.1l0,0v-0.1c0-0.1,0-0.1,0-0.1l0,0v-0.2c0,0,0,0,0-0.1v-0.1v-0.1v-0.2c0,0,0-0.1,0-0.2c0-0.2,0-0.3,0-0.3
				C17.4,91.9,17.4,91.8,17.3,91.7C17.4,91.8,17.4,91.7,17.3,91.7z"/>
		</g>
	</g>
	<g>
		<g>
			<path class="st0" d="M18.3,99.4L18.3,99.4L18.3,99.4c0-0.1,0.1-0.1,0.3-0.2c0.1,0,0.1,0,0.1,0s0,0,0.1,0c0,0,0,0,0.1,0l0,0l0,0
				l0,0H19l0,0l0,0l0,0c0,0,0,0,0.1,0h0.1l0,0l0,0h0.1l0,0h0.1l0,0l0,0l0,0l0,0l0,0l0,0l0,0l0,0l0,0l0,0l0,0h0.1l0,0
				c0,0,0.1,0,0.2,0s0.2,0,0.3,0h0.1h0.1h0.1c0.1,0,0.1,0,0.1,0l0,0c0,0,0,0,0.1,0c1.5,0,3.6,0,6.1,0c6,0,14.3,0,23.9,0
				c4.6,0,8.7,0,9.1,0c0.5,0,1,0,1.2,0s0.5,0,0.8,0c0.6,0,7.9,0,8.2,0c0.1,0,2.3,0,4.9,0c6.5,0,15,0,19.5,0c2.1,0,4.3,0,5,0
				s1.3,0,1.5,0s6.2,0,13.4,0s14.9,0,17.1,0c5.4,0,38.7,0,41.5,0c0.1,0,0.2,0,0.2,0l0,0c0,0,0,0,0.1,0h0.1c0,0,0,0,0.1,0l0,0l0,0
				h0.1l0,0l0,0c0,0,0,0,0.1,0s0.2,0,0.2,0l0,0h0.1l0,0l0,0c0,0,0,0,0.1,0s0.1,0,0.1,0l0,0l0,0c0.1,0,0.2,0,0.2,0l0,0l0,0l0,0l0,0
				c0,0,0,0,0.1,0h0.1l0,0c0,0,0,0,0.1,0c0,0,0,0,0.1,0h0.1c0,0,0,0,0.1,0s0.1,0,0.1,0l0,0c0,0,0,0,0.1,0l0,0l0,0l0,0
				c0,0,0,0.1,0.1,0.1l0,0c0,0,0,0,0,0.1l0,0l0,0c0,0,0.1,0,0,0.1l0,0c0,0,0,0,0,0.1c0,0.1,0,0.1,0,0.1l0,0l0,0c0,0,0.1,0.1,0,0.1
				c0,0,0,0,0,0.1c0,0.1,0,0.2,0,0.2l0,0l0,0l0,0l0,0l0,0c0,0,0,0,0.1,0c0,0,0,0,0,0.1v0.1c0,0,0,0,0,0.1c0,0,0,0,0,0.1l0,0l0,0
				c0,0,0.1,0.1,0,0.1l0,0c0,0,0,0,0,0.1v0.1l0,0l0,0l0,0l0,0l0,0l0,0l0,0l0,0l0,0l0,0v0.1l0,0v0.1c0,0-0.1,0.1,0,0.1l0,0l0,0l0,0
				l0,0l0,0l0,0l0,0l0,0c0,0-0.1,0.1-0.1,0h-0.1h-0.1l0,0c0,0,0,0-0.1,0c0,0,0,0-0.1,0h-0.2h-0.1h-0.1h-0.1l0,0c0,0,0,0-0.1,0l0,0
				c0,0,0,0-0.1,0h-0.1l0,0h-0.1h-0.1h-0.1l0,0h-0.2c0,0,0,0-0.1,0h-0.1c0,0,0,0-0.1,0h-0.1l0,0l0,0c-1.5,0-149.2,0-152.3,0h-0.1
				c-0.1,0-0.1,0-0.1,0l0,0l0,0c0,0,0,0-0.1,0h-0.1l0,0c0,0,0,0,0,0.1c-0.1,0-0.1,0-0.1,0H20l0,0h-0.1h-0.1c0,0,0,0-0.1,0
				c0,0-0.1,0-0.2,0s-0.1,0-0.1,0l0,0l0,0l0,0l0,0l0,0l0,0h-0.1h-0.1h-0.1l0,0l0,0l0,0l0,0c0,0-0.1,0-0.2,0c0,0,0,0-0.1,0
				c0,0,0,0-0.1,0l0,0l0,0h-0.1l0,0c0,0,0,0-0.1,0h-0.1c0,0,0,0-0.1,0s-0.1,0-0.1-0.1l0,0l0,0l0,0l0,0V101v-0.1v-0.1
				c0-0.1,0-0.1,0-0.1l0,0v-0.1c0-0.1,0-0.1,0-0.1l0,0v-0.2c0,0,0,0,0-0.1v-0.1V100v-0.2c0,0,0-0.1,0-0.2c0-0.2,0-0.3,0-0.3
				C18.4,99.5,18.4,99.5,18.3,99.4C18.4,99.4,18.4,99.4,18.3,99.4z"/>
		</g>
	</g>
	<g>
		<g>
			<path class="st0" d="M16.4,134.3c0,0,0-0.2,0-0.4c0-0.2,0-0.3,0-0.3v-0.1c0-0.1,0-0.1,0-0.2c0.1-0.1,0.1-0.2,0-0.1c0,0-0.1,0,0,0
				l0.1-0.1c0.1,0,0.1,0,0-0.2c0-0.1,0-0.2,0-0.2c0-0.1,0.1-0.2,0.1-0.3s0-0.2,0.1-0.3c0-0.1,0-0.2,0-0.3s0-0.1,0-0.1s0,0,0-0.1
				c0-0.1-0.1-0.1,0-0.1c0.1-0.1,0.1-0.7,0-0.7l0,0c0.1,0,0.1,0,0.1-0.2c0-0.1,0-0.2,0-0.3s0-0.1,0-0.2c-0.1-0.1-0.1-0.1,0-0.1
				c0,0,0.1-0.1,0-0.2c0-0.1,0-0.2,0-0.3c0,0,0.1-0.1,0-0.1c0,0,0,0,0-0.1c0.1-0.1,0.1-0.1,0-0.1s-0.1-0.1,0-0.1
				c0,0,0.1-0.2,0.1-0.4c0-0.2,0-0.3,0.1-0.3c0,0,0.1-0.1,0.1-0.2c0-0.1,0-0.1-0.1-0.1c-0.1,0.1-0.1,0.1,0,0c0-0.1,0.1-0.1,0.1-0.1
				s0,0,0-0.1c0-0.1,0-0.2,0.1-0.3c0.2-0.3,0.3-0.4,0.9-0.4c0.2,0,0.3,0,0.3-0.1c0,0,0.1,0,0.2,0s0.2,0,0.3,0c0.1,0,0.3,0,0.4,0
				c0.2,0.1,0.3,0.1,0.3,0c0-0.1,0.1-0.1,0.1,0c0,0,0.1,0.1,0.1,0h0.1c0,0,0.1,0.1,0.2,0c0.1,0,0.2,0,0.2,0s0.6,0,0.7,0h0.1
				c0,0,0.2,0,0.5,0s0.5,0,0.5,0s0.1,0,0.6-0.1c0.1,0,0.3,0,0.3,0h0.1h0.1c0,0,0.2,0,0.3,0c0.2,0,0.3,0,0.3,0c0,0.1,0.3,0.1,0.3,0
				v-0.1c-0.1,0-0.1,0,0,0c0,0,0.1,0,0.1,0.1c0,0.1,0.1,0.1,0.2,0c0.1,0,0.2,0,0.2,0c0.1,0,0.2,0.1,0.4,0.1c-0.1,0,0.9,0,2,0
				s2.5,0,4.2,0c5,0.1,9.4,0.1,12.2,0.1c3,0,7.3,0.1,15.2,0.1c3.1,0,6.7,0,8,0.1c1.3,0,2.3,0,2.4,0c0,0,0.2,0,0.5,0s0.6,0,0.9,0
				c0.2,0,1,0,1.8,0s1.5,0,1.5,0s0.1,0,0.2,0s0.2,0,0.2,0s0.1,0,0.2,0s0.1,0.1,0.2,0c0.1,0,0.4,0,0.8,0.1c0.1,0,0.2,0,0.3,0
				c0.2,0,0.2,0,0.3,0.1c0.1,0.1,0.2,0.1,0.3,0.1c0.3,0,0.8,0.6,0.8,0.8c0,0,0,0.2,0.1,0.2c0.1,0.1,0.1,0.2,0.1,0.2v0.1
				c0,0,0,0.1,0,0.3c-0.1,0.4-0.1,1,0,1.1c0,0.1,0,0.1,0,0.2c0,0-0.1,0.3,0,0.6c0,0.3,0,0.6,0,0.6c0,0.1,0,0.2,0,0.2
				c0,0.1,0,0.2,0,0.3s-0.1,0.5-0.1,0.9c0,0.4,0,0.8-0.1,0.8c0,0.1,0,0.1,0,0.2c0.1,0.1,0.1,0.6,0,0.8c0,0.1,0,0.2-0.1,0.3
				c-0.1,0.5-0.3,0.7-1.2,0.7c-0.2,0-0.3,0-0.3,0.1c0,0-0.1,0-0.3,0c-0.2,0-0.4,0-0.6,0s-0.3,0-0.4,0s-1.7-0.1-2.3,0
				c-0.3,0-0.5,0-0.5,0h-0.1c-0.1,0.1-0.1,0.1-0.7,0c0,0-0.1,0-0.2,0h-0.1c-0.2,0-0.3,0-0.5,0c-0.7,0-1.4,0-2.2,0
				c-1.5,0-2.9,0-3.6,0c-1.4,0-1.6,0-4,0c-1.2,0-2.4,0-2.6,0c-1.7,0-8.1,0-10.1,0c-4.6,0-15.5-0.1-17.9-0.2c-0.6,0-2.6,0-4.4,0
				c-0.4,0-0.8,0-0.9,0c0,0-0.1,0-0.2,0.1c-0.2,0-0.3,0.1-0.4,0.1c-0.1,0.1-0.1,0.1-0.1,0c0-0.1,0-0.1-0.1,0c-0.1,0.1-0.5,0.1-0.7,0
				c-0.1,0-0.2-0.1-0.2,0c-0.1,0.1-0.2,0.1-0.4,0c-0.1,0-0.1,0-0.1,0c0,0.1-0.3,0-0.4-0.1c0,0-0.1,0-0.2,0s-0.2,0-0.3,0
				c-0.1,0-0.3,0-0.3,0c-0.1,0-0.1,0-0.1,0s-0.1-0.1-0.2-0.1s-0.7,0.1-0.8,0.1s-0.6-0.1-0.6-0.1s-0.1,0-0.2,0
				c-0.1,0.1-0.1,0.1-0.2,0c-0.1-0.1-0.4-0.1-0.9,0c-0.1,0-0.2,0-0.2,0l-0.1-0.1c-0.4,0-1-0.3-0.9-0.5c0,0,0-0.1-0.1-0.2
				c-0.1-0.1-0.1-0.1-0.1-0.1s0-0.1-0.1-0.1s-0.1,0,0-0.1c0.1-0.1,0-0.4-0.1-0.5C16.3,134.5,16.3,134.4,16.4,134.3z"/>
		</g>
	</g>
	<g>
		<g>
			<path class="st0" d="M18.3,148.6v-0.1l0,0c0,0,0.1,0,0.3-0.1c0.1,0,0.1,0,0.1,0s0,0,0.1,0c0,0,0,0,0.1,0l0,0l0,0l0,0H19l0,0l0,0
				l0,0c0,0,0,0,0.1,0h0.1l0,0l0,0h0.1l0,0h0.1l0,0l0,0l0,0l0,0l0,0l0,0l0,0l0,0l0,0l0,0l0,0h0.1l0,0c0,0,0.1,0,0.2,0s0.2,0,0.3,0
				h0.1h0.1h0.1c0.1,0,0.1,0,0.1,0l0,0c0,0,0,0,0.1,0c1.3,0,3,0,5.2,0c5.1,0,12.2,0,20.2,0c3.9,0,7.3,0,7.8,0c0.4,0,0.8,0,1,0
				c0.1,0,0.5,0,0.7,0c0.5,0,6.7,0,7,0c0.1,0,1.9,0,4.1,0c5.5,0,12.7,0,16.5,0c1.8,0,3.6,0,4.2,0s1.1,0,1.3,0c0.2,0,49.2,0,55.3,0
				c6.1,0,2.6,0,4.5,0c4.5,0,8,0,10.3,0c0.1,0,0.2,0,0.2,0l0,0c0,0,0,0,0.1,0h0.1c0,0,0,0,0.1,0l0,0l0,0h0.1l0,0l0,0c0,0,0,0,0.1,0
				s0.2,0,0.2,0l0,0h0.1l0,0l0,0c0,0,0,0,0.1,0s0.1,0,0.1,0l0,0l0,0c0.1,0,0.2,0,0.2,0l0,0l0,0l0,0l0,0c0,0,0,0,0.1,0h0.1l0,0
				c0,0,0,0,0.1,0c0,0,0,0,0.1,0h0.1c0,0,0,0,0.1,0s0.1,0,0.1,0l0,0c0,0,0,0,0.1,0l0,0l0,0l0,0c0,0,0,0.1,0.1,0.1l0,0c0,0,0,0,0,0.1
				l0,0l0,0c0,0,0.1,0,0,0.1l0,0c0,0,0,0,0,0.1c0,0.1,0,0.1,0,0.1l0,0l0,0c0,0,0.1,0.1,0,0.1c0,0,0,0,0,0.1c0,0.1,0,0.2,0,0.2l0,0
				l0,0l0,0l0,0l0,0c0,0,0,0,0.1,0c0,0,0,0,0,0.1v0.1c0,0,0,0,0,0.1c0,0,0,0,0,0.1l0,0l0,0c0,0,0.1,0.1,0,0.1l0,0c0,0,0,0,0,0.1v0.1
				l0,0l0,0l0,0l0,0l0,0l0,0l0,0l0,0l0,0l0,0v0.1l0,0v0.1c0,0-0.1,0.1,0,0.1l0,0l0,0l0,0l0,0l0,0l0,0l0,0l0,0c0,0-0.1,0.1-0.1,0
				h-0.1h-0.1l0,0c0,0,0,0-0.1,0c0,0,0,0-0.1,0h-0.2h-0.1h-0.1H160l0,0c0,0,0,0-0.1,0l0,0c0,0,0,0-0.1,0h-0.1l0,0h-0.1h-0.1h-0.1
				l0,0h-0.2c0,0,0,0-0.1,0H159c0,0,0,0-0.1,0h-0.1l0,0l0,0c-1.3,0-135.7,0-138.3,0h-0.1c-0.1,0-0.1,0-0.1,0l0,0l0,0c0,0,0,0-0.1,0
				h-0.1l0,0c0,0,0,0,0,0.1c-0.1,0-0.1,0-0.1,0h-0.1l0,0h-0.1h-0.1c0,0,0,0-0.1,0c0,0-0.1,0-0.2,0s-0.1,0-0.1,0l0,0l0,0l0,0l0,0l0,0
				l0,0h-0.1h-0.1H19l0,0l0,0l0,0l0,0c0,0-0.1,0-0.2,0c0,0,0,0-0.1,0c0,0,0,0-0.1,0l0,0l0,0h-0.1l0,0c0,0,0,0-0.1,0h-0.1
				c0,0,0,0-0.1,0s-0.1,0-0.1-0.1l0,0l0,0l0,0l0,0v-0.1v-0.1V150c0-0.1,0-0.1,0-0.1l0,0v-0.1c0-0.1,0-0.1,0-0.1l0,0v-0.2
				c0,0,0,0,0-0.1v-0.1v-0.1V149c0,0,0-0.1,0-0.2c0-0.2,0-0.3,0-0.3C18.4,148.8,18.4,148.7,18.3,148.6
				C18.4,148.7,18.4,148.6,18.3,148.6z"/>
		</g>
	</g>
	<g>
		<g>
			<path class="st0" d="M17.3,156.3L17.3,156.3L17.3,156.3c0-0.1,0.1-0.1,0.3-0.2c0.1,0,0.1,0,0.1,0s0,0,0.1,0c0,0,0,0,0.1,0l0,0
				l0,0l0,0H18l0,0l0,0l0,0c0,0,0,0,0.1,0h0.1l0,0l0,0h0.1l0,0h0.1l0,0l0,0l0,0l0,0l0,0l0,0l0,0l0,0l0,0l0,0l0,0h0.1l0,0
				c0,0,0.1,0,0.2,0s0.2,0,0.3,0h0.1h0.1h0.1c0.1,0,0.1,0,0.1,0l0,0c0,0,0,0,0.1,0c1.5,0,3.6,0,6.1,0c6,0,14.3,0,23.9,0
				c4.6,0,8.7,0,9.1,0c0.5,0,1,0,1.2,0s0.5,0,0.8,0c0.6,0,7.9,0,8.2,0c0.1,0,2.3,0,4.9,0c6.5,0,15,0,19.5,0c2.1,0,48.3,0,49,0
				s1.3,0,1.5,0s-3.8,0,3.4,0s14.9,0,17.1,0c5.4,0,9.4,0,12.2,0c0.1,0,0.2,0,0.2,0l0,0c0,0,0,0,0.1,0h0.1c0,0,0,0,0.1,0l0,0l0,0h0.1
				l0,0l0,0c0,0,0,0,0.1,0s0.2,0,0.2,0l0,0h0.1l0,0l0,0c0,0,0,0,0.1,0s0.1,0,0.1,0l0,0l0,0c0.1,0,0.2,0,0.2,0l0,0l0,0l0,0l0,0
				c0,0,0,0,0.1,0h0.1l0,0c0,0,0,0,0.1,0c0,0,0,0,0.1,0h0.1c0,0,0,0,0.1,0s0.1,0,0.1,0l0,0c0,0,0,0,0.1,0l0,0l0,0l0,0
				c0,0,0,0.1,0.1,0.1l0,0c0,0,0,0,0,0.1l0,0l0,0c0,0,0.1,0,0,0.1l0,0c0,0,0,0,0,0.1c0,0.1,0,0.1,0,0.1l0,0l0,0c0,0,0.1,0.1,0,0.1
				c0,0,0,0,0,0.1c0,0.1,0,0.2,0,0.2l0,0l0,0l0,0l0,0l0,0c0,0,0,0,0.1,0c0,0,0,0,0,0.1v0.1c0,0,0,0,0,0.1c0,0,0,0,0,0.1l0,0l0,0
				c0,0,0.1,0.1,0,0.1l0,0c0,0,0,0,0,0.1v0.1l0,0l0,0l0,0l0,0l0,0l0,0l0,0l0,0l0,0l0,0v0.1l0,0v0.1c0,0-0.1,0.1,0,0.1l0,0l0,0l0,0
				l0,0l0,0l0,0l0,0l0,0c0,0-0.1,0.1-0.1,0h-0.1h-0.1l0,0c0,0,0,0-0.1,0c0,0,0,0-0.1,0h-0.2H178h-0.1h-0.1l0,0c0,0,0,0-0.1,0l0,0
				c0,0,0,0-0.1,0h-0.1l0,0h-0.1h-0.1h-0.1l0,0H177c0,0,0,0-0.1,0h-0.1c0,0,0,0-0.1,0h-0.1l0,0l0,0c-1.5,0-153.9,0-157,0h-0.1
				c-0.1,0-0.1,0-0.1,0l0,0l0,0c0,0,0,0-0.1,0h-0.1l0,0c0,0,0,0,0,0.1c-0.1,0-0.1,0-0.1,0H19l0,0h-0.1h-0.1c0,0,0,0-0.1,0
				c0,0-0.1,0-0.2,0s-0.1,0-0.1,0l0,0l0,0l0,0l0,0l0,0l0,0h-0.1h-0.1h-0.1l0,0l0,0l0,0l0,0c0,0-0.1,0-0.2,0c0,0,0,0-0.1,0
				c0,0,0,0-0.1,0l0,0l0,0h-0.1l0,0c0,0,0,0-0.1,0h-0.1c0,0,0,0-0.1,0s-0.1,0-0.1-0.1l0,0l0,0l0,0l0,0v-0.1v-0.1v-0.1
				c0-0.1,0-0.1,0-0.1l0,0v-0.1c0-0.1,0-0.1,0-0.1l0,0v-0.2c0,0,0,0,0-0.1V157v-0.1v-0.2c0,0,0-0.1,0-0.2c0-0.2,0-0.3,0-0.3
				C17.4,156.4,17.4,156.4,17.3,156.3C17.4,156.3,17.4,156.3,17.3,156.3z"/>
		</g>
	</g>
	<g>
		<g>
			<path class="st0" d="M18.3,164.2L18.3,164.2L18.3,164.2c0-0.1,0.1-0.1,0.3-0.2c0.1,0,0.1,0,0.1,0s0,0,0.1,0c0,0,0,0,0.1,0l0,0
				l0,0l0,0H19l0,0l0,0l0,0c0,0,0,0,0.1,0h0.1l0,0l0,0h0.1l0,0h0.1l0,0l0,0l0,0l0,0l0,0l0,0l0,0l0,0l0,0l0,0l0,0h0.1l0,0
				c0,0,0.1,0,0.2,0s0.2,0,0.3,0h0.1h0.1h0.1c0.1,0,0.1,0,0.1,0l0,0c0,0,0,0,0.1,0c1.3,0,3,0,5.2,0c5.1,0,12.2,0,20.2,0
				c3.9,0,7.3,0,7.8,0c0.4,0,0.8,0,1,0c0.1,0,0.5,0,0.7,0c0.5,0,6.7,0,7,0c0.1,0,1.9,0,4.1,0c5.5,0,12.7,0,16.5,0c1.8,0,3.6,0,4.2,0
				s1.1,0,1.3,0c0.2,0,49.2,0,55.3,0c6.1,0,2.6,0,4.5,0c4.5,0,28,0,30.3,0c0.1,0,0.2,0,0.2,0l0,0c0,0,0,0,0.1,0h0.1c0,0,0,0,0.1,0
				l0,0l0,0h0.1l0,0l0,0c0,0,0,0,0.1,0s0.2,0,0.2,0l0,0h0.1l0,0l0,0c0,0,0,0,0.1,0s0.1,0,0.1,0l0,0l0,0c0.1,0,0.2,0,0.2,0l0,0l0,0
				l0,0l0,0c0,0,0,0,0.1,0h0.1l0,0c0,0,0,0,0.1,0c0,0,0,0,0.1,0h0.1c0,0,0,0,0.1,0s0.1,0,0.1,0l0,0c0,0,0,0,0.1,0l0,0l0,0l0,0
				c0,0,0,0.1,0.1,0.1l0,0c0,0,0,0,0,0.1l0,0l0,0c0,0,0.1,0,0,0.1l0,0c0,0,0,0,0,0.1c0,0.1,0,0.1,0,0.1l0,0l0,0c0,0,0.1,0.1,0,0.1
				c0,0,0,0,0,0.1c0,0.1,0,0.2,0,0.2l0,0l0,0l0,0l0,0l0,0c0,0,0,0,0.1,0c0,0,0,0,0,0.1v0.1c0,0,0,0,0,0.1c0,0,0,0,0,0.1l0,0l0,0
				c0,0,0.1,0.1,0,0.1l0,0c0,0,0,0,0,0.1v0.1l0,0l0,0l0,0l0,0l0,0l0,0l0,0l0,0l0,0l0,0v0.1l0,0v0.1c0,0-0.1,0.1,0,0.1l0,0l0,0l0,0
				l0,0l0,0l0,0l0,0l0,0c0,0-0.1,0.1-0.1,0h-0.1h-0.1l0,0c0,0,0,0-0.1,0c0,0,0,0-0.1,0h-0.2h-0.1h-0.1H180l0,0c0,0,0,0-0.1,0l0,0
				c0,0,0,0-0.1,0h-0.1l0,0h-0.1h-0.1h-0.1l0,0h-0.2c0,0,0,0-0.1,0H179c0,0,0,0-0.1,0h-0.1l0,0l0,0c-1.3,0-155.7,0-158.3,0h-0.1
				c-0.1,0-0.1,0-0.1,0l0,0l0,0c0,0,0,0-0.1,0h-0.1l0,0c0,0,0,0,0,0.1c-0.1,0-0.1,0-0.1,0h-0.1l0,0h-0.1h-0.1c0,0,0,0-0.1,0
				c0,0-0.1,0-0.2,0s-0.1,0-0.1,0l0,0l0,0l0,0l0,0l0,0l0,0h-0.1h-0.1H19l0,0l0,0l0,0l0,0c0,0-0.1,0-0.2,0c0,0,0,0-0.1,0
				c0,0,0,0-0.1,0l0,0l0,0h-0.1l0,0c0,0,0,0-0.1,0h-0.1c0,0,0,0-0.1,0s-0.1,0-0.1-0.1l0,0l0,0l0,0l0,0v-0.1v-0.1v-0.1
				c0-0.1,0-0.1,0-0.1l0,0v-0.1c0-0.1,0-0.1,0-0.1l0,0v-0.2c0,0,0,0,0-0.1v-0.1v-0.1v-0.2c0,0,0-0.1,0-0.2c0-0.2,0-0.3,0-0.3
				C18.4,164.4,18.4,164.3,18.3,164.2C18.4,164.3,18.4,164.2,18.3,164.2z"/>
		</g>
	</g>
	<g>
		<g>
			<path class="st0" d="M18.3,171.9L18.3,171.9L18.3,171.9c0-0.1,0.1-0.1,0.3-0.2c0.1,0,0.1,0,0.1,0s0,0,0.1,0c0,0,0,0,0.1,0l0,0
				l0,0l0,0H19l0,0l0,0l0,0c0,0,0,0,0.1,0h0.1l0,0l0,0h0.1l0,0h0.1l0,0l0,0l0,0l0,0l0,0l0,0l0,0l0,0l0,0l0,0l0,0h0.1l0,0
				c0,0,0.1,0,0.2,0s0.2,0,0.3,0h0.1h0.1h0.1c0.1,0,0.1,0,0.1,0l0,0c0,0,0,0,0.1,0c1.5,0,3.6,0,6.1,0c6,0,14.3,0,23.9,0
				c4.6,0,8.7,0,9.1,0c0.5,0,1,0,1.2,0s0.5,0,0.8,0c0.6,0,7.9,0,8.2,0c0.1,0,2.3,0,4.9,0c6.5,0,15,0,19.5,0c2.1,0,48.3,0,49,0
				s1.3,0,1.5,0s-3.8,0,3.4,0s14.9,0,17.1,0c5.4,0,8.7,0,11.5,0c0.1,0,0.2,0,0.2,0l0,0c0,0,0,0,0.1,0h0.1c0,0,0,0,0.1,0l0,0l0,0h0.1
				l0,0l0,0c0,0,0,0,0.1,0s0.2,0,0.2,0l0,0h0.1l0,0l0,0c0,0,0,0,0.1,0s0.1,0,0.1,0l0,0l0,0c0.1,0,0.2,0,0.2,0l0,0l0,0l0,0l0,0
				c0,0,0,0,0.1,0h0.1l0,0c0,0,0,0,0.1,0c0,0,0,0,0.1,0h0.1c0,0,0,0,0.1,0s0.1,0,0.1,0l0,0c0,0,0,0,0.1,0l0,0l0,0l0,0
				c0,0,0,0.1,0.1,0.1l0,0c0,0,0,0,0,0.1l0,0l0,0c0,0,0.1,0,0,0.1l0,0c0,0,0,0,0,0.1c0,0.1,0,0.1,0,0.1l0,0l0,0c0,0,0.1,0.1,0,0.1
				c0,0,0,0,0,0.1c0,0.1,0,0.2,0,0.2l0,0l0,0l0,0l0,0l0,0c0,0,0,0,0.1,0c0,0,0,0,0,0.1v0.1c0,0,0,0,0,0.1c0,0,0,0,0,0.1l0,0l0,0
				c0,0,0.1,0.1,0,0.1l0,0c0,0,0,0,0,0.1v0.1l0,0l0,0l0,0l0,0l0,0l0,0l0,0l0,0l0,0l0,0v0.1l0,0v0.1c0,0-0.1,0.1,0,0.1l0,0l0,0l0,0
				l0,0l0,0l0,0l0,0l0,0c0,0-0.1,0.1-0.1,0h-0.1h-0.1l0,0c0,0,0,0-0.1,0c0,0,0,0-0.1,0h-0.2h-0.1h-0.1h-0.1l0,0c0,0,0,0-0.1,0l0,0
				c0,0,0,0-0.1,0h-0.1l0,0h-0.1h-0.1h-0.1l0,0h-0.2c0,0,0,0-0.1,0h-0.1c0,0,0,0-0.1,0h-0.1l0,0l0,0c-1.5,0-153.2,0-156.3,0h-0.1
				c-0.1,0-0.1,0-0.1,0l0,0l0,0c0,0,0,0-0.1,0h-0.1l0,0c0,0,0,0,0,0.1c-0.1,0-0.1,0-0.1,0H20l0,0h-0.1h-0.1c0,0,0,0-0.1,0
				c0,0-0.1,0-0.2,0s-0.1,0-0.1,0l0,0l0,0l0,0l0,0l0,0l0,0h-0.1h-0.1h-0.1l0,0l0,0l0,0l0,0c0,0-0.1,0-0.2,0c0,0,0,0-0.1,0
				c0,0,0,0-0.1,0l0,0l0,0h-0.1l0,0c0,0,0,0-0.1,0h-0.1c0,0,0,0-0.1,0s-0.1,0-0.1-0.1l0,0l0,0l0,0l0,0v-0.1v-0.1v-0.1
				c0-0.1,0-0.1,0-0.1l0,0v-0.1c0-0.1,0-0.1,0-0.1l0,0v-0.2c0,0,0,0,0-0.1v-0.1v-0.1v-0.2c0,0,0-0.1,0-0.2c0-0.2,0-0.3,0-0.3
				C18.4,172,18.4,172,18.3,171.9C18.4,171.9,18.4,171.9,18.3,171.9z"/>
		</g>
	</g>
	<g>
		<g>
			<path class="st0" d="M17.3,181.4v-0.1l0,0c0,0,0.1,0,0.3-0.1c0.1,0,0.1,0,0.1,0s0,0,0.1,0c0,0,0,0,0.1,0l0,0l0,0l0,0H18l0,0l0,0
				l0,0c0,0,0,0,0.1,0h0.1l0,0l0,0h0.1l0,0h0.1l0,0l0,0l0,0l0,0l0,0l0,0l0,0l0,0l0,0l0,0l0,0h0.1l0,0c0,0,0.1,0,0.2,0s0.2,0,0.3,0
				h0.1h0.1h0.1c0.1,0,0.1,0,0.1,0l0,0c0,0,0,0,0.1,0c1.5,0,3.6,0,6.1,0c6,0,14.3,0,23.9,0c4.6,0,8.7,0,9.1,0c0.5,0,1,0,1.2,0
				s0.5,0,0.8,0c0.6,0,7.9,0,8.2,0c0.1,0,2.3,0,4.9,0c6.5,0,15,0,19.5,0c2.1,0,18.3,0,19,0s1.3,0,1.5,0s-3.8,0,3.4,0s14.9,0,17.1,0
				c5.4,0,8.7,0,11.5,0c0.1,0,0.2,0,0.2,0l0,0c0,0,0,0,0.1,0h0.1c0,0,0,0,0.1,0l0,0l0,0h0.1l0,0l0,0c0,0,0,0,0.1,0s0.2,0,0.2,0l0,0
				h0.1l0,0l0,0c0,0,0,0,0.1,0s0.1,0,0.1,0l0,0l0,0c0.1,0,0.2,0,0.2,0l0,0l0,0l0,0l0,0c0,0,0,0,0.1,0h0.1l0,0c0,0,0,0,0.1,0
				c0,0,0,0,0.1,0h0.1c0,0,0,0,0.1,0s0.1,0,0.1,0l0,0c0,0,0,0,0.1,0l0,0l0,0l0,0c0,0,0,0.1,0.1,0.1l0,0c0,0,0,0,0,0.1l0,0l0,0
				c0,0,0.1,0,0,0.1l0,0c0,0,0,0,0,0.1s0,0.1,0,0.1l0,0l0,0c0,0,0.1,0.1,0,0.1c0,0,0,0,0,0.1s0,0.2,0,0.2l0,0l0,0l0,0l0,0l0,0
				c0,0,0,0,0.1,0c0,0,0,0,0,0.1v0.1c0,0,0,0,0,0.1c0,0,0,0,0,0.1l0,0l0,0c0,0,0.1,0.1,0,0.1l0,0c0,0,0,0,0,0.1v0.1l0,0l0,0l0,0l0,0
				l0,0l0,0l0,0l0,0l0,0l0,0v0.1l0,0v0.1c0,0-0.1,0.1,0,0.1l0,0l0,0l0,0l0,0l0,0l0,0l0,0l0,0c0,0-0.1,0.1-0.1,0h-0.1h-0.1l0,0
				c0,0,0,0-0.1,0c0,0,0,0-0.1,0h-0.2h-0.1h-0.1h-0.1l0,0c0,0,0,0-0.1,0l0,0c0,0,0,0-0.1,0h-0.1l0,0h-0.1h-0.1h-0.1l0,0h-0.2
				c0,0,0,0-0.1,0h-0.1c0,0,0,0-0.1,0h-0.1l0,0l0,0c-1.5,0-123.2,0-126.3,0h-0.1c-0.1,0-0.1,0-0.1,0l0,0l0,0c0,0,0,0-0.1,0h-0.1l0,0
				c0,0,0,0,0,0.1c-0.1,0-0.1,0-0.1,0H19l0,0h-0.1h-0.1c0,0,0,0-0.1,0c0,0-0.1,0-0.2,0s-0.1,0-0.1,0l0,0l0,0l0,0l0,0l0,0l0,0h-0.1
				h-0.1h-0.1l0,0l0,0l0,0l0,0c0,0-0.1,0-0.2,0c0,0,0,0-0.1,0c0,0,0,0-0.1,0l0,0l0,0h-0.1l0,0c0,0,0,0-0.1,0h-0.1c0,0,0,0-0.1,0
				s-0.1,0-0.1-0.1l0,0l0,0l0,0l0,0V183v-0.1v-0.1c0-0.1,0-0.1,0-0.1l0,0v-0.1c0-0.1,0-0.1,0-0.1l0,0v-0.2c0,0,0,0,0-0.1v-0.1V182
				v-0.2c0,0,0-0.1,0-0.2c0-0.2,0-0.3,0-0.3C17.4,181.5,17.4,181.5,17.3,181.4C17.4,181.4,17.4,181.4,17.3,181.4z"/>
		</g>
	</g>
	<g>
		<path class="st0" d="M86,13.7c0,0-0.1,0-0.2,0.1c-1.4,2.2-2.3,3.9-3.2,5.6c-0.2,0.3-0.2,0.4-0.2,0.5s0,0.1,0.1,0.1
			c0.2,0,1.2-0.3,1.8-0.5c0.7-0.3,1.1-0.4,1.2-0.4s0.1-0.1,0.1-0.2c0.3-2.5,0.4-4,0.4-4.8C86,13.8,86,13.7,86,13.7z"/>
		<path class="st0" d="M72,13.3c-0.7,0-1.4,0.4-1.9,0.5c0.1,0.1,0.1,0.1,0.1,0.1c0,0.3-0.2,0.3-0.3,0.6c-1.2,2.7-2.5,5.4-2.9,8.2
			c0,0.1,0,0.1,0.1,0.2c0.1,0,0.4,0.1,0.6,0.1c0.7,0,1.2-0.3,1.7-0.8c1.7-1.7,2.8-3.7,3.7-5.9c0.2-0.4,0.4-1,0.4-1.5
			c0-0.1-0.1-0.7-0.2-0.9C72.9,13.5,72.4,13.3,72,13.3z"/>
		<path class="st0" d="M2,1.2v31.4h196.6V1.2H2z M22.4,16.6c-0.6,2.5-1.5,5-3,7.1c-0.2,0.3-0.5,0.6-0.9,0.6c-0.1,0-0.2-0.1-0.5-0.1
			s-0.4-0.1-0.6-0.3c-0.1-0.1-0.6-0.2-0.7-0.4c-0.3-0.7-0.4-1.5-0.5-2.4c0-0.3-0.1-0.3-0.1-0.3c-0.1,0-0.1,0-0.2,0.1
			c-0.2,0.3-0.3,0.5-0.6,0.8c-0.9,0.8-1.6,2.3-2.4,2.3c-0.1,0-0.3-0.1-0.6-0.4c-0.2-0.2-0.6-0.1-0.6-0.3c0-0.1,0-0.2,0-0.6
			c0-0.6,0.1-1.1,0.2-1.5c0.1-0.4,0-0.4,0.1-1c0.6-2.5,1.4-5.1,2.1-7.5c0.1-0.2,0.1-0.3,0.6-0.3c0.2,0,0.4,0.1,0.6,0.1
			c0.1,0,0.5,0.4,0.5,0.5s0,0.1-0.1,0.2c-1.1,2.6-1.8,5.5-2.4,8.4c-0.1,0.3-0.1,0.5-0.1,0.6s0,0.1,0.1,0.1s0.1,0,0.5-0.4
			c1.2-1.2,2.3-2.8,2.9-4.1c0.2-0.4,0.2-0.5,0.3-0.8c0.1-0.3,0.2-0.6,0.3-0.9c0.1-0.1,0.1-0.1,0.1-0.1c0.1,0,0.3,0.1,0.5,0.1
			c0.1,0,0.3,0.1,0.4,0.2c0.2,0.3,0.3,0.5,0.3,0.7s0,0.3-0.1,0.4c-0.3,1-0.5,2.1-0.5,3.2c0,0.7,0.1,1.5,0.2,2.3
			c0,0.1,0.1,0.2,0.1,0.2c0.1,0,0.2-0.1,0.3-0.3c1.5-2,2.3-4.6,2.9-7.1c0.1-0.4,0.1-0.6,0.1-0.8c0-0.4,0-0.5,0-1
			c0-0.6-0.4-0.7-0.4-1.2c0-0.4,0-0.6,0.2-0.6c0.1,0,0.3,0,0.5,0c0.3,0,0.6,0,0.8,0.5c0.2,0.3,0.2,0.6,0.2,1c0,0.3,0,0.5,0,0.7
			C22.8,14.8,22.7,15.4,22.4,16.6z M25.1,22.5c0,0.1,0,0.1,0,0.2s0,0.2,0,0.3c0,0.3-0.1,0.6-0.3,1.1c0,0.1-0.2,0.1-0.2,0.1
			c-0.1,0-0.2,0.1-0.2,0.2c-0.1,0.1-0.1,0.1-0.2,0.1s-0.1-0.2-0.3-0.2c-0.2,0-0.5-0.3-0.6-0.3s-0.1-0.1-0.1-0.1
			c0-0.1,0.2-1.1,0.3-1.4c0.1-0.1,0.1-0.2,0.2-0.4c0.7-2.8,1.7-5.2,2.5-8c0.2-0.5,0.4-0.5,0.7-1.8c0.1-0.2,0.3-0.2,0.7-0.2
			c0.4,0,1,0.2,1,0.5c0,0.6-0.1,0.8-0.5,1.2c-0.1,0.1-0.1,0.1-0.2,0.4C26.9,17,26,19.7,25.1,22.5z M37.5,25.2
			c-0.3,0-0.1,0.1-0.5,0.1c-0.9,0-1.7-0.7-2.1-1.2c-0.4-0.5-0.9-0.9-1.2-1.4c-1.1-1.4-1.9-3.1-2.2-4.2c0-0.1,0-0.1-0.1-0.1
			s-0.1,0-0.1,0.1c-0.8,1.5-1.4,3.2-1.7,4.9c0,0.1,0,0.2-0.3,0.4C29.2,23.9,29.1,24,29,24c-0.2,0-0.2-0.2-0.5-0.3
			c-0.3-0.1-0.5-0.2-0.5-0.4c0-0.1,0-0.2,0.1-0.5c1.2-3.8,3-7.7,4.2-10c0.2-0.3,0.2-0.3,0.3-0.3c0.2-0.1,0.4-0.5,0.7-0.5
			c0.1,0,0.1,0,0.2,0c0.1,0.1,0.1,0.1,0.3,0.2c0.1,0.1,0.3,0.1,0.4,0.2c0.1,0.1,0.1,0.3,0.1,0.4c0,0.1,0,0.1-0.1,0.3
			c-0.8,1.2-1.5,2.4-2,3.7c0,0.1,0,0.1,0.1,0.1s0.2,0,0.4-0.1s0.1,0,0.5-0.2c2.4-1.2,4.3-2.6,5.7-4.3c0.1-0.1,0.1-0.1,0.2-0.1
			c0.3,0,0.7,0.1,0.9,0.3c0.1,0.1,0.2,0.1,0.3,0.1c0.1,0.1,0.1,0.1,0.1,0.2c0,0,0,0.1-0.2,0.3c-1.2,1.5-2.7,2.7-4.2,3.6
			c-0.8,0.5-1.7,0.9-2.7,1.4c-0.2,0.1-0.3,0.2-0.3,0.3s0.1,0.3,0.1,0.5c0.2,0.4,0.2,0.5,0.3,0.8c0.5,1,1.8,2.9,3,4.1
			c0.3,0.3,0.3,0.3,0.5,0.4c0.5,0.2,0.8,0.5,0.8,0.8C37.7,25.1,37.6,25.2,37.5,25.2z M40,22.5c0,0.1,0,0.1,0,0.2s0,0.2,0,0.3
			c0,0.3-0.1,0.6-0.3,1.1c0,0.1-0.2,0.1-0.2,0.1c-0.1,0-0.2,0.1-0.2,0.2c-0.1,0.1-0.1,0.1-0.2,0.1c-0.1,0-0.1-0.2-0.3-0.2
			S38.3,24,38.2,24S38,24,38,23.9s0.2-1.1,0.3-1.4c0.1-0.1,0.1-0.2,0.2-0.4c0.7-2.8,1.7-5.2,2.5-8c0.2-0.5,0.4-0.5,0.7-1.8
			c0.1-0.2,0.3-0.2,0.7-0.2s1,0.2,1,0.5c0,0.6-0.1,0.8-0.5,1.2c-0.1,0.1-0.1,0.1-0.2,0.4C41.7,17,40.9,19.7,40,22.5z M55.5,13.8
			c-1.9,2.9-2.9,6-3.4,11.1c0,0.4-0.1,0.4-0.1,0.4c-0.1,0-0.3-0.1-0.4-0.1c-0.1,0-0.1,0.1-0.2,0.1c-0.2,0-0.6-0.2-0.7-0.3
			c-0.1-0.1-0.1-0.1-0.1-0.2s0.6-3.8,0.7-4.4c0.1-0.6,0.6-2.1,0.9-3.1c0-0.1,0-0.1-0.1-0.1c0,0-0.1,0-0.1,0.1
			c-0.9,0.9-2.3,2.4-2.5,2.7c-0.2,0-0.2,0-0.3,0s-0.3-0.1-0.6-0.2s-0.6-0.1-0.8-0.4c-0.1-0.2-0.3-0.9-0.4-1.6v-1.7
			c0-0.1,0-0.1-0.1-0.1s-0.1,0-0.2,0.3c-0.6,1-0.9,2-1.4,3.2c-0.8,2.1-1.1,3.5-1.1,4.2c0,0.1-0.2,0.3-0.3,0.3
			c-0.3,0-0.3,0.2-0.4,0.2S43.3,24,43.2,24s-0.4-0.4-0.4-0.7c0-0.7,0.5-1.2,0.6-1.7c0.9-3.5,3-7,4.2-10c0.1-0.3,0.1-0.3,0.2-0.3
			c0.2,0,0.2,0.1,0.5,0.1s0.6,0.1,0.8,0.3c0.1,0.1,0.1,0.1,0.1,0.2c0,0.3-0.3,1.3-0.5,1.9c-0.1,0.2-0.2,0.9-0.2,1.9
			c0,0.1,0,0.6,0,2.4c0,0.1,0.1,0.2,0.1,0.2s0.1,0,0.2-0.2c1.7-1.8,3.7-3.3,5.1-5.1c0.1-0.2,0.2-0.2,0.3-0.2c0.5,0,0.6,0.1,0.8,0.1
			c0.1,0,0.4,0.3,0.4,0.7C55.6,13.7,55.6,13.7,55.5,13.8z M63,22.2c-1.6,0.9-3.4,1.8-5.8,1.8c-0.1,0-1-0.2-1.4-0.7
			c-0.1-0.2-0.1-0.7-0.1-0.9c0-1.5,0.7-2.8,1.1-4.1c-0.1-0.1-0.2-0.3-0.2-0.6c0-0.1,0-0.2,0-0.2c0.1-0.1,0.1-0.1,0.5-0.2
			c0.1,0,0.2-0.1,0.3-0.3c0.5-1.1,0.8-1.7,0.9-2.3c0-0.1,0-0.1-0.1-0.1s-0.4,0.1-0.7,0.1c-0.1,0-0.2,0-0.3-0.1
			c-0.3-0.1-0.5-0.7-0.5-0.9c0-0.1,0-0.1,0.1-0.1c1.2-0.3,2.2-0.7,3.3-1.1c0.7-0.3,3.1-0.9,4.9-0.9c0.2,0,0.5,0.1,0.6,0.1
			c0.4,0.2,0.9,0.6,0.9,0.9c0,0.3-0.1,0.3-0.3,0.3c-0.2,0-0.3,0.1-0.5,0.1c-0.1,0-0.3-0.2-0.6-0.2c-1.7,0-3.3,0.4-4.5,0.8
			c-0.1,0-0.2,0.1-0.2,0.2c-0.3,0.9-0.6,1.7-1,2.5c0,0.1,0,0.1,0.1,0.1c0.8-0.3,1.7-0.7,2.6-0.7c0.4,0,0.9,0.1,1.4,0.4
			c0.2,0.1,0.2,0.4,0.2,0.6c0,0.2-0.7,0.4-0.9,0.4S62.4,17,62.2,17c-1.1,0-2.2,0.6-3.1,0.8c-0.1,0-0.5,0.1-0.5,0.3
			c-0.8,1.7-1.4,3-1.4,4c0,0.3,0.3,0.6,0.5,0.6c0.3,0,1-0.1,1.5-0.3c0.5-0.2,0.9-0.4,1.2-0.5c1-0.4,1.8-1.3,2.9-1.3
			c0.1,0,0.1,0,0.2,0.1c0.1,0.1,0.6,0.3,0.6,0.6c0,0.1,0,0.2-0.1,0.2s-0.3,0.1-0.4,0.2C63.3,22,63.1,22.2,63,22.2z M74.2,17.8
			c-1.3,2.7-2.8,5.4-5.4,6.3c-0.2,0.1-0.4,0.1-0.6,0.1c-0.5,0-0.9-0.1-1.4-0.2c0,0.2-0.2,0.2-0.5,0.2s-0.8-0.3-1-0.7
			c-0.6-0.2-1.5-0.7-1.5-1.3c0-0.2,0.2-0.3,0.4-0.3c0.2,0,0.4,0.1,0.7,0.1c0.2,0,0.3,0.2,0.5,0.2c0.1,0,0.1,0,0.1-0.1
			c0.5-2.2,1.3-4.4,2.2-6.6c0-0.1,0-0.1-0.1-0.1s-0.6,0.4-0.9,0.4c-0.2,0-0.4-0.2-0.4-0.4c0-0.8,0-0.9,1.3-1.8
			c1-0.7,2.5-1.3,3.8-1.3c0.5,0,1.2,0.1,1.7,0.4c0.5,0.3,1,0.6,1.4,1.2c0.2,0.3,0.4,0.6,0.4,1.5c0,0.5-0.2,1.1-0.5,1.7
			C74.3,17.3,74.3,17.4,74.2,17.8z M76.9,23c0,0.3-0.1,0.6-0.3,1.1c0,0.1-0.2,0.1-0.2,0.1c-0.1,0-0.2,0.1-0.2,0.2
			c-0.1,0.1-0.1,0.1-0.2,0.1s-0.1-0.2-0.3-0.2c-0.2,0-0.5-0.3-0.6-0.3S75,23.9,75,23.9c0-0.1,0.2-1.1,0.3-1.4
			c0.1-0.1,0.1-0.2,0.2-0.4c0.7-2.8,1.7-5.2,2.5-8c0.2-0.5,0.4-0.5,0.7-1.8c0.1-0.2,0.3-0.2,0.7-0.2c0.4,0,1,0.2,1,0.5
			c0,0.6-0.1,0.8-0.5,1.2c-0.1,0.1-0.1,0.1-0.2,0.4c-1,2.6-1.9,5.3-2.8,8.2c0,0.1,0,0.1,0,0.2C76.8,22.8,76.9,22.9,76.9,23z
			 M89.4,19.1c-0.2,0.4-0.6,0.5-1.3,0.5c-0.3,0-0.6,0.1-0.8,0.2c-0.2,0.1-0.2,0.1-0.2,0.4L87,21.9c0,0.2,0,0.9,0,1.1
			c0,1.5,0.4,1.9,0.4,2c0,0.2-0.2,0.3-0.4,0.5c-0.1,0.1-0.1,0.1-0.2,0.1c-0.3,0-0.7-0.1-0.9-0.3c-0.2-0.2-0.3-1.4-0.3-2.3
			c0-0.8,0.1-1.6,0.1-2.4c0-0.1,0-0.1-0.1-0.1c-1,0.4-3,1-3.7,1.1c-0.1,0-0.2,0.1-0.3,0.3c-0.2,0.5-0.3,0.9-0.3,1.3
			c0,0.8,0.1,0.9,0.1,1c0,0,0,0.1-0.1,0.1c-0.2,0.2-0.4,0.4-0.7,0.4c-0.1,0-0.2-0.1-0.3-0.2c-0.4-0.3-0.5-0.5-0.5-1.2
			s0.2-1.5,0.2-1.6s0-0.1-0.1-0.1c-0.4-0.2-0.6-0.3-0.6-0.6c0-0.4,0.2-1,0.3-1c0.1-0.1,0.1-0.1,0.2-0.1c0.3,0,0.5,0.3,0.8,0.3
			c0.1,0,0.1,0,0.2-0.3c1.4-2.6,2.9-5.1,4.9-8.1c0.3-0.4,0.3-0.5,0.4-0.5c0.2,0,0.7-0.2,1.2-0.2c0.2,0,0.6,0.1,0.6,0.2
			c0.1,0.2,0.1,0.1,0.1,0.3s-0.3,1.6-0.3,1.7c0,0.2,0,0.4-0.1,0.6c-0.2,1.4-0.4,4.3-0.4,4.4c0,0.1,0,0.1,0.1,0.1s0.4-0.1,0.9-0.1
			s0.9,0.1,1.1,0.3c0.1,0.1,0.1,0.1,0.1,0.2C89.4,18.9,89.4,19,89.4,19.1z M159.2,21.3c0,1.4-1.1,2.4-2.4,2.4h-13.9l2.4-2.4v-9h13.9
			V21.3z M185.8,24.8h-0.1h-16.3V24c0-1.2,1-1.7,2-2c0.9-0.3,3.3-1.2,3.3-1.2c0.7-0.2,0.8-0.9,0.8-1.6V19c-1.1-1.1-2-2.7-2-4.4
			c0-4.3,2.4-5.3,4.1-5.3c2.4,0,4.1,1.5,4.1,5.3c0,1.8-0.9,3.4-2,4.4c0.1,0.7,0.1,1.4,0.8,1.6c0,0,2.3,0.9,3.3,1.2
			c1.4,0.4,2,1.1,2,2L185.8,24.8L185.8,24.8z"/>
	</g>
</g>
</svg>
