<?xml version="1.0" encoding="utf-8"?>
<!-- Generator: Adobe Illustrator 19.2.0, SVG Export Plug-In . SVG Version: 6.00 Build 0)  -->
<svg version="1.1" id="Layer_1" xmlns="http://www.w3.org/2000/svg" xmlns:xlink="http://www.w3.org/1999/xlink" x="0px" y="0px"
	 viewBox="0 0 200 200" style="enable-background:new 0 0 200 200;" xml:space="preserve">
<style type="text/css">
	.st0{fill:#FFFFFF;}
	.st1{fill:none;stroke:#FFFFFF;stroke-width:3;stroke-linecap:round;stroke-linejoin:round;}
	.st2{fill:none;stroke:#FFFFFF;stroke-width:0.8;stroke-miterlimit:10;}
	.st3{fill:#AB2023;}
	.st4{fill:#1A5A5A;}
	.st5{fill:#00AF89;}
	.st6{fill:#D02227;}
	.st7{fill:#555655;}
	.st8{fill:#4D74B9;}
	.st9{fill:#155C91;}
	.st10{fill:none;stroke:#FFFFFF;stroke-width:2;stroke-miterlimit:10;}
</style>
<g transform="matrix(1 0 0 -1 0 1638)">
	<path class="st0" d="M53.1,1579.1h13.1v1.5H53.1V1579.1z M53.1,1576.2h13.1v1.5H53.1V1576.2z M53.1,1573.2h13.1v1.5H53.1V1573.2z
		 M58.9,1586.4h-5.8v-1.5h5.8V1586.4z M58.9,1583.5h-5.8v-1.5h5.8V1583.5z M58.9,1589.3h-5.8v-1.5h5.8V1589.3z M66.2,1592.2h2.9
		v-23.4H54.5c-2.5,0-4.4,1.9-4.4,4.4v19h11.7l0,0V1582l2.2,2.9l2.2-2.9V1592.2z"/>
</g>
<path class="st0" d="M106.8,48.3c-2.5,0-4.4,1.9-4.4,4.4c0-2.5-1.9-4.4-4.4-4.4h-8.8v19H98c2.5,0,4.4,1.5,4.4,2.9
	c0-1.5,1.9-2.9,4.4-2.9h8.8v-19H106.8z M114.1,65.8c0,0-5.8,0-7.3,0c-2.5,0-2.9,0.6-2.9,0.6v-13c0-2,1.6-3.6,3.6-3.6h6.6V65.8z"/>
<g id="Layer_3_1_">
	<path class="st0" d="M151.3,45.5l-16.2,16.2l-1.3,6.7l6.7-1.3l16.2-16.2C156.6,48.2,153.9,45.5,151.3,45.5z M138,63.7
		c-0.4-0.4-0.9-0.8-1.3-1.1c3.1-3.1,15.2-15.4,15.2-15.4c0.5,0.1,0.9,0.4,1.3,0.9L138,63.7z"/>
</g>
<g>
	<g>
		<polygon class="st0" points="116.9,102.6 108.1,112.8 102.3,107 100.8,108.4 108.1,115.7 118.4,104 		"/>
	</g>
	<path class="st0" d="M111.1,107V90.9h-19v19c0,2.5,1.9,4.4,4.4,4.4h7.3l-4.4-4.4H95v-1.5h3.8l1.5-1.5H95v-1.5h13.1v1.5h-2.9
		l1.5,1.5h2.9L111.1,107z M95,93.8h5.8v1.5H95V93.8z M95,96.8h5.8v1.5H95V96.8z M95,99.7h5.8v1.5H95V99.7z M108.1,104H95v-1.5h13.1
		V104z M102.3,101.1v-7.3h5.8v7.3H102.3z"/>
</g>
<path class="st0" d="M63.7,91.6l-8.8-2.9l-8.8,2.9v21.9l8.8-2.9l8.8,2.9l8.8-2.9V88.7L63.7,91.6z M54.5,109.3l-6.9,2.2V92.7l7.3-2.5
	V109L54.5,109.3z M71,109.6l-7.3,2.5V93.2l0.4-0.1l6.9-2.3V109.6z"/>
<g>
	<path class="st0" d="M70.9,136.7h-4.4l-6.1,19h3.2l1.2-4.4h7.7l1.3,4.4h3.2L70.9,136.7z M65.8,148.4l2.9-8.8l2.9,8.8H65.8z"/>
	<path class="st0" d="M56.8,145.9c1.6-1.6,2.8-3.6,3.6-6.4h3.2l0.7-2.8H44.7v2.9h3.8c0.9,2.6,2,4.7,3.5,6.4c-1.6,1-6.3,2.6-6.3,2.6
		l1.9,2.6c0,0,5.1-2,6.9-3.2c1.5,1,3.4,1.8,5.4,2.5l0.9-2.9C59.3,147.2,57.8,146.6,56.8,145.9z M51.7,139.6h5.5
		c-0.6,1.9-1.3,2.9-2.8,4.4C52.8,142.5,52.3,141.5,51.7,139.6z"/>
	<path class="st0" d="M55,135.2h1.3l-1.5-2.9H52l0.7,1.5C53.1,134.6,54,135.2,55,135.2z"/>
</g>
<g transform="matrix(1 0 0 -1 0 1638)">
	<path class="st0" d="M147,1491.4h7.3v-1.5H147V1491.4z M147,1487h7.3v1.5H147V1487z M147,1485.6h7.3v-1.5H147V1485.6z
		 M145.6,1492.9v-4.4l-7.3-4.4l1.5,8.8l-5.8,4.4l8.8,1.5l2.9,7.3c0,0,2.8-7.3,2.9-7.3l8.8-1.5l-5.8-4.4H145.6z"/>
</g>
<path class="st0" d="M109.7,148.6c1.5-1.8,2.3-3.9,2.3-6.4c0-5.7-4.5-10.2-10.2-10.2s-10.2,4.5-10.2,10.2c0,5.7,4.5,10.2,10.2,10.2
	c1.8,0,3.4-0.4,4.7-1.2l4.1,4.1c2,2,3.6,2.2,5.8,0L109.7,148.6z M94.5,142.1c0-4.1,3.2-7.3,7.3-7.3s7.3,3.2,7.3,7.3
	c0,4.1-3.2,7.3-7.3,7.3S94.5,146.1,94.5,142.1z"/>
<path class="st0" d="M150.7,89.5h-11.1c-1.7,0-3.2,1.4-3.2,3.2v4.8h4.8v17.4l6.3-4.8l6.3,4.8V92.7C153.9,91,152.5,89.5,150.7,89.5z
	 M141.2,95.9H138v-3.2c0-1,0.6-1.6,1.6-1.6h1.6V95.9z"/>
</svg>
