<?xml version="1.0" encoding="utf-8"?>
<!-- Generator: Adobe Illustrator 19.2.0, SVG Export Plug-In . SVG Version: 6.00 Build 0)  -->
<svg version="1.1" id="Layer_1" xmlns="http://www.w3.org/2000/svg" xmlns:xlink="http://www.w3.org/1999/xlink" x="0px" y="0px"
	 viewBox="0 0 200 200" style="enable-background:new 0 0 200 200;" xml:space="preserve">
<style type="text/css">
	.st0{fill:#FFFFFF;}
	.st1{fill:none;stroke:#FFFFFF;stroke-width:3;stroke-linecap:round;stroke-linejoin:round;}
	.st2{fill:none;stroke:#FFFFFF;stroke-width:0.8;stroke-miterlimit:10;}
	.st3{fill:#AB2023;}
	.st4{fill:#1A5A5A;}
	.st5{fill:#00AF89;}
	.st6{fill:#D02227;}
	.st7{fill:#555655;}
	.st8{fill:#4D74B9;}
	.st9{fill:#155C91;}
	.st10{fill:none;stroke:#FFFFFF;stroke-width:2;stroke-miterlimit:10;}
</style>
<g>
	<g>
		<path class="st0" d="M15.7,89.3C15.6,89.3,15.6,89.3,15.7,89.3c0,0-0.1,0.1-0.1,0.1c0,0,0,0.1,0,0.1c0,0,0,0.1,0,0.1c0,0,0,0,0,0
			c0,0,0,0.1,0,0.1c0,0.1,0,0.1,0,0.1c0,0,0,0.1,0,0.1c0,0,0,0,0,0.1c0,0.1,0,0.1,0,0.1c0,0,0,0.1,0,0.1c0,0,0,0,0,0
			c0,0,0,0.1,0,0.1c0,0,0,0.1,0,0.1c0,0,0,0,0,0.1c0,0,0,0,0,0.1c0,0,0,0.1,0,0.1c0,0.1,0,0.1,0,0.1c0,0,0,0,0,0.1c0,0,0,0,0,0.1
			c0,0,0,0.1,0,0.2c0,0.1,0,0.1,0,0.1c0,0,0,0,0,0c0,0,0,0,0,0c0,0.1,0,0.1,0,0.2c0,0,0,0,0,0c0,0,0,0.1,0.1,0.3c0,3.1,0,7,0,10.4
			c0,0.4,0,1.7,0,2.9c0,3.6,0,12,0,12.8c0,0.4,0,0.9,0,1c0,0.2,0,0.5,0,0.6c0,0.5,0,4.8,0,12.6c0,1.2,0,2.5,0,4c0,0.7,0,1.4,0,2.1
			l0,0.3c0,0.1,0,0.2,0.1,0.2l0.5,0c0.4,0,0.7,0,1.1,0c0.9,0,1.9,0,2.9,0c3.1,0,6.3,0,9.4,0c6.1,0,11.2,0,11.9,0c0.6,0,1.2,0,1.4,0
			c0.3,0,0.4,0,0.4,0c0,0,0.2,0,0.5,0c0.3,0,0.8,0,1.4,0c1,0,5,0,8.8,0c3.8,0,7,0,7.3,0c0.2,0,0.4,0,0.4,0c0,0,0.1,0,0.3,0
			c0.2,0,0.4,0,0.7,0c0.5,0,1.1,0,1.9,0c0.6,0,1.2,0,1.9,0c0.1,0,0-0.1,0.1-0.2l0-0.3l0-0.5c0-0.3,0-0.7,0-1c0-1.6,0-3.2,0-4.2
			c0-0.5,0-0.8,0-0.9c0-0.3,0-0.4,0-0.4c0,0,0-0.2,0-0.8c0-0.6,0-1.6,0-3.2c0-2.2,0-3.9,0-4c0,0,0-0.3,0-0.6c0-0.3,0-5.4,0-13
			c0-3.8,0-8.2,0-12.9c0-2.7,0-5.5,0-8.4c0.3-0.9-0.7-0.5-1.2-0.6l-1.8,0l-1.9,0c-1.2,0-2.5,0-3.7,0c-16.2,0-32.2,0-37.9,0
			c-0.1,0-0.2,0-0.2,0c-0.4,0-1.1,0-1.4,0c-0.1,0-0.3,0-0.6,0c-0.2,0-0.3,0.1-0.3,0.3c0,0,0,0.1,0,0.1c0,0-0.1,0.1-0.1,0.3
			c0,0,0,0,0,0c0,0,0,0,0,0c0,0,0,0.1,0,0.1c0,0,0,0,0,0.1c0,0,0,0.1,0,0.1c0,0,0,0,0,0c0,0,0,0,0,0c0,0,0,0,0,0c0,0,0,0,0,0
			c0,0,0,0,0,0c0,0,0,0,0,0c0,0,0,0,0,0c0,0,0,0,0,0c0,0,0,0.1,0,0.1c0,0,0,0.1,0,0.1c0,0,0,0,0,0c0,0,0,0,0,0s0,0,0,0c0,0,0,0,0,0
			c0,0,0,0,0,0c0,0,0,0,0,0c0,0,0,0,0,0.1c0,0,0,0,0,0c0,0,0,0,0,0c0,0,0,0.1,0,0.1c0,0,0,0,0,0.1c0,0,0,0,0,0c0,0,0,0,0,0
			c0,0,0,0.1,0,0.1c0,0,0,0,0,0c0,0,0,0,0,0c0,0,0,0,0,0c0,0,0,0,0,0c0,0,0,0,0,0c0,0,0,0,0,0c0,0,0,0,0,0c0,0,0,0,0,0c0,0,0,0,0,0
			c0,0.1,0.1,0.2,0.2,0.2c0,0,0.1,0,0.1,0c0,0,0,0,0.1,0c0,0,0,0,0,0c0,0,0,0,0,0c0,0,0.1,0,0.1,0c0,0,0.1,0,0.1,0
			c0.2,0,0.2,0,0.2,0.1c0,0,0,0,0.1,0c0,0,0.1,0,0.1,0c0,0,0.2,0,0.4,0c0.1,0,0.1,0,0.1,0c0,0,0,0,0,0c0,0,0,0,0,0c0,0,0,0,0.1,0
			c0,0,0,0,0,0c0,0,0,0,0.1,0c0,0,0,0,0,0c0,0,0,0,0.1,0c0,0,0.1,0,0.1,0c0,0,0,0,0,0c0,0,0,0,0,0c0,0,0,0,0,0c0,0,0.1,0,0.1,0
			c0,0,0.1,0,0.1,0c0,0,0.1,0,0.2,0c0.1,0,0.3,0,0.5-0.1c0.1,0,0.2,0,0.2,0c1.3,0,14.1,0,26.1,0c4.6,0,12.4,0,17.4,0
			c0,0,0.1,0,0.1,0.1c0,0.1,0,0.3,0,0.4c0,1,0,2.3,0,3.7c0,2.9,0,6.5,0,10.6c0,8.2,0,18.1,0,27.2c0,1.1,0,2.2,0,3.3
			c0,0.1-0.1,0.1-0.2,0.1c-0.6,0-1.3,0-1.9,0c-2.6,0-5.2,0-7.6,0c-4.9,0-9.4,0-13.2,0c-7.6,0-12.6,0-13.1,0c-0.6,0-4.8,0-7.4,0
			c-0.1,0-0.6,0-1.3,0c-0.2,0-0.3,0-0.5,0c0,0-0.1,0-0.1,0l0-0.1c0-2.1,0-4.9,0-7.9c0-6.4,0-11.9,0-12.2c0-0.3,0-0.5,0-0.5
			c0-0.1,0-5.5,0-12.2c0-5.4,0-10.4,0-11.2c0,0,0-0.1,0-0.1c0,0,0,0,0,0c0,0,0,0,0-0.3c0-0.1,0-0.1,0-0.1c0,0,0,0,0,0c0,0,0,0,0,0
			c0,0,0-1,0-1.1c0,0,0-0.1,0-0.2c0-0.1-0.1-0.2-0.2-0.2c0,0,0,0,0,0c0,0-0.1-0.1-0.2-0.1c-0.1,0-0.2,0-0.2,0c0,0,0,0-0.1,0
			c0,0,0,0-0.1,0c0-0.1-0.1-0.1-0.2,0c-0.1,0-0.1,0-0.1,0c0,0-0.1,0-0.2,0c-0.1,0-0.2,0-0.2,0c0,0,0,0-0.1,0c0,0-0.1,0-0.1,0
			c0,0,0,0-0.1,0c0,0,0,0,0,0c0,0-0.1,0-0.1,0c0,0-0.2,0-0.2,0c0,0-0.1,0-0.2,0c-0.1,0-0.2,0-0.3,0C15.8,89.3,15.7,89.3,15.7,89.3z"
			/>
	</g>
</g>
<line class="st2" x1="16.8" y1="137.2" x2="64.8" y2="89.3"/>
<line class="st2" x1="18.9" y1="91" x2="64.8" y2="137.2"/>
<g>
	<g>
		<path class="st0" d="M75.6,89.3C75.5,89.3,75.5,89.3,75.6,89.3c0,0-0.1,0.1-0.1,0.1c0,0,0,0.1,0,0.1c0,0,0,0.1,0,0.1c0,0,0,0,0,0
			c0,0,0,0.1,0,0.1c0,0.1,0,0.1,0,0.1c0,0,0,0.1,0,0.1c0,0,0,0,0,0.1c0,0.1,0,0.1,0,0.1c0,0,0,0.1,0,0.1c0,0,0,0,0,0
			c0,0,0,0.1,0,0.1c0,0,0,0.1,0,0.1c0,0,0,0,0,0.1c0,0,0,0,0,0.1c0,0,0,0.1,0,0.1c0,0.1,0,0.1,0,0.1c0,0,0,0,0,0.1c0,0,0,0,0,0.1
			c0,0,0,0.1,0,0.2c0,0.1,0,0.1,0,0.1c0,0,0,0,0,0c0,0,0,0,0,0c0,0.1,0,0.1,0,0.2c0,0,0,0,0,0c0,0,0,0.1,0.1,0.3c0,3.1,0,7,0,10.4
			c0,0.4,0,1.7,0,2.9c0,3.6,0,12,0,12.8c0,0.4,0,0.9,0,1c0,0.2,0,0.5,0,0.6c0,0.5,0,4.8,0,12.6c0,1.2,0,2.5,0,4c0,0.7,0,1.4,0,2.1
			l0,0.3c0,0.1,0,0.2,0.1,0.2l0.5,0c0.4,0,0.7,0,1.1,0c0.9,0,1.9,0,2.9,0c3.1,0,6.3,0,9.4,0c6.1,0,11.2,0,11.9,0c0.6,0,1.2,0,1.4,0
			c0.3,0,0.4,0,0.4,0c0,0,0.2,0,0.5,0c0.3,0,0.8,0,1.4,0c1,0,5,0,8.8,0c3.8,0,7,0,7.3,0c0.2,0,0.4,0,0.4,0c0,0,0.1,0,0.3,0
			c0.2,0,0.4,0,0.7,0c0.5,0,1.1,0,1.9,0c0.6,0,1.2,0,1.9,0c0.1,0,0-0.1,0.1-0.2l0-0.3l0-0.5c0-0.3,0-0.7,0-1c0-1.6,0-3.2,0-4.2
			c0-0.5,0-0.8,0-0.9c0-0.3,0-0.4,0-0.4c0,0,0-0.2,0-0.8c0-0.6,0-1.6,0-3.2c0-2.2,0-3.9,0-4c0,0,0-0.3,0-0.6c0-0.3,0-5.4,0-13
			c0-3.8,0-8.2,0-12.9c0-2.7,0-5.5,0-8.4c0.3-0.9-0.7-0.5-1.2-0.6l-1.8,0l-1.9,0c-1.2,0-2.5,0-3.7,0c-16.2,0-32.2,0-37.9,0
			c-0.1,0-0.2,0-0.2,0c-0.4,0-1.1,0-1.4,0c-0.1,0-0.3,0-0.6,0c-0.2,0-0.3,0.1-0.3,0.3c0,0,0,0.1,0,0.1c0,0-0.1,0.1-0.1,0.3
			c0,0,0,0,0,0c0,0,0,0,0,0c0,0,0,0.1,0,0.1c0,0,0,0,0,0.1c0,0,0,0.1,0,0.1c0,0,0,0,0,0c0,0,0,0,0,0c0,0,0,0,0,0c0,0,0,0,0,0
			c0,0,0,0,0,0c0,0,0,0,0,0c0,0,0,0,0,0c0,0,0,0,0,0c0,0,0,0.1,0,0.1c0,0,0,0.1,0,0.1c0,0,0,0,0,0c0,0,0,0,0,0s0,0,0,0c0,0,0,0,0,0
			c0,0,0,0,0,0c0,0,0,0,0,0c0,0,0,0,0,0.1c0,0,0,0,0,0c0,0,0,0,0,0c0,0,0,0.1,0,0.1c0,0,0,0,0,0.1c0,0,0,0,0,0c0,0,0,0,0,0
			c0,0,0,0.1,0,0.1c0,0,0,0,0,0c0,0,0,0,0,0c0,0,0,0,0,0c0,0,0,0,0,0c0,0,0,0,0,0c0,0,0,0,0,0c0,0,0,0,0,0c0,0,0,0,0,0c0,0,0,0,0,0
			c0,0.1,0.1,0.2,0.2,0.2c0,0,0.1,0,0.1,0c0,0,0,0,0.1,0c0,0,0,0,0,0c0,0,0,0,0,0c0,0,0.1,0,0.1,0c0,0,0.1,0,0.1,0
			c0.2,0,0.2,0,0.2,0.1c0,0,0,0,0.1,0c0,0,0.1,0,0.1,0c0,0,0.2,0,0.4,0c0.1,0,0.1,0,0.1,0c0,0,0,0,0,0c0,0,0,0,0,0c0,0,0,0,0.1,0
			c0,0,0,0,0,0c0,0,0,0,0.1,0c0,0,0,0,0,0c0,0,0,0,0.1,0c0,0,0.1,0,0.1,0c0,0,0,0,0,0c0,0,0,0,0,0c0,0,0,0,0,0c0,0,0.1,0,0.1,0
			c0,0,0.1,0,0.1,0c0,0,0.1,0,0.2,0c0.1,0,0.3,0,0.5-0.1c0.1,0,0.2,0,0.2,0c1.3,0,14.1,0,26.1,0c4.6,0,12.4,0,17.4,0
			c0,0,0.1,0,0.1,0.1c0,0.1,0,0.3,0,0.4c0,1,0,2.3,0,3.7c0,2.9,0,6.5,0,10.6c0,8.2,0,18.1,0,27.2c0,1.1,0,2.2,0,3.3
			c0,0.1-0.1,0.1-0.2,0.1c-0.6,0-1.3,0-1.9,0c-2.6,0-5.2,0-7.6,0c-4.9,0-9.4,0-13.2,0c-7.6,0-12.6,0-13.1,0c-0.6,0-4.8,0-7.4,0
			c-0.1,0-0.6,0-1.3,0c-0.2,0-0.3,0-0.5,0c0,0-0.1,0-0.1,0l0-0.1c0-2.1,0-4.9,0-7.9c0-6.4,0-11.9,0-12.2c0-0.3,0-0.5,0-0.5
			c0-0.1,0-5.5,0-12.2c0-5.4,0-10.4,0-11.2c0,0,0-0.1,0-0.1c0,0,0,0,0,0c0,0,0,0,0-0.3c0-0.1,0-0.1,0-0.1c0,0,0,0,0,0c0,0,0,0,0,0
			c0,0,0-1,0-1.1c0,0,0-0.1,0-0.2c0-0.1-0.1-0.2-0.2-0.2c0,0,0,0,0,0c0,0-0.1-0.1-0.2-0.1c-0.1,0-0.2,0-0.2,0c0,0,0,0-0.1,0
			c0,0,0,0-0.1,0c0-0.1-0.1-0.1-0.2,0c-0.1,0-0.1,0-0.1,0c0,0-0.1,0-0.2,0c-0.1,0-0.2,0-0.2,0c0,0,0,0-0.1,0c0,0-0.1,0-0.1,0
			c0,0,0,0-0.1,0c0,0,0,0,0,0c0,0-0.1,0-0.1,0c0,0-0.2,0-0.2,0c0,0-0.1,0-0.2,0c-0.1,0-0.2,0-0.3,0C75.7,89.3,75.6,89.3,75.6,89.3z"
			/>
	</g>
</g>
<line class="st2" x1="76.7" y1="137.2" x2="124.7" y2="89.3"/>
<line class="st2" x1="78.8" y1="91" x2="124.7" y2="137.2"/>
<g>
	<g>
		<path class="st0" d="M135.5,89.3C135.5,89.3,135.4,89.3,135.5,89.3c0,0-0.1,0.1-0.1,0.1c0,0,0,0.1,0,0.1c0,0,0,0.1,0,0.1
			c0,0,0,0,0,0c0,0,0,0.1,0,0.1c0,0.1,0,0.1,0,0.1c0,0,0,0.1,0,0.1c0,0,0,0,0,0.1c0,0.1,0,0.1,0,0.1c0,0,0,0.1,0,0.1c0,0,0,0,0,0
			c0,0,0,0.1,0,0.1c0,0,0,0.1,0,0.1c0,0,0,0,0,0.1c0,0,0,0,0,0.1c0,0,0,0.1,0,0.1c0,0.1,0,0.1,0,0.1c0,0,0,0,0,0.1c0,0,0,0,0,0.1
			c0,0,0,0.1,0,0.2c0,0.1,0,0.1,0,0.1c0,0,0,0,0,0c0,0,0,0,0,0c0,0.1,0,0.1,0,0.2c0,0,0,0,0,0c0,0,0,0.1,0.1,0.3c0,3.1,0,7,0,10.4
			c0,0.4,0,1.7,0,2.9c0,3.6,0,12,0,12.8c0,0.4,0,0.9,0,1c0,0.2,0,0.5,0,0.6c0,0.5,0,4.8,0,12.6c0,1.2,0,2.5,0,4c0,0.7,0,1.4,0,2.1
			l0,0.3c0,0.1,0,0.2,0.1,0.2l0.5,0c0.4,0,0.7,0,1.1,0c0.9,0,1.9,0,2.9,0c3.1,0,6.3,0,9.4,0c6.1,0,11.2,0,11.9,0c0.6,0,1.2,0,1.4,0
			c0.3,0,0.4,0,0.4,0c0,0,0.2,0,0.5,0c0.3,0,0.8,0,1.4,0c1,0,5,0,8.8,0c3.8,0,7,0,7.3,0c0.2,0,0.4,0,0.4,0c0,0,0.1,0,0.3,0
			c0.2,0,0.4,0,0.7,0c0.5,0,1.1,0,1.9,0c0.6,0,1.2,0,1.9,0c0.1,0,0-0.1,0.1-0.2l0-0.3l0-0.5c0-0.3,0-0.7,0-1c0-1.6,0-3.2,0-4.2
			c0-0.5,0-0.8,0-0.9c0-0.3,0-0.4,0-0.4c0,0,0-0.2,0-0.8c0-0.6,0-1.6,0-3.2c0-2.2,0-3.9,0-4c0,0,0-0.3,0-0.6c0-0.3,0-5.4,0-13
			c0-3.8,0-8.2,0-12.9c0-2.7,0-5.5,0-8.4c0.3-0.9-0.7-0.5-1.2-0.6l-1.8,0l-1.9,0c-1.2,0-2.5,0-3.7,0c-16.2,0-32.2,0-37.9,0
			c-0.1,0-0.2,0-0.2,0c-0.4,0-1.1,0-1.4,0c-0.1,0-0.3,0-0.6,0c-0.2,0-0.3,0.1-0.3,0.3c0,0,0,0.1,0,0.1c0,0-0.1,0.1-0.1,0.3
			c0,0,0,0,0,0c0,0,0,0,0,0c0,0,0,0.1,0,0.1c0,0,0,0,0,0.1c0,0,0,0.1,0,0.1c0,0,0,0,0,0c0,0,0,0,0,0c0,0,0,0,0,0c0,0,0,0,0,0
			c0,0,0,0,0,0c0,0,0,0,0,0c0,0,0,0,0,0c0,0,0,0,0,0c0,0,0,0.1,0,0.1c0,0,0,0.1,0,0.1c0,0,0,0,0,0c0,0,0,0,0,0s0,0,0,0c0,0,0,0,0,0
			c0,0,0,0,0,0c0,0,0,0,0,0c0,0,0,0,0,0.1c0,0,0,0,0,0c0,0,0,0,0,0c0,0,0,0.1,0,0.1c0,0,0,0,0,0.1c0,0,0,0,0,0c0,0,0,0,0,0
			c0,0,0,0.1,0,0.1c0,0,0,0,0,0c0,0,0,0,0,0c0,0,0,0,0,0c0,0,0,0,0,0c0,0,0,0,0,0c0,0,0,0,0,0c0,0,0,0,0,0c0,0,0,0,0,0c0,0,0,0,0,0
			c0,0.1,0.1,0.2,0.2,0.2c0,0,0.1,0,0.1,0c0,0,0,0,0.1,0c0,0,0,0,0,0c0,0,0,0,0,0c0,0,0.1,0,0.1,0c0,0,0.1,0,0.1,0
			c0.2,0,0.2,0,0.2,0.1c0,0,0,0,0.1,0c0,0,0.1,0,0.1,0c0,0,0.2,0,0.4,0c0.1,0,0.1,0,0.1,0c0,0,0,0,0,0c0,0,0,0,0,0c0,0,0,0,0.1,0
			c0,0,0,0,0,0c0,0,0,0,0.1,0c0,0,0,0,0,0c0,0,0,0,0.1,0c0,0,0.1,0,0.1,0c0,0,0,0,0,0c0,0,0,0,0,0c0,0,0,0,0,0c0,0,0.1,0,0.1,0
			c0,0,0.1,0,0.1,0c0,0,0.1,0,0.2,0c0.1,0,0.3,0,0.5-0.1c0.1,0,0.2,0,0.2,0c1.3,0,14.1,0,26.1,0c4.6,0,12.4,0,17.4,0
			c0,0,0.1,0,0.1,0.1c0,0.1,0,0.3,0,0.4c0,1,0,2.3,0,3.7c0,2.9,0,6.5,0,10.6c0,8.2,0,18.1,0,27.2c0,1.1,0,2.2,0,3.3
			c0,0.1-0.1,0.1-0.2,0.1c-0.6,0-1.3,0-1.9,0c-2.6,0-5.2,0-7.6,0c-4.9,0-9.4,0-13.2,0c-7.6,0-12.6,0-13.1,0c-0.6,0-4.8,0-7.4,0
			c-0.1,0-0.6,0-1.3,0c-0.2,0-0.3,0-0.5,0c0,0-0.1,0-0.1,0l0-0.1c0-2.1,0-4.9,0-7.9c0-6.4,0-11.9,0-12.2c0-0.3,0-0.5,0-0.5
			c0-0.1,0-5.5,0-12.2c0-5.4,0-10.4,0-11.2c0,0,0-0.1,0-0.1c0,0,0,0,0,0c0,0,0,0,0-0.3c0-0.1,0-0.1,0-0.1c0,0,0,0,0,0c0,0,0,0,0,0
			c0,0,0-1,0-1.1c0,0,0-0.1,0-0.2c0-0.1-0.1-0.2-0.2-0.2c0,0,0,0,0,0c0,0-0.1-0.1-0.2-0.1c-0.1,0-0.2,0-0.2,0c0,0,0,0-0.1,0
			c0,0,0,0-0.1,0c0-0.1-0.1-0.1-0.2,0c-0.1,0-0.1,0-0.1,0c0,0-0.1,0-0.2,0c-0.1,0-0.2,0-0.2,0c0,0,0,0-0.1,0c0,0-0.1,0-0.1,0
			c0,0,0,0-0.1,0c0,0,0,0,0,0c0,0-0.1,0-0.1,0c0,0-0.2,0-0.2,0c0,0-0.1,0-0.2,0c-0.1,0-0.2,0-0.3,0
			C135.6,89.3,135.5,89.3,135.5,89.3z"/>
	</g>
</g>
<line class="st2" x1="136.6" y1="137.2" x2="184.6" y2="89.3"/>
<line class="st2" x1="138.7" y1="91" x2="184.6" y2="137.2"/>
<g>
	<g>
		<path class="st0" d="M33.2,154.3C33.2,154.3,33.1,154.3,33.2,154.3C33.1,154.3,33.1,154.3,33.2,154.3c0,0.1-0.1,0.1-0.1,0.1
			c0,0,0,0,0,0.1c0,0,0,0,0,0c0,0,0,0,0,0.1c0,0,0,0.1,0,0.1c0,0,0,0.1,0,0.1c0,0,0,0,0,0.1c0,0,0,0.1,0,0.1c0,0,0,0,0,0
			c0,0,0,0,0,0c0,0,0,0,0,0.1c0,0,0,0,0,0.1c0,0,0,0,0,0s0,0,0,0c0,0,0,0.1,0,0.1c0,0,0,0.1,0,0.1c0,0,0,0,0,0c0,0,0,0,0,0
			c0,0,0,0.1,0,0.1c0,0,0,0.1,0,0.1c0,0,0,0,0,0c0,0,0,0,0,0c0,0,0,0.1,0,0.1c0,0,0,0,0,0c0,0,0,0.1,0,0.2c0,1.3,0,2.9,0,4.3
			c0,0.2,0,0.7,0,1.2c0,1.5,0,4.9,0,5.2c0,0.2,0,0.4,0,0.4c0,0.1,0,0.2,0,0.3c0,0.2,0,2,0,5.1c0,0.7,0,1.5,0,2.3c0,0.1,0,0.3,0,0.4
			l0.4,0c0.3,0,0.6,0,0.9,0c0.4,0,0.8,0,1.2,0c1.3,0,2.6,0,3.8,0c2.5,0,4.6,0,4.9,0c0.2,0,0.5,0,0.6,0c0.1,0,0.1,0,0.1,0
			c0,0,0.3,0,0.8,0c0.4,0,2,0,3.6,0c1.5,0,2.9,0,3,0c0.1,0,0.2,0,0.2,0c0,0,0.1,0,0.4,0c0.3,0,0.7,0,1.2,0c0.3,0,0.5,0,0.8,0
			c0.1,0,0.1-0.1,0.1-0.1l0-0.2v-0.4c0-0.8,0-1.6,0-2.1c0-0.2,0-0.3,0-0.3c0-0.1,0-0.1,0-0.2c0,0,0-0.1,0-0.3c0-0.2,0-0.7,0-1.3
			c0-0.9,0-1.6,0-1.6c0,0,0-0.1,0-0.2c0-0.1,0-2.3,0-5.5c0-1.6,0-3.4,0-5.4c0-1.3,0-2.5,0-3.8l0-0.2c0-0.1,0-0.2-0.1-0.1l-0.4,0
			l-0.8,0l-1.2,0l-1.6,0c-6.5,0-12.8,0-15.1,0c-0.1,0-0.1,0-0.1,0c-0.3,0-0.8,0-1,0c-0.1,0-0.2,0-0.4,0c-0.1,0-0.2,0.1-0.2,0.2
			c0,0,0,0,0,0c0,0,0,0.1-0.1,0.2c0,0,0,0,0,0c0,0,0,0,0,0c0,0,0,0,0,0c0,0,0,0,0,0c0,0,0,0,0,0c0,0,0,0,0,0c0,0,0,0,0,0
			c0,0,0,0,0,0c0,0,0,0,0,0c0,0,0,0,0,0c0,0,0,0,0,0c0,0,0,0,0,0c0,0,0,0,0,0c0,0,0,0,0,0.1c0,0,0,0.1,0,0.1c0,0,0,0,0,0
			c0,0,0,0,0,0s0,0,0,0c0,0,0,0,0,0c0,0,0,0,0,0c0,0,0,0,0,0c0,0,0,0,0,0c0,0,0,0,0,0c0,0,0,0,0,0c0,0,0,0,0,0.1c0,0,0,0,0,0
			c0,0,0,0,0,0c0,0,0,0,0,0c0,0,0,0.1,0,0.1c0,0,0,0,0,0c0,0,0,0,0,0c0,0,0,0,0,0c0,0,0,0,0,0c0,0,0,0,0,0c0,0,0,0,0,0c0,0,0,0,0,0
			c0,0,0,0,0,0c0,0,0,0,0,0c0,0,0.1,0.1,0.1,0.1c0,0,0,0,0.1,0c0,0,0,0,0,0c0,0,0,0,0,0c0,0,0,0,0,0c0,0,0,0,0.1,0c0,0,0.1,0,0.1,0
			c0.1,0,0.1,0,0.2,0c0,0,0,0,0,0c0,0,0,0,0,0c0,0,0.1,0,0.3,0c0,0,0.1,0,0.1,0c0,0,0,0,0,0c0,0,0,0,0,0c0,0,0,0,0,0c0,0,0,0,0,0
			c0,0,0,0,0,0c0,0,0,0,0,0c0,0,0,0,0,0c0,0,0,0,0,0c0,0,0,0,0,0c0,0,0,0,0,0c0,0,0,0,0,0c0,0,0,0,0.1,0c0,0,0,0,0,0
			c0,0,0.1,0,0.1,0c0,0,0.2,0,0.4,0c0.1,0,0.1,0,0.1,0c0.6,0,5.8,0,10.7,0c1,0,2.3,0,3.7,0c0.7,0,1.4,0,2,0c0.2,0,0.4,0,0.6,0
			c0,0,0.1,0,0.1,0c0,1.6,0,10,0,17.2c0,0.3,0,0.7,0,1c0,0,0,0-0.1,0l-0.5,0c-1.1,0-2.1,0-3.1,0c-2,0-3.8,0-5.4,0
			c-3.1,0-5.2,0-5.4,0c-0.2,0-2,0-3,0c0,0-0.3,0-0.8,0c0-0.7,0-1.6,0-2.6c0-2.6,0-4.9,0-5c0-0.1,0-0.2,0-0.2c0-0.1,0-2.3,0-5
			c0-2.2,0-4.3,0-4.6c0,0,0-0.1,0-0.1c0,0,0,0,0,0c0,0,0,0,0-0.2c0,0,0-0.1,0-0.1c0,0,0,0,0,0c0,0,0,0,0,0c0,0,0-0.7,0-0.7
			c0,0,0-0.1,0-0.1c0-0.1-0.1-0.1-0.1-0.1c0,0,0,0,0,0c0,0-0.1,0-0.1,0c-0.1,0-0.1,0-0.1,0c0,0,0,0,0,0c0,0,0,0,0,0c0,0-0.1,0-0.1,0
			c0,0,0,0-0.1,0c0,0,0,0-0.1,0c-0.1,0-0.1,0-0.1,0c0,0,0,0-0.1,0c0,0,0,0-0.1,0c0,0,0,0,0,0c0,0,0,0,0,0c0,0-0.1,0-0.1,0
			c0,0-0.1,0-0.1,0c0,0-0.1,0-0.1,0c-0.1,0-0.2,0-0.2,0C33.3,154.2,33.2,154.2,33.2,154.3z"/>
	</g>
</g>
<line class="st2" x1="33.9" y1="174.2" x2="53.9" y2="154.2"/>
<line class="st2" x1="35.5" y1="156.4" x2="54.5" y2="173.7"/>
<g>
	<g>
		<path class="st0" d="M62.2,154.3C62.2,154.3,62.1,154.3,62.2,154.3C62.1,154.3,62.1,154.3,62.2,154.3c0,0.1-0.1,0.1-0.1,0.1
			c0,0,0,0,0,0.1c0,0,0,0,0,0c0,0,0,0,0,0.1c0,0,0,0.1,0,0.1c0,0,0,0.1,0,0.1c0,0,0,0,0,0.1c0,0,0,0.1,0,0.1c0,0,0,0,0,0
			c0,0,0,0,0,0c0,0,0,0,0,0.1c0,0,0,0,0,0.1c0,0,0,0,0,0s0,0,0,0c0,0,0,0.1,0,0.1c0,0,0,0.1,0,0.1c0,0,0,0,0,0c0,0,0,0,0,0
			c0,0,0,0.1,0,0.1c0,0,0,0.1,0,0.1c0,0,0,0,0,0c0,0,0,0,0,0c0,0,0,0.1,0,0.1c0,0,0,0,0,0c0,0,0,0.1,0,0.2c0,1.3,0,2.9,0,4.3
			c0,0.2,0,0.7,0,1.2c0,1.5,0,4.9,0,5.2c0,0.2,0,0.4,0,0.4c0,0.1,0,0.2,0,0.3c0,0.2,0,2,0,5.1c0,0.7,0,1.5,0,2.3c0,0.1,0,0.3,0,0.4
			l0.4,0c0.3,0,0.6,0,0.9,0c0.4,0,0.8,0,1.2,0c1.3,0,2.6,0,3.8,0c2.5,0,4.6,0,4.9,0c0.2,0,0.5,0,0.6,0c0.1,0,0.1,0,0.1,0
			c0,0,0.3,0,0.8,0c0.4,0,2,0,3.6,0c1.5,0,2.9,0,3,0c0.1,0,0.2,0,0.2,0c0,0,0.1,0,0.4,0c0.3,0,0.7,0,1.2,0c0.3,0,0.5,0,0.8,0
			c0.1,0,0.1-0.1,0.1-0.1l0-0.2l0-0.4c0-0.8,0-1.6,0-2.1c0-0.2,0-0.3,0-0.3c0-0.1,0-0.1,0-0.2c0,0,0-0.1,0-0.3c0-0.2,0-0.7,0-1.3
			c0-0.9,0-1.6,0-1.6c0,0,0-0.1,0-0.2c0-0.1,0-2.3,0-5.5c0-1.6,0-3.4,0-5.4c0-1.3,0-2.5,0-3.8l0-0.2c0-0.1,0-0.2-0.1-0.1l-0.4,0
			l-0.8,0l-1.2,0l-1.6,0c-6.5,0-12.8,0-15.1,0c-0.1,0-0.1,0-0.1,0c-0.3,0-0.8,0-1,0c-0.1,0-0.2,0-0.4,0c-0.1,0-0.2,0.1-0.2,0.2
			c0,0,0,0,0,0c0,0,0,0.1-0.1,0.2c0,0,0,0,0,0c0,0,0,0,0,0c0,0,0,0,0,0c0,0,0,0,0,0c0,0,0,0,0,0c0,0,0,0,0,0c0,0,0,0,0,0
			c0,0,0,0,0,0c0,0,0,0,0,0c0,0,0,0,0,0c0,0,0,0,0,0c0,0,0,0,0,0c0,0,0,0,0,0c0,0,0,0,0,0.1c0,0,0,0.1,0,0.1c0,0,0,0,0,0
			c0,0,0,0,0,0s0,0,0,0c0,0,0,0,0,0c0,0,0,0,0,0c0,0,0,0,0,0c0,0,0,0,0,0c0,0,0,0,0,0c0,0,0,0,0,0c0,0,0,0,0,0.1c0,0,0,0,0,0
			c0,0,0,0,0,0c0,0,0,0,0,0c0,0,0,0.1,0,0.1c0,0,0,0,0,0c0,0,0,0,0,0c0,0,0,0,0,0c0,0,0,0,0,0c0,0,0,0,0,0c0,0,0,0,0,0c0,0,0,0,0,0
			c0,0,0,0,0,0c0,0,0,0,0,0c0,0,0.1,0.1,0.1,0.1c0,0,0,0,0.1,0c0,0,0,0,0,0c0,0,0,0,0,0c0,0,0,0,0,0c0,0,0,0,0.1,0c0,0,0.1,0,0.1,0
			c0.1,0,0.1,0,0.2,0c0,0,0,0,0,0c0,0,0,0,0,0c0,0,0.1,0,0.3,0c0,0,0.1,0,0.1,0c0,0,0,0,0,0c0,0,0,0,0,0c0,0,0,0,0,0c0,0,0,0,0,0
			c0,0,0,0,0,0c0,0,0,0,0,0c0,0,0,0,0,0c0,0,0,0,0,0c0,0,0,0,0,0c0,0,0,0,0,0c0,0,0,0,0,0c0,0,0,0,0.1,0c0,0,0,0,0,0
			c0,0,0.1,0,0.1,0c0,0,0.2,0,0.4,0c0.1,0,0.1,0,0.1,0c0.6,0,5.8,0,10.7,0c1,0,2.3,0,3.7,0c0.7,0,1.4,0,2,0c0.2,0,0.4,0,0.6,0
			c0,0,0.1,0,0.1,0c0,1.6,0,10,0,17.2c0,0.3,0,0.7,0,1c0,0,0,0-0.1,0l-0.5,0c-1.1,0-2.1,0-3.1,0c-2,0-3.8,0-5.4,0
			c-3.1,0-5.2,0-5.4,0c-0.2,0-2,0-3,0c0,0-0.3,0-0.8,0c0-0.7,0-1.6,0-2.6c0-2.6,0-4.9,0-5c0-0.1,0-0.2,0-0.2c0-0.1,0-2.3,0-5
			c0-2.2,0-4.3,0-4.6c0,0,0-0.1,0-0.1c0,0,0,0,0,0c0,0,0,0,0-0.2c0,0,0-0.1,0-0.1c0,0,0,0,0,0c0,0,0,0,0,0c0,0,0-0.7,0-0.7
			c0,0,0-0.1,0-0.1c0-0.1-0.1-0.1-0.1-0.1c0,0,0,0,0,0c0,0-0.1,0-0.1,0c-0.1,0-0.1,0-0.1,0c0,0,0,0,0,0c0,0,0,0,0,0c0,0-0.1,0-0.1,0
			c0,0,0,0-0.1,0c0,0,0,0-0.1,0c-0.1,0-0.1,0-0.1,0c0,0,0,0-0.1,0c0,0,0,0-0.1,0c0,0,0,0,0,0c0,0,0,0,0,0c0,0-0.1,0-0.1,0
			c0,0-0.1,0-0.1,0c0,0-0.1,0-0.1,0c-0.1,0-0.2,0-0.2,0C62.3,154.2,62.2,154.2,62.2,154.3z"/>
	</g>
</g>
<line class="st2" x1="62.9" y1="174.2" x2="82.9" y2="154.2"/>
<line class="st2" x1="64.5" y1="156.4" x2="83.5" y2="173.7"/>
<g>
	<g>
		<path class="st0" d="M91.2,154.3C91.2,154.3,91.1,154.3,91.2,154.3C91.1,154.3,91.1,154.3,91.2,154.3c0,0.1-0.1,0.1-0.1,0.1
			c0,0,0,0,0,0.1c0,0,0,0,0,0c0,0,0,0,0,0.1c0,0,0,0.1,0,0.1c0,0,0,0.1,0,0.1c0,0,0,0,0,0.1c0,0,0,0.1,0,0.1c0,0,0,0,0,0
			c0,0,0,0,0,0c0,0,0,0,0,0.1c0,0,0,0,0,0.1c0,0,0,0,0,0s0,0,0,0c0,0,0,0.1,0,0.1c0,0,0,0.1,0,0.1c0,0,0,0,0,0c0,0,0,0,0,0
			c0,0,0,0.1,0,0.1c0,0,0,0.1,0,0.1c0,0,0,0,0,0c0,0,0,0,0,0c0,0,0,0.1,0,0.1c0,0,0,0,0,0c0,0,0,0.1,0,0.2c0,1.3,0,2.9,0,4.3
			c0,0.2,0,0.7,0,1.2c0,1.5,0,4.9,0,5.2c0,0.2,0,0.4,0,0.4c0,0.1,0,0.2,0,0.3c0,0.2,0,2,0,5.1c0,0.7,0,1.5,0,2.3c0,0.1,0,0.3,0,0.4
			l0.4,0c0.3,0,0.6,0,0.9,0c0.4,0,0.8,0,1.2,0c1.3,0,2.6,0,3.8,0c2.5,0,4.6,0,4.9,0c0.2,0,0.5,0,0.6,0c0.1,0,0.1,0,0.1,0
			c0,0,0.3,0,0.8,0c0.4,0,2,0,3.6,0c1.5,0,2.9,0,3,0c0.1,0,0.2,0,0.2,0c0,0,0.1,0,0.4,0c0.3,0,0.7,0,1.2,0c0.3,0,0.5,0,0.8,0
			c0.1,0,0.1-0.1,0.1-0.1l0-0.2v-0.4c0-0.8,0-1.6,0-2.1c0-0.2,0-0.3,0-0.3c0-0.1,0-0.1,0-0.2c0,0,0-0.1,0-0.3c0-0.2,0-0.7,0-1.3
			c0-0.9,0-1.6,0-1.6c0,0,0-0.1,0-0.2c0-0.1,0-2.3,0-5.5c0-1.6,0-3.4,0-5.4c0-1.3,0-2.5,0-3.8l0-0.2c0-0.1,0-0.2-0.1-0.1l-0.4,0
			l-0.8,0l-1.2,0l-1.6,0c-6.5,0-12.8,0-15.1,0c-0.1,0-0.1,0-0.1,0c-0.3,0-0.8,0-1,0c-0.1,0-0.2,0-0.4,0c-0.1,0-0.2,0.1-0.2,0.2
			c0,0,0,0,0,0c0,0,0,0.1-0.1,0.2c0,0,0,0,0,0c0,0,0,0,0,0c0,0,0,0,0,0c0,0,0,0,0,0c0,0,0,0,0,0c0,0,0,0,0,0c0,0,0,0,0,0
			c0,0,0,0,0,0c0,0,0,0,0,0c0,0,0,0,0,0c0,0,0,0,0,0c0,0,0,0,0,0c0,0,0,0,0,0c0,0,0,0,0,0.1c0,0,0,0.1,0,0.1c0,0,0,0,0,0
			c0,0,0,0,0,0s0,0,0,0c0,0,0,0,0,0c0,0,0,0,0,0c0,0,0,0,0,0c0,0,0,0,0,0c0,0,0,0,0,0s0,0,0,0c0,0,0,0,0,0.1c0,0,0,0,0,0
			c0,0,0,0,0,0c0,0,0,0,0,0c0,0,0,0.1,0,0.1c0,0,0,0,0,0c0,0,0,0,0,0c0,0,0,0,0,0c0,0,0,0,0,0c0,0,0,0,0,0c0,0,0,0,0,0c0,0,0,0,0,0
			c0,0,0,0,0,0c0,0,0,0,0,0c0,0,0.1,0.1,0.1,0.1c0,0,0,0,0.1,0c0,0,0,0,0,0c0,0,0,0,0,0c0,0,0,0,0,0c0,0,0,0,0.1,0c0,0,0.1,0,0.1,0
			c0.1,0,0.1,0,0.2,0c0,0,0,0,0,0c0,0,0,0,0,0c0,0,0.1,0,0.3,0c0,0,0.1,0,0.1,0c0,0,0,0,0,0c0,0,0,0,0,0c0,0,0,0,0,0c0,0,0,0,0,0
			c0,0,0,0,0,0c0,0,0,0,0,0c0,0,0,0,0,0c0,0,0,0,0,0c0,0,0,0,0,0c0,0,0,0,0,0c0,0,0,0,0,0c0,0,0,0,0.1,0c0,0,0,0,0,0
			c0,0,0.1,0,0.1,0c0,0,0.2,0,0.4,0c0.1,0,0.1,0,0.1,0c0.6,0,5.8,0,10.7,0c1,0,2.3,0,3.7,0c0.7,0,1.4,0,2,0c0.2,0,0.4,0,0.6,0
			c0,0,0.1,0,0.1,0c0,1.6,0,10,0,17.2c0,0.3,0,0.7,0,1c0,0,0,0-0.1,0l-0.5,0c-1.1,0-2.1,0-3.1,0c-2,0-3.8,0-5.4,0
			c-3.1,0-5.2,0-5.4,0c-0.2,0-2,0-3,0c0,0-0.3,0-0.8,0c0-0.7,0-1.6,0-2.6c0-2.6,0-4.9,0-5c0-0.1,0-0.2,0-0.2c0-0.1,0-2.3,0-5
			c0-2.2,0-4.3,0-4.6c0,0,0-0.1,0-0.1c0,0,0,0,0,0c0,0,0,0,0-0.2c0,0,0-0.1,0-0.1c0,0,0,0,0,0c0,0,0,0,0,0c0,0,0-0.7,0-0.7
			c0,0,0-0.1,0-0.1c0-0.1-0.1-0.1-0.1-0.1c0,0,0,0,0,0c0,0-0.1,0-0.1,0c-0.1,0-0.1,0-0.1,0c0,0,0,0,0,0c0,0,0,0,0,0c0,0-0.1,0-0.1,0
			c0,0,0,0-0.1,0c0,0,0,0-0.1,0c-0.1,0-0.1,0-0.1,0c0,0,0,0-0.1,0c0,0,0,0-0.1,0c0,0,0,0,0,0c0,0,0,0,0,0c0,0-0.1,0-0.1,0
			c0,0-0.1,0-0.1,0c0,0-0.1,0-0.1,0c-0.1,0-0.2,0-0.2,0C91.3,154.2,91.2,154.2,91.2,154.3z"/>
	</g>
</g>
<line class="st2" x1="91.9" y1="174.2" x2="111.9" y2="154.2"/>
<line class="st2" x1="93.5" y1="156.4" x2="112.5" y2="173.7"/>
<g>
	<g>
		<path class="st0" d="M120.2,154.3C120.2,154.3,120.1,154.3,120.2,154.3C120.1,154.3,120.1,154.3,120.2,154.3
			c0,0.1-0.1,0.1-0.1,0.1c0,0,0,0,0,0.1c0,0,0,0,0,0c0,0,0,0,0,0.1c0,0,0,0.1,0,0.1c0,0,0,0.1,0,0.1c0,0,0,0,0,0.1c0,0,0,0.1,0,0.1
			c0,0,0,0,0,0c0,0,0,0,0,0c0,0,0,0,0,0.1c0,0,0,0,0,0.1c0,0,0,0,0,0s0,0,0,0c0,0,0,0.1,0,0.1c0,0,0,0.1,0,0.1c0,0,0,0,0,0
			c0,0,0,0,0,0c0,0,0,0.1,0,0.1c0,0,0,0.1,0,0.1c0,0,0,0,0,0c0,0,0,0,0,0c0,0,0,0.1,0,0.1c0,0,0,0,0,0c0,0,0,0.1,0,0.2
			c0,1.3,0,2.9,0,4.3c0,0.2,0,0.7,0,1.2c0,1.5,0,4.9,0,5.2c0,0.2,0,0.4,0,0.4c0,0.1,0,0.2,0,0.3c0,0.2,0,2,0,5.1c0,0.7,0,1.5,0,2.3
			c0,0.1,0,0.3,0,0.4l0.4,0c0.3,0,0.6,0,0.9,0c0.4,0,0.8,0,1.2,0c1.3,0,2.6,0,3.8,0c2.5,0,4.6,0,4.9,0c0.2,0,0.5,0,0.6,0
			c0.1,0,0.1,0,0.1,0c0,0,0.3,0,0.8,0c0.4,0,2,0,3.6,0c1.5,0,2.9,0,3,0c0.1,0,0.2,0,0.2,0c0,0,0.1,0,0.4,0c0.3,0,0.7,0,1.2,0
			c0.3,0,0.5,0,0.8,0c0.1,0,0.1-0.1,0.1-0.1l0-0.2l0-0.4c0-0.8,0-1.6,0-2.1c0-0.2,0-0.3,0-0.3c0-0.1,0-0.1,0-0.2c0,0,0-0.1,0-0.3
			c0-0.2,0-0.7,0-1.3c0-0.9,0-1.6,0-1.6c0,0,0-0.1,0-0.2c0-0.1,0-2.3,0-5.5c0-1.6,0-3.4,0-5.4c0-1.3,0-2.5,0-3.8l0-0.2
			c0-0.1,0-0.2-0.1-0.1l-0.4,0l-0.8,0l-1.2,0l-1.6,0c-6.5,0-12.8,0-15.1,0c-0.1,0-0.1,0-0.1,0c-0.3,0-0.8,0-1,0c-0.1,0-0.2,0-0.4,0
			c-0.1,0-0.2,0.1-0.2,0.2c0,0,0,0,0,0c0,0,0,0.1-0.1,0.2c0,0,0,0,0,0c0,0,0,0,0,0c0,0,0,0,0,0c0,0,0,0,0,0c0,0,0,0,0,0c0,0,0,0,0,0
			c0,0,0,0,0,0c0,0,0,0,0,0c0,0,0,0,0,0c0,0,0,0,0,0c0,0,0,0,0,0c0,0,0,0,0,0c0,0,0,0,0,0c0,0,0,0,0,0.1c0,0,0,0.1,0,0.1
			c0,0,0,0,0,0c0,0,0,0,0,0s0,0,0,0c0,0,0,0,0,0c0,0,0,0,0,0c0,0,0,0,0,0c0,0,0,0,0,0c0,0,0,0,0,0c0,0,0,0,0,0c0,0,0,0,0,0.1
			c0,0,0,0,0,0c0,0,0,0,0,0c0,0,0,0,0,0c0,0,0,0.1,0,0.1c0,0,0,0,0,0c0,0,0,0,0,0c0,0,0,0,0,0c0,0,0,0,0,0c0,0,0,0,0,0c0,0,0,0,0,0
			c0,0,0,0,0,0c0,0,0,0,0,0c0,0,0,0,0,0c0,0,0.1,0.1,0.1,0.1c0,0,0,0,0.1,0c0,0,0,0,0,0c0,0,0,0,0,0c0,0,0,0,0,0c0,0,0,0,0.1,0
			c0,0,0.1,0,0.1,0c0.1,0,0.1,0,0.2,0c0,0,0,0,0,0c0,0,0,0,0,0c0,0,0.1,0,0.3,0c0,0,0.1,0,0.1,0c0,0,0,0,0,0c0,0,0,0,0,0
			c0,0,0,0,0,0c0,0,0,0,0,0c0,0,0,0,0,0c0,0,0,0,0,0c0,0,0,0,0,0c0,0,0,0,0,0c0,0,0,0,0,0c0,0,0,0,0,0c0,0,0,0,0,0c0,0,0,0,0.1,0
			c0,0,0,0,0,0c0,0,0.1,0,0.1,0c0,0,0.2,0,0.4,0c0.1,0,0.1,0,0.1,0c0.6,0,5.8,0,10.7,0c1,0,2.3,0,3.7,0c0.7,0,1.4,0,2,0
			c0.2,0,0.4,0,0.6,0c0,0,0.1,0,0.1,0c0,1.6,0,10,0,17.2c0,0.3,0,0.7,0,1c0,0,0,0-0.1,0l-0.5,0c-1.1,0-2.1,0-3.1,0c-2,0-3.8,0-5.4,0
			c-3.1,0-5.2,0-5.4,0c-0.2,0-2,0-3,0c0,0-0.3,0-0.8,0c0-0.7,0-1.6,0-2.6c0-2.6,0-4.9,0-5c0-0.1,0-0.2,0-0.2c0-0.1,0-2.3,0-5
			c0-2.2,0-4.3,0-4.6c0,0,0-0.1,0-0.1c0,0,0,0,0,0c0,0,0,0,0-0.2c0,0,0-0.1,0-0.1c0,0,0,0,0,0c0,0,0,0,0,0c0,0,0-0.7,0-0.7
			c0,0,0-0.1,0-0.1c0-0.1-0.1-0.1-0.1-0.1c0,0,0,0,0,0c0,0-0.1,0-0.1,0c-0.1,0-0.1,0-0.1,0c0,0,0,0,0,0c0,0,0,0,0,0c0,0-0.1,0-0.1,0
			c0,0,0,0-0.1,0c0,0,0,0-0.1,0c-0.1,0-0.1,0-0.1,0c0,0,0,0-0.1,0c0,0,0,0-0.1,0c0,0,0,0,0,0c0,0,0,0,0,0c0,0-0.1,0-0.1,0
			c0,0-0.1,0-0.1,0c0,0-0.1,0-0.1,0c-0.1,0-0.2,0-0.2,0C120.3,154.2,120.2,154.2,120.2,154.3z"/>
	</g>
</g>
<line class="st2" x1="120.9" y1="174.2" x2="140.9" y2="154.2"/>
<line class="st2" x1="122.5" y1="156.4" x2="141.5" y2="173.7"/>
<g>
	<g>
		<path class="st0" d="M149.2,154.3C149.2,154.3,149.2,154.3,149.2,154.3C149.2,154.3,149.1,154.3,149.2,154.3
			c0,0.1-0.1,0.1-0.1,0.1c0,0,0,0,0,0.1c0,0,0,0,0,0c0,0,0,0,0,0.1c0,0,0,0.1,0,0.1c0,0,0,0.1,0,0.1c0,0,0,0,0,0.1c0,0,0,0.1,0,0.1
			c0,0,0,0,0,0c0,0,0,0,0,0c0,0,0,0,0,0.1c0,0,0,0,0,0.1c0,0,0,0,0,0s0,0,0,0c0,0,0,0.1,0,0.1c0,0,0,0.1,0,0.1c0,0,0,0,0,0
			c0,0,0,0,0,0c0,0,0,0.1,0,0.1c0,0,0,0.1,0,0.1c0,0,0,0,0,0c0,0,0,0,0,0c0,0,0,0.1,0,0.1c0,0,0,0,0,0c0,0,0,0.1,0,0.2
			c0,1.3,0,2.9,0,4.3c0,0.2,0,0.7,0,1.2c0,1.5,0,4.9,0,5.2c0,0.2,0,0.4,0,0.4c0,0.1,0,0.2,0,0.3c0,0.2,0,2,0,5.1c0,0.7,0,1.5,0,2.3
			c0,0.1,0,0.3,0,0.4l0.4,0c0.3,0,0.6,0,0.9,0c0.4,0,0.8,0,1.2,0c1.3,0,2.6,0,3.8,0c2.5,0,4.6,0,4.9,0c0.2,0,0.5,0,0.6,0
			c0.1,0,0.1,0,0.1,0c0,0,0.3,0,0.8,0c0.4,0,2,0,3.6,0c1.5,0,2.9,0,3,0c0.1,0,0.2,0,0.2,0c0,0,0.1,0,0.4,0c0.3,0,0.7,0,1.2,0
			c0.3,0,0.5,0,0.8,0c0.1,0,0.1-0.1,0.1-0.1l0-0.2v-0.4c0-0.8,0-1.6,0-2.1c0-0.2,0-0.3,0-0.3c0-0.1,0-0.1,0-0.2c0,0,0-0.1,0-0.3
			c0-0.2,0-0.7,0-1.3c0-0.9,0-1.6,0-1.6c0,0,0-0.1,0-0.2c0-0.1,0-2.3,0-5.5c0-1.6,0-3.4,0-5.4c0-1.3,0-2.5,0-3.8l0-0.2
			c0-0.1,0-0.2-0.1-0.1l-0.4,0l-0.8,0l-1.2,0l-1.6,0c-6.5,0-12.8,0-15.1,0c-0.1,0-0.1,0-0.1,0c-0.3,0-0.8,0-1,0c-0.1,0-0.2,0-0.4,0
			c-0.1,0-0.2,0.1-0.2,0.2c0,0,0,0,0,0c0,0,0,0.1-0.1,0.2c0,0,0,0,0,0c0,0,0,0,0,0c0,0,0,0,0,0c0,0,0,0,0,0c0,0,0,0,0,0c0,0,0,0,0,0
			c0,0,0,0,0,0c0,0,0,0,0,0c0,0,0,0,0,0c0,0,0,0,0,0c0,0,0,0,0,0c0,0,0,0,0,0c0,0,0,0,0,0c0,0,0,0,0,0.1c0,0,0,0.1,0,0.1
			c0,0,0,0,0,0c0,0,0,0,0,0s0,0,0,0c0,0,0,0,0,0c0,0,0,0,0,0c0,0,0,0,0,0c0,0,0,0,0,0c0,0,0,0,0,0s0,0,0,0c0,0,0,0,0,0.1
			c0,0,0,0,0,0c0,0,0,0,0,0c0,0,0,0,0,0c0,0,0,0.1,0,0.1c0,0,0,0,0,0c0,0,0,0,0,0c0,0,0,0,0,0c0,0,0,0,0,0c0,0,0,0,0,0c0,0,0,0,0,0
			c0,0,0,0,0,0c0,0,0,0,0,0c0,0,0,0,0,0c0,0,0.1,0.1,0.1,0.1c0,0,0,0,0.1,0c0,0,0,0,0,0c0,0,0,0,0,0c0,0,0,0,0,0c0,0,0,0,0.1,0
			c0,0,0.1,0,0.1,0c0.1,0,0.1,0,0.2,0c0,0,0,0,0,0c0,0,0,0,0,0c0,0,0.1,0,0.3,0c0,0,0.1,0,0.1,0c0,0,0,0,0,0c0,0,0,0,0,0
			c0,0,0,0,0,0c0,0,0,0,0,0c0,0,0,0,0,0c0,0,0,0,0,0c0,0,0,0,0,0c0,0,0,0,0,0c0,0,0,0,0,0c0,0,0,0,0,0c0,0,0,0,0,0c0,0,0,0,0.1,0
			c0,0,0,0,0,0c0,0,0.1,0,0.1,0c0,0,0.2,0,0.4,0c0.1,0,0.1,0,0.1,0c0.6,0,5.8,0,10.7,0c1,0,2.3,0,3.7,0c0.7,0,1.4,0,2,0
			c0.2,0,0.4,0,0.6,0c0,0,0.1,0,0.1,0c0,1.6,0,10,0,17.2c0,0.3,0,0.7,0,1c0,0,0,0-0.1,0l-0.5,0c-1.1,0-2.1,0-3.1,0c-2,0-3.8,0-5.4,0
			c-3.1,0-5.2,0-5.4,0c-0.2,0-2,0-3,0c0,0-0.3,0-0.8,0c0-0.7,0-1.6,0-2.6c0-2.6,0-4.9,0-5c0-0.1,0-0.2,0-0.2c0-0.1,0-2.3,0-5
			c0-2.2,0-4.3,0-4.6c0,0,0-0.1,0-0.1c0,0,0,0,0,0c0,0,0,0,0-0.2c0,0,0-0.1,0-0.1c0,0,0,0,0,0c0,0,0,0,0,0c0,0,0-0.7,0-0.7
			c0,0,0-0.1,0-0.1c0-0.1-0.1-0.1-0.1-0.1c0,0,0,0,0,0c0,0-0.1,0-0.1,0c-0.1,0-0.1,0-0.1,0c0,0,0,0,0,0c0,0,0,0,0,0c0,0-0.1,0-0.1,0
			c0,0,0,0-0.1,0c0,0,0,0-0.1,0c-0.1,0-0.1,0-0.1,0c0,0,0,0-0.1,0c0,0,0,0-0.1,0c0,0,0,0,0,0c0,0,0,0,0,0c0,0-0.1,0-0.1,0
			c0,0-0.1,0-0.1,0c0,0-0.1,0-0.1,0c-0.1,0-0.2,0-0.2,0C149.3,154.2,149.2,154.2,149.2,154.3z"/>
	</g>
</g>
<line class="st2" x1="149.9" y1="174.2" x2="169.9" y2="154.2"/>
<line class="st2" x1="151.5" y1="156.4" x2="170.5" y2="173.7"/>
<g>
	<g>
		<path class="st0" d="M25.2,72.6C25.2,72.6,25.3,72.6,25.2,72.6c0,0.1,0.1,0.1,0.1,0.1c0,0,0.1,0,0.2,0c0.1,0,0.1,0,0.1,0
			c0,0,0,0,0,0c0,0,0.1,0,0.2,0c0.1,0,0.2,0,0.2,0c0.1,0,0.2,0,0.2,0c0,0,0,0,0.1,0c0.1,0,0.1,0,0.2,0c0,0,0.1,0,0.1,0c0,0,0,0,0,0
			c0,0,0.1,0,0.1,0c0,0,0.1,0,0.1,0c0,0,0.1,0,0.1,0c0,0,0,0,0.1,0c0,0,0.1,0,0.2,0c0.1,0,0.1,0,0.2,0c0,0,0.1,0,0.1,0
			c0,0,0.1,0,0.1,0c0,0,0.1,0,0.2,0c0.1,0,0.2,0,0.2,0c0,0,0.1,0,0.1,0c0,0,0,0,0,0c0.1,0,0.2-0.1,0.2,0c0,0,0,0,0,0
			c0,0,0.1-0.1,0.4-0.1c6.2,0,14.2,0,20.9,0c0.7,0,3.4,0,5.9,0c7.3,0,24.2,0,25.8,0c0.8,0,1.8,0,2.1,0c0.3,0,0.9,0,1.3,0
			c1,0,9.7,0,25.3,0c18,0,56.5,0,59.4,0c1.2,0,2.5,0,2.9,0c0.6,0,0.7,0,0.8,0c0,0,0.2,0,0.5,0c0.3,0,0.8,0,1.4,0c0.3,0,0.7,0,1.1,0
			c0.2,0,0.4,0,0.6,0l0.2,0c0.1,0,0.1,0,0.1-0.1c0-0.1,0-0.2,0-0.3c0-0.9,0-2.1,0-3.3c0-2.1,0-10.1,0-17.7c0-7.6,0-14.2,0-14.6
			c0-0.2,0-0.4,0-0.6c0-0.1,0-0.2,0-0.2c0,0,0-0.2,0-0.5c0-0.3,0-0.8,0-1.4c0-0.7,0-1.7,0-2.9c0-1.2,0-2.4,0-3.7c-1.2-0.1-2.7,0-4,0
			c-2.8,0-5.7,0-7.5,0c-1.1,0-1.7,0-1.9,0c-0.6,0-0.7,0-0.7,0c0,0-0.1,0-0.3,0c-0.2,0-0.6,0-1.2,0c-1.2,0-3.2,0-6.5,0
			c-4.5,0-8,0-8.1,0c0,0-0.5,0-1.1,0c-1,0-34.7,0-71.3,0c-9.2,0-18.5,0-27.6,0c-4.5,0-9,0-13.3,0c-2.3,0-4.6,0-6.9,0l-1.6,0l-0.8,0
			l-0.4,0l-0.2,0c0,0-0.1,0-0.1,0l0,0.1c0,1,0,2.1,0,3.1c0,1.2,0,2.3,0,3.4c0,14.9,0,27.1,0,33.1c0,0.1,0,0.2,0,0.3
			c0,0.6,0,1.5,0.1,1.9c0,0.1,0,0.3,0,0.8c0,0.2,0.1,0.4,0.4,0.4c0.1,0,0.1,0,0.1,0.1c0,0.1,0.2,0.1,0.4,0.1c0,0,0,0,0,0
			c0,0,0,0,0.1,0c0,0,0.1,0,0.1,0c0,0,0.1,0,0.1,0c0,0,0.1,0,0.1,0c0,0,0,0,0,0c0,0,0,0,0.1,0c0,0,0,0,0,0c0,0,0,0,0,0c0,0,0,0,0,0
			c0,0,0,0,0,0c0,0,0,0,0.1,0c0,0,0,0,0,0c0,0,0.1,0,0.1,0c0,0,0.1,0,0.1,0c0,0,0,0,0.1,0c0,0,0.1,0,0.1,0s0,0,0.1,0
			c0,0,0.1,0,0.1,0c0,0,0,0,0,0c0,0,0.1,0,0.1,0c0,0,0,0,0.1,0c0,0,0.1,0,0.1,0s0,0,0.1,0c0,0,0.1,0,0.1,0c0,0,0.1,0,0.1,0
			c0,0,0,0,0.1,0c0,0,0.1,0,0.1,0c0,0,0.1,0,0.2,0c0,0,0,0,0,0c0,0,0,0,0,0c0,0,0,0,0.1,0c0,0,0.1,0,0.1,0c0,0,0,0,0,0c0,0,0,0,0,0
			c0,0,0,0,0.1,0c0,0,0.1,0,0,0c0,0,0,0,0.1,0c0.1,0.1,0.2-0.1,0.3-0.3c0,0,0-0.1,0-0.1c0,0,0,0,0-0.1c0,0,0-0.1,0-0.1
			c0,0,0,0,0-0.1c0,0,0-0.1,0-0.1c0,0,0-0.1,0-0.2c0-0.2,0-0.3,0.1-0.3c0,0,0-0.1,0-0.1c0,0,0-0.1,0-0.1c0,0,0-0.2,0.1-0.5
			c0-0.1,0-0.1,0-0.1c0,0,0,0,0,0c0,0,0,0,0-0.1c0,0,0-0.1,0-0.1c0,0,0,0,0-0.1c0,0,0,0,0-0.1c0,0,0,0,0,0c0,0,0,0,0-0.1
			c0,0,0-0.1,0-0.1c0,0,0,0,0,0c0,0,0,0,0,0c0,0,0,0,0,0c0,0,0-0.1,0-0.1c0,0,0-0.1,0-0.1c0,0,0-0.1,0-0.2c0-0.1-0.1-0.4-0.1-0.7
			c0-0.1,0-0.2,0-0.3c0-1.3,0-8.3,0-17.9c0-4.9,0-10.6,0-16.5c0-0.5,0-0.9,0-1.4c0,0,0-0.1,0-0.1l0.1,0c1.3,0,2.6,0,3.8,0
			c3.1,0,6.2,0,9.2,0c9.7,0,26.3,0,36.9,0c8.1,0,51.7,0,88.2,0c2.3,0,4.5,0,6.7,0l0.9,0c0.1,0,0.2,0,0.1,0.1c0,0.6,0,1.3,0,1.9
			c0,4.2,0,8.3,0,12c0,7.5,0,13.9,0,18.6c0,1.9,0,3.7,0,5.4l0,0.2l0,0.1l-0.1,0c-0.4,0-0.8,0-1.2,0c-3.2,0-6,0-8.6,0
			c-5.2,0-9.2,0-12.4,0c-6.3,0-8.9,0-9.4,0c-1.2,0-9.7,0-14.9,0c-1,0-12.4,0-25.3,0c-12.9,0-24,0-24.5,0c-0.6,0-1,0-1,0
			c-0.1,0-11,0-24.5,0c-6.7,0-13.3,0-18.4,0c-1.6,0-3,0-4,0c0,0-0.1,0-0.1,0c-0.1,0-0.1,0-0.1,0c0,0,0,0-0.1,0c0,0-0.1,0-0.4,0
			c-0.1,0-0.1,0-0.2,0c0,0,0,0,0,0c0,0,0,0-0.1,0c0,0-1.3,0-1.5,0c-0.1,0-0.2,0-0.2,0c-0.1,0-0.3,0.1-0.3,0.2c0,0,0,0.1,0,0.1
			c0,0-0.1,0.2-0.1,0.2c0,0.1,0,0.3-0.1,0.3c0,0,0,0,0,0.1c0,0,0.1,0,0,0.1c-0.1,0.1-0.1,0.1-0.1,0.2c0,0.1,0,0.1,0,0.1
			c0,0,0,0.1,0,0.2c0,0.1,0,0.2,0,0.2c0,0,0,0.1,0,0.1c0,0,0,0.1,0,0.1c0,0,0,0.1,0,0.1c0,0,0,0,0,0c0,0-0.1,0.1,0,0.1
			c0,0,0,0.2,0,0.2c0,0-0.1,0.1-0.1,0.2c0,0.2,0,0.3-0.1,0.3C25.2,72.4,25.2,72.5,25.2,72.6z"/>
	</g>
</g>
<line class="st2" x1="174.8" y1="71" x2="26.6" y2="29.3"/>
<line class="st2" x1="26" y1="67.6" x2="174.8" y2="29.3"/>
</svg>
