<?xml version="1.0" encoding="utf-8"?>
<!-- Generator: Adobe Illustrator 19.2.1, SVG Export Plug-In . SVG Version: 6.00 Build 0)  -->
<svg version="1.1" id="Layer_2_copy_6" xmlns="http://www.w3.org/2000/svg" xmlns:xlink="http://www.w3.org/1999/xlink" x="0px"
	 y="0px" viewBox="0 0 200 102.7" style="enable-background:new 0 0 200 102.7;" xml:space="preserve">
<style type="text/css">
	.st0{fill:#FFFFFF;}
	.st1{enable-background:new    ;}
</style>
<path class="st0" d="M146.4,77.4c1-1.2,1.6-2.7,1.6-4.4c0-3.9-3.1-7-7-7s-7,3.1-7,7s3.1,7,7,7c1.2,0,2.3-0.3,3.2-0.8L147,82
	c1.4,1.4,2.5,1.5,4,0L146.4,77.4z M136,73c0-2.8,2.2-5,5-5s5,2.2,5,5s-2.2,5-5,5S136,75.7,136,73z"/>
<g>
	<g>
		<path class="st0" d="M189,46.3L189,46.3L189,46.3c0,0.1-0.1,0.1-0.3,0.2c-0.1,0-0.1,0-0.1,0s0,0-0.1,0c0,0,0,0-0.1,0l0,0l0,0l0,0
			h-0.1l0,0l0,0l0,0c0,0,0,0-0.1,0h-0.1l0,0l0,0H188l0,0h-0.1l0,0l0,0l0,0l0,0l0,0l0,0l0,0l0,0l0,0l0,0l0,0h-0.1l0,0
			c0,0-0.1,0-0.2,0c-0.1,0-0.2,0-0.3,0h-0.1h-0.1H187c-0.1,0-0.1,0-0.1,0l0,0c0,0,0,0-0.1,0c-2.2,0-5.3,0-9.2,0c-9,0-21.5,0-35.8,0
			c-6.8,0-13,0-13.7,0c-1.2,0-2.4,0-2.9,0c-0.1,0-0.1,0-0.2,0h-0.1v-0.1c0-0.2,0-0.4,0-0.6c0-0.4,0-0.9,0-1.3c0-1,0-12.3,0-12.7
			c0-0.2,0-3.4,0-7.3c0-1.9,0-3.9,0-5.7c0-1.1,0-2.2,0-3.3v-2.9c0-0.1,0.1,0,0.1-0.1h0.2h0.4h0.8h1.4c2.2,0,4.4,0,6.4,0
			c4.1,0,7.8,0,10.5,0c3.1,0,6.5,0,7.5,0s2,0,2.3,0s9.3,0,20,0c2.7,0,5.4,0,8.1,0c1.3,0,2.6,0,3.9,0c0.7,0,1.3,0,1.9,0
			c0.6,0,1.1,0,1.7,0c0.3,0,0.6,0,0.8,0c0,0.3,0,0.6,0,0.8c0,5.1,0,9.1,0,10.9c0,8,0,14.1,0,18.2c0,0.1,0,0.2,0,0.2l0,0
			c0,0,0,0,0,0.1v0.1c0,0,0,0,0,0.1l0,0l0,0V43l0,0l0,0c0,0,0,0,0,0.1s0,0.2,0,0.2l0,0v0.1l0,0l0,0c0,0,0,0,0,0.1s0,0.1,0,0.1l0,0
			l0,0c0,0.1,0,0.2,0,0.2l0,0l0,0l0,0l0,0c0,0,0,0,0,0.1V44l0,0c0,0,0,0,0,0.1c0,0,0,0,0,0.1v0.1c0,0,0,0,0,0.1s0,0.1,0,0.1l0,0
			c0,0,0,0,0,0.1l0,0l0,0l0,0c0,0-0.1,0-0.1,0.1l0,0c0,0,0,0-0.1,0l0,0l0,0c0,0,0,0.1-0.1,0l0,0c0,0,0,0-0.1,0s-0.1,0-0.1,0l0,0l0,0
			c0,0-0.1,0.1-0.1,0c0,0,0,0-0.1,0s-0.2,0-0.2,0l0,0l0,0l0,0l0,0l0,0c0,0,0,0,0,0.1c0,0,0,0-0.1,0h-0.1c0,0,0,0-0.1,0
			c0,0,0,0-0.1,0l0,0l0,0c0,0-0.1,0.1-0.1,0l0,0c0,0,0,0-0.1,0h-0.1l0,0l0,0l0,0l0,0l0,0l0,0l0,0l0,0l0,0l0,0h-0.1l0,0h-0.1
			c0,0-0.1-0.1-0.1,0l0,0l0,0l0,0l0,0l0,0l0,0l0,0l0,0c0,0-0.1-0.1,0-0.1v-0.1v-0.1l0,0c0,0,0,0,0-0.1c0,0,0,0,0-0.1v-0.2V44v-0.1
			v-0.1l0,0c0,0,0,0,0-0.1l0,0c0,0,0,0,0-0.1v-0.1l0,0v-0.1v-0.1v-0.1l0,0V43c0,0,0,0,0-0.1v-0.1c0,0,0,0,0-0.1v-0.1l0,0l0,0
			c0,0,0,0,0-0.1c0-0.6,0-1.5,0-2.7c0-5.9,0-14.2,0-24c0-0.3,0-0.5,0-0.8c0-0.1-0.1,0-0.1,0h-0.3c-1.3,0-2.6,0-3.9,0
			c-2.6,0-5.3,0-8.1,0c-5.6,0-11.4,0-17.4,0s-12.2,0-18.5,0c-3.1,0-6.3,0-9.4,0h-2.4h-0.7h-0.1v3.7c0,5.1,0,10.1,0,15.1
			c0,2.5,0,4.9,0,7.4c0,0.9,0,1.8,0,2.6c0,0,0,0,0.1,0h0.2c0.6,0,1.2,0,1.8,0c30.9,0,55.7,0,57.4,0h0.1c0.1,0,0.1,0,0.1,0l0,0l0,0
			c0,0,0,0,0.1,0h0.1l0,0c0,0,0,0,0-0.1c0.1,0,0.1,0,0.1,0h0.1l0,0h0.1h0.1c0,0,0,0,0.1,0c0,0,0.1,0,0.2,0c0.1,0,0.1,0,0.1,0l0,0
			l0,0l0,0l0,0l0,0l0,0h0.1h0.1h0.1l0,0l0,0l0,0l0,0c0,0,0.1,0,0.2,0c0,0,0,0,0.1,0c0,0,0,0,0.1,0l0,0l0,0h0.1l0,0c0,0,0,0,0.1,0
			h0.1c0,0,0,0,0.1,0s0.1,0,0.1,0.1l0,0l0,0l0,0l0,0v0.1V44v0.1c0,0.1,0,0.1,0,0.1l0,0v0.1c0,0.1,0,0.1,0,0.1l0,0v0.2c0,0,0,0,0,0.1
			v0.1v0.1v0.2c0,0,0,0.1,0,0.2c0,0.2,0,0.3,0,0.3C189,46.2,189,46.2,189,46.3L189,46.3z"/>
	</g>
</g>
<g>
	<g>
		<path class="st0" d="M159,90.8L159,90.8L159,90.8c0,0.1-0.1,0.1-0.3,0.2c-0.1,0-0.1,0-0.1,0s0,0-0.1,0c0,0,0,0-0.1,0l0,0l0,0l0,0
			h-0.1l0,0l0,0l0,0c0,0,0,0-0.1,0h-0.1l0,0l0,0H158l0,0h-0.1l0,0l0,0l0,0l0,0l0,0l0,0l0,0l0,0l0,0l0,0l0,0h-0.1l0,0
			c0,0-0.1,0-0.2,0c-0.1,0-0.2,0-0.3,0h-0.1h-0.1H157c-0.1,0-0.1,0-0.1,0l0,0c0,0,0,0-0.1,0c-1.5,0-3.6,0-6.2,0
			c-6.3,0-15.1,0-25.2,0c-0.8,0.2-0.5-0.6-0.5-1.1s0-1.1,0-1.6c0-0.6,0-1.1,0-1.6c0-1,0-2,0-2.8c0-1.7,0-2.8,0-3.1c0-0.5,0-1,0-1.2
			s0-0.5,0-0.8c0-0.6,0-8,0-8.3c0-0.1,0-2.3,0-4.9c0-1.3,0-2.6,0-3.8c0-0.8,0-1.7,0-2.5v-2.1c0.7-0.1,1.4,0,2.1,0c1.6,0,3.1,0,4.6,0
			c2.8,0,5.3,0,7.1,0c2.1,0,4.4,0,5,0c0.7,0,1.4,0,1.5,0c0.2,0,6.5,0,14,0h1.3h0.3c0.1,0,0,0.1,0.1,0.1v0.2v0.7v2.2
			c0,0.9,0,1.8,0,2.7c0,1.8,0,3.5,0,5.1c0,3.1,0,5.6,0,6.7c0,5.4,0,9.5,0,12.3c0,0.1,0,0.2,0,0.2l0,0c0,0,0,0,0,0.1v0.1
			c0,0,0,0,0,0.1l0,0l0,0v0.1l0,0l0,0c0,0,0,0,0,0.1s0,0.2,0,0.2l0,0v0.1l0,0l0,0c0,0,0,0,0,0.1s0,0.1,0,0.1l0,0l0,0
			c0,0.1,0,0.2,0,0.2l0,0l0,0l0,0l0,0c0,0,0,0,0,0.1v0.1l0,0c0,0,0,0,0,0.1c0,0,0,0,0,0.1v0.1c0,0,0,0,0,0.1s0,0.1,0,0.1l0,0
			c0,0,0,0,0,0.1l0,0l0,0l0,0c0,0-0.1,0-0.1,0.1l0,0c0,0,0,0-0.1,0l0,0l0,0c0,0,0,0.1-0.1,0l0,0c0,0,0,0-0.1,0s-0.1,0-0.1,0l0,0l0,0
			c0,0-0.1,0.1-0.1,0c0,0,0,0-0.1,0s-0.2,0-0.2,0l0,0l0,0l0,0l0,0l0,0c0,0,0,0,0,0.1c0,0,0,0-0.1,0h-0.1c0,0,0,0-0.1,0
			c0,0,0,0-0.1,0l0,0l0,0c0,0-0.1,0.1-0.1,0l0,0c0,0,0,0-0.1,0h-0.1l0,0l0,0l0,0l0,0l0,0l0,0l0,0l0,0l0,0l0,0h-0.1l0,0h-0.1
			c0,0-0.1-0.1-0.1,0l0,0l0,0l0,0l0,0l0,0l0,0l0,0l0,0c0,0-0.1-0.1,0-0.1v-0.1v-0.1l0,0c0,0,0,0,0-0.1c0,0,0,0,0-0.1v-0.2v-0.1v-0.1
			v-0.1l0,0c0,0,0,0,0-0.1l0,0c0,0,0,0,0-0.1v-0.1l0,0v-0.1v-0.1V88l0,0v-0.2c0,0,0,0,0-0.1v-0.1c0,0,0,0,0-0.1v-0.1l0,0l0,0
			c0,0,0,0,0-0.1c0-0.4,0-1.1,0-1.8c0-4,0-9.6,0-16.2c0-2.9,0-6.1,0-9.5c-3.3,0-6.8,0-10.4,0c-4.1,0-8.2,0-12.5,0
			c-2.1,0-4.2,0-6.4,0h-1.6c-0.1,0-0.1,0-0.2,0v2.1c0,7.7,0,15.2,0,22.3c0,1.5,0,2.9,0,4.3c0,0.1,0.1,0,0.1,0h0.8c0.8,0,1.7,0,2.5,0
			c3.2,0,6.3,0,9.2,0c5.7,0,10.5,0,13.9,0c1.2,0,2.3,0,3,0h0.1h0.1c0.1,0,0.1,0,0.1,0l0,0l0,0c0,0,0,0,0.1,0h0.1l0,0c0,0,0,0,0-0.1
			c0.1,0,0.1,0,0.1,0h0.1l0,0h0.1h0.1c0,0,0,0,0.1,0c0,0,0.1,0,0.2,0c0.1,0,0.1,0,0.1,0l0,0l0,0l0,0l0,0l0,0l0,0h0.1h0.1h0.1l0,0
			l0,0l0,0l0,0c0,0,0.1,0,0.2,0c0,0,0,0,0.1,0c0,0,0,0,0.1,0l0,0l0,0h0.1l0,0c0,0,0,0,0.1,0h0.1c0,0,0,0,0.1,0s0.1,0,0.1,0.1l0,0
			l0,0l0,0l0,0v0.1v0.1v0.1c0,0.1,0,0.1,0,0.1l0,0V89c0,0.1,0,0.1,0,0.1l0,0v0.2c0,0,0,0,0,0.1v0.1v0.1v0.2c0,0,0,0.1,0,0.2
			c0,0.2,0,0.3,0,0.3C159,90.7,159,90.7,159,90.8L159,90.8z"/>
	</g>
</g>
<g class="st1">
	<path class="st0" d="M140.4,24.7c0,0,0.1,0,0.2,0c0.3,0,0.5,0,0.7,0c0.7,0.1,1.3,0.3,1.7,0.6c0.4,0.4,0.6,0.8,0.6,1.4
		c0,0.3-0.2,0.7-0.6,1.2c-0.4,0.5-0.8,1-1.2,1.4s-0.7,0.6-0.9,0.7c0,0,0.2,0.1,0.6,0.2c0.9,0.3,1.5,0.9,1.7,1.8
		c0.1,0.5,0,1.1-0.4,1.9l-0.2,0.4c0,0-0.1,0.2-0.3,0.5c-0.2,0.3-0.3,0.5-0.5,0.7c-0.9,0.8-1.9,1.2-2.9,1.2c-0.5,0-0.9-0.1-1.2-0.3
		c-0.3-0.2-0.5-0.3-0.6-0.4s-0.3-0.2-0.3-0.4c-0.1-0.2-0.1-0.4,0.2-0.6c0.1-0.1,0.3,0.1,0.7,0.4c0.4,0.4,1,0.5,1.9,0.3
		c0.8-0.2,1.5-0.7,2.1-1.5c0.3-0.4,0.5-0.9,0.6-1.4s0-0.9-0.2-1.1c-0.6-0.8-1.5-1.1-2.8-0.7c-0.2,0-0.5,0.1-0.9,0.2
		c-0.1,0-0.3,0.1-0.3,0.3c-0.1,0.1-0.3,0.8-0.7,2s-0.7,1.9-0.9,1.9c-0.1,0-0.3-0.1-0.4-0.3c-0.2-0.3-0.2-0.6,0-0.9
		c0.1-0.1,0.2-0.4,0.3-0.7c0.1-0.4,0.5-1.5,1.2-3.1c0.7-1.7,1.2-2.8,1.5-3.6c0.3-0.7,0.4-1.1,0.3-1.1c0,0,0-0.1,0-0.1
		c0-0.1,0-0.1,0-0.1c0-0.1,0.1-0.2,0.4-0.3s0.5-0.2,0.7-0.2C140.3,24.8,140.4,24.7,140.4,24.7z M140.1,26.1c0,0.2-0.1,0.3-0.3,0.5
		l-0.1,0.3c0,0-0.1,0.3-0.3,0.7c-0.7,1.5-1,2.3-1,2.6c0.7-0.1,1.2-0.2,1.5-0.3c0.3-0.2,0.5-0.3,0.7-0.5c0.2-0.2,0.4-0.5,0.8-0.9
		c0.4-0.5,0.6-0.9,0.8-1.2c0.2-0.4,0.4-0.7,0.4-0.9s0-0.4-0.2-0.5c-0.1-0.1-0.4-0.2-0.8-0.3c-0.4,0-0.8,0-1,0.1
		C140.3,25.8,140.1,25.9,140.1,26.1z"/>
	<path class="st0" d="M148.4,33.3c0.4-0.6,0.6-0.9,0.6-1c0-0.1,0.1-0.2,0.2-0.4c0.2-0.2,0.7-1.1,1.4-2.6c0.7-2.1,1-3.3,1.1-3.6
		c0.1-0.3,0.2-0.6,0.3-1c0.1,0,0.3,0.1,0.6,0.2c0.1,0.1,0.1,0.3,0.1,0.5c-0.3,1.3-0.5,2.2-0.7,2.7c-0.2,0.5-0.3,0.9-0.5,1.2
		c-0.1,0.3-0.2,0.6-0.3,0.7c-0.1,0.2-0.2,0.4-0.4,0.8c-0.2,0.4-0.3,0.6-0.3,0.8v0.1c-0.1,0.1-0.2,0.2-0.4,0.4
		c-0.1,0.2-0.2,0.3-0.2,0.3l-0.1,0.4c0,0.1-0.1,0.1-0.2,0.2s-0.2,0.1-0.2,0.2c0,0.1,0,0.1-0.1,0.1c-0.4,0.6-0.8,1.1-1.3,1.5
		c-0.8,0.8-1.6,1.2-2.2,1c-0.8-0.3-1.2-0.8-1.4-1.6c-0.2-0.8-0.1-2,0.2-3.7c0.2-0.8,0.4-1.7,0.8-2.8c0.4-1.1,0.7-1.9,1.1-2.5
		c0.3-0.6,0.5-0.9,0.7-1c0.1-0.1,0.3-0.2,0.4-0.2c0.3,0.1,0.5,0.3,0.5,0.5c0.1,0.3,0,0.5-0.3,0.7c-0.1,0.1-0.3,0.4-0.5,0.9
		c-0.2,0.5-0.4,0.8-0.5,0.9c-0.7,1.9-1.1,3.3-1.2,4.3c-0.2,1-0.3,1.9-0.3,2.7c0,0,0.1,0.1,0.1,0.2c0,0.1,0.1,0.1,0.1,0.2
		s0,0.1,0.1,0.1c0,0.1,0.1,0.1,0.2,0.1c0.4,0.2,0.8,0.1,1.3-0.2c0.1-0.1,0.2-0.2,0.3-0.3c0,0,0.1,0.1,0.1,0c0,0,0,0,0.1-0.1
		c0-0.1,0-0.1,0.1-0.2C147.7,34.2,148,33.9,148.4,33.3z"/>
</g>
<g class="st1">
	<path class="st0" d="M158.7,26.1c-0.4,0-0.7,0-0.8,0c0,0.3-0.2,0.7-0.4,1.1c0,0.1-0.1,0.2-0.1,0.4c-0.1,0.3-0.1,0.5-0.1,0.5
		c-0.1,0.1-0.2,0.6-0.5,1.5c-0.3,0.9-0.5,1.4-0.5,1.5l-0.8,2.1c-0.2,0.4-0.4,0.8-0.5,1.3c-0.1,0.4-0.2,0.8-0.3,1.1
		c-0.1,0.3-0.1,0.4-0.2,0.5c0,0-0.1,0.1-0.1,0.1c-0.1,0-0.1,0-0.2,0c0,0-0.1-0.1-0.2-0.2s-0.2-0.3-0.1-0.5c0-0.2,0.1-0.6,0.3-1.1
		c0.2-0.6,0.3-1,0.5-1.3c0-0.1,0.1-0.3,0.1-0.5c0-0.2,0.1-0.2,0.1-0.3c0.1-0.1,0.2-0.4,0.3-0.6s0.4-1.5,1.2-3.8
		c0.1-0.2,0.2-0.4,0.3-0.6c0.1-0.1,0.1-0.2,0.1-0.3c0.2-0.4,0.3-0.6,0.3-0.6v0c-1.6,0.1-2.5,0.2-2.7,0.2c-0.5,0.1-0.7-0.1-0.6-0.4
		c0.1-0.2,0.3-0.4,0.7-0.4c0.2-0.1,0.7-0.1,1.5-0.2c0.7-0.1,1.7-0.2,3.1-0.3c0.1,0,0.3,0,0.7,0.1s0.6,0.1,0.8,0.2
		c0.4,0.1,0.7,0.3,0.8,0.6c0,0.1,0,0.3-0.1,0.3c0,0,0,0,0,0c-0.4,0.1-0.7,0.1-0.9,0c-0.1-0.1-0.1-0.1-0.2-0.1
		C159.7,26.2,159.3,26.1,158.7,26.1z"/>
</g>
<g class="st1">
	<path class="st0" d="M164.6,26.1c-0.4,0-0.7,0-0.8,0c0,0.3-0.2,0.7-0.4,1.1c0,0.1-0.1,0.2-0.1,0.4c-0.1,0.3-0.1,0.5-0.1,0.5
		c-0.1,0.1-0.2,0.6-0.5,1.5s-0.5,1.4-0.5,1.5l-0.8,2.1c-0.2,0.4-0.4,0.8-0.5,1.3s-0.2,0.8-0.3,1.1c-0.1,0.3-0.1,0.4-0.2,0.5
		c0,0-0.1,0.1-0.1,0.1c-0.1,0-0.1,0-0.2,0s-0.1-0.1-0.2-0.2c-0.1-0.1-0.2-0.3-0.1-0.5s0.1-0.6,0.3-1.1c0.2-0.6,0.3-1,0.5-1.3
		c0-0.1,0.1-0.3,0.1-0.5c0-0.2,0.1-0.2,0.1-0.3c0.1-0.1,0.2-0.4,0.3-0.6s0.4-1.5,1.2-3.8c0.1-0.2,0.2-0.4,0.3-0.6
		c0.1-0.1,0.1-0.2,0.1-0.3c0.2-0.4,0.3-0.6,0.3-0.6v0c-1.6,0.1-2.5,0.2-2.7,0.2c-0.5,0.1-0.7-0.1-0.6-0.4c0.1-0.2,0.3-0.4,0.7-0.4
		c0.2-0.1,0.7-0.1,1.5-0.2c0.7-0.1,1.7-0.2,3.1-0.3c0.1,0,0.3,0,0.7,0.1c0.4,0,0.6,0.1,0.8,0.2c0.4,0.1,0.7,0.3,0.8,0.6
		c0,0.1,0,0.3-0.1,0.3c0,0,0,0,0,0c-0.4,0.1-0.7,0.1-0.9,0c-0.1-0.1-0.1-0.1-0.2-0.1C165.6,26.2,165.2,26.1,164.6,26.1z"/>
	<path class="st0" d="M170.3,25.1c0.5-0.3,0.8-0.4,1-0.3c0.6,0.1,1,0.4,1.3,0.7c0.3,0.4,0.5,0.9,0.7,1.8s0.2,1.6,0,2.3
		c-0.1,0.7-0.6,1.6-1.2,2.8c-0.7,1.5-1.6,2.5-2.7,3.2c-1,0.7-1.9,0.7-2.6,0.2c-0.4-0.3-0.6-0.5-0.7-0.7c-0.3-0.4-0.3-1.5,0-3.1
		c0.1-0.1,0.1-0.1,0.1-0.2c0-0.1,0-0.2,0-0.3c0-0.1,0.1-0.3,0.1-0.5c0.1-0.2,0.1-0.4,0.2-0.6c0.5-1.5,1.1-2.6,1.8-3.6
		C169.2,25.8,169.8,25.3,170.3,25.1z M172.3,28.3c0-0.4,0-0.8,0-1.3c0-0.5-0.1-0.8-0.3-1c-0.3-0.3-0.7-0.4-1.1-0.2
		c-0.3,0.1-0.8,0.6-1.5,1.4c-0.7,0.8-1,1.3-1,1.5c0,0.1,0,0.2-0.1,0.2c-0.3,0.3-0.6,1-0.9,2.1s-0.5,1.9-0.5,2.5c0,0.6,0,0.9,0,0.9
		c0,0,0.1,0.2,0.2,0.4c0.1,0.1,0.2,0.2,0.3,0.2c0.2,0.1,0.3,0.1,0.5,0c0.4,0,0.7-0.2,1-0.4c0.3-0.2,0.8-0.7,1.3-1.3
		c0.5-0.6,0.9-1.1,1.1-1.4c0.2-0.4,0.4-1,0.7-2C172.2,29.3,172.3,28.7,172.3,28.3z"/>
	<path class="st0" d="M177.5,24.9c0.3,0,0.5,0.2,0.6,0.5c0.3,0.6,0.4,2,0.3,4c0,1.3,0,2.3,0.2,2.9c0.1,0.5,0.2,1,0.4,1.6
		s0.3,0.9,0.4,0.9c0.3,0,0.9-1.7,1.8-5.1c0.2-0.6,0.3-1.3,0.4-2.1c0.3-1.3,0.5-2,0.5-2.1v-0.4c0,0,0.1-0.1,0.1-0.2
		c0-0.1,0.1-0.3,0.1-0.5c0-0.2,0.1-0.4,0.2-0.5c0-0.1,0.2-0.1,0.4-0.1s0.4,0.2,0.4,0.3c0,0.2-0.1,1-0.4,2.4c0,0.1-0.1,0.5-0.2,1.1
		c-0.1,0.6-0.2,1-0.3,1.2c-0.1,0.7-0.2,1-0.3,1c-0.4,1.9-1,3.6-1.7,5.2c-0.5,1.2-1.1,1.4-1.8,0.6c-0.4-0.5-0.6-1-0.8-1.7
		c-0.1-0.3-0.1-0.7-0.3-1.4c-0.2-0.6-0.3-1.2-0.3-2c0-0.3,0-0.6,0.1-1.1s0.1-0.8,0.1-1.1c0-0.8-0.1-1.1-0.1-1.1
		c-0.1,0-0.2,0.3-0.4,0.8c-0.2,0.5-0.4,1-0.6,1.5c-0.5,1.1-0.7,1.7-0.8,2s-0.2,0.5-0.3,0.9c-0.7,1.9-1.1,3.1-1.3,3.6
		c-0.1,0.2-0.2,0.4-0.2,0.5c-0.1,0.2-0.4,0.2-0.6-0.1c-0.1-0.2-0.2-0.3-0.2-0.4c0-0.1,0-0.3,0.1-0.6c0.1-0.3,0.2-0.7,0.4-1.2
		c0.2-0.5,0.3-0.9,0.4-1.4c0.4-0.8,0.6-1.4,0.7-1.8s0.2-0.6,0.3-0.8s0.2-0.4,0.4-0.7c0.1-0.3,0.3-0.6,0.4-0.8
		c0.1-0.2,0.2-0.6,0.3-0.9c0.1-0.4,0.2-0.7,0.3-0.9c0.2-0.5,0.4-1,0.6-1.3C177,25.1,177.2,24.9,177.5,24.9z"/>
</g>
<path class="st0" d="M11.7,12.7v33.8h114V12.7H11.7z M28.4,29.1c-0.9,2.3-1.7,4.8-2.5,7.3c0,0,0,0.1,0,0.2c0,0.1,0,0.1,0,0.2
	c0,0.3-0.1,0.5-0.3,1c0,0.1-0.1,0.1-0.2,0.1s-0.1,0.1-0.2,0.2c0,0.1-0.1,0.1-0.1,0.1C25,38.2,25,38,24.8,38c-0.2,0-0.4-0.2-0.5-0.2
	s-0.1,0-0.1-0.1s0.2-0.9,0.3-1.2c0.1-0.1,0.1-0.2,0.1-0.4c0.6-2.5,1.5-4.6,2.3-7.1c0.1-0.4,0.3-0.5,0.6-1.6c0-0.2,0.3-0.2,0.6-0.2
	c0.3,0,0.9,0.2,0.9,0.5c0,0.5-0.1,0.7-0.5,1.1C28.6,28.8,28.6,28.8,28.4,29.1z M36,36.9c-0.1,0.3-0.1,0.3-0.2,0.4
	c-0.3,0.3-0.5,0.4-0.8,0.4c-0.1,0-0.2,0-0.6-0.2c-0.6-0.3-0.7-0.5-0.8-0.9c-0.6-1.9-0.8-4.9-1.1-6.2c0-0.2-0.1-0.2-0.1-0.2
	s-0.1,0-0.1,0.2c-0.3,1.2-1.5,4.3-1.7,6.5c0,0.3,0,0.5,0,0.6c0,0.2-0.3,0.3-0.6,0.3c-0.5,0-0.4-0.1-0.6-0.2
	c-0.1-0.1-0.2-0.1-0.2-0.2c0-0.7,1.6-5.9,1.8-6.4l0.1-0.5c0.3-1.1,0.4-1.7,0.7-2.6c0.1-0.3,0.3-0.1,0.3-0.3c0-0.2-0.2-0.4-0.2-0.9
	c0-0.1,0-0.1,0.2-0.2s0.6-0.1,1-0.1c0.1,0,0.2,0.1,0.2,0.2c1,3.1,0.8,6.1,1.6,9.3c0,0.2,0.1,0.2,0.1,0.2s0,0,0.1-0.2
	c0.9-1.9,1.4-3.9,2-5.9c0.1-0.4,0.2-0.5,0.3-0.9c0.1-0.6,0.1-1.2,0.3-1.7c0.1-0.3,0.1-0.3,0.3-0.3s0.5,0.1,0.7,0.1s0.6,0.4,0.6,0.5
	c0,0.2,0,0.4-0.2,0.6c-0.1,0.2-0.1,0.3-0.2,0.6C38,31,37.3,33.6,36,36.9z M44.8,23h-2v17h2v1h-2h-2h-2v-1h2V23h-2v-1h6V23z"/>
<g>
	<path class="st0" d="M46.6,71.4c-0.1,0-0.1,0-0.3,0c-0.9,0.3-1.9,0.4-2.6,1.1c-0.4,1.2-1,2.4-1.2,3.5c0.4,0.4,0.7,0.6,0.9,0.6
		c0.1,0,0.1,0,0.2-0.1c1-0.7,2-1.8,2.6-2.8c0.3-0.6,0.8-1.6,0.8-2.1C47,71.5,47,71.4,46.6,71.4z"/>
	<path class="st0" d="M11.7,57.4v33.7h114V57.4H11.7z M28.4,72.7c-0.9,2.3-1.7,4.8-2.5,7.3c0,0,0,0.1,0,0.2s0,0.1,0,0.2
		c0,0.3-0.1,0.5-0.3,1c0,0.1-0.1,0.1-0.2,0.1s-0.1,0.1-0.2,0.2c0,0.1-0.1,0.1-0.1,0.1c-0.1,0-0.1-0.2-0.3-0.2
		c-0.2,0-0.4-0.2-0.5-0.2s-0.1,0-0.1-0.1s0.2-0.9,0.3-1.2c0.1-0.1,0.1-0.2,0.1-0.4c0.6-2.5,1.5-4.6,2.3-7.1c0.1-0.4,0.3-0.5,0.6-1.6
		c0-0.2,0.3-0.2,0.6-0.2c0.3,0,0.9,0.2,0.9,0.5c0,0.5-0.1,0.7-0.5,1.1C28.6,72.4,28.6,72.5,28.4,72.7z M39,71.9
		c-0.1,0.2-0.1,0.3-0.2,0.6c-0.8,2.2-1.4,4.7-2.7,8c-0.1,0.3-0.1,0.3-0.2,0.4c-0.3,0.3-0.5,0.4-0.8,0.4c-0.1,0-0.2,0-0.6-0.2
		c-0.6-0.3-0.7-0.5-0.8-0.9c-0.6-1.9-0.8-4.9-1.1-6.2c0-0.2-0.1-0.2-0.1-0.2s-0.1,0-0.1,0.2c-0.3,1.2-1.5,4.3-1.7,6.5
		c0,0.3,0,0.5,0,0.6c0,0.2-0.3,0.3-0.6,0.3c-0.5,0-0.4-0.1-0.6-0.2c-0.1-0.1-0.2-0.1-0.2-0.2c0-0.7,1.6-5.9,1.8-6.4l0.1-0.5
		c0.3-1.1,0.4-1.7,0.7-2.6c0.1-0.3,0.3-0.1,0.3-0.3c0-0.2-0.2-0.4-0.2-0.9c0-0.1,0-0.1,0.2-0.2s0.6-0.1,1-0.1c0.1,0,0.2,0.1,0.2,0.2
		c1,3.1,0.8,6.1,1.6,9.3c0,0.2,0.1,0.2,0.1,0.2s0,0,0.1-0.2c0.9-1.9,1.4-3.9,2-5.9c0.1-0.4,0.2-0.5,0.3-0.9c0.1-0.6,0.1-1.2,0.3-1.7
		c0.1-0.3,0.1-0.3,0.3-0.3s0.5,0.1,0.7,0.1s0.6,0.4,0.6,0.5C39.1,71.5,39.1,71.6,39,71.9z M44.8,77.2c-0.2,0.1-1,0.5-1.6,0.5
		s-0.7-0.2-1-0.4l-0.1-0.1c0,0-0.1,0-0.1,0.2c-0.5,1.4-1,3.6-1,3.8c0,0.1,0,0.1-0.1,0.2s-0.2,0.1-0.4,0.1c-0.1,0-0.2,0-0.2,0
		c-0.3-0.3-0.4-0.1-0.6-0.4c0,0,0,0,0-0.1c0,0,0-0.1,0.1-0.3c0.1-0.5,0.3-1.6,0.5-2.1c0-0.1,0.1-0.2,0.1-0.3c0-0.4,0.5-1.6,0.6-2
		c0-0.1,0-0.1-0.1-0.1c-0.1-0.1-0.3-0.2-0.3-0.4c0-0.1,0-0.2,0.1-0.2s0.2-0.2,0.5-0.2c0,0,0,0,0.1-0.1c0.3-0.9,0.4-1,0.5-1.6
		c0-0.1,0-0.1-0.1-0.1c0,0-0.1,0-0.2-0.1c-0.3-0.2-0.3-0.3-0.4-0.4c-0.1,0-0.2-0.1-0.2-0.1c0-0.2,0.1-0.4,0.6-0.7
		c1.6-1,3.2-2.1,5.2-2.1c0.5,0,0.7,0,1.1,0.3c0.4,0.3,0.5,0.5,0.5,1.1c0,0.9-0.3,1.5-0.7,2.2C46.9,75.2,45.8,76.4,44.8,77.2z
		 M57.5,72.7c-0.3,0.7-0.7,1.3-1,2c-0.8,2.1-1.2,4.1-1.2,6.4c0,0.4,0,0.4,0,0.5s-0.1,0.2-0.2,0.2c-0.2,0-0.2-0.1-0.4-0.1
		s-0.3-0.2-0.6-0.3c0-0.2-0.1-0.2-0.1-0.4c0-0.1,0-0.2,0.1-0.3c0-0.1,0.1-0.1,0.1-0.3c0.1-1.1,0.1-2.2,0.4-3.1c0-0.1,0-0.2,0-0.3
		c0,0,0-0.1-0.1-0.1c0,0-0.1,0-0.1,0.1c-1.1,1.3-2.5,2.9-3.7,4c-0.1,0.1-0.5,0.3-0.7,0.3s-0.5-0.1-0.7-0.2c-0.3-0.3-0.7-0.1-0.9-0.5
		c0-0.1-0.1-0.6-0.1-1c0-1,0.2-1.9,0.4-2.5c0.6-1.9,1.4-3.7,2.1-5.5c0.1-0.2,0.1-0.3,0.2-0.4c0.1-0.2,0.2-0.4,0.5-0.4
		c0.1,0,0.1,0.1,0.4,0.2c0.1,0,0.3,0.1,0.4,0.2c0,0.1,0.1,0.3,0.1,0.4s-0.1,0.3-0.1,0.4c-1,2.4-2.2,4.5-2.6,6.9
		c0,0.2-0.1,0.5-0.1,0.9c0,0.2,0,0.2,0.1,0.2s0.4-0.1,0.6-0.3c2.9-2.9,4.7-5.4,5.5-6.7c0.2-0.3,0.1-0.3,0.4-0.7
		c0.1-0.2,0.4-0.5,0.5-0.5s0.2,0.1,0.5,0.1c0.1,0,0.1,0.1,0.2,0.1l0.2,0.4c0,0.1,0.1,0.2,0.1,0.2S57.6,72.5,57.5,72.7z M66.3,72.4
		c-0.1,0-0.1-0.1-0.3-0.2C65.7,72,65.7,72,65.5,72c-0.9,0-1.7,0.1-2.4,0.2c0.1,0.1,0.1,0.1,0.1,0.2v0.1c-1.4,2.3-2.3,4.6-2.8,7.3
		c0,0.3-0.1,0.4-0.1,0.6c0,0.1,0,0.3,0,0.4c0,0.3-0.1,0.5-0.4,0.5c-0.2,0-0.6-0.2-0.8-0.3c-0.1,0-0.2-0.3-0.2-0.4s0-0.5,0.1-0.7
		c0.6-2.6,1.4-5,2.5-7.3c0,0,0-0.1-0.1-0.1c-0.2,0-0.8,0.1-1.2,0.1c-0.3,0-0.7-0.1-0.9-0.3c0,0,0-0.1,0-0.5s0.2-0.6,0.4-0.6
		c0.1,0,0.2,0.1,1.2,0.1c1.5,0,3-0.5,4.7-0.5c0.6,0,1.5,0.6,1.5,0.8c0,0.3-0.1,0.4-0.2,0.5C66.7,72.2,66.6,72.4,66.3,72.4z
		 M72.8,66.7h-2v17h2v1h-2h-2h-2v-1h2v-17h-2v-1h6V66.7z"/>
</g>
</svg>
