<?xml version="1.0" encoding="utf-8"?>
<!-- Generator: Adobe Illustrator 19.2.1, SVG Export Plug-In . SVG Version: 6.00 Build 0)  -->
<svg version="1.1" id="Layer_1" xmlns="http://www.w3.org/2000/svg" xmlns:xlink="http://www.w3.org/1999/xlink" x="0px" y="0px"
	 viewBox="0 0 200 617" style="enable-background:new 0 0 200 617;" xml:space="preserve">
<style type="text/css">
	.st0{fill:#FFFFFF;}
</style>
<g>
	<polygon class="st0" points="146.8,98.5 121.9,73.6 109.4,86.1 84.6,61.2 72.1,67.4 47.2,98.5 	"/>
	<polygon class="st0" points="64.8,494.8 57.6,487.6 54,491.2 46.8,484 43.2,485.8 36,494.8 	"/>
	<g>
		<g>
			<path class="st0" d="M190.3,14h0.1l0,0c0,0,0,0.1,0.1,0.3c0,0.1,0,0.1,0,0.1s0,0,0,0.1c0,0,0,0,0,0.1l0,0l0,0l0,0v0.1l0,0l0,0
				l0,0c0,0,0,0,0,0.1v0.1l0,0l0,0V15l0,0v0.1l0,0l0,0l0,0l0,0l0,0l0,0l0,0l0,0l0,0l0,0l0,0v0.1l0,0c0,0,0,0.1,0,0.2
				c0,0.1,0,0.2,0,0.3v0.1v0.1V16c0,0.1,0,0.1,0,0.1l0,0c0,0,0,0,0,0.1c0,8.5,0,20.5,0,35.3c0,34.8,0,82.9,0,138c0,1.9,0,3.9,0,5.8
				v0.6v0.3v0.1h-0.1h-0.1h-1.2h-1.8c-0.8,0-1.6,0-2.4,0c-3.2,0-6.3,0-9.3,0c-6,0-11.5,0-16.3,0c-9.6,0-16.2,0-17.5,0
				c-2.8,0-5.7,0-6.7,0s-3.1,0-4.7,0c-3.5,0-46.3,0-47.6,0c-0.5,0-13.1,0-28.1,0c-7.4,0-15.2,0-22.2,0c-4.2,0-8.5,0-12.7,0
				c-2.5,0-5,0-7.5,0c-0.1,0-0.3,0-0.4,0v-0.4v-0.8v-1.5V192c0-1.1,0-2.1,0-3.2c0-8.4,0-16.8,0-24.7c0-15.8,0-30,0-40.5
				c0-12,0-24.9,0-28.8s0-7.8,0-8.7c0-0.5,0-9.4,0-23.4c0-7,0-15.3,0-24.4c0-4.6,0-9.3,0-14.2c0-2.5,0-5,0-7.5c0-0.6,0-1.3,0-2
				c-0.2-1.5,0.6-1.9,1.2-2.5c0.1-0.2,0.5-0.1,0.8-0.1h0.8h1c0.6,0,1.3,0,1.9,0c41.5,0,86,0,98.7,0c30.9,0,54.3,0,70.2,0
				c0.1,0,0.2,0,0.2,0l0,0c0,0,0,0,0.1,0h0.1c0,0,0,0,0.1,0l0,0l0,0h0.1l0,0l0,0c0,0,0,0,0.1,0s0.2,0,0.2,0l0,0h0.1l0,0l0,0
				c0,0,0,0,0.1,0s0.1,0,0.1,0l0,0l0,0c0.1,0,0.2,0,0.2,0l0,0l0,0l0,0l0,0c0,0,0,0,0.1,0h0.1l0,0c0,0,0,0,0.1,0c0,0,0,0,0.1,0h0.1
				c0,0,0,0,0.1,0s0.1,0,0.1,0l0,0c0,0,0,0,0.1,0l0,0l0,0l0,0c0,0,0,0.1,0.1,0.1l0,0c0,0,0,0,0,0.1l0,0l0,0c0,0,0.1,0,0,0.1l0,0
				c0,0,0,0,0,0.1s0,0.1,0,0.1l0,0l0,0c0,0,0.1,0.1,0,0.1c0,0,0,0,0,0.1s0,0.2,0,0.2l0,0l0,0l0,0l0,0l0,0c0,0,0,0,0.1,0
				c0,0,0,0,0,0.1v0.1c0,0,0,0,0,0.1c0,0,0,0,0,0.1l0,0l0,0c0,0,0.1,0.1,0,0.1l0,0c0,0,0,0,0,0.1v0.1l0,0l0,0l0,0l0,0l0,0l0,0l0,0
				l0,0l0,0l0,0v0.1l0,0v0.1c0,0-0.1,0.1,0,0.1l0,0l0,0l0,0l0,0l0,0l0,0l0,0l0,0c0,0-0.1,0.1-0.1,0h-0.1h-0.1l0,0c0,0,0,0-0.1,0
				c0,0,0,0-0.1,0h-0.2h-0.1H188h-0.1l0,0c0,0,0,0-0.1,0l0,0c0,0,0,0-0.1,0h-0.1l0,0h-0.1h-0.1h-0.1l0,0h-0.2c0,0,0,0-0.1,0h-0.1
				c0,0,0,0-0.1,0h-0.1l0,0l0,0c0,0,0,0-0.1,0c-2.4,0-5.7,0-10,0c-22.7,0-54.6,0-92.4,0c-18.9,0-39.3,0-60.7,0c-2.7,0-5.4,0-8.1,0
				h-1V14v0.5c0,1.4,0,2.7,0,4.1c0,5.5,0,11,0,16.7c0,11.2,0,22.6,0,34.2c0,23.2,0,47.1,0,71.2c0,12.1,0,24.2,0,36.4v9.1v4.6v2.1
				v0.1h0.1c6,0,12,0,17.9,0c43.9,0,87.3,0,127.9,0c5.1,0,10.1,0,15.1,0c2.5,0,5,0,7.4,0c1.2,0,2.5,0,3.7,0h1.2c0.1,0,0.1,0,0.1-0.1
				c0-9.7,0-19.1,0-28.3c0-18.6,0-36.2,0-52.4c0-32.6,0-59.9,0-79.7c0-7.1,0-12.8,0-16.9v-0.1v-0.1c0-0.1,0-0.1,0-0.1l0,0l0,0
				c0,0,0,0,0-0.1v-0.1l0,0c0,0,0,0-0.1,0c0-0.1,0-0.1,0-0.1v-0.1l0,0v-0.1v-0.1c0,0,0,0,0-0.1c0,0,0-0.1,0-0.2c0-0.1,0-0.1,0-0.1
				l0,0l0,0l0,0l0,0l0,0l0,0v-0.1v-0.1V14l0,0l0,0l0,0l0,0c0,0,0-0.1,0-0.2c0,0,0,0,0-0.1c0,0,0,0,0-0.1l0,0l0,0v-0.1l0,0
				c0,0,0,0,0-0.1v-0.1c0,0,0,0,0-0.1s0-0.1,0.1-0.1l0,0l0,0l0,0l0,0h0.1h0.1h0.1c0.1,0,0.1,0,0.1,0l0,0h0.1c0.1,0,0.1,0,0.1,0l0,0
				h0.2c0,0,0,0,0.1,0h0.1h0.1h0.2c0,0,0.1,0,0.2,0c0.2,0,0.3,0,0.3,0C190.2,14,190.2,14,190.3,14L190.3,14z"/>
		</g>
	</g>
	<g>
		<g>
			<path class="st0" d="M13.3,98.3v-0.1l0,0c0,0,0.1,0,0.3-0.1c0.1,0,0.1,0,0.1,0s0,0,0.1,0c0,0,0,0,0.1,0l0,0l0,0l0,0H14l0,0l0,0
				l0,0c0,0,0,0,0.1,0h0.1l0,0l0,0h0.1l0,0h0.1l0,0l0,0l0,0l0,0l0,0l0,0l0,0l0,0l0,0l0,0l0,0h0.1l0,0c0,0,0.1,0,0.2,0
				c0.1,0,0.2,0,0.3,0h0.1h0.1h0.1c0.1,0,0.1,0,0.1,0l0,0c0,0,0,0,0.1,0c2.1,0,4.9,0,8.5,0c8.4,0,19.9,0,33.1,0c6.3,0,12,0,12.7,0
				s1.4,0,1.6,0s0.7,0,1.1,0c0.9,0,11.1,0,11.4,0c0.1,0,3.2,0,6.7,0c9,0,20.8,0,27.1,0c2.9,0,6,0,6.9,0s1.8,0,2.1,0
				c0.2,0,8.6,0,18.5,0c10,0,20.6,0,23.7,0c7.4,0,13.1,0,16.9,0c0.1,0,0.2,0,0.2,0l0,0c0,0,0,0,0.1,0h0.1c0,0,0,0,0.1,0l0,0l0,0h0.1
				l0,0l0,0c0,0,0,0,0.1,0s0.2,0,0.2,0l0,0h0.1l0,0l0,0c0,0,0,0,0.1,0s0.1,0,0.1,0l0,0l0,0c0.1,0,0.2,0,0.2,0l0,0l0,0l0,0l0,0
				c0,0,0,0,0.1,0h0.1l0,0c0,0,0,0,0.1,0c0,0,0,0,0.1,0h0.1c0,0,0,0,0.1,0s0.1,0,0.1,0l0,0c0,0,0,0,0.1,0l0,0l0,0l0,0
				c0,0,0,0.1,0.1,0.1l0,0c0,0,0,0,0,0.1l0,0l0,0c0,0,0.1,0,0,0.1l0,0c0,0,0,0,0,0.1s0,0.1,0,0.1l0,0l0,0c0,0,0.1,0.1,0,0.1
				c0,0,0,0,0,0.1s0,0.2,0,0.2l0,0l0,0l0,0l0,0l0,0c0,0,0,0,0.1,0c0,0,0,0,0,0.1v0.1c0,0,0,0,0,0.1c0,0,0,0,0,0.1l0,0l0,0
				c0,0,0.1,0.1,0,0.1l0,0c0,0,0,0,0,0.1v0.1l0,0l0,0l0,0l0,0l0,0l0,0l0,0l0,0l0,0l0,0v0.1l0,0v0.1c0,0-0.1,0.1,0,0.1l0,0l0,0l0,0
				l0,0l0,0l0,0l0,0l0,0c0,0-0.1,0.1-0.1,0H188h-0.1l0,0c0,0,0,0-0.1,0c0,0,0,0-0.1,0h-0.2h-0.1h-0.1h-0.1l0,0c0,0,0,0-0.1,0l0,0
				c0,0,0,0-0.1,0h-0.1l0,0h-0.1h-0.1h-0.1l0,0h-0.2c0,0,0,0-0.1,0h-0.1c0,0,0,0-0.1,0H186l0,0l0,0c-2.1,0-166.5,0-170.7,0h-0.1
				c-0.1,0-0.1,0-0.1,0l0,0l0,0c0,0,0,0-0.1,0h-0.1l0,0c0,0,0,0,0,0.1c-0.1,0-0.1,0-0.1,0h-0.1l0,0h-0.1h-0.1c0,0,0,0-0.1,0
				c0,0-0.1,0-0.2,0c-0.1,0-0.1,0-0.1,0l0,0l0,0l0,0l0,0l0,0l0,0H14h-0.1h-0.1l0,0l0,0l0,0l0,0c0,0-0.1,0-0.2,0c0,0,0,0-0.1,0
				c0,0,0,0-0.1,0l0,0l0,0h-0.1l0,0c0,0,0,0-0.1,0h-0.1c0,0,0,0-0.1,0s-0.1,0-0.1-0.1l0,0l0,0l0,0l0,0v-0.1v-0.1v-0.1
				c0-0.1,0-0.1,0-0.1l0,0v-0.1c0-0.1,0-0.1,0-0.1l0,0v-0.2c0,0,0,0,0-0.1V99v-0.1v-0.2c0,0,0-0.1,0-0.2c0-0.2,0-0.3,0-0.3
				C13.4,98.5,13.4,98.4,13.3,98.3C13.4,98.4,13.4,98.3,13.3,98.3z"/>
		</g>
	</g>
	<g>
		<g>
			<path class="st0" d="M26.4,120c0,0,0-0.2,0-0.4s0-0.3,0-0.3v-0.1c0-0.1,0-0.1,0-0.2c0.1-0.1,0.1-0.2,0-0.1c0,0-0.1,0,0,0l0.1-0.1
				c0.1,0,0.1,0,0-0.2c0-0.1,0-0.2,0-0.2c0-0.1,0.1-0.2,0.1-0.3s0-0.2,0.1-0.3c0-0.1,0-0.2,0-0.3s0-0.1,0-0.1s0,0,0-0.1
				s-0.1-0.1,0-0.1c0.1-0.1,0.1-0.7,0-0.7l0,0c0.1,0,0.1,0,0.1-0.2c0-0.1,0-0.2,0-0.3s0-0.1,0-0.2c-0.1-0.1-0.1-0.1,0-0.1
				c0,0,0.1-0.1,0-0.2c0-0.1,0-0.2,0-0.3c0,0,0.1-0.1,0-0.1c0,0,0,0,0-0.1c0.1-0.1,0.1-0.1,0-0.1s-0.1-0.1,0-0.1
				c0,0,0.1-0.2,0.1-0.4s0-0.3,0.1-0.3c0,0,0.1-0.1,0.1-0.2c0-0.1,0-0.1-0.1-0.1c-0.1,0.1-0.1,0.1,0,0c0-0.1,0.1-0.1,0.1-0.1
				s0,0,0-0.1s0-0.2,0.1-0.3c0.2-0.3,0.3-0.4,0.9-0.4c0.2,0,0.3,0,0.3-0.1c0,0,0.1,0,0.2,0s0.2,0,0.3,0c0.1,0,0.3,0,0.4,0
				c0.2,0.1,0.3,0.1,0.3,0s0.1-0.1,0.1,0c0,0,0.1,0.1,0.1,0h0.1c0,0,0.1,0.1,0.2,0c0.1,0,0.2,0,0.2,0s0.6,0,0.7,0h0.1
				c0,0,0.2,0,0.5,0s0.5,0,0.5,0s0.1,0,0.6-0.1c0.1,0,0.3,0,0.3,0h0.1h0.1c0,0,0.2,0,0.3,0c0.2,0,0.3,0,0.3,0c0,0.1,0.3,0.1,0.3,0
				v-0.1c-0.1,0-0.1,0,0,0c0,0,0.1,0,0.1,0.1s0.1,0.1,0.2,0c0.1,0,0.2,0,0.2,0c0.1,0,0.2,0.1,0.4,0.1c-0.1,0,0.9,0,2,0s2.5,0,4.2,0
				c5,0.1,9.4,0.1,12.2,0.1c3,0,7.3,0.1,15.2,0.1c3.1,0,6.7,0,8,0.1c1.3,0,2.3,0,2.4,0c0,0,0.2,0,0.5,0s0.6,0,0.9,0c0.2,0,1,0,1.8,0
				s1.5,0,1.5,0s0.1,0,0.2,0s0.2,0,0.2,0s0.1,0,0.2,0s0.1,0.1,0.2,0c0.1,0,0.4,0,0.8,0.1c0.1,0,0.2,0,0.3,0c0.2,0,0.2,0,0.3,0.1
				c0.1,0.1,0.2,0.1,0.3,0.1c0.3,0,0.8,0.6,0.8,0.8c0,0,0,0.2,0.1,0.2c0.1,0.1,0.1,0.2,0.1,0.2v0.1c0,0,0,0.1,0,0.3
				c-0.1,0.4-0.1,1,0,1.1c0,0.1,0,0.1,0,0.2c0,0-0.1,0.3,0,0.6c0,0.3,0,0.6,0,0.6c0,0.1,0,0.2,0,0.2c0,0.1,0,0.2,0,0.3
				s-0.1,0.5-0.1,0.9s0,0.8-0.1,0.8c0,0.1,0,0.1,0,0.2c0.1,0.1,0.1,0.6,0,0.8c0,0.1,0,0.2-0.1,0.3c-0.1,0.5-0.3,0.7-1.2,0.7
				c-0.2,0-0.3,0-0.3,0.1c0,0-0.1,0-0.3,0c-0.2,0-0.4,0-0.6,0s-0.3,0-0.4,0s-1.7-0.1-2.3,0c-0.3,0-0.5,0-0.5,0h-0.1
				c-0.1,0.1-0.1,0.1-0.7,0c0,0-0.1,0-0.2,0h-0.1c-0.2,0-0.3,0-0.5,0c-0.7,0-1.4,0-2.2,0c-1.5,0-2.9,0-3.6,0c-1.4,0-1.6,0-4,0
				c-1.2,0-2.4,0-2.6,0c-1.7,0-8.1,0-10.1,0c-4.6,0-15.5-0.1-17.9-0.2c-0.6,0-2.6,0-4.4,0c-0.4,0-0.8,0-0.9,0c0,0-0.1,0-0.2,0.1
				c-0.2,0-0.3,0.1-0.4,0.1c-0.1,0.1-0.1,0.1-0.1,0s0-0.1-0.1,0s-0.5,0.1-0.7,0c-0.1,0-0.2-0.1-0.2,0c-0.1,0.1-0.2,0.1-0.4,0
				c-0.1,0-0.1,0-0.1,0c0,0.1-0.3,0-0.4-0.1c0,0-0.1,0-0.2,0s-0.2,0-0.3,0c-0.1,0-0.3,0-0.3,0c-0.1,0-0.1,0-0.1,0s-0.1-0.1-0.2-0.1
				s-0.7,0.1-0.8,0.1c-0.1,0-0.6-0.1-0.6-0.1s-0.1,0-0.2,0c-0.1,0.1-0.1,0.1-0.2,0s-0.4-0.1-0.9,0c-0.1,0-0.2,0-0.2,0l-0.1-0.1
				c-0.4,0-1-0.3-0.9-0.5c0,0,0-0.1-0.1-0.2c-0.1-0.1-0.1-0.1-0.1-0.1s0-0.1-0.1-0.1s-0.1,0,0-0.1s0-0.4-0.1-0.5
				C26.3,120.2,26.3,120.1,26.4,120z"/>
		</g>
	</g>
	<g>
		<g>
			<path class="st0" d="M27.3,131.3v-0.1l0,0c0,0,0.1,0,0.3-0.1c0.1,0,0.1,0,0.1,0s0,0,0.1,0c0,0,0,0,0.1,0l0,0l0,0l0,0H28l0,0l0,0
				l0,0c0,0,0,0,0.1,0h0.1l0,0l0,0h0.1l0,0h0.1l0,0l0,0l0,0l0,0l0,0l0,0l0,0l0,0l0,0l0,0l0,0h0.1l0,0c0,0,0.1,0,0.2,0s0.2,0,0.3,0
				h0.1h0.1h0.1c0.1,0,0.1,0,0.1,0l0,0c0,0,0,0,0.1,0c1.3,0,3,0,5.2,0c5.1,0,12.2,0,20.2,0c3.9,0,7.3,0,7.8,0c0.4,0,0.8,0,1,0
				c0.1,0,0.5,0,0.7,0c0.5,0,6.7,0,7,0c0.1,0,1.9,0,4.1,0c5.5,0,12.7,0,16.5,0c1.8,0,3.6,0,4.2,0s1.1,0,1.3,0c0.2,0,5.2,0,11.3,0
				c6.1,0,12.6,0,14.5,0c4.5,0,8,0,10.3,0c0.1,0,0.2,0,0.2,0l0,0c0,0,0,0,0.1,0h0.1c0,0,0,0,0.1,0l0,0l0,0h0.1l0,0l0,0
				c0,0,0,0,0.1,0s0.2,0,0.2,0l0,0h0.1l0,0l0,0c0,0,0,0,0.1,0s0.1,0,0.1,0l0,0l0,0c0.1,0,0.2,0,0.2,0l0,0l0,0l0,0l0,0c0,0,0,0,0.1,0
				h0.1l0,0c0,0,0,0,0.1,0c0,0,0,0,0.1,0h0.1c0,0,0,0,0.1,0s0.1,0,0.1,0l0,0c0,0,0,0,0.1,0l0,0l0,0l0,0c0,0,0,0.1,0.1,0.1l0,0
				c0,0,0,0,0,0.1l0,0l0,0c0,0,0.1,0,0,0.1l0,0c0,0,0,0,0,0.1c0,0.1,0,0.1,0,0.1l0,0l0,0c0,0,0.1,0.1,0,0.1c0,0,0,0,0,0.1
				c0,0.1,0,0.2,0,0.2l0,0l0,0l0,0l0,0l0,0c0,0,0,0,0.1,0c0,0,0,0,0,0.1v0.1c0,0,0,0,0,0.1c0,0,0,0,0,0.1l0,0l0,0c0,0,0.1,0.1,0,0.1
				l0,0c0,0,0,0,0,0.1v0.1l0,0l0,0l0,0l0,0l0,0l0,0l0,0l0,0l0,0l0,0v0.1l0,0v0.1c0,0-0.1,0.1,0,0.1l0,0l0,0l0,0l0,0l0,0l0,0l0,0l0,0
				c0,0-0.1,0.1-0.1,0h-0.1h-0.1l0,0c0,0,0,0-0.1,0c0,0,0,0-0.1,0h-0.2h-0.1h-0.1H135l0,0c0,0,0,0-0.1,0l0,0c0,0,0,0-0.1,0h-0.1l0,0
				h-0.1h-0.1h-0.1l0,0h-0.2c0,0,0,0-0.1,0H134c0,0,0,0-0.1,0h-0.1l0,0l0,0c-1.3,0-101.7,0-104.3,0h-0.1c-0.1,0-0.1,0-0.1,0l0,0l0,0
				c0,0,0,0-0.1,0h-0.1l0,0c0,0,0,0,0,0.1c-0.1,0-0.1,0-0.1,0h-0.1l0,0h-0.1h-0.1c0,0,0,0-0.1,0c0,0-0.1,0-0.2,0s-0.1,0-0.1,0l0,0
				l0,0l0,0l0,0l0,0l0,0h-0.1h-0.1H28l0,0l0,0l0,0l0,0c0,0-0.1,0-0.2,0c0,0,0,0-0.1,0c0,0,0,0-0.1,0l0,0l0,0h-0.1l0,0c0,0,0,0-0.1,0
				h-0.1c0,0,0,0-0.1,0s-0.1,0-0.1-0.1l0,0l0,0l0,0l0,0v-0.1v-0.1v-0.1c0-0.1,0-0.1,0-0.1l0,0v-0.1c0-0.1,0-0.1,0-0.1l0,0v-0.2
				c0,0,0,0,0-0.1V132v-0.1v-0.2c0,0,0-0.1,0-0.2c0-0.2,0-0.3,0-0.3C27.4,131.5,27.4,131.4,27.3,131.3
				C27.4,131.4,27.4,131.3,27.3,131.3z"/>
		</g>
	</g>
	<g>
		<g>
			<path class="st0" d="M27.3,139L27.3,139L27.3,139c0-0.1,0.1-0.1,0.3-0.2c0.1,0,0.1,0,0.1,0s0,0,0.1,0c0,0,0,0,0.1,0l0,0l0,0l0,0
				H28l0,0l0,0l0,0c0,0,0,0,0.1,0h0.1l0,0l0,0h0.1l0,0h0.1l0,0l0,0l0,0l0,0l0,0l0,0l0,0l0,0l0,0l0,0l0,0h0.1l0,0c0,0,0.1,0,0.2,0
				s0.2,0,0.3,0h0.1h0.1h0.1c0.1,0,0.1,0,0.1,0l0,0c0,0,0,0,0.1,0c1.5,0,3.6,0,6.1,0c6,0,14.3,0,23.9,0c4.6,0,8.7,0,9.1,0
				c0.5,0,1,0,1.2,0s0.5,0,0.8,0c0.6,0,7.9,0,8.2,0c0.1,0,2.3,0,4.9,0c6.5,0,15,0,19.5,0c2.1,0,4.3,0,5,0s1.3,0,1.5,0s6.2,0,13.4,0
				s14.9,0,17.1,0c5.4,0,9.4,0,12.2,0c0.1,0,0.2,0,0.2,0l0,0c0,0,0,0,0.1,0h0.1c0,0,0,0,0.1,0l0,0l0,0h0.1l0,0l0,0c0,0,0,0,0.1,0
				s0.2,0,0.2,0l0,0h0.1l0,0l0,0c0,0,0,0,0.1,0s0.1,0,0.1,0l0,0l0,0c0.1,0,0.2,0,0.2,0l0,0l0,0l0,0l0,0c0,0,0,0,0.1,0h0.1l0,0
				c0,0,0,0,0.1,0c0,0,0,0,0.1,0h0.1c0,0,0,0,0.1,0s0.1,0,0.1,0l0,0c0,0,0,0,0.1,0l0,0l0,0l0,0c0,0,0,0.1,0.1,0.1l0,0c0,0,0,0,0,0.1
				l0,0l0,0c0,0,0.1,0,0,0.1l0,0c0,0,0,0,0,0.1c0,0.1,0,0.1,0,0.1l0,0l0,0c0,0,0.1,0.1,0,0.1c0,0,0,0,0,0.1c0,0.1,0,0.2,0,0.2l0,0
				l0,0l0,0l0,0l0,0c0,0,0,0,0.1,0c0,0,0,0,0,0.1v0.1c0,0,0,0,0,0.1c0,0,0,0,0,0.1l0,0l0,0c0,0,0.1,0.1,0,0.1l0,0c0,0,0,0,0,0.1v0.1
				l0,0l0,0l0,0l0,0l0,0l0,0l0,0l0,0l0,0l0,0v0.1l0,0v0.1c0,0-0.1,0.1,0,0.1l0,0l0,0l0,0l0,0l0,0l0,0l0,0l0,0c0,0-0.1,0.1-0.1,0
				h-0.1h-0.1l0,0c0,0,0,0-0.1,0c0,0,0,0-0.1,0h-0.2H154h-0.1h-0.1l0,0c0,0,0,0-0.1,0l0,0c0,0,0,0-0.1,0h-0.1l0,0h-0.1h-0.1h-0.1
				l0,0H153c0,0,0,0-0.1,0h-0.1c0,0,0,0-0.1,0h-0.1l0,0l0,0c-1.5,0-119.9,0-123,0h-0.1c-0.1,0-0.1,0-0.1,0l0,0l0,0c0,0,0,0-0.1,0
				h-0.1l0,0c0,0,0,0,0,0.1c-0.1,0-0.1,0-0.1,0H29l0,0h-0.1h-0.1c0,0,0,0-0.1,0c0,0-0.1,0-0.2,0s-0.1,0-0.1,0l0,0l0,0l0,0l0,0l0,0
				l0,0h-0.1h-0.1h-0.1l0,0l0,0l0,0l0,0c0,0-0.1,0-0.2,0c0,0,0,0-0.1,0c0,0,0,0-0.1,0l0,0l0,0h-0.1l0,0c0,0,0,0-0.1,0h-0.1
				c0,0,0,0-0.1,0s-0.1,0-0.1-0.1l0,0l0,0l0,0l0,0v-0.1v-0.1v-0.1c0-0.1,0-0.1,0-0.1l0,0v-0.1c0-0.1,0-0.1,0-0.1l0,0v-0.2
				c0,0,0,0,0-0.1v-0.1v-0.1v-0.2c0,0,0-0.1,0-0.2c0-0.2,0-0.3,0-0.3C27.4,139.1,27.4,139.1,27.3,139C27.4,139,27.4,139,27.3,139z"
				/>
		</g>
	</g>
	<g>
		<g>
			<path class="st0" d="M26.4,156.9c-0.1-0.1-0.1-0.4,0-0.4c0,0,0.1,0,0.1-0.1c0-0.1,0.3-0.2,1-0.2c0.2,0,0.4-0.1,0.5-0.1
				c0,0,0.1-0.1,0.2-0.1s0.1,0,0.2,0c0,0,0.1,0,0.2,0s0.1,0,0.1,0h0.1c0.1,0.1,0.4,0.1,0.5,0c0.1-0.1,0.1,0,0,0v0.1l0.1-0.1
				c0-0.1,0.1-0.1,0.2-0.1s0.2,0,0.2,0c0-0.1,0.1,0,0.1,0c0.1,0,0.1,0.1,0.1,0c0.1-0.1,0.4-0.1,0.4,0c0,0,0.1,0,0.2,0s0.2,0,0.3,0
				c0.1,0,0.1,0,0.1-0.1c0,0,0-0.1,0.1-0.1s0.2,0,0.2,0.1c0,0,0,0,0.1,0s0.1,0,0.1,0h0.1c0.1,0,0.1,0,0.1,0c0,0.1,0.1,0.1,0.1,0
				c0,0,0-0.1,0.1-0.1c0.1,0,0.1,0,0-0.1c-0.1,0-0.1-0.1,0-0.1c0.1,0,0.2,0,0.3-0.1c0.1,0,0.1,0,0.1,0s0.3,0.1,0.7,0.1
				c0.5,0,0.7,0,0.9,0.1c0.1,0.1,0.3,0.1,0.5,0.1s0.3,0,0.3,0s0.2,0,0.4,0s0.4,0,0.4,0.1h0.1c-0.5-0.1,3.2-0.1,7.8-0.1
				c1.1,0,2.1,0,2.2,0c0.1,0,0.2,0,0.3,0c0,0,0.1,0,0.2,0c0.1,0,2-0.1,2,0c0,0,0.6,0,1.2,0c1.6,0,3.7,0,4.8,0c0.5,0,1.1,0,1.2,0
				c0.2,0,0.3,0,0.4,0c0,0,0.4,0,1,0s1.4,0,2.3,0c1.8,0,3.6,0,4.2,0c1.4,0,2.4,0,3.1,0c0.4,0,0.5,0,0.5-0.1h0.1
				c0.1,0.1,0.1,0,0.3-0.1c0.1-0.1,0.2-0.1,0.3-0.1c0.1,0,0.1,0,0.2,0s0.1,0,0.1,0c0,0.1,0,0.1,0.1,0c0.1-0.1,0.2-0.1,0.3,0
				c0,0,0.1,0,0.2,0c0,0,0.1-0.1,0.2,0c0,0,0.2,0,0.3-0.1c0.2-0.1,0.7-0.1,0.7-0.1h0.1c0.1-0.1,0.3-0.1,0.2,0c0,0,0,0.1,0.1,0.1
				s0.1,0,0.1,0s0.1-0.1,0.3-0.1c0.2,0,0.3,0,0.4,0.1c0.1,0.1,0.1,0.1,0.1,0c0-0.1,0-0.1,0-0.1c0.4,0,0.8,0,0.8,0l0.1,0.1
				c0,0,0,0,0-0.1v-0.1c0,0,0.1,0,0.1,0.1c0,0,0.1,0.1,0.2,0c0.1,0,0.2,0,0.2,0h0.1c0,0,0.1,0,0.2,0s0.2,0,0.2-0.1
				c0-0.1,0.2-0.1,0.3,0c0,0,0.1,0.1,0.3,0.1c0.3,0,0.3,0.1,0.2,0.1c-0.1,0-0.1,0.1,0,0.1s0.1,0,0.2-0.1c0.1-0.1,0.1,0,0.1,0.1
				c0,0.1,0.1,0.1,0.1,0.1c0.1,0,0.1,0,0.1,0c-0.1,0.1,0.1,0.2,0.2,0.2s0.1,0,0.1,0.1c-0.1,0.1-0.1,0.1,0.1,0.2c0.1,0,0.1,0,0,0.1
				c-0.1,0.1-0.1,0.1,0,0.1c0.2,0,0.2,0.1,0,0.2c-0.1,0.1-0.1,0.1,0,0.1s0.1,0.2,0.1,0.3c0,0.2,0,0.3,0.1,0.3s0.1,0.1,0,0.1
				c0,0.1,0,0.1,0,0.1c0.1,0,0.2,0.3,0.1,0.4c-0.1,0-0.1,0.1,0,0.2c0.1,0.2,0.1,0.6,0.1,0.8c0,0.1,0,0.1,0,0.2c0.1,0,0.1,0,0,0.1
				c-0.1,0-0.1,0.1,0,0.1c0.1,0.1,0.1,0.1,0,0.1h-0.1c0,0.1,0.1,0.1,0.2,0.1c0,0,0,0,0.1,0.4c0,0.2,0,0.4,0.1,0.4
				c0,0.1,0,0.2-0.1,0.2c-0.1,0.1-0.1,0.1-0.1,0.2s0,0.1-0.1,0.1s-0.1,0,0,0.1c0.2,0.1,0.2,0.5,0,0.5c-0.1,0-0.1,0,0,0.1
				c0.1,0.1,0,0.1,0,0.2c-0.1,0.1-0.1,0.2,0,0.3c0,0.1,0,0.2,0,0.2s0,0,0,0.1c0.1,0.1,0.1,0.1,0.1,0.2c0,0,0,0-0.1,0
				c0-0.1-0.1-0.1-0.1,0c-0.1,0.1,0,0.1,0.1,0.1s0.1,0.1,0.1,0.1l-0.1,0.1v0.1c0,0,0,0.1,0,0.2c0,0.1,0,0.2-0.1,0.2
				c0,0.1,0,0.1,0,0.2c0,0.1-0.1,0.3-0.1,0.3c-0.1,0-0.2,0.3-0.1,0.3c0,0,0,0.1-0.1,0.1s-0.1,0-0.1,0.1c0,0,0,0.1-0.1,0
				c-0.1,0-0.1,0-0.1,0s0,0-0.1,0c0,0-0.1,0,0,0.1c0,0.1,0,0.1-0.1,0c-0.1,0-0.1,0-0.1,0c0,0.1-0.2,0.2-0.4,0.1
				c-0.1-0.1-0.3,0-0.3,0c0,0.1-0.4,0-0.5,0h-0.1c0,0-0.1,0.1-0.2,0.1c0,0-0.1,0-0.2,0c-0.2,0.1-0.6,0.1-0.6,0c0-0.1-0.2,0-0.4,0
				c-0.1,0-0.2,0.1-0.4,0.1c-0.2,0-0.3,0-0.3,0h-0.1c-0.1,0-0.1,0-0.2,0h-0.1c0,0-0.1,0-0.2,0c-0.2,0-0.2,0-0.3,0
				c0-0.1-0.1-0.1-0.1,0c-0.1,0-0.2,0.1-0.3,0.1c-0.1,0-0.2,0-0.2,0c-0.1,0-0.3-0.1-0.3-0.1s0-0.1-0.1,0c-0.1,0.1-0.6,0.1-0.6,0
				c0,0-0.1-0.1-0.2-0.1s-0.2-0.1-0.2-0.1s-0.1,0-0.2-0.1c-0.1,0-0.2-0.1-0.3-0.1c-0.1-0.1-0.1-0.1-0.1,0c0,0.1-0.1,0.1-0.2,0
				c0,0-0.1,0-0.2,0c-0.2,0-0.4,0-0.6,0c-0.9,0-2.1,0-3.6,0c-2.9,0-6.8,0-10.8,0c-3.9,0-7.8,0-10.8,0.1c-1.5,0-2.8,0-3.7,0
				c-1.1,0-1.1,0-1.2,0c-0.1,0-0.3,0-0.5,0s-0.3,0-0.2,0s0,0.1-0.1,0.1s-0.1,0.1-0.2,0c0,0-0.1,0-0.3,0s-0.3,0-0.3-0.1
				c-0.1-0.1-0.1-0.1-0.1,0.1c0,0.1,0,0.1-0.1,0.2c-0.2,0-0.4,0-0.3-0.1c0.1-0.1-0.2,0-0.3,0.1c-0.1,0.1-0.1,0.1-0.1,0
				c0-0.1-0.2-0.1-0.3-0.1c-0.1,0.1-0.3,0.1-0.3,0c0-0.1,0-0.1-0.2,0c-0.1,0-0.3,0.1-0.5,0.1s-0.3,0-0.4,0.1h-0.1c0,0-0.1-0.1-0.1,0
				c-0.1,0-0.1,0-0.1,0s0-0.1-0.1-0.1s-0.1,0-0.1,0.1c0,0-0.1,0-0.2,0s-0.2,0-0.2,0c-0.1,0.1-0.2,0-0.2-0.1c0,0-0.2,0-0.4,0h-0.1
				c0,0,0,0-0.1,0c0,0-0.1,0-0.1-0.1c0-0.1,0-0.1-0.1,0c-0.1,0.1-0.5,0-0.7,0c-0.1,0-0.2,0-0.3,0.1c-0.1,0.1-0.2,0.1-0.2,0h-0.1
				h-0.1c0-0.1-0.3,0-0.4,0h-0.1c0-0.1-0.1-0.1-0.2-0.1s-0.2,0-0.2,0s-0.1-0.1-0.3-0.2c-0.2-0.1-0.2-0.1-0.2-0.3
				c0-0.1,0-0.1-0.1-0.1s-0.1,0-0.1-0.1c0-0.1,0-0.1,0-0.1s0-0.1,0-0.2c0-0.1,0-0.2,0-0.2s-0.1-0.2-0.1-0.3s-0.1-0.4-0.1-0.5
				c-0.1-0.2-0.1-0.2,0-0.3c0-0.1,0.1-0.1,0.1-0.1s0-0.2-0.1-0.4c0-0.2-0.1-0.4-0.1-0.4c0-0.1,0-0.1,0-0.1c0.1,0,0.1-0.6,0-0.6
				c0,0-0.1-0.1-0.1-0.2c0-0.1,0-0.3-0.1-0.3c0-0.1,0-0.2,0-0.2c0.1-0.1,0.1-0.6,0-0.6c0,0,0-0.3,0-0.6c0-0.7-0.1-1-0.1-1.1
				c0,0,0-0.2,0-0.3C26.4,157,26.4,156.9,26.4,156.9z"/>
		</g>
	</g>
	<g>
		<g>
			<path class="st0" d="M27.3,172.8v-0.1l0,0c0,0,0.1,0,0.3-0.1c0.1,0,0.1,0,0.1,0s0,0,0.1,0c0,0,0,0,0.1,0l0,0l0,0l0,0H28l0,0l0,0
				l0,0c0,0,0,0,0.1,0h0.1l0,0l0,0h0.1l0,0h0.1l0,0l0,0l0,0l0,0l0,0l0,0l0,0l0,0l0,0l0,0l0,0h0.1l0,0c0,0,0.1,0,0.2,0s0.2,0,0.3,0
				h0.1h0.1h0.1c0.1,0,0.1,0,0.1,0l0,0c0,0,0,0,0.1,0c1.6,0,3.9,0,6.8,0c6.7,0,15.8,0,26.4,0c5,0,9.6,0,10.1,0s1.1,0,1.3,0
				c0.2,0,0.6,0,0.9,0c0.7,0,8.8,0,9.1,0c0.1,0,2.5,0,5.4,0c7.2,0,16.6,0,21.6,0c2.3,0,4.8,0,5.5,0s1.5,0,1.7,0s6.8,0,14.7,0
				s16.4,0,18.9,0c5.9,0,10.4,0,13.4,0c0.1,0,0.2,0,0.2,0l0,0c0,0,0,0,0.1,0h0.1c0,0,0,0,0.1,0l0,0l0,0h0.1l0,0l0,0c0,0,0,0,0.1,0
				s0.2,0,0.2,0l0,0h0.1l0,0l0,0c0,0,0,0,0.1,0s0.1,0,0.1,0l0,0l0,0c0.1,0,0.2,0,0.2,0l0,0l0,0l0,0l0,0c0,0,0,0,0.1,0h0.1l0,0
				c0,0,0,0,0.1,0c0,0,0,0,0.1,0h0.1c0,0,0,0,0.1,0s0.1,0,0.1,0l0,0c0,0,0,0,0.1,0l0,0l0,0l0,0c0,0,0,0.1,0.1,0.1l0,0c0,0,0,0,0,0.1
				l0,0l0,0c0,0,0.1,0,0,0.1l0,0c0,0,0,0,0,0.1c0,0.1,0,0.1,0,0.1l0,0l0,0c0,0,0.1,0.1,0,0.1c0,0,0,0,0,0.1c0,0.1,0,0.2,0,0.2l0,0
				l0,0l0,0l0,0l0,0c0,0,0,0,0.1,0c0,0,0,0,0,0.1v0.1c0,0,0,0,0,0.1c0,0,0,0,0,0.1l0,0l0,0c0,0,0.1,0.1,0,0.1l0,0c0,0,0,0,0,0.1v0.1
				l0,0l0,0l0,0l0,0l0,0l0,0l0,0l0,0l0,0l0,0v0.1l0,0v0.1c0,0-0.1,0.1,0,0.1l0,0l0,0l0,0l0,0l0,0l0,0l0,0l0,0c0,0-0.1,0.1-0.1,0
				h-0.1h-0.1l0,0c0,0,0,0-0.1,0c0,0,0,0-0.1,0H167h-0.1h-0.1h-0.1l0,0c0,0,0,0-0.1,0l0,0c0,0,0,0-0.1,0h-0.1l0,0h-0.1h-0.1h-0.1
				l0,0h-0.2c0,0,0,0-0.1,0h-0.1c0,0,0,0-0.1,0h-0.1l0,0l0,0c-1.7,0-132.5,0-135.8,0h-0.1c-0.1,0-0.1,0-0.1,0l0,0l0,0c0,0,0,0-0.1,0
				h-0.1l0,0c0,0,0,0,0,0.1c-0.1,0-0.1,0-0.1,0h-0.1l0,0H29h-0.1c0,0,0,0-0.1,0c0,0-0.1,0-0.2,0s-0.1,0-0.1,0l0,0l0,0l0,0l0,0l0,0
				l0,0h-0.1h-0.1h-0.1l0,0l0,0l0,0l0,0c0,0-0.1,0-0.2,0c0,0,0,0-0.1,0c0,0,0,0-0.1,0l0,0l0,0h-0.1l0,0c0,0,0,0-0.1,0h-0.1
				c0,0,0,0-0.1,0s-0.1,0-0.1-0.1l0,0l0,0l0,0l0,0v-0.1v-0.1v-0.1c0-0.1,0-0.1,0-0.1l0,0V174c0-0.1,0-0.1,0-0.1l0,0v-0.2
				c0,0,0,0,0-0.1v-0.1v-0.1v-0.2c0,0,0-0.1,0-0.2C27.3,172.8,27.3,172.7,27.3,172.8C27.4,173,27.4,172.9,27.3,172.8
				C27.4,172.9,27.4,172.8,27.3,172.8z"/>
		</g>
	</g>
	<g>
		<g>
			<path class="st0" d="M27.3,180.5L27.3,180.5L27.3,180.5c0-0.1,0.1-0.1,0.3-0.2c0.1,0,0.1,0,0.1,0s0,0,0.1,0c0,0,0,0,0.1,0l0,0
				l0,0l0,0H28l0,0l0,0l0,0c0,0,0,0,0.1,0h0.1l0,0l0,0h0.1l0,0h0.1l0,0l0,0l0,0l0,0l0,0l0,0l0,0l0,0l0,0l0,0l0,0h0.1l0,0
				c0,0,0.1,0,0.2,0s0.2,0,0.3,0h0.1h0.1h0.1c0.1,0,0.1,0,0.1,0l0,0c0,0,0,0,0.1,0c1.5,0,3.6,0,6.1,0c6,0,14.3,0,23.9,0
				c4.6,0,8.7,0,9.1,0c0.5,0,1,0,1.2,0s0.5,0,0.8,0c0.6,0,7.9,0,8.2,0c0.1,0,2.3,0,4.9,0c6.5,0,15,0,19.5,0c2.1,0,4.3,0,5,0
				s1.3,0,1.5,0s6.2,0,13.4,0s14.9,0,17.1,0c5.4,0,9.4,0,12.2,0c0.1,0,0.2,0,0.2,0l0,0c0,0,0,0,0.1,0h0.1c0,0,0,0,0.1,0l0,0l0,0h0.1
				l0,0l0,0c0,0,0,0,0.1,0s0.2,0,0.2,0l0,0h0.1l0,0l0,0c0,0,0,0,0.1,0s0.1,0,0.1,0l0,0l0,0c0.1,0,0.2,0,0.2,0l0,0l0,0l0,0l0,0
				c0,0,0,0,0.1,0h0.1l0,0c0,0,0,0,0.1,0c0,0,0,0,0.1,0h0.1c0,0,0,0,0.1,0s0.1,0,0.1,0l0,0c0,0,0,0,0.1,0l0,0l0,0l0,0
				c0,0,0,0.1,0.1,0.1l0,0c0,0,0,0,0,0.1l0,0l0,0c0,0,0.1,0,0,0.1l0,0c0,0,0,0,0,0.1c0,0.1,0,0.1,0,0.1l0,0l0,0c0,0,0.1,0.1,0,0.1
				c0,0,0,0,0,0.1c0,0.1,0,0.2,0,0.2l0,0l0,0l0,0l0,0l0,0c0,0,0,0,0.1,0c0,0,0,0,0,0.1v0.1c0,0,0,0,0,0.1c0,0,0,0,0,0.1l0,0l0,0
				c0,0,0.1,0.1,0,0.1l0,0c0,0,0,0,0,0.1v0.1l0,0l0,0l0,0l0,0l0,0l0,0l0,0l0,0l0,0l0,0v0.1l0,0v0.1c0,0-0.1,0.1,0,0.1l0,0l0,0l0,0
				l0,0l0,0l0,0l0,0l0,0c0,0-0.1,0.1-0.1,0h-0.1h-0.1l0,0c0,0,0,0-0.1,0c0,0,0,0-0.1,0h-0.2H154h-0.1h-0.1l0,0c0,0,0,0-0.1,0l0,0
				c0,0,0,0-0.1,0h-0.1l0,0h-0.1h-0.1h-0.1l0,0H153c0,0,0,0-0.1,0h-0.1c0,0,0,0-0.1,0h-0.1l0,0l0,0c-1.5,0-119.9,0-123,0h-0.1
				c-0.1,0-0.1,0-0.1,0l0,0l0,0c0,0,0,0-0.1,0h-0.1l0,0c0,0,0,0,0,0.1c-0.1,0-0.1,0-0.1,0H29l0,0h-0.1h-0.1c0,0,0,0-0.1,0
				c0,0-0.1,0-0.2,0s-0.1,0-0.1,0l0,0l0,0l0,0l0,0l0,0l0,0h-0.1h-0.1h-0.1l0,0l0,0l0,0l0,0c0,0-0.1,0-0.2,0c0,0,0,0-0.1,0
				c0,0,0,0-0.1,0l0,0l0,0h-0.1l0,0c0,0,0,0-0.1,0h-0.1c0,0,0,0-0.1,0s-0.1,0-0.1-0.1l0,0l0,0l0,0l0,0v-0.1V182v-0.1
				c0-0.1,0-0.1,0-0.1l0,0v-0.1c0-0.1,0-0.1,0-0.1l0,0v-0.2c0,0,0,0,0-0.1v-0.1v-0.1v-0.2c0,0,0-0.1,0-0.2c0-0.2,0-0.3,0-0.3
				C27.4,180.6,27.4,180.6,27.3,180.5C27.4,180.5,27.4,180.5,27.3,180.5z"/>
		</g>
	</g>
	<path class="st0" d="M13.3,14v29.2H189V14H13.3z M32.4,24.4c-1.7,2.9-2.9,5.7-3.5,9.1c-0.1,0.3-0.1,0.4-0.1,0.7c0,0.2,0,0.3,0,0.5
		c0,0.4-0.1,0.6-0.5,0.6c-0.3,0-0.7-0.2-1-0.4c-0.1-0.1-0.3-0.3-0.3-0.5c0-0.1,0.1-0.6,0.1-0.8c0.8-3.2,1.7-6.2,3.2-9.2
		c0-0.1,0-0.1-0.1-0.1c-0.3,0-1,0.1-1.5,0.1c-0.4,0-0.9-0.1-1.1-0.3c0,0,0-0.1,0-0.6s0.3-0.7,0.4-0.7c0.2,0,0.2,0.1,1.5,0.1
		c1.9,0,3.8-0.6,5.8-0.6c0.7,0,1.8,0.8,1.8,1c0,0.4-0.1,0.6-0.3,0.6c-0.1,0-0.3,0.2-0.6,0.2c-0.2,0-0.1-0.1-0.4-0.3
		c-0.4-0.1-0.4-0.2-0.6-0.2c-1.1,0-2.1,0.1-3,0.3c0.1,0.1,0.1,0.2,0.1,0.2C32.4,24.3,32.4,24.4,32.4,24.4z M39,24.2
		c-0.1,0.1-0.1,0.1-0.3,0.5c-1.1,2.9-2.1,5.9-3.1,9.1c0,0.1,0,0.1,0,0.2c0,0.1,0,0.2,0,0.3c0,0.3-0.1,0.7-0.4,1.2
		c0,0.1-0.2,0.1-0.3,0.1s-0.2,0.1-0.2,0.2c-0.1,0.1-0.1,0.2-0.2,0.2c-0.2,0-0.2-0.2-0.3-0.2c-0.2,0-0.5-0.3-0.6-0.3
		s-0.1-0.1-0.1-0.1c0-0.1,0.2-1.2,0.4-1.5c0.1-0.1,0.1-0.2,0.2-0.5c0.8-3.2,1.8-5.8,2.8-8.9c0.2-0.6,0.4-0.6,0.8-2
		c0.1-0.2,0.4-0.2,0.8-0.2c0.4,0,1.1,0.3,1.1,0.6C39.6,23.5,39.5,23.8,39,24.2z M45.4,24.4c-1.7,2.9-2.9,5.7-3.5,9.1
		c-0.1,0.3-0.1,0.4-0.1,0.7c0,0.2,0,0.3,0,0.5c0,0.4-0.1,0.6-0.5,0.6c-0.3,0-0.7-0.2-1-0.4c-0.1-0.1-0.3-0.3-0.3-0.5
		c0-0.1,0.1-0.6,0.1-0.8c0.8-3.2,1.7-6.2,3.2-9.2c0-0.1,0-0.1-0.1-0.1c-0.3,0-1,0.1-1.5,0.1c-0.4,0-0.9-0.1-1.1-0.3c0,0,0-0.1,0-0.6
		s0.3-0.7,0.4-0.7c0.2,0,0.2,0.1,1.5,0.1c1.9,0,3.8-0.6,5.8-0.6c0.7,0,1.8,0.8,1.8,1c0,0.4-0.1,0.6-0.3,0.6c-0.1,0-0.3,0.2-0.6,0.2
		c-0.2,0-0.1-0.1-0.4-0.3c-0.4-0.1-0.4-0.2-0.6-0.2c-1.1,0-2.1,0.1-3,0.3c0.1,0.1,0.1,0.2,0.1,0.2C45.5,24.3,45.5,24.4,45.4,24.4z
		 M56.2,33.9c-0.1,0.1-0.2,0.2-0.8,0.2c-0.2,0-0.2,0-0.4,0c-2,0.5-3.7,1.5-5.9,1.5c-0.8,0-1.3-0.7-1.6-1.2c-0.1-0.1-0.1-0.2-0.1-0.3
		c0-0.3,0.1-0.6,0.3-1.1c0.1-0.3,0-0.3,0.3-1.1c1.2-3.5,2.9-6.8,4.4-10.1c0.1-0.2,0.5-0.2,0.6-0.2c0.2,0,0.2,0.2,0.6,0.3
		c0.2,0.1,0.6,0.3,0.6,0.4c0,0.5-0.3,0.7-0.3,1c0,0.1,0,0.1-0.1,0.2c-0.4,0.3-0.7,0.9-1,1.7c-0.2,0.4-0.3,0.6-0.5,1.1
		c-1,2.2-1.9,4.5-2.7,6.8c0,0.1-0.1,0.3-0.1,0.4c0,0.2,0.1,0.4,0.3,0.4c0.1,0,0.3,0,0.8-0.2c1.4-0.4,2.8-0.9,4-1.4
		c0.1,0,0.2,0,0.4,0s0.8,0.2,1.1,0.5c0.1,0.1,0.1,0.1,0.1,0.2c0,0.1,0.1,0.1,0.1,0.3C56.2,33.7,56.2,33.8,56.2,33.9z M68.3,23.3
		c-0.2,0-0.3,0.1-0.5,0.1s-0.3-0.2-0.7-0.2c-1.9,0-3.6,0.5-5,0.9c-0.1,0-0.2,0.1-0.2,0.2c-0.4,1-0.7,1.8-1.1,2.8
		c0,0.1,0,0.1,0.1,0.1c0.9-0.3,1.9-0.8,2.9-0.8c0.5,0,1,0.1,1.5,0.4c0.2,0.1,0.3,0.4,0.3,0.6s-0.8,0.4-1,0.4s-0.5-0.1-0.7-0.1
		c-1.2,0-2.4,0.6-3.4,0.9c-0.2,0-0.5,0.1-0.6,0.3c-0.9,1.9-1.5,3.4-1.5,4.4c0,0.3,0.3,0.7,0.5,0.7c0.4,0,1.1-0.1,1.6-0.4
		c0.6-0.3,1-0.4,1.4-0.6c1.1-0.5,2-1.4,3.2-1.4c0.1,0,0.2,0,0.2,0.1c0.1,0.1,0.6,0.4,0.6,0.6c0,0.1,0,0.2-0.1,0.3
		c-0.1,0-0.3,0.1-0.4,0.3c-0.2,0.2-0.4,0.3-0.5,0.4c-1.8,1-3.8,2-6.5,2c-0.1,0-1.2-0.3-1.5-0.8c-0.1-0.2-0.2-0.8-0.2-1
		c0-1.6,0.7-3.1,1.3-4.5c-0.1-0.1-0.3-0.3-0.3-0.6c0-0.1,0-0.2,0-0.2c0.1-0.1,0.1-0.1,0.6-0.2c0.2,0,0.2-0.1,0.3-0.3
		c0.6-1.2,0.8-1.9,1-2.5c0-0.1,0-0.1-0.1-0.1s-0.5,0.2-0.7,0.2c-0.1,0-0.3,0-0.4-0.1c-0.3-0.1-0.5-0.8-0.5-1c0-0.1,0-0.1,0.1-0.1
		c1.3-0.3,2.4-0.8,3.6-1.2c0.8-0.3,3.4-1,5.4-1c0.2,0,0.6,0.1,0.7,0.1c0.5,0.2,1,0.6,1,1C68.6,23.2,68.5,23.3,68.3,23.3z"/>
	<g>
		<g>
			<path class="st0" d="M190.3,216h0.1l0,0c0,0,0,0.1,0.1,0.3c0,0.1,0,0.1,0,0.1s0,0,0,0.1c0,0,0,0,0,0.1l0,0l0,0l0,0v0.1l0,0l0,0
				l0,0c0,0,0,0,0,0.1v0.1l0,0l0,0v0.1l0,0v0.1l0,0l0,0l0,0l0,0l0,0l0,0l0,0l0,0l0,0l0,0l0,0v0.1l0,0c0,0,0,0.1,0,0.2
				c0,0.1,0,0.2,0,0.3v0.1v0.1v0.1c0,0.1,0,0.1,0,0.1l0,0c0,0,0,0,0,0.1c0,8.5,0,20.5,0,35.3c0,34.8,0,82.9,0,138c0,1.9,0,3.9,0,5.8
				v0.6v0.3v0.1h-0.1h-0.1h-1.2h-1.8c-0.8,0-1.6,0-2.4,0c-3.2,0-6.3,0-9.3,0c-6,0-11.5,0-16.3,0c-9.6,0-16.2,0-17.5,0
				c-2.8,0-5.7,0-6.7,0s-3.1,0-4.7,0c-3.5,0-46.3,0-47.6,0c-0.5,0-13.1,0-28.1,0c-7.4,0-15.2,0-22.2,0c-4.2,0-8.5,0-12.7,0
				c-2.5,0-5,0-7.5,0c-0.1,0-0.3,0-0.4,0v-0.4v-0.8v-1.5V394c0-1.1,0-2.1,0-3.2c0-8.4,0-16.8,0-24.7c0-15.8,0-30,0-40.5
				c0-12,0-24.9,0-28.8s0-7.8,0-8.7c0-0.5,0-9.4,0-23.4c0-7,0-15.3,0-24.4c0-4.6,0-9.3,0-14.2c0-2.5,0-5,0-7.5c0-0.6,0-1.3,0-2v-1.8
				v-0.5v-0.2V214H12h0.9c1.5,0,3.1,0,4.7,0c41.5,0,86,0,98.7,0c30.9,0,54.3,0,70.2,0c0.1,0,0.2,0,0.2,0l0,0c0,0,0,0,0.1,0h0.1
				c0,0,0,0,0.1,0l0,0l0,0h0.1l0,0l0,0c0,0,0,0,0.1,0s0.2,0,0.2,0l0,0h0.1l0,0l0,0c0,0,0,0,0.1,0s0.1,0,0.1,0l0,0l0,0
				c0.1,0,0.2,0,0.2,0l0,0l0,0l0,0l0,0c0,0,0,0,0.1,0h0.1l0,0c0,0,0,0,0.1,0c0,0,0,0,0.1,0h0.1c0,0,0,0,0.1,0s0.1,0,0.1,0l0,0
				c0,0,0,0,0.1,0l0,0l0,0l0,0c0,0,0,0.1,0.1,0.1l0,0c0,0,0,0,0,0.1l0,0l0,0c0,0,0.1,0,0,0.1l0,0c0,0,0,0,0,0.1c0,0.1,0,0.1,0,0.1
				l0,0l0,0c0,0,0.1,0.1,0,0.1c0,0,0,0,0,0.1c0,0.1,0,0.2,0,0.2l0,0l0,0l0,0l0,0l0,0c0,0,0,0,0.1,0c0,0,0,0,0,0.1v0.1c0,0,0,0,0,0.1
				c0,0,0,0,0,0.1l0,0l0,0c0,0,0.1,0.1,0,0.1l0,0c0,0,0,0,0,0.1v0.1l0,0l0,0l0,0l0,0l0,0l0,0l0,0l0,0l0,0l0,0v0.1l0,0v0.1
				c0,0-0.1,0.1,0,0.1l0,0l0,0l0,0l0,0l0,0l0,0l0,0l0,0c0,0-0.1,0.1-0.1,0h-0.1h-0.1l0,0c0,0,0,0-0.1,0c0,0,0,0-0.1,0h-0.2h-0.1H188
				h-0.1l0,0c0,0,0,0-0.1,0l0,0c0,0,0,0-0.1,0h-0.1l0,0h-0.1h-0.1h-0.1l0,0h-0.2c0,0,0,0-0.1,0h-0.1c0,0,0,0-0.1,0h-0.1l0,0l0,0
				c0,0,0,0-0.1,0c-2.4,0-5.7,0-10,0c-22.7,0-54.6,0-92.4,0c-18.9,0-39.3,0-60.7,0c-2.7,0-5.4,0-8.1,0h-1v0.1v0.5c0,1.4,0,2.7,0,4.1
				c0,5.5,0,11,0,16.7c0,11.2,0,22.6,0,34.2c0,23.2,0,47.1,0,71.2c0,12.1,0,24.2,0,36.4v9.1v4.6v2.1v0.1h0.1c6,0,12,0,17.9,0
				c43.9,0,87.3,0,127.9,0c5.1,0,10.1,0,15.1,0c2.5,0,5,0,7.4,0c1.2,0,2.5,0,3.7,0h1.2c0.1,0,0.1,0,0.1-0.1c0-9.7,0-19.1,0-28.3
				c0-18.6,0-36.2,0-52.4c0-32.6,0-59.9,0-79.7c0-7.1,0-12.8,0-16.9v-0.1v-0.1c0-0.1,0-0.1,0-0.1l0,0l0,0c0,0,0,0,0-0.1v-0.1l0,0
				c0,0,0,0-0.1,0c0-0.1,0-0.1,0-0.1v-0.1l0,0v-0.1v-0.1c0,0,0,0,0-0.1c0,0,0-0.1,0-0.2s0-0.1,0-0.1l0,0l0,0l0,0l0,0l0,0l0,0v-0.1
				v-0.1V216l0,0l0,0l0,0l0,0c0,0,0-0.1,0-0.2c0,0,0,0,0-0.1c0,0,0,0,0-0.1l0,0l0,0v-0.1l0,0c0,0,0,0,0-0.1v-0.1c0,0,0,0,0-0.1
				c0-0.1,0-0.1,0.1-0.1l0,0l0,0l0,0l0,0h0.1h0.1h0.1c0.1,0,0.1,0,0.1,0l0,0h0.1c0.1,0,0.1,0,0.1,0l0,0h0.2c0,0,0,0,0.1,0h0.1h0.1
				h0.2c0,0,0.1,0,0.2,0c0.2,0,0.3,0,0.3,0C190.2,216,190.2,216,190.3,216L190.3,216z"/>
		</g>
	</g>
	<g>
		<g>
			<path class="st0" d="M73.8,459.2L73.8,459.2L73.8,459.2c0.1,0,0.1,0.1,0.2,0.3c0,0.1,0,0.1,0,0.1s0,0,0,0.1c0,0,0,0,0,0.1l0,0
				l0,0l0,0v0.1l0,0l0,0l0,0c0,0,0,0,0,0.1v0.1l0,0l0,0v0.1l0,0v0.1l0,0l0,0l0,0l0,0l0,0l0,0l0,0l0,0l0,0l0,0l0,0v0.1l0,0
				c0,0,0,0.1,0,0.2c0,0.1,0,0.2,0,0.3v0.1v0.1v0.1c0,0.1,0,0.1,0,0.1l0,0c0,0,0,0,0,0.1c0,1.9,0,4.6,0,8c0,3.9,0,8.6,0,13.9
				c0,2.6,0,5.4,0,8.3c0,1.6,0,3.3,0,5v1.1v0.3c0,0.1,0,0.2-0.1,0.2h-0.5c-0.7,0-1.4,0-2.1,0c-0.8,0-1.5,0-2.3,0c-6,0-11.3,0-11.9,0
				c-0.6,0-1.3,0-1.5,0s-0.7,0-1.1,0c-0.8,0-10.4,0-10.7,0c-0.1,0-3,0-6.3,0c-1.6,0-3.4,0-4.9,0c-1,0-1.9,0-2.9,0H27
				c-0.1,0,0-0.1,0-0.1v-0.2v-0.3v-0.7v-1.4c0-1.9,0-3.8,0-5.6c0-3.6,0-6.8,0-9.2c0-2.7,0-5.6,0-6.5s0-1.7,0-2c0-0.1,0-2.1,0-5.3
				c0-1.6,0-3.4,0-5.5c0-0.6,0-1.2,0-1.8c0-0.5,0-1,0-1.5v-0.8c0.2,0,0.5,0,0.8,0c1.4,0,2.9,0,4.3,0c9.4,0,19.4,0,22.3,0
				c7,0,12.3,0,15.9,0c0.1,0,0.2,0,0.2,0l0,0c0,0,0,0,0.1,0h0.1c0,0,0,0,0.1,0l0,0l0,0h0.1l0,0l0,0c0,0,0,0,0.1,0s0.2,0,0.2,0l0,0
				h0.1l0,0l0,0c0,0,0,0,0.1,0s0.1,0,0.1,0l0,0l0,0c0.1,0,0.2,0,0.2,0l0,0l0,0l0,0l0,0c0,0,0,0,0.1,0h0.1l0,0c0,0,0,0,0.1,0
				c0,0,0,0,0.1,0h0.1c0,0,0,0,0.1,0s0.1,0,0.1,0l0,0c0,0,0,0,0.1,0l0,0l0,0l0,0c0,0,0,0.1,0.1,0.1l0,0c0,0,0,0,0,0.1l0,0l0,0
				c0,0,0.1,0,0,0.1l0,0c0,0,0,0,0,0.1s0,0.1,0,0.1l0,0l0,0c0,0,0.1,0.1,0,0.1c0,0,0,0,0,0.1s0,0.2,0,0.2l0,0l0,0l0,0l0,0l0,0
				c0,0,0,0,0.1,0c0,0,0,0,0,0.1v0.1c0,0,0,0,0,0.1c0,0,0,0,0,0.1l0,0l0,0c0,0,0.1,0.1,0,0.1l0,0c0,0,0,0,0,0.1v0.1l0,0l0,0l0,0l0,0
				l0,0l0,0l0,0l0,0l0,0l0,0v0.1l0,0v0.1c0,0-0.1,0.1,0,0.1l0,0l0,0l0,0l0,0l0,0l0,0l0,0l0,0c0,0-0.1,0.1-0.1,0h-0.1h-0.1l0,0
				c0,0,0,0-0.1,0c0,0,0,0-0.1,0H72h-0.1h-0.1h-0.1l0,0c0,0,0,0-0.1,0l0,0c0,0,0,0-0.1,0h-0.1l0,0h-0.1h-0.1h-0.1l0,0h-0.2
				c0,0,0,0-0.1,0h-0.1c0,0,0,0-0.1,0h-0.1l0,0l0,0h-0.1c-2.5,0-6,0-10.2,0c-4.9,0-10.7,0-17.2,0c-3.2,0-6.6,0-10.1,0
				c-0.9,0-1.8,0-2.7,0h-0.5c-0.1,0,0,0.1-0.1,0.1c0,1.7,0,3.4,0,5.1c0,5.8,0,11.7,0,17.8c0,3,0,6.1,0,9.2v3.6c0,0.1,0.1,0,0.1,0
				h0.7h2.3c9.9,0,19.7,0,28.9,0c2.3,0,4.5,0,6.7,0c1.1,0,2.2,0,3.3,0c0.1,0,0.1,0,0.2,0v-0.5c0-4.2,0-8.2,0-11.8c0-7.3,0-13.5,0-18
				c0-1.6,0-2.9,0-3.8v-0.1v-0.1c0-0.1,0-0.1,0-0.1l0,0l0,0c0,0,0,0,0-0.1v-0.1l0,0c0,0,0,0-0.1,0c0-0.1,0-0.1,0-0.1v-0.1l0,0v-0.1
				V460c0,0,0,0,0-0.1c0,0,0-0.1,0-0.2c0-0.1,0-0.1,0-0.1l0,0l0,0l0,0l0,0l0,0l0,0v-0.1v-0.1v-0.1l0,0l0,0l0,0l0,0c0,0,0-0.1,0-0.2
				c0,0,0,0,0-0.1c0,0,0,0,0-0.1l0,0l0,0v-0.1l0,0c0,0,0,0,0-0.1v-0.1c0,0,0,0,0-0.1s0-0.1,0.1-0.1l0,0l0,0l0,0l0,0h0.1H72h0.1
				c0.1,0,0.1,0,0.1,0l0,0h0.1c0.1,0,0.1,0,0.1,0l0,0h0.2c0,0,0,0,0.1,0h0.1h0.1h0.2c0,0,0.1,0,0.2,0c0.2,0,0.3,0,0.3,0
				C73.6,459.2,73.7,459.2,73.8,459.2C73.7,459.2,73.8,459.2,73.8,459.2z"/>
		</g>
	</g>
	<g>
		<g>
			<path class="st0" d="M13.3,289.3L13.3,289.3L13.3,289.3c0-0.1,0.1-0.1,0.3-0.2c0.1,0,0.1,0,0.1,0s0,0,0.1,0c0,0,0,0,0.1,0l0,0
				l0,0l0,0H14l0,0l0,0l0,0c0,0,0,0,0.1,0h0.1l0,0l0,0h0.1l0,0h0.1l0,0l0,0l0,0l0,0l0,0l0,0l0,0l0,0l0,0l0,0l0,0h0.1l0,0
				c0,0,0.1,0,0.2,0c0.1,0,0.2,0,0.3,0h0.1h0.1h0.1c0.1,0,0.1,0,0.1,0l0,0c0,0,0,0,0.1,0c2.1,0,4.9,0,8.5,0c8.4,0,19.9,0,33.1,0
				c6.3,0,12,0,12.7,0s1.4,0,1.6,0s0.7,0,1.1,0c0.9,0,11.1,0,11.4,0c0.1,0,3.2,0,6.7,0c9,0,20.8,0,27.1,0c2.9,0,6,0,6.9,0
				s1.8,0,2.1,0c0.2,0,8.6,0,18.5,0c10,0,20.6,0,23.7,0c7.4,0,13.1,0,16.9,0c0.1,0,0.2,0,0.2,0l0,0c0,0,0,0,0.1,0h0.1c0,0,0,0,0.1,0
				l0,0l0,0h0.1l0,0l0,0c0,0,0,0,0.1,0s0.2,0,0.2,0l0,0h0.1l0,0l0,0c0,0,0,0,0.1,0s0.1,0,0.1,0l0,0l0,0c0.1,0,0.2,0,0.2,0l0,0l0,0
				l0,0l0,0c0,0,0,0,0.1,0h0.1l0,0c0,0,0,0,0.1,0c0,0,0,0,0.1,0h0.1c0,0,0,0,0.1,0s0.1,0,0.1,0l0,0c0,0,0,0,0.1,0l0,0l0,0l0,0
				c0,0,0,0.1,0.1,0.1l0,0c0,0,0,0,0,0.1l0,0l0,0c0,0,0.1,0,0,0.1l0,0c0,0,0,0,0,0.1s0,0.1,0,0.1l0,0l0,0c0,0,0.1,0.1,0,0.1
				c0,0,0,0,0,0.1s0,0.2,0,0.2l0,0l0,0l0,0l0,0l0,0c0,0,0,0,0.1,0c0,0,0,0,0,0.1v0.1c0,0,0,0,0,0.1c0,0,0,0,0,0.1l0,0l0,0
				c0,0,0.1,0.1,0,0.1l0,0c0,0,0,0,0,0.1v0.1l0,0l0,0l0,0l0,0l0,0l0,0l0,0l0,0l0,0l0,0v0.1l0,0v0.1c0,0-0.1,0.1,0,0.1l0,0l0,0l0,0
				l0,0l0,0l0,0l0,0l0,0c0,0-0.1,0.1-0.1,0H188h-0.1l0,0c0,0,0,0-0.1,0c0,0,0,0-0.1,0h-0.2h-0.1h-0.1h-0.1l0,0c0,0,0,0-0.1,0l0,0
				c0,0,0,0-0.1,0h-0.1l0,0h-0.1h-0.1h-0.1l0,0h-0.2c0,0,0,0-0.1,0h-0.1c0,0,0,0-0.1,0H186l0,0l0,0c-2.1,0-166.5,0-170.7,0h-0.1
				c-0.1,0-0.1,0-0.1,0l0,0l0,0c0,0,0,0-0.1,0h-0.1l0,0c0,0,0,0,0,0.1c-0.1,0-0.1,0-0.1,0h-0.1l0,0h-0.1h-0.1c0,0,0,0-0.1,0
				c0,0-0.1,0-0.2,0c-0.1,0-0.1,0-0.1,0l0,0l0,0l0,0l0,0l0,0l0,0H14h-0.1h-0.1l0,0l0,0l0,0l0,0c0,0-0.1,0-0.2,0c0,0,0,0-0.1,0
				c0,0,0,0-0.1,0l0,0l0,0h-0.1l0,0c0,0,0,0-0.1,0h-0.1c0,0,0,0-0.1,0s-0.1,0-0.1-0.1l0,0l0,0l0,0l0,0v-0.1v-0.1v-0.1
				c0-0.1,0-0.1,0-0.1l0,0v-0.1c0-0.1,0-0.1,0-0.1l0,0v-0.2c0,0,0,0,0-0.1V290v-0.1v-0.2c0,0,0-0.1,0-0.2c0-0.2,0-0.3,0-0.3
				C13.4,289.5,13.4,289.4,13.3,289.3C13.4,289.4,13.4,289.3,13.3,289.3z"/>
		</g>
	</g>
	<g>
		<g>
			<path class="st0" d="M13.3,344.6v-0.1l0,0c0,0,0.1,0,0.3-0.1c0.1,0,0.1,0,0.1,0s0,0,0.1,0c0,0,0,0,0.1,0l0,0l0,0l0,0H14l0,0l0,0
				l0,0c0,0,0,0,0.1,0h0.1l0,0l0,0h0.1l0,0h0.1l0,0l0,0l0,0l0,0l0,0l0,0l0,0l0,0l0,0l0,0l0,0h0.1l0,0c0,0,0.1,0,0.2,0
				c0.1,0,0.2,0,0.3,0h0.1h0.1h0.1c0.1,0,0.1,0,0.1,0l0,0c0,0,0,0,0.1,0c2.1,0,4.9,0,8.5,0c8.4,0,19.9,0,33.1,0c6.3,0,12,0,12.7,0
				s1.4,0,1.6,0s0.7,0,1.1,0c0.9,0,11.1,0,11.4,0c0.1,0,3.2,0,6.7,0c9,0,20.8,0,27.1,0c2.9,0,6,0,6.9,0s1.8,0,2.1,0
				c0.2,0,8.6,0,18.5,0c10,0,20.6,0,23.7,0c7.4,0,13.1,0,16.9,0c0.1,0,0.2,0,0.2,0l0,0c0,0,0,0,0.1,0h0.1c0,0,0,0,0.1,0l0,0l0,0h0.1
				l0,0l0,0c0,0,0,0,0.1,0s0.2,0,0.2,0l0,0h0.1l0,0l0,0c0,0,0,0,0.1,0s0.1,0,0.1,0l0,0l0,0c0.1,0,0.2,0,0.2,0l0,0l0,0l0,0l0,0
				c0,0,0,0,0.1,0h0.1l0,0c0,0,0,0,0.1,0c0,0,0,0,0.1,0h0.1c0,0,0,0,0.1,0s0.1,0,0.1,0l0,0c0,0,0,0,0.1,0l0,0l0,0l0,0
				c0,0,0,0.1,0.1,0.1l0,0c0,0,0,0,0,0.1l0,0l0,0c0,0,0.1,0,0,0.1l0,0c0,0,0,0,0,0.1c0,0.1,0,0.1,0,0.1l0,0l0,0c0,0,0.1,0.1,0,0.1
				c0,0,0,0,0,0.1c0,0.1,0,0.2,0,0.2l0,0l0,0l0,0l0,0l0,0c0,0,0,0,0.1,0c0,0,0,0,0,0.1v0.1c0,0,0,0,0,0.1c0,0,0,0,0,0.1l0,0l0,0
				c0,0,0.1,0.1,0,0.1l0,0c0,0,0,0,0,0.1v0.1l0,0l0,0l0,0l0,0l0,0l0,0l0,0l0,0l0,0l0,0v0.1l0,0v0.1c0,0-0.1,0.1,0,0.1l0,0l0,0l0,0
				l0,0l0,0l0,0l0,0l0,0c0,0-0.1,0.1-0.1,0H188h-0.1l0,0c0,0,0,0-0.1,0c0,0,0,0-0.1,0h-0.2h-0.1h-0.1h-0.1l0,0c0,0,0,0-0.1,0l0,0
				c0,0,0,0-0.1,0h-0.1l0,0h-0.1h-0.1h-0.1l0,0h-0.2c0,0,0,0-0.1,0h-0.1c0,0,0,0-0.1,0H186l0,0l0,0c-2.1,0-166.5,0-170.7,0h-0.1
				c-0.1,0-0.1,0-0.1,0l0,0l0,0c0,0,0,0-0.1,0h-0.1l0,0c0,0,0,0,0,0.1c-0.1,0-0.1,0-0.1,0h-0.1l0,0h-0.1h-0.1c0,0,0,0-0.1,0
				c0,0-0.1,0-0.2,0c-0.1,0-0.1,0-0.1,0l0,0l0,0l0,0l0,0l0,0l0,0H14h-0.1h-0.1l0,0l0,0l0,0l0,0c0,0-0.1,0-0.2,0c0,0,0,0-0.1,0
				c0,0,0,0-0.1,0l0,0l0,0h-0.1l0,0c0,0,0,0-0.1,0h-0.1c0,0,0,0-0.1,0s-0.1,0-0.1-0.1l0,0l0,0l0,0l0,0v-0.1v-0.1V346
				c0-0.1,0-0.1,0-0.1l0,0v-0.1c0-0.1,0-0.1,0-0.1l0,0v-0.2c0,0,0,0,0-0.1v-0.1v-0.1V345c0,0,0-0.1,0-0.2c0-0.2,0-0.3,0-0.3
				C13.4,344.8,13.4,344.8,13.3,344.6C13.4,344.7,13.4,344.7,13.3,344.6z"/>
		</g>
	</g>
	<g>
		<g>
			<path class="st0" d="M26.4,312c0,0,0-0.2,0-0.4c0-0.2,0-0.3,0-0.3v-0.1c0-0.1,0-0.1,0-0.2c0.1-0.1,0.1-0.2,0-0.1c0,0-0.1,0,0,0
				l0.1-0.1c0.1,0,0.1,0,0-0.2c0-0.1,0-0.2,0-0.2c0-0.1,0.1-0.2,0.1-0.3s0-0.2,0.1-0.3c0-0.1,0-0.2,0-0.3s0-0.1,0-0.1s0,0,0-0.1
				c0-0.1-0.1-0.1,0-0.1c0.1-0.1,0.1-0.7,0-0.7l0,0c0.1,0,0.1,0,0.1-0.2c0-0.1,0-0.2,0-0.3s0-0.1,0-0.2c-0.1-0.1-0.1-0.1,0-0.1
				c0,0,0.1-0.1,0-0.2c0-0.1,0-0.2,0-0.3c0,0,0.1-0.1,0-0.1c0,0,0,0,0-0.1c0.1-0.1,0.1-0.1,0-0.1s-0.1-0.1,0-0.1
				c0,0,0.1-0.2,0.1-0.4c0-0.2,0-0.3,0.1-0.3c0,0,0.1-0.1,0.1-0.2c0-0.1,0-0.1-0.1-0.1c-0.1,0.1-0.1,0.1,0,0c0-0.1,0.1-0.1,0.1-0.1
				s0,0,0-0.1c0-0.1,0-0.2,0.1-0.3c0.2-0.3,0.3-0.4,0.9-0.4c0.2,0,0.3,0,0.3-0.1c0,0,0.1,0,0.2,0s0.2,0,0.3,0c0.1,0,0.3,0,0.4,0
				c0.2,0.1,0.3,0.1,0.3,0s0.1-0.1,0.1,0c0,0,0.1,0.1,0.1,0h0.1c0,0,0.1,0.1,0.2,0c0.1,0,0.2,0,0.2,0s0.6,0,0.7,0h0.1
				c0,0,0.2,0,0.5,0s0.5,0,0.5,0s0.1,0,0.6-0.1c0.1,0,0.3,0,0.3,0h0.1h0.1c0,0,0.2,0,0.3,0c0.2,0,0.3,0,0.3,0c0,0.1,0.3,0.1,0.3,0
				v-0.1c-0.1,0-0.1,0,0,0c0,0,0.1,0,0.1,0.1s0.1,0.1,0.2,0c0.1,0,0.2,0,0.2,0c0.1,0,0.2,0.1,0.4,0.1c-0.1,0,0.9,0,2,0s2.5,0,4.2,0
				c5,0.1,9.4,0.1,12.2,0.1c3,0,7.3,0.1,15.2,0.1c3.1,0,6.7,0,8,0.1c1.3,0,2.3,0,2.4,0c0,0,0.2,0,0.5,0s0.6,0,0.9,0c0.2,0,1,0,1.8,0
				s1.5,0,1.5,0s0.1,0,0.2,0s0.2,0,0.2,0s0.1,0,0.2,0s0.1,0.1,0.2,0c0.1,0,0.4,0,0.8,0.1c0.1,0,0.2,0,0.3,0c0.2,0,0.2,0,0.3,0.1
				c0.1,0.1,0.2,0.1,0.3,0.1c0.3,0,0.8,0.6,0.8,0.8c0,0,0,0.2,0.1,0.2c0.1,0.1,0.1,0.2,0.1,0.2v0.1c0,0,0,0.1,0,0.3
				c-0.1,0.4-0.1,1,0,1.1c0,0.1,0,0.1,0,0.2c0,0-0.1,0.3,0,0.6c0,0.3,0,0.6,0,0.6c0,0.1,0,0.2,0,0.2c0,0.1,0,0.2,0,0.3
				s-0.1,0.5-0.1,0.9c0,0.4,0,0.8-0.1,0.8c0,0.1,0,0.1,0,0.2c0.1,0.1,0.1,0.6,0,0.8c0,0.1,0,0.2-0.1,0.3c-0.1,0.5-0.3,0.7-1.2,0.7
				c-0.2,0-0.3,0-0.3,0.1c0,0-0.1,0-0.3,0c-0.2,0-0.4,0-0.6,0s-0.3,0-0.4,0s-1.7-0.1-2.3,0c-0.3,0-0.5,0-0.5,0h-0.1
				c-0.1,0.1-0.1,0.1-0.7,0c0,0-0.1,0-0.2,0h-0.1c-0.2,0-0.3,0-0.5,0c-0.7,0-1.4,0-2.2,0c-1.5,0-2.9,0-3.6,0c-1.4,0-1.6,0-4,0
				c-1.2,0-2.4,0-2.6,0c-1.7,0-8.1,0-10.1,0c-4.6,0-15.5-0.1-17.9-0.2c-0.6,0-2.6,0-4.4,0c-0.4,0-0.8,0-0.9,0c0,0-0.1,0-0.2,0.1
				c-0.2,0-0.3,0.1-0.4,0.1c-0.1,0.1-0.1,0.1-0.1,0c0-0.1,0-0.1-0.1,0c-0.1,0.1-0.5,0.1-0.7,0c-0.1,0-0.2-0.1-0.2,0
				c-0.1,0.1-0.2,0.1-0.4,0c-0.1,0-0.1,0-0.1,0c0,0.1-0.3,0-0.4-0.1c0,0-0.1,0-0.2,0s-0.2,0-0.3,0c-0.1,0-0.3,0-0.3,0
				c-0.1,0-0.1,0-0.1,0s-0.1-0.1-0.2-0.1s-0.7,0.1-0.8,0.1c-0.1,0-0.6-0.1-0.6-0.1s-0.1,0-0.2,0c-0.1,0.1-0.1,0.1-0.2,0
				s-0.4-0.1-0.9,0c-0.1,0-0.2,0-0.2,0l-0.1-0.1c-0.4,0-1-0.3-0.9-0.5c0,0,0-0.1-0.1-0.2c-0.1-0.1-0.1-0.1-0.1-0.1s0-0.1-0.1-0.1
				s-0.1,0,0-0.1s0-0.4-0.1-0.5C26.3,312.2,26.3,312.1,26.4,312z"/>
		</g>
	</g>
	<g>
		<g>
			<path class="st0" d="M27.3,323.3L27.3,323.3L27.3,323.3c0-0.1,0.1-0.1,0.3-0.2c0.1,0,0.1,0,0.1,0s0,0,0.1,0c0,0,0,0,0.1,0l0,0
				l0,0l0,0H28l0,0l0,0l0,0c0,0,0,0,0.1,0h0.1l0,0l0,0h0.1l0,0h0.1l0,0l0,0l0,0l0,0l0,0l0,0l0,0l0,0l0,0l0,0l0,0h0.1l0,0
				c0,0,0.1,0,0.2,0s0.2,0,0.3,0h0.1h0.1h0.1c0.1,0,0.1,0,0.1,0l0,0c0,0,0,0,0.1,0c1.3,0,3,0,5.2,0c5.1,0,12.2,0,20.2,0
				c3.9,0,7.3,0,7.8,0c0.4,0,0.8,0,1,0c0.1,0,0.5,0,0.7,0c0.5,0,6.7,0,7,0c0.1,0,1.9,0,4.1,0c5.5,0,12.7,0,16.5,0c1.8,0,3.6,0,4.2,0
				s1.1,0,1.3,0c0.2,0,5.2,0,11.3,0c6.1,0,12.6,0,14.5,0c4.5,0,8,0,10.3,0c0.1,0,0.2,0,0.2,0l0,0c0,0,0,0,0.1,0h0.1c0,0,0,0,0.1,0
				l0,0l0,0h0.1l0,0l0,0c0,0,0,0,0.1,0s0.2,0,0.2,0l0,0h0.1l0,0l0,0c0,0,0,0,0.1,0s0.1,0,0.1,0l0,0l0,0c0.1,0,0.2,0,0.2,0l0,0l0,0
				l0,0l0,0c0,0,0,0,0.1,0h0.1l0,0c0,0,0,0,0.1,0c0,0,0,0,0.1,0h0.1c0,0,0,0,0.1,0s0.1,0,0.1,0l0,0c0,0,0,0,0.1,0l0,0l0,0l0,0
				c0,0,0,0.1,0.1,0.1l0,0c0,0,0,0,0,0.1l0,0l0,0c0,0,0.1,0,0,0.1l0,0c0,0,0,0,0,0.1s0,0.1,0,0.1l0,0l0,0c0,0,0.1,0.1,0,0.1
				c0,0,0,0,0,0.1s0,0.2,0,0.2l0,0l0,0l0,0l0,0l0,0c0,0,0,0,0.1,0c0,0,0,0,0,0.1v0.1c0,0,0,0,0,0.1c0,0,0,0,0,0.1l0,0l0,0
				c0,0,0.1,0.1,0,0.1l0,0c0,0,0,0,0,0.1v0.1l0,0l0,0l0,0l0,0l0,0l0,0l0,0l0,0l0,0l0,0v0.1l0,0v0.1c0,0-0.1,0.1,0,0.1l0,0l0,0l0,0
				l0,0l0,0l0,0l0,0l0,0c0,0-0.1,0.1-0.1,0h-0.1h-0.1l0,0c0,0,0,0-0.1,0c0,0,0,0-0.1,0h-0.2h-0.1h-0.1H135l0,0c0,0,0,0-0.1,0l0,0
				c0,0,0,0-0.1,0h-0.1l0,0h-0.1h-0.1h-0.1l0,0h-0.2c0,0,0,0-0.1,0H134c0,0,0,0-0.1,0h-0.1l0,0l0,0c-1.3,0-101.7,0-104.3,0h-0.1
				c-0.1,0-0.1,0-0.1,0l0,0l0,0c0,0,0,0-0.1,0h-0.1l0,0c0,0,0,0,0,0.1c-0.1,0-0.1,0-0.1,0h-0.1l0,0h-0.1h-0.1c0,0,0,0-0.1,0
				c0,0-0.1,0-0.2,0s-0.1,0-0.1,0l0,0l0,0l0,0l0,0l0,0l0,0h-0.1h-0.1H28l0,0l0,0l0,0l0,0c0,0-0.1,0-0.2,0c0,0,0,0-0.1,0
				c0,0,0,0-0.1,0l0,0l0,0h-0.1l0,0c0,0,0,0-0.1,0h-0.1c0,0,0,0-0.1,0s-0.1,0-0.1-0.1l0,0l0,0l0,0l0,0v-0.1v-0.1v-0.1
				c0-0.1,0-0.1,0-0.1l0,0v-0.1c0-0.1,0-0.1,0-0.1l0,0v-0.2c0,0,0,0,0-0.1V324v-0.1v-0.2c0,0,0-0.1,0-0.2c0-0.2,0-0.3,0-0.3
				C27.4,323.5,27.4,323.4,27.3,323.3C27.4,323.4,27.4,323.3,27.3,323.3z"/>
		</g>
	</g>
	<g>
		<g>
			<path class="st0" d="M27.3,331v-0.1l0,0c0,0,0.1,0,0.3-0.1c0.1,0,0.1,0,0.1,0s0,0,0.1,0c0,0,0,0,0.1,0l0,0l0,0l0,0H28l0,0l0,0
				l0,0c0,0,0,0,0.1,0h0.1l0,0l0,0h0.1l0,0h0.1l0,0l0,0l0,0l0,0l0,0l0,0l0,0l0,0l0,0l0,0l0,0h0.1l0,0c0,0,0.1,0,0.2,0s0.2,0,0.3,0
				h0.1h0.1h0.1c0.1,0,0.1,0,0.1,0l0,0c0,0,0,0,0.1,0c1.5,0,3.6,0,6.1,0c6,0,14.3,0,23.9,0c4.6,0,8.7,0,9.1,0c0.5,0,1,0,1.2,0
				s0.5,0,0.8,0c0.6,0,7.9,0,8.2,0c0.1,0,2.3,0,4.9,0c6.5,0,15,0,19.5,0c2.1,0,4.3,0,5,0s1.3,0,1.5,0s6.2,0,13.4,0s14.9,0,17.1,0
				c5.4,0,9.4,0,12.2,0c0.1,0,0.2,0,0.2,0l0,0c0,0,0,0,0.1,0h0.1c0,0,0,0,0.1,0l0,0l0,0h0.1l0,0l0,0c0,0,0,0,0.1,0s0.2,0,0.2,0l0,0
				h0.1l0,0l0,0c0,0,0,0,0.1,0s0.1,0,0.1,0l0,0l0,0c0.1,0,0.2,0,0.2,0l0,0l0,0l0,0l0,0c0,0,0,0,0.1,0h0.1l0,0c0,0,0,0,0.1,0
				c0,0,0,0,0.1,0h0.1c0,0,0,0,0.1,0s0.1,0,0.1,0l0,0c0,0,0,0,0.1,0l0,0l0,0l0,0c0,0,0,0.1,0.1,0.1l0,0c0,0,0,0,0,0.1l0,0l0,0
				c0,0,0.1,0,0,0.1l0,0c0,0,0,0,0,0.1c0,0.1,0,0.1,0,0.1l0,0l0,0c0,0,0.1,0.1,0,0.1c0,0,0,0,0,0.1s0,0.2,0,0.2l0,0l0,0l0,0l0,0l0,0
				c0,0,0,0,0.1,0c0,0,0,0,0,0.1v0.1c0,0,0,0,0,0.1c0,0,0,0,0,0.1l0,0l0,0c0,0,0.1,0.1,0,0.1l0,0c0,0,0,0,0,0.1v0.1l0,0l0,0l0,0l0,0
				l0,0l0,0l0,0l0,0l0,0l0,0v0.1l0,0v0.1c0,0-0.1,0.1,0,0.1l0,0l0,0l0,0l0,0l0,0l0,0l0,0l0,0c0,0-0.1,0.1-0.1,0h-0.1h-0.1l0,0
				c0,0,0,0-0.1,0c0,0,0,0-0.1,0h-0.2H154h-0.1h-0.1l0,0c0,0,0,0-0.1,0l0,0c0,0,0,0-0.1,0h-0.1l0,0h-0.1h-0.1h-0.1l0,0H153
				c0,0,0,0-0.1,0h-0.1c0,0,0,0-0.1,0h-0.1l0,0l0,0c-1.5,0-119.9,0-123,0h-0.1c-0.1,0-0.1,0-0.1,0l0,0l0,0c0,0,0,0-0.1,0h-0.1l0,0
				c0,0,0,0,0,0.1c-0.1,0-0.1,0-0.1,0H29l0,0h-0.1h-0.1c0,0,0,0-0.1,0c0,0-0.1,0-0.2,0s-0.1,0-0.1,0l0,0l0,0l0,0l0,0l0,0l0,0h-0.1
				h-0.1h-0.1l0,0l0,0l0,0l0,0c0,0-0.1,0-0.2,0c0,0,0,0-0.1,0c0,0,0,0-0.1,0l0,0l0,0h-0.1l0,0c0,0,0,0-0.1,0h-0.1c0,0,0,0-0.1,0
				s-0.1,0-0.1-0.1l0,0l0,0l0,0l0,0v-0.1v-0.1v-0.1c0-0.1,0-0.1,0-0.1l0,0v-0.1c0-0.1,0-0.1,0-0.1l0,0v-0.2c0,0,0,0,0-0.1v-0.1v-0.1
				v-0.2c0,0,0-0.1,0-0.2c0-0.2,0-0.3,0-0.3C27.4,331.1,27.4,331.1,27.3,331C27.4,331,27.4,331,27.3,331z"/>
		</g>
	</g>
	<g>
		<g>
			<path class="st0" d="M25.4,264c0,0,0-0.2,0-0.4c0-0.2,0-0.3,0-0.3v-0.1c0-0.1,0-0.1,0-0.2c0.1-0.1,0.1-0.2,0-0.1c0,0-0.1,0,0,0
				l0.1-0.1c0.1,0,0.1,0,0-0.2c0-0.1,0-0.2,0-0.2c0-0.1,0.1-0.2,0.1-0.3s0-0.2,0.1-0.3c0-0.1,0-0.2,0-0.3s0-0.1,0-0.1s0,0,0-0.1
				c0-0.1-0.1-0.1,0-0.1c0.1-0.1,0.1-0.7,0-0.7l0,0c0.1,0,0.1,0,0.1-0.2c0-0.1,0-0.2,0-0.3s0-0.1,0-0.2c-0.1-0.1-0.1-0.1,0-0.1
				c0,0,0.1-0.1,0-0.2c0-0.1,0-0.2,0-0.3c0,0,0.1-0.1,0-0.1c0,0,0,0,0-0.1c0.1-0.1,0.1-0.1,0-0.1s-0.1-0.1,0-0.1
				c0,0,0.1-0.2,0.1-0.4c0-0.2,0-0.3,0.1-0.3c0,0,0.1-0.1,0.1-0.2s0-0.1-0.1-0.1c-0.1,0.1-0.1,0.1,0,0c0-0.1,0.1-0.1,0.1-0.1
				s0,0,0-0.1s0-0.2,0.1-0.3c0.2-0.3,0.3-0.4,0.9-0.4c0.2,0,0.3,0,0.3-0.1c0,0,0.1,0,0.2,0s0.2,0,0.3,0c0.1,0,0.3,0,0.4,0
				c0.2,0.1,0.3,0.1,0.3,0c0-0.1,0.1-0.1,0.1,0c0,0,0.1,0.1,0.1,0h0.1c0,0,0.1,0.1,0.2,0c0.1,0,0.2,0,0.2,0s0.6,0,0.7,0h0.1
				c0,0,0.2,0,0.5,0s0.5,0,0.5,0s0.1,0,0.6-0.1c0.1,0,0.3,0,0.3,0h0.1h0.1c0,0,0.2,0,0.3,0c0.2,0,0.3,0,0.3,0c0,0.1,0.3,0.1,0.3,0
				v-0.1c-0.1,0-0.1,0,0,0c0,0,0.1,0,0.1,0.1c0,0.1,0.1,0.1,0.2,0c0.1,0,0.2,0,0.2,0c0.1,0,0.2,0.1,0.4,0.1c0.1,0,0.1,0,0.4,0
				c0.2,0,0.5,0,0.8,0c0.6,0,1.4,0,2.3,0c2.8,0.1,5.3,0.1,6.8,0.1c1.6,0,4.1,0.1,8.5,0.1c1.7,0,3.7,0,4.4,0.1c0.7,0,1.3,0,1.4,0
				c0,0,0.1,0,0.3,0c0.1,0,0.3,0,0.5,0s1,0,1.8,0s1.5,0,1.5,0s0.1,0,0.2,0c0.1,0,0.2,0,0.2,0s0.1,0,0.2,0c0.1,0,0.1,0.1,0.2,0
				c0.1,0,0.4,0,0.8,0.1c0.1,0,0.2,0,0.3,0c0.2,0,0.2,0,0.3,0.1c0.1,0.1,0.2,0.1,0.3,0.1c0.3,0,0.8,0.6,0.8,0.8c0,0,0,0.2,0.1,0.2
				c0.1,0.1,0.1,0.2,0.1,0.2v0.1c0,0,0,0.1,0,0.3c-0.1,0.4-0.1,1,0,1.1c0,0.1,0,0.1,0,0.2c0,0-0.1,0.3,0,0.6c0,0.3,0,0.6,0,0.6
				c0,0.1,0,0.2,0,0.2c0,0.1,0,0.2,0,0.3s-0.1,0.5-0.1,0.9s0,0.8-0.1,0.8c0,0.1,0,0.1,0,0.2c0.1,0.1,0.1,0.6,0,0.8
				c0,0.1,0,0.2-0.1,0.3c-0.1,0.5-0.3,0.7-1.2,0.7c-0.2,0-0.3,0-0.3,0.1c0,0-0.1,0-0.3,0c-0.2,0-0.4,0-0.6,0c-0.2,0-0.3,0-0.4,0
				c-0.1,0-1.7-0.1-2.3,0c-0.3,0-0.5,0-0.5,0h-0.1c-0.1,0.1-0.1,0.1-0.7,0c0,0-0.1,0-0.2,0h-0.1c-0.1,0-0.2,0-0.3,0
				c-0.4,0-0.8,0-1.2,0c-0.8,0-1.6,0-2,0c-0.8,0-0.9,0-2.2,0c-0.7,0-1.3,0-1.5,0c-1,0-4.5,0-5.7,0c-2.6-0.1-8.6-0.2-10-0.2
				c-0.3,0-1.5,0-2.5,0c-0.4,0-0.8,0-0.9,0c0,0-0.1,0-0.2,0.1c-0.2,0-0.3,0.1-0.4,0.1c-0.1,0.1-0.1,0.1-0.1,0c0-0.1,0-0.1-0.1,0
				c-0.1,0.1-0.5,0.1-0.7,0c-0.1,0-0.2-0.1-0.2,0c-0.1,0.1-0.2,0.1-0.4,0c-0.1,0-0.1,0-0.1,0c0,0.1-0.3,0-0.4-0.1c0,0-0.1,0-0.2,0
				s-0.2,0-0.3,0c-0.1,0-0.3,0-0.3,0c-0.1,0-0.1,0-0.1,0s-0.1-0.1-0.2-0.1s-0.7,0.1-0.8,0.1c-0.1,0-0.6-0.1-0.6-0.1s-0.1,0-0.2,0
				c-0.1,0.1-0.1,0.1-0.2,0s-0.4-0.1-0.9,0c-0.1,0-0.2,0-0.2,0l-0.1-0.1c-0.4,0-1-0.3-0.9-0.5c0,0,0-0.1-0.1-0.2
				c-0.1-0.1-0.1-0.1-0.1-0.1s0-0.1-0.1-0.1s-0.1,0,0-0.1s0-0.4-0.1-0.5C25.3,264.2,25.3,264.1,25.4,264z"/>
		</g>
	</g>
	<g>
		<g>
			<path class="st0" d="M27.3,275.3L27.3,275.3L27.3,275.3c0-0.1,0.1-0.1,0.3-0.2c0.1,0,0.1,0,0.1,0s0,0,0.1,0c0,0,0,0,0.1,0l0,0
				l0,0l0,0H28l0,0l0,0l0,0c0,0,0,0,0.1,0h0.1l0,0l0,0h0.1l0,0h0.1l0,0l0,0l0,0l0,0l0,0l0,0l0,0l0,0l0,0l0,0l0,0h0.1l0,0
				c0,0,0.1,0,0.2,0s0.2,0,0.3,0h0.1h0.1h0.1c0.1,0,0.1,0,0.1,0l0,0c0,0,0,0,0.1,0c1.4,0,3.3,0,5.7,0c5.6,0,13.3,0,22.2,0
				c4.2,0,8,0,8.5,0s0.9,0,1.1,0s0.5,0,0.8,0c0.6,0,7.4,0,7.6,0c0.1,0,2.1,0,4.5,0c6,0,14,0,18.1,0c1.9,0,4,0,4.6,0s1.3,0,1.4,0
				c0.2,0,5.7,0,12.4,0c6.7,0,13.8,0,15.9,0c5,0,8.8,0,11.3,0c0.1,0,0.2,0,0.2,0l0,0c0,0,0,0,0.1,0h0.1c0,0,0,0,0.1,0l0,0l0,0h0.1
				l0,0l0,0c0,0,0,0,0.1,0s0.2,0,0.2,0l0,0h0.1l0,0l0,0c0,0,0,0,0.1,0s0.1,0,0.1,0l0,0l0,0c0.1,0,0.2,0,0.2,0l0,0l0,0l0,0l0,0
				c0,0,0,0,0.1,0h0.1l0,0c0,0,0,0,0.1,0c0,0,0,0,0.1,0h0.1c0,0,0,0,0.1,0s0.1,0,0.1,0l0,0c0,0,0,0,0.1,0l0,0l0,0l0,0
				c0,0,0,0.1,0.1,0.1l0,0c0,0,0,0,0,0.1l0,0l0,0c0,0,0.1,0,0,0.1l0,0c0,0,0,0,0,0.1s0,0.1,0,0.1l0,0l0,0c0,0,0.1,0.1,0,0.1
				c0,0,0,0,0,0.1c0,0.1,0,0.2,0,0.2l0,0l0,0l0,0l0,0l0,0c0,0,0,0,0.1,0c0,0,0,0,0,0.1v0.1c0,0,0,0,0,0.1c0,0,0,0,0,0.1l0,0l0,0
				c0,0,0.1,0.1,0,0.1l0,0c0,0,0,0,0,0.1v0.1l0,0l0,0l0,0l0,0l0,0l0,0l0,0l0,0l0,0l0,0v0.1l0,0v0.1c0,0-0.1,0.1,0,0.1l0,0l0,0l0,0
				l0,0l0,0l0,0l0,0l0,0c0,0-0.1,0.1-0.1,0h-0.1h-0.1l0,0c0,0,0,0-0.1,0c0,0,0,0-0.1,0h-0.2h-0.1h-0.1H145l0,0c0,0,0,0-0.1,0l0,0
				c0,0,0,0-0.1,0h-0.1l0,0h-0.1h-0.1h-0.1l0,0h-0.2c0,0,0,0-0.1,0H144c0,0,0,0-0.1,0h-0.1l0,0l0,0c-1.4,0-111.5,0-114.3,0h-0.1
				c-0.1,0-0.1,0-0.1,0l0,0l0,0c0,0,0,0-0.1,0h-0.1l0,0c0,0,0,0,0,0.1c-0.1,0-0.1,0-0.1,0h-0.1l0,0h-0.1h-0.1c0,0,0,0-0.1,0
				c0,0-0.1,0-0.2,0s-0.1,0-0.1,0l0,0l0,0l0,0l0,0l0,0l0,0h-0.1h-0.1H28l0,0l0,0l0,0l0,0c0,0-0.1,0-0.2,0c0,0,0,0-0.1,0
				c0,0,0,0-0.1,0l0,0l0,0h-0.1l0,0c0,0,0,0-0.1,0h-0.1c0,0,0,0-0.1,0s-0.1,0-0.1-0.1l0,0l0,0l0,0l0,0v-0.1v-0.1v-0.1
				c0-0.1,0-0.1,0-0.1l0,0v-0.1c0-0.1,0-0.1,0-0.1l0,0v-0.2c0,0,0,0,0-0.1V276v-0.1v-0.2c0,0,0-0.1,0-0.2c0-0.2,0-0.3,0-0.3
				C27.4,275.5,27.4,275.4,27.3,275.3C27.4,275.4,27.4,275.3,27.3,275.3z"/>
		</g>
	</g>
	<g>
		<g>
			<path class="st0" d="M26.4,358.9c-0.1-0.1-0.1-0.4,0-0.4c0,0,0.1,0,0.1-0.1s0.3-0.2,1-0.2c0.2,0,0.4-0.1,0.5-0.1
				c0,0,0.1-0.1,0.2-0.1s0.1,0,0.2,0c0,0,0.1,0,0.2,0s0.1,0,0.1,0h0.1c0.1,0.1,0.4,0.1,0.5,0s0.1,0,0,0v0.1l0.1-0.1
				c0-0.1,0.1-0.1,0.2-0.1s0.2,0,0.2,0c0-0.1,0.1,0,0.1,0c0.1,0,0.1,0.1,0.1,0c0.1-0.1,0.4-0.1,0.4,0c0,0,0.1,0,0.2,0s0.2,0,0.3,0
				c0.1,0,0.1,0,0.1-0.1c0,0,0-0.1,0.1-0.1s0.2,0,0.2,0.1c0,0,0,0,0.1,0s0.1,0,0.1,0h0.1c0.1,0,0.1,0,0.1,0c0,0.1,0.1,0.1,0.1,0
				c0,0,0-0.1,0.1-0.1c0.1,0,0.1,0,0-0.1c-0.1,0-0.1-0.1,0-0.1c0.1,0,0.2,0,0.3-0.1c0.1,0,0.1,0,0.1,0s0.3,0.1,0.7,0.1
				c0.5,0,0.7,0,0.9,0.1c0.1,0.1,0.3,0.1,0.5,0.1s0.3,0,0.3,0s0.2,0,0.4,0s0.4,0,0.4,0.1h0.1c-0.5-0.1,3.2-0.1,7.8-0.1
				c1.1,0,2.1,0,2.2,0c0.1,0,0.2,0,0.3,0c0,0,0.1,0,0.2,0c0.1,0,2-0.1,2,0c0,0,0.6,0,1.2,0c1.6,0,3.7,0,4.8,0c0.5,0,1.1,0,1.2,0
				c0.2,0,0.3,0,0.4,0c0,0,0.4,0,1,0s1.4,0,2.3,0c1.8,0,3.6,0,4.2,0c1.4,0,2.4,0,3.1,0c0.4,0,0.5,0,0.5-0.1h0.1
				c0.1,0.1,0.1,0,0.3-0.1c0.1-0.1,0.2-0.1,0.3-0.1c0.1,0,0.1,0,0.2,0s0.1,0,0.1,0c0,0.1,0,0.1,0.1,0c0.1-0.1,0.2-0.1,0.3,0
				c0,0,0.1,0,0.2,0c0,0,0.1-0.1,0.2,0c0,0,0.2,0,0.3-0.1c0.2-0.1,0.7-0.1,0.7-0.1h0.1c0.1-0.1,0.3-0.1,0.2,0c0,0,0,0.1,0.1,0.1
				s0.1,0,0.1,0s0.1-0.1,0.3-0.1c0.2,0,0.3,0,0.4,0.1s0.1,0.1,0.1,0s0-0.1,0-0.1c0.4,0,0.8,0,0.8,0l0.1,0.1c0,0,0,0,0-0.1v-0.1
				c0,0,0.1,0,0.1,0.1c0,0,0.1,0.1,0.2,0c0.1,0,0.2,0,0.2,0h0.1c0,0,0.1,0,0.2,0s0.2,0,0.2-0.1c0-0.1,0.2-0.1,0.3,0
				c0,0,0.1,0.1,0.3,0.1c0.3,0,0.3,0.1,0.2,0.1c-0.1,0-0.1,0.1,0,0.1s0.1,0,0.2-0.1s0.1,0,0.1,0.1c0,0.1,0.1,0.1,0.1,0.1
				c0.1,0,0.1,0,0.1,0c-0.1,0.1,0.1,0.2,0.2,0.2s0.1,0,0.1,0.1c-0.1,0.1-0.1,0.1,0.1,0.2c0.1,0,0.1,0,0,0.1s-0.1,0.1,0,0.1
				c0.2,0,0.2,0.1,0,0.2c-0.1,0.1-0.1,0.1,0,0.1s0.1,0.2,0.1,0.3c0,0.2,0,0.3,0.1,0.3s0.1,0.1,0,0.1c0,0.1,0,0.1,0,0.1
				c0.1,0,0.2,0.3,0.1,0.4c-0.1,0-0.1,0.1,0,0.2c0.1,0.2,0.1,0.6,0.1,0.8c0,0.1,0,0.1,0,0.2c0.1,0,0.1,0,0,0.1c-0.1,0-0.1,0.1,0,0.1
				c0.1,0.1,0.1,0.1,0,0.1h-0.1c0,0.1,0.1,0.1,0.2,0.1c0,0,0,0,0.1,0.4c0,0.2,0,0.4,0.1,0.4c0,0.1,0,0.2-0.1,0.2
				c-0.1,0.1-0.1,0.1-0.1,0.2c0,0.1,0,0.1-0.1,0.1s-0.1,0,0,0.1c0.2,0.1,0.2,0.5,0,0.5c-0.1,0-0.1,0,0,0.1s0,0.1,0,0.2
				c-0.1,0.1-0.1,0.2,0,0.3c0,0.1,0,0.2,0,0.2s0,0,0,0.1c0.1,0.1,0.1,0.1,0.1,0.2c0,0,0,0-0.1,0c0-0.1-0.1-0.1-0.1,0
				c-0.1,0.1,0,0.1,0.1,0.1s0.1,0.1,0.1,0.1l-0.1,0.1v0.1c0,0,0,0.1,0,0.2s0,0.2-0.1,0.2c0,0.1,0,0.1,0,0.2s-0.1,0.3-0.1,0.3
				c-0.1,0-0.2,0.3-0.1,0.3c0,0,0,0.1-0.1,0.1s-0.1,0-0.1,0.1c0,0,0,0.1-0.1,0c-0.1,0-0.1,0-0.1,0s0,0-0.1,0c0,0-0.1,0,0,0.1
				c0,0.1,0,0.1-0.1,0c-0.1,0-0.1,0-0.1,0c0,0.1-0.2,0.2-0.4,0.1c-0.1-0.1-0.3,0-0.3,0c0,0.1-0.4,0-0.5,0h-0.1c0,0-0.1,0.1-0.2,0.1
				c0,0-0.1,0-0.2,0c-0.2,0.1-0.6,0.1-0.6,0c0-0.1-0.2,0-0.4,0c-0.1,0-0.2,0.1-0.4,0.1c-0.2,0-0.3,0-0.3,0h-0.1c-0.1,0-0.1,0-0.2,0
				h-0.1c0,0-0.1,0-0.2,0c-0.2,0-0.2,0-0.3,0c0-0.1-0.1-0.1-0.1,0c-0.1,0-0.2,0.1-0.3,0.1c-0.1,0-0.2,0-0.2,0
				c-0.1,0-0.3-0.1-0.3-0.1s0-0.1-0.1,0c-0.1,0.1-0.6,0.1-0.6,0c0,0-0.1-0.1-0.2-0.1s-0.2-0.1-0.2-0.1s-0.1,0-0.2-0.1
				c-0.1,0-0.2-0.1-0.3-0.1c-0.1-0.1-0.1-0.1-0.1,0c0,0.1-0.1,0.1-0.2,0c0,0-0.1,0-0.2,0c-0.2,0-0.4,0-0.6,0c-0.9,0-2.1,0-3.6,0
				c-2.9,0-6.8,0-10.8,0c-3.9,0-7.8,0-10.8,0.1c-1.5,0-2.8,0-3.7,0c-1.1,0-1.1,0-1.2,0c-0.1,0-0.3,0-0.5,0s-0.3,0-0.2,0
				s0,0.1-0.1,0.1s-0.1,0.1-0.2,0c0,0-0.1,0-0.3,0s-0.3,0-0.3-0.1c-0.1-0.1-0.1-0.1-0.1,0.1c0,0.1,0,0.1-0.1,0.2
				c-0.2,0-0.4,0-0.3-0.1c0.1-0.1-0.2,0-0.3,0.1c-0.1,0.1-0.1,0.1-0.1,0c0-0.1-0.2-0.1-0.3-0.1c-0.1,0.1-0.3,0.1-0.3,0
				c0-0.1,0-0.1-0.2,0c-0.1,0-0.3,0.1-0.5,0.1s-0.3,0-0.4,0.1h-0.1c0,0-0.1-0.1-0.1,0c-0.1,0-0.1,0-0.1,0s0-0.1-0.1-0.1
				s-0.1,0-0.1,0.1c0,0-0.1,0-0.2,0s-0.2,0-0.2,0c-0.1,0.1-0.2,0-0.2-0.1c0,0-0.2,0-0.4,0h-0.1c0,0,0,0-0.1,0c0,0-0.1,0-0.1-0.1
				c0-0.1,0-0.1-0.1,0c-0.1,0.1-0.5,0-0.7,0c-0.1,0-0.2,0-0.3,0.1c-0.1,0.1-0.2,0.1-0.2,0h-0.1h-0.1c0-0.1-0.3,0-0.4,0h-0.1
				c0-0.1-0.1-0.1-0.2-0.1s-0.2,0-0.2,0s-0.1-0.1-0.3-0.2c-0.2-0.1-0.2-0.1-0.2-0.3c0-0.1,0-0.1-0.1-0.1s-0.1,0-0.1-0.1s0-0.1,0-0.1
				s0-0.1,0-0.2s0-0.2,0-0.2s-0.1-0.2-0.1-0.3s-0.1-0.4-0.1-0.5c-0.1-0.2-0.1-0.2,0-0.3c0-0.1,0.1-0.1,0.1-0.1s0-0.2-0.1-0.4
				c0-0.2-0.1-0.4-0.1-0.4c0-0.1,0-0.1,0-0.1c0.1,0,0.1-0.6,0-0.6c0,0-0.1-0.1-0.1-0.2s0-0.3-0.1-0.3c0-0.1,0-0.2,0-0.2
				c0.1-0.1,0.1-0.6,0-0.6c0,0,0-0.3,0-0.6c0-0.7-0.1-1-0.1-1.1c0,0,0-0.2,0-0.3C26.4,359,26.4,358.9,26.4,358.9z"/>
		</g>
	</g>
	<g>
		<g>
			<path class="st0" d="M27.3,374.8L27.3,374.8L27.3,374.8c0-0.1,0.1-0.1,0.3-0.2c0.1,0,0.1,0,0.1,0s0,0,0.1,0c0,0,0,0,0.1,0l0,0
				l0,0l0,0H28l0,0l0,0l0,0c0,0,0,0,0.1,0h0.1l0,0l0,0h0.1l0,0h0.1l0,0l0,0l0,0l0,0l0,0l0,0l0,0l0,0l0,0l0,0l0,0h0.1l0,0
				c0,0,0.1,0,0.2,0s0.2,0,0.3,0h0.1h0.1h0.1c0.1,0,0.1,0,0.1,0l0,0c0,0,0,0,0.1,0c1.6,0,3.9,0,6.8,0c6.7,0,15.8,0,26.4,0
				c5,0,9.6,0,10.1,0s1.1,0,1.3,0c0.2,0,0.6,0,0.9,0c0.7,0,8.8,0,9.1,0c0.1,0,2.5,0,5.4,0c7.2,0,16.6,0,21.6,0c2.3,0,4.8,0,5.5,0
				s1.5,0,1.7,0s6.8,0,14.7,0s16.4,0,18.9,0c5.9,0,10.4,0,13.4,0c0.1,0,0.2,0,0.2,0l0,0c0,0,0,0,0.1,0h0.1c0,0,0,0,0.1,0l0,0l0,0
				h0.1l0,0l0,0c0,0,0,0,0.1,0s0.2,0,0.2,0l0,0h0.1l0,0l0,0c0,0,0,0,0.1,0s0.1,0,0.1,0l0,0l0,0c0.1,0,0.2,0,0.2,0l0,0l0,0l0,0l0,0
				c0,0,0,0,0.1,0h0.1l0,0c0,0,0,0,0.1,0c0,0,0,0,0.1,0h0.1c0,0,0,0,0.1,0s0.1,0,0.1,0l0,0c0,0,0,0,0.1,0l0,0l0,0l0,0
				c0,0,0,0.1,0.1,0.1l0,0c0,0,0,0,0,0.1l0,0l0,0c0,0,0.1,0,0,0.1l0,0c0,0,0,0,0,0.1s0,0.1,0,0.1l0,0l0,0c0,0,0.1,0.1,0,0.1
				c0,0,0,0,0,0.1s0,0.2,0,0.2l0,0l0,0l0,0l0,0l0,0c0,0,0,0,0.1,0c0,0,0,0,0,0.1v0.1c0,0,0,0,0,0.1c0,0,0,0,0,0.1l0,0l0,0
				c0,0,0.1,0.1,0,0.1l0,0c0,0,0,0,0,0.1v0.1l0,0l0,0l0,0l0,0l0,0l0,0l0,0l0,0l0,0l0,0v0.1l0,0v0.1c0,0-0.1,0.1,0,0.1l0,0l0,0l0,0
				l0,0l0,0l0,0l0,0l0,0c0,0-0.1,0.1-0.1,0h-0.1h-0.1l0,0c0,0,0,0-0.1,0c0,0,0,0-0.1,0H167h-0.1h-0.1h-0.1l0,0c0,0,0,0-0.1,0l0,0
				c0,0,0,0-0.1,0h-0.1l0,0h-0.1h-0.1h-0.1l0,0h-0.2c0,0,0,0-0.1,0h-0.1c0,0,0,0-0.1,0h-0.1l0,0l0,0c-1.7,0-132.5,0-135.8,0h-0.1
				c-0.1,0-0.1,0-0.1,0l0,0l0,0c0,0,0,0-0.1,0h-0.1l0,0c0,0,0,0,0,0.1c-0.1,0-0.1,0-0.1,0h-0.1l0,0H29h-0.1c0,0,0,0-0.1,0
				c0,0-0.1,0-0.2,0s-0.1,0-0.1,0l0,0l0,0l0,0l0,0l0,0l0,0h-0.1h-0.1h-0.1l0,0l0,0l0,0l0,0c0,0-0.1,0-0.2,0c0,0,0,0-0.1,0
				c0,0,0,0-0.1,0l0,0l0,0h-0.1l0,0c0,0,0,0-0.1,0h-0.1c0,0,0,0-0.1,0s-0.1,0-0.1-0.1l0,0l0,0l0,0l0,0v-0.1v-0.1v-0.1
				c0-0.1,0-0.1,0-0.1l0,0V376c0-0.1,0-0.1,0-0.1l0,0v-0.2c0,0,0,0,0-0.1v-0.1v-0.1v-0.2c0,0,0-0.1,0-0.2
				C27.3,374.8,27.3,374.7,27.3,374.8C27.4,375,27.4,374.9,27.3,374.8C27.4,374.9,27.4,374.8,27.3,374.8z"/>
		</g>
	</g>
	<g>
		<g>
			<path class="st0" d="M27.3,382.5v-0.1l0,0c0,0,0.1,0,0.3-0.1c0.1,0,0.1,0,0.1,0s0,0,0.1,0c0,0,0,0,0.1,0l0,0l0,0l0,0H28l0,0l0,0
				l0,0c0,0,0,0,0.1,0h0.1l0,0l0,0h0.1l0,0h0.1l0,0l0,0l0,0l0,0l0,0l0,0l0,0l0,0l0,0l0,0l0,0h0.1l0,0c0,0,0.1,0,0.2,0s0.2,0,0.3,0
				h0.1h0.1h0.1c0.1,0,0.1,0,0.1,0l0,0c0,0,0,0,0.1,0c1.5,0,3.6,0,6.1,0c6,0,14.3,0,23.9,0c4.6,0,8.7,0,9.1,0c0.5,0,1,0,1.2,0
				s0.5,0,0.8,0c0.6,0,7.9,0,8.2,0c0.1,0,2.3,0,4.9,0c6.5,0,15,0,19.5,0c2.1,0,4.3,0,5,0s1.3,0,1.5,0s6.2,0,13.4,0s14.9,0,17.1,0
				c5.4,0,9.4,0,12.2,0c0.1,0,0.2,0,0.2,0l0,0c0,0,0,0,0.1,0h0.1c0,0,0,0,0.1,0l0,0l0,0h0.1l0,0l0,0c0,0,0,0,0.1,0s0.2,0,0.2,0l0,0
				h0.1l0,0l0,0c0,0,0,0,0.1,0s0.1,0,0.1,0l0,0l0,0c0.1,0,0.2,0,0.2,0l0,0l0,0l0,0l0,0c0,0,0,0,0.1,0h0.1l0,0c0,0,0,0,0.1,0
				c0,0,0,0,0.1,0h0.1c0,0,0,0,0.1,0s0.1,0,0.1,0l0,0c0,0,0,0,0.1,0l0,0l0,0l0,0c0,0,0,0.1,0.1,0.1l0,0c0,0,0,0,0,0.1l0,0l0,0
				c0,0,0.1,0,0,0.1l0,0c0,0,0,0,0,0.1c0,0.1,0,0.1,0,0.1l0,0l0,0c0,0,0.1,0.1,0,0.1c0,0,0,0,0,0.1s0,0.2,0,0.2l0,0l0,0l0,0l0,0l0,0
				c0,0,0,0,0.1,0c0,0,0,0,0,0.1v0.1c0,0,0,0,0,0.1c0,0,0,0,0,0.1l0,0l0,0c0,0,0.1,0.1,0,0.1l0,0c0,0,0,0,0,0.1v0.1l0,0l0,0l0,0l0,0
				l0,0l0,0l0,0l0,0l0,0l0,0v0.1l0,0v0.1c0,0-0.1,0.1,0,0.1l0,0l0,0l0,0l0,0l0,0l0,0l0,0l0,0c0,0-0.1,0.1-0.1,0h-0.1h-0.1l0,0
				c0,0,0,0-0.1,0c0,0,0,0-0.1,0h-0.2H154h-0.1h-0.1l0,0c0,0,0,0-0.1,0l0,0c0,0,0,0-0.1,0h-0.1l0,0h-0.1h-0.1h-0.1l0,0H153
				c0,0,0,0-0.1,0h-0.1c0,0,0,0-0.1,0h-0.1l0,0l0,0c-1.5,0-119.9,0-123,0h-0.1c-0.1,0-0.1,0-0.1,0l0,0l0,0c0,0,0,0-0.1,0h-0.1l0,0
				c0,0,0,0,0,0.1c-0.1,0-0.1,0-0.1,0H29l0,0h-0.1h-0.1c0,0,0,0-0.1,0c0,0-0.1,0-0.2,0s-0.1,0-0.1,0l0,0l0,0l0,0l0,0l0,0l0,0h-0.1
				h-0.1h-0.1l0,0l0,0l0,0l0,0c0,0-0.1,0-0.2,0c0,0,0,0-0.1,0c0,0,0,0-0.1,0l0,0l0,0h-0.1l0,0c0,0,0,0-0.1,0h-0.1c0,0,0,0-0.1,0
				s-0.1,0-0.1-0.1l0,0l0,0l0,0l0,0v-0.1V384v-0.1c0-0.1,0-0.1,0-0.1l0,0v-0.1c0-0.1,0-0.1,0-0.1l0,0v-0.2c0,0,0,0,0-0.1v-0.1v-0.1
				v-0.2c0,0,0-0.1,0-0.2c0-0.2,0-0.3,0-0.3C27.4,382.6,27.4,382.6,27.3,382.5C27.4,382.5,27.4,382.5,27.3,382.5z"/>
		</g>
	</g>
	<path class="st0" d="M13.3,216v29.2H189V216H13.3z M32.4,226.4c-1.7,2.9-2.9,5.7-3.5,9.1c-0.1,0.3-0.1,0.4-0.1,0.7
		c0,0.2,0,0.3,0,0.5c0,0.4-0.1,0.6-0.5,0.6c-0.3,0-0.7-0.2-1-0.4c-0.1-0.1-0.3-0.3-0.3-0.5c0-0.1,0.1-0.6,0.1-0.8
		c0.8-3.2,1.7-6.2,3.2-9.2c0-0.1,0-0.1-0.1-0.1c-0.3,0-1,0.1-1.5,0.1c-0.4,0-0.9-0.1-1.1-0.3c0,0,0-0.1,0-0.6s0.3-0.7,0.4-0.7
		c0.2,0,0.2,0.1,1.5,0.1c1.9,0,3.8-0.6,5.8-0.6c0.7,0,1.8,0.8,1.8,1c0,0.4-0.1,0.6-0.3,0.6c-0.1,0-0.3,0.2-0.6,0.2
		c-0.2,0-0.1-0.1-0.4-0.3c-0.4-0.1-0.4-0.2-0.6-0.2c-1.1,0-2.1,0.1-3,0.3c0.1,0.1,0.1,0.2,0.1,0.2C32.4,226.3,32.4,226.4,32.4,226.4
		z M39,226.2c-0.1,0.1-0.1,0.1-0.3,0.5c-1.1,2.9-2.1,5.9-3.1,9.1c0,0.1,0,0.1,0,0.2s0,0.2,0,0.3c0,0.3-0.1,0.7-0.4,1.2
		c0,0.1-0.2,0.1-0.3,0.1s-0.2,0.1-0.2,0.2c-0.1,0.1-0.1,0.2-0.2,0.2c-0.2,0-0.2-0.2-0.3-0.2c-0.2,0-0.5-0.3-0.6-0.3
		s-0.1-0.1-0.1-0.1c0-0.1,0.2-1.2,0.4-1.5c0.1-0.1,0.1-0.2,0.2-0.5c0.8-3.2,1.8-5.8,2.8-8.9c0.2-0.6,0.4-0.6,0.8-2
		c0.1-0.2,0.4-0.2,0.8-0.2c0.4,0,1.1,0.3,1.1,0.6C39.6,225.5,39.5,225.8,39,226.2z M45.4,226.4c-1.7,2.9-2.9,5.7-3.5,9.1
		c-0.1,0.3-0.1,0.4-0.1,0.7c0,0.2,0,0.3,0,0.5c0,0.4-0.1,0.6-0.5,0.6c-0.3,0-0.7-0.2-1-0.4c-0.1-0.1-0.3-0.3-0.3-0.5
		c0-0.1,0.1-0.6,0.1-0.8c0.8-3.2,1.7-6.2,3.2-9.2c0-0.1,0-0.1-0.1-0.1c-0.3,0-1,0.1-1.5,0.1c-0.4,0-0.9-0.1-1.1-0.3c0,0,0-0.1,0-0.6
		s0.3-0.7,0.4-0.7c0.2,0,0.2,0.1,1.5,0.1c1.9,0,3.8-0.6,5.8-0.6c0.7,0,1.8,0.8,1.8,1c0,0.4-0.1,0.6-0.3,0.6c-0.1,0-0.3,0.2-0.6,0.2
		c-0.2,0-0.1-0.1-0.4-0.3c-0.4-0.1-0.4-0.2-0.6-0.2c-1.1,0-2.1,0.1-3,0.3c0.1,0.1,0.1,0.2,0.1,0.2C45.5,226.3,45.5,226.4,45.4,226.4
		z M56.2,235.9c-0.1,0.1-0.2,0.2-0.8,0.2c-0.2,0-0.2,0-0.4,0c-2,0.5-3.7,1.5-5.9,1.5c-0.8,0-1.3-0.7-1.6-1.2
		c-0.1-0.1-0.1-0.2-0.1-0.3c0-0.3,0.1-0.6,0.3-1.1c0.1-0.3,0-0.3,0.3-1.1c1.2-3.5,2.9-6.8,4.4-10.1c0.1-0.2,0.5-0.2,0.6-0.2
		c0.2,0,0.2,0.2,0.6,0.3c0.2,0.1,0.6,0.3,0.6,0.4c0,0.5-0.3,0.7-0.3,1c0,0.1,0,0.1-0.1,0.2c-0.4,0.3-0.7,0.9-1,1.7
		c-0.2,0.4-0.3,0.6-0.5,1.1c-1,2.2-1.9,4.5-2.7,6.8c0,0.1-0.1,0.3-0.1,0.4c0,0.2,0.1,0.4,0.3,0.4c0.1,0,0.3,0,0.8-0.2
		c1.4-0.4,2.8-0.9,4-1.4c0.1,0,0.2,0,0.4,0s0.8,0.2,1.1,0.5c0.1,0.1,0.1,0.1,0.1,0.2s0.1,0.1,0.1,0.3
		C56.2,235.7,56.2,235.8,56.2,235.9z M68.3,225.3c-0.2,0-0.3,0.1-0.5,0.1s-0.3-0.2-0.7-0.2c-1.9,0-3.6,0.5-5,0.9
		c-0.1,0-0.2,0.1-0.2,0.2c-0.4,1-0.7,1.8-1.1,2.8c0,0.1,0,0.1,0.1,0.1c0.9-0.3,1.9-0.8,2.9-0.8c0.5,0,1,0.1,1.5,0.4
		c0.2,0.1,0.3,0.4,0.3,0.6c0,0.2-0.8,0.4-1,0.4s-0.5-0.1-0.7-0.1c-1.2,0-2.4,0.6-3.4,0.9c-0.2,0-0.5,0.1-0.6,0.3
		c-0.9,1.9-1.5,3.4-1.5,4.4c0,0.3,0.3,0.7,0.5,0.7c0.4,0,1.1-0.1,1.6-0.4c0.6-0.3,1-0.4,1.4-0.6c1.1-0.5,2-1.4,3.2-1.4
		c0.1,0,0.2,0,0.2,0.1c0.1,0.1,0.6,0.4,0.6,0.6c0,0.1,0,0.2-0.1,0.3c-0.1,0-0.3,0.1-0.4,0.3c-0.2,0.2-0.4,0.3-0.5,0.4
		c-1.8,1-3.8,2-6.5,2c-0.1,0-1.2-0.3-1.5-0.8c-0.1-0.2-0.2-0.8-0.2-1c0-1.6,0.7-3.1,1.3-4.5c-0.1-0.1-0.3-0.3-0.3-0.6
		c0-0.1,0-0.2,0-0.2c0.1-0.1,0.1-0.1,0.6-0.2c0.2,0,0.2-0.1,0.3-0.3c0.6-1.2,0.8-1.9,1-2.5c0-0.1,0-0.1-0.1-0.1s-0.5,0.2-0.7,0.2
		c-0.1,0-0.3,0-0.4-0.1c-0.3-0.1-0.5-0.8-0.5-1c0-0.1,0-0.1,0.1-0.1c1.3-0.3,2.4-0.8,3.6-1.2c0.8-0.3,3.4-1,5.4-1
		c0.2,0,0.6,0.1,0.7,0.1c0.5,0.2,1,0.6,1,1C68.6,225.2,68.5,225.3,68.3,225.3z"/>
	<g>
		<g>
			<path class="st0" d="M190.3,418h0.1l0,0c0,0,0,0.1,0.1,0.3c0,0.1,0,0.1,0,0.1s0,0,0,0.1c0,0,0,0,0,0.1l0,0l0,0l0,0v0.1l0,0l0,0
				l0,0c0,0,0,0,0,0.1v0.1l0,0l0,0v0.1l0,0v0.1l0,0l0,0l0,0l0,0l0,0l0,0l0,0l0,0l0,0l0,0l0,0v0.1l0,0c0,0,0,0.1,0,0.2
				c0,0.1,0,0.2,0,0.3v0.1v0.1v0.1c0,0.1,0,0.1,0,0.1l0,0c0,0,0,0,0,0.1c0,8.6,0,20.6,0,35.5c0,35,0,83.3,0,138.8c0,1.7,0,3.3,0,4.9
				c0,0.8,0,1.5,0,2.3v0.3v0.1v0.1c0,0,0,0-0.1,0H190h-1.2c-1,0-1.9,0-2.8,0c-3.2,0-6.3,0-9.3,0c-6,0-11.6,0-16.4,0
				c-9.6,0-16.3,0-17.6,0c-2.9,0-5.7,0-6.8,0c-1,0-3.1,0-4.7,0c-3.5,0-46.5,0-47.8,0c-0.5,0-13.2,0-28.2,0c-7.4,0-15.3,0-22.3,0
				c-4.3,0-8.5,0-12.8,0c-2.5,0-5,0-7.5,0c-0.1,0-0.3,0-0.4,0v-0.4V601v-1.5v-1.6c0-1.1,0-2.1,0-3.2c0-8.5,0-16.9,0-24.8
				c0-15.9,0-30.2,0-40.7c0-12,0-25.1,0-29s0-7.8,0-8.8c0-0.5,0-9.4,0-23.5c0-7,0-15.3,0-24.5c0-4.6,0-9.4,0-14.3c0-2.5,0-5,0-7.5
				c0-1.6,0-3.2,0-4.7v-0.5v-0.2v-0.1h0.1h0.9H15c0.6,0,1.3,0,2,0c41.7,0,86.5,0,99.3,0c31.1,0,54.6,0,70.6,0c0.1,0,0.2,0,0.2,0l0,0
				c0,0,0,0,0.1,0h0.1c0,0,0,0,0.1,0l0,0l0,0h0.1l0,0l0,0c0,0,0,0,0.1,0s0.2,0,0.2,0l0,0h0.1l0,0l0,0c0,0,0,0,0.1,0s0.1,0,0.1,0l0,0
				l0,0c0.1,0,0.2,0,0.2,0l0,0l0,0l0,0l0,0c0,0,0,0,0.1,0h0.1l0,0c0,0,0,0,0.1,0c0,0,0,0,0.1,0h0.1c0,0,0,0,0.1,0s0.1,0,0.1,0l0,0
				c0,0,0,0,0.1,0l0,0l0,0l0,0c0,0,0,0.1,0.1,0.1l0,0c0,0,0,0,0,0.1l0,0l0,0c0,0,0.1,0,0,0.1l0,0c0,0,0,0,0,0.1s0,0.1,0,0.1l0,0l0,0
				c0,0,0.1,0.1,0,0.1c0,0,0,0,0,0.1s0,0.2,0,0.2l0,0l0,0l0,0l0,0l0,0c0,0,0,0,0.1,0c0,0,0,0,0,0.1v0.1c0,0,0,0,0,0.1c0,0,0,0,0,0.1
				l0,0l0,0c0,0,0.1,0.1,0,0.1l0,0c0,0,0,0,0,0.1v0.1l0,0l0,0l0,0l0,0l0,0l0,0l0,0l0,0l0,0l0,0v0.1l0,0v0.1c0,0-0.1,0.1,0,0.1l0,0
				l0,0l0,0l0,0l0,0l0,0l0,0l0,0c0,0-0.1,0.1-0.1,0h-0.1H189l0,0c0,0,0,0-0.1,0c0,0,0,0-0.1,0h-0.2h-0.1h-0.1h-0.1l0,0
				c0,0,0,0-0.1,0l0,0c0,0,0,0-0.1,0H188l0,0h-0.1h-0.1h-0.1l0,0h-0.2c0,0,0,0-0.1,0h-0.1c0,0,0,0-0.1,0h-0.1l0,0l0,0c0,0,0,0-0.1,0
				c-2.4,0-5.8,0-10,0c-22.9,0-54.9,0-92.9,0c-19,0-39.5,0-61.1,0c-2.6,0-5.3,0-8,0c-0.1,0-0.2,0-0.2,0.1v1.5c0,1.4,0,2.7,0,4.1
				c0,5.5,0,11.1,0,16.7c0,11.3,0,22.8,0,34.4c0,23.3,0,47.3,0,71.6c0,12.1,0,24.3,0,36.6v9.2v4.6v2.1v0.1h0.1c6,0,12,0,18,0
				c44.1,0,87.8,0,128.6,0c5.1,0,10.2,0,15.2,0c2.5,0,5,0,7.5,0c1.2,0,2.5,0,3.7,0h0.3h0.1v-0.8c0-9.8,0-19.4,0-28.8
				c0-18.7,0-36.4,0-52.7c0-32.7,0-60.2,0-80.1c0-7.1,0-12.8,0-17v-0.1v-0.1c0-0.1,0-0.1,0-0.1l0,0l0,0c0,0,0,0,0-0.1v-0.1l0,0
				c0,0,0,0-0.1,0c0-0.1,0-0.1,0-0.1v-0.1l0,0v-0.1v-0.1c0,0,0,0,0-0.1c0,0,0-0.1,0-0.2c0-0.1,0-0.1,0-0.1l0,0l0,0l0,0l0,0l0,0l0,0
				v-0.1v-0.1V418l0,0l0,0l0,0l0,0c0,0,0-0.1,0-0.2c0,0,0,0,0-0.1c0,0,0,0,0-0.1l0,0l0,0v-0.1l0,0c0,0,0,0,0-0.1v-0.1c0,0,0,0,0-0.1
				s0-0.1,0.1-0.1l0,0l0,0l0,0l0,0h0.1h0.1h0.1c0.1,0,0.1,0,0.1,0l0,0h0.1c0.1,0,0.1,0,0.1,0l0,0h0.2c0,0,0,0,0.1,0h0.1h0.1h0.2
				c0,0,0.1,0,0.2,0c0.2,0,0.3,0,0.3,0C190.2,418,190.2,418,190.3,418L190.3,418z"/>
		</g>
	</g>
	<g>
		<g>
			<path class="st0" d="M86.4,540c0,0,0-0.2,0-0.4c0-0.2,0-0.3,0-0.3v-0.1c0-0.1,0-0.1,0-0.2c0.1-0.1,0.1-0.2,0-0.1c0,0-0.1,0,0,0
				l0.1-0.1c0.1,0,0.1,0,0-0.2c0-0.1,0-0.2,0-0.2c0-0.1,0.1-0.2,0.1-0.3s0-0.2,0.1-0.3c0-0.1,0-0.2,0-0.3s0-0.1,0-0.1s0,0,0-0.1
				c0-0.1-0.1-0.1,0-0.1c0.1-0.1,0.1-0.7,0-0.7l0,0c0.1,0,0.1,0,0.1-0.2c0-0.1,0-0.2,0-0.3s0-0.1,0-0.2c-0.1-0.1-0.1-0.1,0-0.1
				c0,0,0.1-0.1,0-0.2c0-0.1,0-0.2,0-0.3c0,0,0.1-0.1,0-0.1c0,0,0,0,0-0.1c0.1-0.1,0.1-0.1,0-0.1s-0.1-0.1,0-0.1
				c0,0,0.1-0.2,0.1-0.4c0-0.2,0-0.3,0.1-0.3c0,0,0.1-0.1,0.1-0.2c0-0.1,0-0.1-0.1-0.1c-0.1,0.1-0.1,0.1,0,0c0-0.1,0.1-0.1,0.1-0.1
				s0,0,0-0.1c0-0.1,0-0.2,0.1-0.3c0.2-0.3,0.3-0.4,0.9-0.4c0.2,0,0.3,0,0.3-0.1c0,0,0.1,0,0.2,0s0.2,0,0.3,0c0.1,0,0.3,0,0.4,0
				c0.2,0.1,0.3,0.1,0.3,0c0-0.1,0.1-0.1,0.1,0c0,0,0.1,0.1,0.1,0h0.1c0,0,0.1,0.1,0.2,0c0.1,0,0.2,0,0.2,0s0.6,0,0.7,0h0.1
				c0,0,0.2,0,0.5,0s0.5,0,0.5,0s0.1,0,0.6-0.1c0.1,0,0.3,0,0.3,0h0.1h0.1c0,0,0.2,0,0.3,0c0.2,0,0.3,0,0.3,0c0,0.1,0.3,0.1,0.3,0
				v-0.1c-0.1,0-0.1,0,0,0c0,0,0.1,0,0.1,0.1c0,0.1,0.1,0.1,0.2,0c0.1,0,0.2,0,0.2,0c0.1,0,0.2,0.1,0.4,0.1c-0.1,0,0.9,0,2,0
				s2.5,0,4.2,0c5,0.1,9.4,0.1,12.2,0.1c3,0,7.3,0.1,15.2,0.1c3.1,0,6.7,0,8,0.1c1.3,0,2.3,0,2.4,0c0,0,0.2,0,0.5,0s0.6,0,0.9,0
				c0.2,0,1,0,1.8,0s1.5,0,1.5,0s0.1,0,0.2,0c0.1,0,0.2,0,0.2,0s0.1,0,0.2,0c0.1,0,0.1,0.1,0.2,0c0.1,0,0.4,0,0.8,0.1
				c0.1,0,0.2,0,0.3,0c0.2,0,0.2,0,0.3,0.1c0.1,0.1,0.2,0.1,0.3,0.1c0.3,0,0.8,0.6,0.8,0.8c0,0,0,0.2,0.1,0.2
				c0.1,0.1,0.1,0.2,0.1,0.2v0.1c0,0,0,0.1,0,0.3c-0.1,0.4-0.1,1,0,1.1c0,0.1,0,0.1,0,0.2c0,0-0.1,0.3,0,0.6c0,0.3,0,0.6,0,0.6
				c0,0.1,0,0.2,0,0.2c0,0.1,0,0.2,0,0.3s-0.1,0.5-0.1,0.9c0,0.4,0,0.8-0.1,0.8c0,0.1,0,0.1,0,0.2c0.1,0.1,0.1,0.6,0,0.8
				c0,0.1,0,0.2-0.1,0.3c-0.1,0.5-0.3,0.7-1.2,0.7c-0.2,0-0.3,0-0.3,0.1c0,0-0.1,0-0.3,0s-0.4,0-0.6,0c-0.2,0-0.3,0-0.4,0
				c-0.1,0-1.7-0.1-2.3,0c-0.3,0-0.5,0-0.5,0h-0.1c-0.1,0.1-0.1,0.1-0.7,0c0,0-0.1,0-0.2,0h-0.1c-0.2,0-0.3,0-0.5,0
				c-0.7,0-1.4,0-2.2,0c-1.5,0-2.9,0-3.6,0c-1.4,0-1.6,0-4,0c-1.2,0-2.4,0-2.6,0c-1.7,0-8.1,0-10.1,0c-4.6,0-15.5-0.1-17.9-0.2
				c-0.6,0-2.6,0-4.4,0c-0.4,0-0.8,0-0.9,0c0,0-0.1,0-0.2,0.1c-0.2,0-0.3,0.1-0.4,0.1c-0.1,0.1-0.1,0.1-0.1,0c0-0.1,0-0.1-0.1,0
				c-0.1,0.1-0.5,0.1-0.7,0c-0.1,0-0.2-0.1-0.2,0c-0.1,0.1-0.2,0.1-0.4,0c-0.1,0-0.1,0-0.1,0c0,0.1-0.3,0-0.4-0.1c0,0-0.1,0-0.2,0
				s-0.2,0-0.3,0c-0.1,0-0.3,0-0.3,0c-0.1,0-0.1,0-0.1,0s-0.1-0.1-0.2-0.1s-0.7,0.1-0.8,0.1c-0.1,0-0.6-0.1-0.6-0.1s-0.1,0-0.2,0
				c-0.1,0.1-0.1,0.1-0.2,0c-0.1-0.1-0.4-0.1-0.9,0c-0.1,0-0.2,0-0.2,0l-0.1-0.1c-0.4,0-1-0.3-0.9-0.5c0,0,0-0.1-0.1-0.2
				c-0.1-0.1-0.1-0.1-0.1-0.1s0-0.1-0.1-0.1s-0.1,0,0-0.1c0.1-0.1,0-0.4-0.1-0.5C86.3,540.2,86.3,540.1,86.4,540z"/>
		</g>
	</g>
	<g>
		<g>
			<path class="st0" d="M87.3,551.3L87.3,551.3L87.3,551.3c0-0.1,0.1-0.1,0.3-0.2c0.1,0,0.1,0,0.1,0s0,0,0.1,0c0,0,0,0,0.1,0l0,0
				l0,0l0,0H88l0,0l0,0l0,0c0,0,0,0,0.1,0h0.1l0,0l0,0h0.1l0,0h0.1l0,0l0,0l0,0l0,0l0,0l0,0l0,0l0,0l0,0l0,0l0,0h0.1l0,0
				c0,0,0.1,0,0.2,0s0.2,0,0.3,0h0.1h0.1h0.1c0.1,0,0.1,0,0.1,0l0,0c0,0,0,0,0.1,0c0.8,0,1.9,0,3.3,0c3.2,0,7.7,0,12.8,0
				c2.5,0,4.6,0,4.9,0s0.5,0,0.6,0s0.3,0,0.4,0c0.4,0,4.2,0,4.4,0c0.1,0,1.2,0,2.6,0c3.5,0,8.1,0,10.5,0c1.1,0,2.3,0,2.7,0
				s0.7,0,0.8,0s3.3,0,7.2,0s8,0,9.2,0c2.9,0,5.1,0,6.6,0c0.1,0,0.2,0,0.2,0l0,0c0,0,0,0,0.1,0h0.1c0,0,0,0,0.1,0l0,0l0,0h0.1l0,0
				l0,0c0,0,0,0,0.1,0s0.2,0,0.2,0l0,0h0.1l0,0l0,0c0,0,0,0,0.1,0s0.1,0,0.1,0l0,0l0,0c0.1,0,0.2,0,0.2,0l0,0l0,0l0,0l0,0
				c0,0,0,0,0.1,0h0.1l0,0c0,0,0,0,0.1,0c0,0,0,0,0.1,0h0.1c0,0,0,0,0.1,0s0.1,0,0.1,0l0,0c0,0,0,0,0.1,0l0,0l0,0l0,0
				c0,0,0,0.1,0.1,0.1l0,0c0,0,0,0,0,0.1l0,0l0,0c0,0,0.1,0,0,0.1l0,0c0,0,0,0,0,0.1c0,0.1,0,0.1,0,0.1l0,0l0,0c0,0,0.1,0.1,0,0.1
				c0,0,0,0,0,0.1c0,0.1,0,0.2,0,0.2l0,0l0,0l0,0l0,0l0,0c0,0,0,0,0.1,0c0,0,0,0,0,0.1v0.1c0,0,0,0,0,0.1c0,0,0,0,0,0.1l0,0l0,0
				c0,0,0.1,0.1,0,0.1l0,0c0,0,0,0,0,0.1v0.1l0,0l0,0l0,0l0,0l0,0l0,0l0,0l0,0l0,0l0,0v0.1l0,0v0.1c0,0-0.1,0.1,0,0.1l0,0l0,0l0,0
				l0,0l0,0l0,0l0,0l0,0c0,0-0.1,0.1-0.1,0h-0.1h-0.1l0,0c0,0,0,0-0.1,0c0,0,0,0-0.1,0h-0.2h-0.1H157h-0.1l0,0c0,0,0,0-0.1,0l0,0
				c0,0,0,0-0.1,0h-0.1l0,0h-0.1h-0.1h-0.1l0,0h-0.2c0,0,0,0-0.1,0h-0.1c0,0,0,0-0.1,0h-0.1l0,0l0,0c-0.9,0-64.6,0-66.3,0h-0.1
				c-0.1,0-0.1,0-0.1,0l0,0l0,0c0,0,0,0-0.1,0H89l0,0c0,0,0,0,0,0.1c-0.1,0-0.1,0-0.1,0h-0.1l0,0h-0.1h-0.1c0,0,0,0-0.1,0
				c0,0-0.1,0-0.2,0s-0.1,0-0.1,0l0,0l0,0l0,0l0,0l0,0l0,0h-0.1H88h-0.1l0,0l0,0l0,0l0,0c0,0-0.1,0-0.2,0c0,0,0,0-0.1,0
				c0,0,0,0-0.1,0l0,0l0,0h-0.1l0,0c0,0,0,0-0.1,0h-0.1c0,0,0,0-0.1,0s-0.1,0-0.1-0.1l0,0l0,0l0,0l0,0v-0.1v-0.1v-0.1
				c0-0.1,0-0.1,0-0.1l0,0v-0.1c0-0.1,0-0.1,0-0.1l0,0v-0.2c0,0,0,0,0-0.1V552v-0.1v-0.2c0,0,0-0.1,0-0.2c0-0.2,0-0.3,0-0.3
				C87.4,551.5,87.4,551.4,87.3,551.3C87.4,551.4,87.4,551.3,87.3,551.3z"/>
		</g>
	</g>
	<g>
		<g>
			<path class="st0" d="M87.3,559L87.3,559L87.3,559c0-0.1,0.1-0.1,0.3-0.2c0.1,0,0.1,0,0.1,0s0,0,0.1,0c0,0,0,0,0.1,0l0,0l0,0l0,0
				H88l0,0l0,0l0,0c0,0,0,0,0.1,0h0.1l0,0l0,0h0.1l0,0h0.1l0,0l0,0l0,0l0,0l0,0l0,0l0,0l0,0l0,0l0,0l0,0h0.1l0,0c0,0,0.1,0,0.2,0
				s0.2,0,0.3,0h0.1h0.1h0.1c0.1,0,0.1,0,0.1,0l0,0c0,0,0,0,0.1,0c1,0,2.5,0,4.2,0c4.2,0,9.9,0,16.5,0c3.1,0,6,0,6.3,0s0.7,0,0.8,0
				c0.1,0,0.4,0,0.6,0c0.5,0,5.4,0,5.7,0c0.1,0,1.6,0,3.4,0c4.5,0,10.4,0,13.5,0c1.4,0,3,0,3.4,0c0.5,0,0.9,0,1,0c0.2,0,4.3,0,9.2,0
				c5,0,10.3,0,11.8,0c3.7,0,6.5,0,8.4,0c0.1,0,0.2,0,0.2,0l0,0c0,0,0,0,0.1,0h0.1c0,0,0,0,0.1,0l0,0l0,0h0.1l0,0l0,0c0,0,0,0,0.1,0
				s0.2,0,0.2,0l0,0h0.1l0,0l0,0c0,0,0,0,0.1,0s0.1,0,0.1,0l0,0l0,0c0.1,0,0.2,0,0.2,0l0,0l0,0l0,0l0,0c0,0,0,0,0.1,0h0.1l0,0
				c0,0,0,0,0.1,0c0,0,0,0,0.1,0h0.1c0,0,0,0,0.1,0s0.1,0,0.1,0l0,0c0,0,0,0,0.1,0l0,0l0,0l0,0c0,0,0,0.1,0.1,0.1l0,0c0,0,0,0,0,0.1
				l0,0l0,0c0,0,0.1,0,0,0.1l0,0c0,0,0,0,0,0.1c0,0.1,0,0.1,0,0.1l0,0l0,0c0,0,0.1,0.1,0,0.1c0,0,0,0,0,0.1c0,0.1,0,0.2,0,0.2l0,0
				l0,0l0,0l0,0l0,0c0,0,0,0,0.1,0c0,0,0,0,0,0.1v0.1c0,0,0,0,0,0.1c0,0,0,0,0,0.1l0,0l0,0c0,0,0.1,0.1,0,0.1l0,0c0,0,0,0,0,0.1v0.1
				l0,0l0,0l0,0l0,0l0,0l0,0l0,0l0,0l0,0l0,0v0.1l0,0v0.1c0,0-0.1,0.1,0,0.1l0,0l0,0l0,0l0,0l0,0l0,0l0,0l0,0c0,0-0.1,0.1-0.1,0
				h-0.1h-0.1l0,0c0,0,0,0-0.1,0c0,0,0,0-0.1,0H176h-0.1h-0.1h-0.1l0,0c0,0,0,0-0.1,0l0,0c0,0,0,0-0.1,0h-0.1l0,0h-0.1h-0.1h-0.1
				l0,0h-0.2c0,0,0,0-0.1,0h-0.1c0,0,0,0-0.1,0h-0.1l0,0l0,0c-1.1,0-82.9,0-85,0h-0.1c-0.1,0-0.1,0-0.1,0l0,0l0,0c0,0,0,0-0.1,0
				h-0.1l0,0c0,0,0,0,0,0.1c-0.1,0-0.1,0-0.1,0h-0.1l0,0h-0.1h-0.1c0,0,0,0-0.1,0c0,0-0.1,0-0.2,0s-0.1,0-0.1,0l0,0l0,0l0,0l0,0l0,0
				l0,0h-0.1h-0.1H88l0,0l0,0l0,0l0,0c0,0-0.1,0-0.2,0c0,0,0,0-0.1,0c0,0,0,0-0.1,0l0,0l0,0h-0.1l0,0c0,0,0,0-0.1,0h-0.1
				c0,0,0,0-0.1,0s-0.1,0-0.1-0.1l0,0l0,0l0,0l0,0v-0.1v-0.1v-0.1c0-0.1,0-0.1,0-0.1l0,0v-0.1c0-0.1,0-0.1,0-0.1l0,0v-0.2
				c0,0,0,0,0-0.1v-0.1v-0.1v-0.2c0,0,0-0.1,0-0.2c0-0.2,0-0.3,0-0.3C87.4,559.1,87.4,559.1,87.3,559C87.4,559,87.4,559,87.3,559z"
				/>
		</g>
	</g>
	<g>
		<g>
			<path class="st0" d="M84.4,468c0,0,0-0.2,0-0.4c0-0.2,0-0.3,0-0.3v-0.1c0-0.1,0-0.1,0-0.2c0.1-0.1,0.1-0.2,0-0.1c0,0-0.1,0,0,0
				l0.1-0.1c0.1,0,0.1,0,0-0.2c0-0.1,0-0.2,0-0.2c0-0.1,0.1-0.2,0.1-0.3s0-0.2,0.1-0.3c0-0.1,0-0.2,0-0.3s0-0.1,0-0.1s0,0,0-0.1
				s-0.1-0.1,0-0.1c0.1-0.1,0.1-0.7,0-0.7l0,0c0.1,0,0.1,0,0.1-0.2c0-0.1,0-0.2,0-0.3s0-0.1,0-0.2c-0.1-0.1-0.1-0.1,0-0.1
				c0,0,0.1-0.1,0-0.2c0-0.1,0-0.2,0-0.3c0,0,0.1-0.1,0-0.1c0,0,0,0,0-0.1c0.1-0.1,0.1-0.1,0-0.1s-0.1-0.1,0-0.1
				c0,0,0.1-0.2,0.1-0.4c0-0.2,0-0.3,0.1-0.3c0,0,0.1-0.1,0.1-0.2c0-0.1,0-0.1-0.1-0.1c-0.1,0.1-0.1,0.1,0,0c0-0.1,0.1-0.1,0.1-0.1
				s0,0,0-0.1s0-0.2,0.1-0.3c0.2-0.3,0.3-0.4,0.9-0.4c0.2,0,0.3,0,0.3-0.1c0,0,0.1,0,0.2,0s0.2,0,0.3,0c0.1,0,0.3,0,0.4,0
				c0.2,0.1,0.3,0.1,0.3,0s0.1-0.1,0.1,0c0,0,0.1,0.1,0.1,0h0.1c0,0,0.1,0.1,0.2,0c0.1,0,0.2,0,0.2,0s0.6,0,0.7,0h0.1
				c0,0,0.2,0,0.5,0s0.5,0,0.5,0s0.1,0,0.6-0.1c0.1,0,0.3,0,0.3,0h0.1h0.1c0,0,0.2,0,0.3,0c0.2,0,0.3,0,0.3,0c0,0.1,0.3,0.1,0.3,0
				v-0.1c-0.1,0-0.1,0,0,0c0,0,0.1,0,0.1,0.1s0.1,0.1,0.2,0c0.1,0,0.2,0,0.2,0c0.1,0,0.2,0.1,0.4,0.1c0.1,0,0.1,0,0.4,0
				c0.2,0,0.5,0,0.8,0c0.6,0,1.4,0,2.3,0c2.8,0.1,5.3,0.1,6.8,0.1c1.6,0,4.1,0.1,8.5,0.1c1.7,0,3.7,0,4.4,0.1c0.7,0,1.3,0,1.4,0
				c0,0,0.1,0,0.3,0c0.1,0,0.3,0,0.5,0s1,0,1.8,0s1.5,0,1.5,0s0.1,0,0.2,0s0.2,0,0.2,0s0.1,0,0.2,0s0.1,0.1,0.2,0
				c0.1,0,0.4,0,0.8,0.1c0.1,0,0.2,0,0.3,0c0.2,0,0.2,0,0.3,0.1c0.1,0.1,0.2,0.1,0.3,0.1c0.3,0,0.8,0.6,0.8,0.8c0,0,0,0.2,0.1,0.2
				c0.1,0.1,0.1,0.2,0.1,0.2v0.1c0,0,0,0.1,0,0.3c-0.1,0.4-0.1,1,0,1.1c0,0.1,0,0.1,0,0.2c0,0-0.1,0.3,0,0.6c0,0.3,0,0.6,0,0.6
				c0,0.1,0,0.2,0,0.2c0,0.1,0,0.2,0,0.3s-0.1,0.5-0.1,0.9s0,0.8-0.1,0.8c0,0.1,0,0.1,0,0.2c0.1,0.1,0.1,0.6,0,0.8
				c0,0.1,0,0.2-0.1,0.3c-0.1,0.5-0.3,0.7-1.2,0.7c-0.2,0-0.3,0-0.3,0.1c0,0-0.1,0-0.3,0c-0.2,0-0.4,0-0.6,0s-0.3,0-0.4,0
				s-1.7-0.1-2.3,0c-0.3,0-0.5,0-0.5,0h-0.1c-0.1,0.1-0.1,0.1-0.7,0c0,0-0.1,0-0.2,0h-0.1c-0.1,0-0.2,0-0.3,0c-0.4,0-0.8,0-1.2,0
				c-0.8,0-1.6,0-2,0c-0.8,0-0.9,0-2.2,0c-0.7,0-1.3,0-1.5,0c-1,0-4.5,0-5.7,0c-2.6-0.1-8.6-0.2-10-0.2c-0.3,0-1.5,0-2.5,0
				c-0.4,0-0.8,0-0.9,0c0,0-0.1,0-0.2,0.1c-0.2,0-0.3,0.1-0.4,0.1c-0.1,0.1-0.1,0.1-0.1,0s0-0.1-0.1,0s-0.5,0.1-0.7,0
				c-0.1,0-0.2-0.1-0.2,0c-0.1,0.1-0.2,0.1-0.4,0c-0.1,0-0.1,0-0.1,0c0,0.1-0.3,0-0.4-0.1c0,0-0.1,0-0.2,0s-0.2,0-0.3,0
				c-0.1,0-0.3,0-0.3,0c-0.1,0-0.1,0-0.1,0s-0.1-0.1-0.2-0.1s-0.7,0.1-0.8,0.1c-0.1,0-0.6-0.1-0.6-0.1s-0.1,0-0.2,0
				c-0.1,0.1-0.1,0.1-0.2,0s-0.4-0.1-0.9,0c-0.1,0-0.2,0-0.2,0l-0.1-0.1c-0.4,0-1-0.3-0.9-0.5c0,0,0-0.1-0.1-0.2
				c-0.1-0.1-0.1-0.1-0.1-0.1s0-0.1-0.1-0.1s-0.1,0,0-0.1s0-0.4-0.1-0.5C84.3,468.2,84.3,468.1,84.4,468z"/>
		</g>
	</g>
	<g>
		<g>
			<path class="st0" d="M86.3,479.3v-0.1l0,0c0,0,0.1,0,0.3-0.1c0.1,0,0.1,0,0.1,0s0,0,0.1,0c0,0,0,0,0.1,0l0,0l0,0l0,0H87l0,0l0,0
				l0,0c0,0,0,0,0.1,0h0.1l0,0l0,0h0.1l0,0h0.1l0,0l0,0l0,0l0,0l0,0l0,0l0,0l0,0l0,0l0,0l0,0h0.1l0,0c0,0,0.1,0,0.2,0s0.2,0,0.3,0
				h0.1h0.1h0.1c0.1,0,0.1,0,0.1,0l0,0c0,0,0,0,0.1,0c0.9,0,2.2,0,3.7,0c3.6,0,8.7,0,14.4,0c2.8,0,5.2,0,5.5,0s0.6,0,0.7,0
				s0.3,0,0.5,0c0.4,0,4.7,0,5,0c0.1,0,1.4,0,2.9,0c3.9,0,9.1,0,11.8,0c1.2,0,2.6,0,3,0s0.8,0,0.9,0c0.1,0,3.7,0,8.1,0
				c4.3,0,9,0,10.3,0c3.2,0,5.7,0,7.4,0c0.1,0,0.2,0,0.2,0l0,0c0,0,0,0,0.1,0h0.1c0,0,0,0,0.1,0l0,0l0,0h0.1l0,0l0,0c0,0,0,0,0.1,0
				s0.2,0,0.2,0l0,0h0.1l0,0l0,0c0,0,0,0,0.1,0s0.1,0,0.1,0l0,0l0,0c0.1,0,0.2,0,0.2,0l0,0l0,0l0,0l0,0c0,0,0,0,0.1,0h0.1l0,0
				c0,0,0,0,0.1,0c0,0,0,0,0.1,0h0.1c0,0,0,0,0.1,0s0.1,0,0.1,0l0,0c0,0,0,0,0.1,0l0,0l0,0l0,0c0,0,0,0.1,0.1,0.1l0,0c0,0,0,0,0,0.1
				l0,0l0,0c0,0,0.1,0,0,0.1l0,0c0,0,0,0,0,0.1s0,0.1,0,0.1l0,0l0,0c0,0,0.1,0.1,0,0.1c0,0,0,0,0,0.1s0,0.2,0,0.2l0,0l0,0l0,0l0,0
				l0,0c0,0,0,0,0.1,0c0,0,0,0,0,0.1v0.1c0,0,0,0,0,0.1c0,0,0,0,0,0.1l0,0l0,0c0,0,0.1,0.1,0,0.1l0,0c0,0,0,0,0,0.1v0.1l0,0l0,0l0,0
				l0,0l0,0l0,0l0,0l0,0l0,0l0,0v0.1l0,0v0.1c0,0-0.1,0.1,0,0.1l0,0l0,0l0,0l0,0l0,0l0,0l0,0l0,0c0,0-0.1,0.1-0.1,0h-0.1h-0.1l0,0
				c0,0,0,0-0.1,0c0,0,0,0-0.1,0h-0.2h-0.1h-0.1h-0.1l0,0c0,0,0,0-0.1,0l0,0c0,0,0,0-0.1,0h-0.1l0,0h-0.1h-0.1h-0.1l0,0h-0.2
				c0,0,0,0-0.1,0h-0.1c0,0,0,0-0.1,0h-0.1l0,0l0,0c-1,0-72.5,0-74.3,0h-0.1c-0.1,0-0.1,0-0.1,0l0,0l0,0c0,0,0,0-0.1,0h-0.1l0,0
				c0,0,0,0,0,0.1c-0.1,0-0.1,0-0.1,0H88l0,0h-0.1h-0.1c0,0,0,0-0.1,0c0,0-0.1,0-0.2,0s-0.1,0-0.1,0l0,0l0,0l0,0l0,0l0,0l0,0h-0.1
				h-0.1h-0.1l0,0l0,0l0,0l0,0c0,0-0.1,0-0.2,0c0,0,0,0-0.1,0c0,0,0,0-0.1,0l0,0l0,0h-0.1l0,0c0,0,0,0-0.1,0h-0.1c0,0,0,0-0.1,0
				s-0.1,0-0.1-0.1l0,0l0,0l0,0l0,0v-0.1v-0.1v-0.1c0-0.1,0-0.1,0-0.1l0,0v-0.1c0-0.1,0-0.1,0-0.1l0,0v-0.2c0,0,0,0,0-0.1V480v-0.1
				v-0.2c0,0,0-0.1,0-0.2C86.2,479.3,86.2,479.2,86.3,479.3C86.4,479.5,86.4,479.4,86.3,479.3C86.4,479.4,86.4,479.3,86.3,479.3z"/>
		</g>
	</g>
	<g>
		<g>
			<path class="st0" d="M86.3,488.6v-0.1l0,0c0,0,0.1,0,0.3-0.1c0.1,0,0.1,0,0.1,0s0,0,0.1,0c0,0,0,0,0.1,0l0,0l0,0l0,0H87l0,0l0,0
				l0,0c0,0,0,0,0.1,0h0.1l0,0l0,0h0.1l0,0h0.1l0,0l0,0l0,0l0,0l0,0l0,0l0,0l0,0l0,0l0,0l0,0h0.1l0,0c0,0,0.1,0,0.2,0s0.2,0,0.3,0
				h0.1h0.1h0.1c0.1,0,0.1,0,0.1,0l0,0c0,0,0,0,0.1,0c1,0,2.4,0,4.1,0c4,0,9.5,0,15.8,0c3,0,5.7,0,6,0s0.6,0,0.8,0
				c0.1,0,0.4,0,0.5,0c0.4,0,5.2,0,5.4,0c0.1,0,1.5,0,3.2,0c4.3,0,9.9,0,12.9,0c1.4,0,2.8,0,3.3,0c0.4,0,0.9,0,1,0
				c0.2,0,4.1,0,8.8,0s9.8,0,11.3,0c3.5,0,6.2,0,8,0c0.1,0,0.2,0,0.2,0l0,0c0,0,0,0,0.1,0h0.1c0,0,0,0,0.1,0l0,0l0,0h0.1l0,0l0,0
				c0,0,0,0,0.1,0s0.2,0,0.2,0l0,0h0.1l0,0l0,0c0,0,0,0,0.1,0s0.1,0,0.1,0l0,0l0,0c0.1,0,0.2,0,0.2,0l0,0l0,0l0,0l0,0c0,0,0,0,0.1,0
				h0.1l0,0c0,0,0,0,0.1,0c0,0,0,0,0.1,0h0.1c0,0,0,0,0.1,0s0.1,0,0.1,0l0,0c0,0,0,0,0.1,0l0,0l0,0l0,0c0,0,0,0.1,0.1,0.1l0,0
				c0,0,0,0,0,0.1l0,0l0,0c0,0,0.1,0,0,0.1l0,0c0,0,0,0,0,0.1s0,0.1,0,0.1l0,0l0,0c0,0,0.1,0.1,0,0.1c0,0,0,0,0,0.1s0,0.2,0,0.2l0,0
				l0,0l0,0l0,0l0,0c0,0,0,0,0.1,0c0,0,0,0,0,0.1v0.1c0,0,0,0,0,0.1c0,0,0,0,0,0.1l0,0l0,0c0,0,0.1,0.1,0,0.1l0,0c0,0,0,0,0,0.1v0.1
				l0,0l0,0l0,0l0,0l0,0l0,0l0,0l0,0l0,0l0,0v0.1l0,0v0.1c0,0-0.1,0.1,0,0.1l0,0l0,0l0,0l0,0l0,0l0,0l0,0l0,0c0,0-0.1,0.1-0.1,0
				h-0.1h-0.1l0,0c0,0,0,0-0.1,0c0,0,0,0-0.1,0h-0.2h-0.1h-0.1H171l0,0c0,0,0,0-0.1,0l0,0c0,0,0,0-0.1,0h-0.1l0,0h-0.1h-0.1h-0.1
				l0,0h-0.2c0,0,0,0-0.1,0H170c0,0,0,0-0.1,0h-0.1l0,0l0,0c-1.1,0-79.3,0-81.3,0h-0.1c-0.1,0-0.1,0-0.1,0l0,0l0,0c0,0,0,0-0.1,0
				h-0.1l0,0c0,0,0,0,0,0.1c-0.1,0-0.1,0-0.1,0h-0.1l0,0h-0.1h-0.1c0,0,0,0-0.1,0c0,0-0.1,0-0.2,0s-0.1,0-0.1,0l0,0l0,0l0,0l0,0l0,0
				l0,0h-0.1h-0.1H87l0,0l0,0l0,0l0,0c0,0-0.1,0-0.2,0c0,0,0,0-0.1,0c0,0,0,0-0.1,0l0,0l0,0h-0.1l0,0c0,0,0,0-0.1,0h-0.1
				c0,0,0,0-0.1,0s-0.1,0-0.1-0.1l0,0l0,0l0,0l0,0v-0.1v-0.1V490c0-0.1,0-0.1,0-0.1l0,0v-0.1c0-0.1,0-0.1,0-0.1l0,0v-0.2
				c0,0,0,0,0-0.1v-0.1v-0.1V489c0,0,0-0.1,0-0.2c0-0.2,0-0.3,0-0.3C86.4,488.8,86.4,488.8,86.3,488.6
				C86.4,488.7,86.4,488.7,86.3,488.6z"/>
		</g>
	</g>
	<g>
		<g>
			<path class="st0" d="M86.3,498v-0.1l0,0c0,0,0.1,0,0.3-0.1c0.1,0,0.1,0,0.1,0s0,0,0.1,0c0,0,0,0,0.1,0l0,0l0,0l0,0H87l0,0l0,0
				l0,0c0,0,0,0,0.1,0h0.1l0,0l0,0h0.1l0,0h0.1l0,0l0,0l0,0l0,0l0,0l0,0l0,0l0,0l0,0l0,0l0,0h0.1l0,0c0,0,0.1,0,0.2,0s0.2,0,0.3,0
				h0.1h0.1h0.1c0.1,0,0.1,0,0.1,0l0,0c0,0,0,0,0.1,0c1,0,2.4,0,4.2,0c4.1,0,9.8,0,16.3,0c3.1,0,5.9,0,6.3,0c0.3,0,0.7,0,0.8,0
				c0.1,0,0.4,0,0.6,0c0.5,0,5.4,0,5.6,0c0.1,0,1.6,0,3.3,0c4.4,0,10.3,0,13.4,0c1.4,0,2.9,0,3.4,0s0.9,0,1,0c0.2,0,4.2,0,9.1,0
				c4.9,0,10.2,0,11.7,0c3.7,0,6.5,0,8.3,0c0.1,0,0.2,0,0.2,0l0,0c0,0,0,0,0.1,0h0.1c0,0,0,0,0.1,0l0,0l0,0h0.1l0,0l0,0
				c0,0,0,0,0.1,0s0.2,0,0.2,0l0,0h0.1l0,0l0,0c0,0,0,0,0.1,0s0.1,0,0.1,0l0,0l0,0c0.1,0,0.2,0,0.2,0l0,0l0,0l0,0l0,0c0,0,0,0,0.1,0
				h0.1l0,0c0,0,0,0,0.1,0c0,0,0,0,0.1,0h0.1c0,0,0,0,0.1,0s0.1,0,0.1,0l0,0c0,0,0,0,0.1,0l0,0l0,0l0,0c0,0,0,0.1,0.1,0.1l0,0
				c0,0,0,0,0,0.1l0,0l0,0c0,0,0.1,0,0,0.1l0,0c0,0,0,0,0,0.1s0,0.1,0,0.1l0,0l0,0c0,0,0.1,0.1,0,0.1c0,0,0,0,0,0.1s0,0.2,0,0.2l0,0
				l0,0l0,0l0,0l0,0c0,0,0,0,0.1,0c0,0,0,0,0,0.1v0.1c0,0,0,0,0,0.1c0,0,0,0,0,0.1l0,0l0,0c0,0,0.1,0.1,0,0.1l0,0c0,0,0,0,0,0.1v0.1
				l0,0l0,0l0,0l0,0l0,0l0,0l0,0l0,0l0,0l0,0v0.1l0,0v0.1c0,0-0.1,0.1,0,0.1l0,0l0,0l0,0l0,0l0,0l0,0l0,0l0,0c0,0-0.1,0.1-0.1,0
				h-0.1h-0.1l0,0c0,0,0,0-0.1,0c0,0,0,0-0.1,0h-0.2h-0.1H174h-0.1l0,0c0,0,0,0-0.1,0l0,0c0,0,0,0-0.1,0h-0.1l0,0h-0.1h-0.1h-0.1
				l0,0h-0.2c0,0,0,0-0.1,0h-0.1c0,0,0,0-0.1,0h-0.1l0,0l0,0c-1.1,0-82.2,0-84.3,0h-0.1c-0.1,0-0.1,0-0.1,0l0,0l0,0c0,0,0,0-0.1,0
				H88l0,0c0,0,0,0,0,0.1c-0.1,0-0.1,0-0.1,0h-0.1l0,0h-0.1h-0.1c0,0,0,0-0.1,0c0,0-0.1,0-0.2,0s-0.1,0-0.1,0l0,0l0,0l0,0l0,0l0,0
				l0,0h-0.1H87h-0.1l0,0l0,0l0,0l0,0c0,0-0.1,0-0.2,0c0,0,0,0-0.1,0c0,0,0,0-0.1,0l0,0l0,0h-0.1l0,0c0,0,0,0-0.1,0h-0.1
				c0,0,0,0-0.1,0s-0.1,0-0.1-0.1l0,0l0,0l0,0l0,0v-0.1v-0.1v-0.1c0-0.1,0-0.1,0-0.1l0,0v-0.1c0-0.1,0-0.1,0-0.1l0,0v-0.2
				c0,0,0,0,0-0.1v-0.1v-0.1v-0.2c0,0,0-0.1,0-0.2c0-0.2,0-0.3,0-0.3C86.4,498.1,86.4,498.1,86.3,498C86.4,498,86.4,498,86.3,498z"
				/>
		</g>
	</g>
	<g>
		<g>
			<path class="st0" d="M31.3,507.3v-0.1l0,0c0,0,0.1,0,0.3-0.1c0.1,0,0.1,0,0.1,0s0,0,0.1,0c0,0,0,0,0.1,0l0,0l0,0l0,0H32l0,0l0,0
				l0,0c0,0,0,0,0.1,0h0.1l0,0l0,0h0.1l0,0h0.1l0,0l0,0l0,0l0,0l0,0l0,0l0,0l0,0l0,0l0,0l0,0h0.1l0,0c0,0,0.1,0,0.2,0
				c0.1,0,0.2,0,0.3,0h0.1h0.1h0.1c0.1,0,0.1,0,0.1,0l0,0c0,0,0,0,0.1,0c1.6,0,3.9,0,6.8,0c6.7,0,15.9,0,26.5,0c5.1,0,9.6,0,10.1,0
				s1.1,0,1.3,0c0.2,0,0.6,0,0.9,0c0.7,0,8.8,0,9.1,0c0.1,0,2.5,0,5.4,0c7.2,0,16.6,0,21.6,0c2.3,0,4.8,0,5.5,0s1.5,0,1.7,0
				s6.8,0,14.8,0s16.5,0,18.9,0c5.9,0,10.4,0,13.5,0c0.1,0,0.2,0,0.2,0l0,0c0,0,0,0,0.1,0h0.1c0,0,0,0,0.1,0l0,0l0,0h0.1l0,0l0,0
				c0,0,0,0,0.1,0s0.2,0,0.2,0l0,0h0.1l0,0l0,0c0,0,0,0,0.1,0s0.1,0,0.1,0l0,0l0,0c0.1,0,0.2,0,0.2,0l0,0l0,0l0,0l0,0c0,0,0,0,0.1,0
				h0.1l0,0c0,0,0,0,0.1,0c0,0,0,0,0.1,0h0.1c0,0,0,0,0.1,0s0.1,0,0.1,0l0,0c0,0,0,0,0.1,0l0,0l0,0l0,0c0,0,0,0.1,0.1,0.1l0,0
				c0,0,0,0,0,0.1l0,0l0,0c0,0,0.1,0,0,0.1l0,0c0,0,0,0,0,0.1s0,0.1,0,0.1l0,0l0,0c0,0,0.1,0.1,0,0.1c0,0,0,0,0,0.1s0,0.2,0,0.2l0,0
				l0,0l0,0l0,0l0,0c0,0,0,0,0.1,0c0,0,0,0,0,0.1v0.1c0,0,0,0,0,0.1c0,0,0,0,0,0.1l0,0l0,0c0,0,0.1,0.1,0,0.1l0,0c0,0,0,0,0,0.1v0.1
				l0,0l0,0l0,0l0,0l0,0l0,0l0,0l0,0l0,0l0,0v0.1l0,0v0.1c0,0-0.1,0.1,0,0.1l0,0l0,0l0,0l0,0l0,0l0,0l0,0l0,0c0,0-0.1,0.1-0.1,0
				h-0.1h-0.1l0,0c0,0,0,0-0.1,0c0,0,0,0-0.1,0h-0.2h-0.1h-0.1H171l0,0c0,0,0,0-0.1,0l0,0c0,0,0,0-0.1,0h-0.1l0,0h-0.1h-0.1h-0.1
				l0,0h-0.2c0,0,0,0-0.1,0H170c0,0,0,0-0.1,0h-0.1l0,0l0,0c-1.7,0-133,0-136.3,0h-0.1c-0.1,0-0.1,0-0.1,0l0,0l0,0c0,0,0,0-0.1,0
				h-0.1l0,0c0,0,0,0,0,0.1c-0.1,0-0.1,0-0.1,0h-0.1l0,0h-0.1h-0.1c0,0,0,0-0.1,0c0,0-0.1,0-0.2,0c-0.1,0-0.1,0-0.1,0l0,0l0,0l0,0
				l0,0l0,0l0,0h-0.1h-0.1H32l0,0l0,0l0,0l0,0c0,0-0.1,0-0.2,0c0,0,0,0-0.1,0c0,0,0,0-0.1,0l0,0l0,0h-0.1l0,0c0,0,0,0-0.1,0h-0.1
				c0,0,0,0-0.1,0s-0.1,0-0.1-0.1l0,0l0,0l0,0l0,0v-0.1v-0.1v-0.1c0-0.1,0-0.1,0-0.1l0,0v-0.1c0-0.1,0-0.1,0-0.1l0,0v-0.2
				c0,0,0,0,0-0.1V508v-0.1v-0.2c0,0,0-0.1,0-0.2c0-0.2,0-0.3,0-0.3C31.4,507.5,31.4,507.4,31.3,507.3
				C31.4,507.4,31.4,507.3,31.3,507.3z"/>
		</g>
	</g>
	<g>
		<g>
			<path class="st0" d="M26.3,515.6L26.3,515.6L26.3,515.6c0-0.1,0.1-0.1,0.3-0.2c0.1,0,0.1,0,0.1,0s0,0,0.1,0c0,0,0,0,0.1,0l0,0
				l0,0l0,0H27l0,0l0,0l0,0c0,0,0,0,0.1,0h0.1l0,0l0,0h0.1l0,0h0.1l0,0l0,0l0,0l0,0l0,0l0,0l0,0l0,0l0,0l0,0l0,0h0.1l0,0
				c0,0,0.1,0,0.2,0s0.2,0,0.3,0h0.1h0.1h0.1c0.1,0,0.1,0,0.1,0l0,0c0,0,0,0,0.1,0c1.7,0,4.2,0,7.2,0c7.1,0,16.8,0,28,0
				c5.4,0,10.2,0,10.7,0c0.6,0,1.2,0,1.4,0c0.2,0,0.6,0,1,0c0.7,0,9.3,0,9.7,0c0.1,0,2.7,0,5.7,0c7.6,0,17.6,0,22.9,0
				c2.4,0,5.1,0,5.8,0c0.8,0,1.6,0,1.8,0c0.2,0,7.2,0,15.7,0c8.4,0,17.5,0,20,0c6.3,0,11.1,0,14.3,0c0.1,0,0.2,0,0.2,0l0,0
				c0,0,0,0,0.1,0h0.1c0,0,0,0,0.1,0l0,0l0,0h0.1l0,0l0,0c0,0,0,0,0.1,0s0.2,0,0.2,0l0,0h0.1l0,0l0,0c0,0,0,0,0.1,0s0.1,0,0.1,0l0,0
				l0,0c0.1,0,0.2,0,0.2,0l0,0l0,0l0,0l0,0c0,0,0,0,0.1,0h0.1l0,0c0,0,0,0,0.1,0c0,0,0,0,0.1,0h0.1c0,0,0,0,0.1,0s0.1,0,0.1,0l0,0
				c0,0,0,0,0.1,0l0,0l0,0l0,0c0,0,0,0.1,0.1,0.1l0,0c0,0,0,0,0,0.1l0,0l0,0c0,0,0.1,0,0,0.1l0,0c0,0,0,0,0,0.1c0,0.1,0,0.1,0,0.1
				l0,0l0,0c0,0,0.1,0.1,0,0.1c0,0,0,0,0,0.1c0,0.1,0,0.2,0,0.2l0,0l0,0l0,0l0,0l0,0c0,0,0,0,0.1,0c0,0,0,0,0,0.1v0.1c0,0,0,0,0,0.1
				c0,0,0,0,0,0.1l0,0l0,0c0,0,0.1,0.1,0,0.1l0,0c0,0,0,0,0,0.1v0.1l0,0l0,0l0,0l0,0l0,0l0,0l0,0l0,0l0,0l0,0v0.1l0,0v0.1
				c0,0-0.1,0.1,0,0.1l0,0l0,0l0,0l0,0l0,0l0,0l0,0l0,0c0,0-0.1,0.1-0.1,0h-0.1h-0.1l0,0c0,0,0,0-0.1,0c0,0,0,0-0.1,0h-0.2h-0.1
				h-0.1h-0.1l0,0c0,0,0,0-0.1,0l0,0c0,0,0,0-0.1,0h-0.1l0,0h-0.1h-0.1h-0.1l0,0h-0.2c0,0,0,0-0.1,0h-0.1c0,0,0,0-0.1,0h-0.1l0,0
				l0,0c-1.8,0-140.8,0-144.3,0h-0.1c-0.1,0-0.1,0-0.1,0l0,0l0,0c0,0,0,0-0.1,0h-0.1l0,0c0,0,0,0,0,0.1c-0.1,0-0.1,0-0.1,0H28l0,0
				h-0.1h-0.1c0,0,0,0-0.1,0c0,0-0.1,0-0.2,0s-0.1,0-0.1,0l0,0l0,0l0,0l0,0l0,0l0,0h-0.1h-0.1h-0.1l0,0l0,0l0,0l0,0c0,0-0.1,0-0.2,0
				c0,0,0,0-0.1,0c0,0,0,0-0.1,0l0,0l0,0h-0.1l0,0c0,0,0,0-0.1,0h-0.1c0,0,0,0-0.1,0s-0.1,0-0.1-0.1l0,0l0,0l0,0l0,0v-0.1v-0.1V517
				c0-0.1,0-0.1,0-0.1l0,0v-0.1c0-0.1,0-0.1,0-0.1l0,0v-0.2c0,0,0,0,0-0.1v-0.1v-0.1V516c0,0,0-0.1,0-0.2c0-0.2,0-0.3,0-0.3
				C26.4,515.8,26.4,515.8,26.3,515.6C26.4,515.7,26.4,515.7,26.3,515.6z"/>
		</g>
	</g>
	<polygon class="st0" points="62.8,566.8 55.6,559.6 52,563.2 44.8,556 41.2,557.8 34,566.8 	"/>
	<g>
		<g>
			<path class="st0" d="M71.8,531.2L71.8,531.2L71.8,531.2c0.1,0,0.1,0.1,0.2,0.3c0,0.1,0,0.1,0,0.1s0,0,0,0.1c0,0,0,0,0,0.1l0,0
				l0,0l0,0v0.1l0,0l0,0l0,0c0,0,0,0,0,0.1v0.1l0,0l0,0v0.1l0,0v0.1l0,0l0,0l0,0l0,0l0,0l0,0l0,0l0,0l0,0l0,0l0,0v0.1l0,0
				c0,0,0,0.1,0,0.2c0,0.1,0,0.2,0,0.3v0.1v0.1v0.1c0,0.1,0,0.1,0,0.1l0,0c0,0,0,0,0,0.1c0,1.9,0,4.6,0,8c0,3.9,0,8.6,0,13.9
				c0,2.6,0,5.4,0,8.3c0,1.6,0,3.3,0,5v1.1v0.3c0,0.1,0,0.2-0.1,0.2h-0.5c-0.7,0-1.4,0-2.1,0c-0.8,0-1.5,0-2.3,0c-6,0-11.3,0-11.9,0
				c-0.6,0-1.3,0-1.5,0s-0.7,0-1.1,0c-0.8,0-10.4,0-10.7,0c-0.1,0-3,0-6.3,0c-1.6,0-3.4,0-4.9,0c-1,0-1.9,0-2.9,0H25
				c-0.1,0,0-0.1,0-0.1v-0.2v-0.3v-0.7v-1.4c0-1.9,0-3.8,0-5.6c0-3.6,0-6.8,0-9.2c0-2.7,0-5.6,0-6.5c0-0.9,0-1.7,0-2
				c0-0.1,0-2.1,0-5.3c0-1.6,0-3.4,0-5.5c0-0.6,0-1.2,0-1.8c0-0.5,0-1,0-1.5v-0.8c0.2,0,0.5,0,0.8,0c1.4,0,2.9,0,4.3,0
				c9.4,0,19.4,0,22.3,0c7,0,12.3,0,15.9,0c0.1,0,0.2,0,0.2,0l0,0c0,0,0,0,0.1,0h0.1c0,0,0,0,0.1,0l0,0l0,0h0.1l0,0l0,0
				c0,0,0,0,0.1,0s0.2,0,0.2,0l0,0h0.1l0,0l0,0c0,0,0,0,0.1,0s0.1,0,0.1,0l0,0l0,0c0.1,0,0.2,0,0.2,0l0,0l0,0l0,0l0,0c0,0,0,0,0.1,0
				h0.1l0,0c0,0,0,0,0.1,0c0,0,0,0,0.1,0h0.1c0,0,0,0,0.1,0s0.1,0,0.1,0l0,0c0,0,0,0,0.1,0l0,0l0,0l0,0c0,0,0,0.1,0.1,0.1l0,0
				c0,0,0,0,0,0.1l0,0l0,0c0,0,0.1,0,0,0.1l0,0c0,0,0,0,0,0.1c0,0.1,0,0.1,0,0.1l0,0l0,0c0,0,0.1,0.1,0,0.1c0,0,0,0,0,0.1
				c0,0.1,0,0.2,0,0.2l0,0l0,0l0,0l0,0l0,0c0,0,0,0,0.1,0c0,0,0,0,0,0.1v0.1c0,0,0,0,0,0.1c0,0,0,0,0,0.1l0,0l0,0c0,0,0.1,0.1,0,0.1
				l0,0c0,0,0,0,0,0.1v0.1l0,0l0,0l0,0l0,0l0,0l0,0l0,0l0,0l0,0l0,0v0.1l0,0v0.1c0,0-0.1,0.1,0,0.1l0,0l0,0l0,0l0,0l0,0l0,0l0,0l0,0
				c0,0-0.1,0.1-0.1,0h-0.1h-0.1l0,0c0,0,0,0-0.1,0c0,0,0,0-0.1,0H70h-0.1h-0.1h-0.1l0,0c0,0,0,0-0.1,0l0,0c0,0,0,0-0.1,0h-0.1l0,0
				h-0.1h-0.1h-0.1l0,0h-0.2c0,0,0,0-0.1,0h-0.1c0,0,0,0-0.1,0h-0.1l0,0l0,0h-0.1c-2.5,0-6,0-10.2,0c-4.9,0-10.7,0-17.2,0
				c-3.2,0-6.6,0-10.1,0c-0.9,0-1.8,0-2.7,0h-0.5c-0.1,0,0,0.1-0.1,0.1c0,1.7,0,3.4,0,5.1c0,5.8,0,11.7,0,17.8c0,3,0,6.1,0,9.2v3.6
				c0,0.1,0.1,0,0.1,0h0.7h2.3c9.9,0,19.7,0,28.9,0c2.3,0,4.5,0,6.7,0c1.1,0,2.2,0,3.3,0c0.1,0,0.1,0,0.2,0v-0.5c0-4.2,0-8.2,0-11.8
				c0-7.3,0-13.5,0-18c0-1.6,0-2.9,0-3.8v-0.1v-0.1c0-0.1,0-0.1,0-0.1l0,0l0,0c0,0,0,0,0-0.1v-0.1l0,0c0,0,0,0-0.1,0
				c0-0.1,0-0.1,0-0.1v-0.1l0,0v-0.1V532c0,0,0,0,0-0.1c0,0,0-0.1,0-0.2c0-0.1,0-0.1,0-0.1l0,0l0,0l0,0l0,0l0,0l0,0v-0.1
				c0,0,0-0.1,0,0v-0.1l0,0l0,0l0,0l0,0c0,0,0-0.1,0-0.2c0,0,0,0,0-0.1c0,0,0,0,0-0.1l0,0l0,0v-0.1l0,0c0,0,0,0,0-0.1v-0.1
				c0,0,0,0,0-0.1c0-0.1,0-0.1,0.1-0.1l0,0l0,0l0,0l0,0h0.1H70h0.1c0.1,0,0.1,0,0.1,0l0,0h0.1c0.1,0,0.1,0,0.1,0l0,0h0.2
				c0,0,0,0,0.1,0h0.1h0.1h0.2c0,0,0.1,0,0.2,0c0.2,0,0.3,0,0.3,0C71.6,531.2,71.7,531.2,71.8,531.2
				C71.7,531.2,71.8,531.2,71.8,531.2z"/>
		</g>
	</g>
	<g>
		<g>
			<path class="st0" d="M87.3,571L87.3,571L87.3,571c0-0.1,0.1-0.1,0.3-0.2c0.1,0,0.1,0,0.1,0s0,0,0.1,0c0,0,0,0,0.1,0l0,0l0,0l0,0
				H88l0,0l0,0l0,0c0,0,0,0,0.1,0h0.1l0,0l0,0h0.1l0,0h0.1l0,0l0,0l0,0l0,0l0,0l0,0l0,0l0,0l0,0l0,0l0,0h0.1l0,0c0,0,0.1,0,0.2,0
				s0.2,0,0.3,0h0.1h0.1h0.1c0.1,0,0.1,0,0.1,0l0,0c0,0,0,0,0.1,0c1,0,2.4,0,4.2,0c4.1,0,9.8,0,16.3,0c3.1,0,5.9,0,6.3,0
				c0.3,0,0.7,0,0.8,0c0.1,0,0.4,0,0.6,0c0.5,0,5.4,0,5.6,0c0.1,0,1.6,0,3.3,0c4.4,0,10.3,0,13.4,0c1.4,0,2.9,0,3.4,0s0.9,0,1,0
				c0.2,0,4.2,0,9.1,0c4.9,0,10.2,0,11.7,0c3.7,0,6.5,0,8.3,0c0.1,0,0.2,0,0.2,0l0,0c0,0,0,0,0.1,0h0.1c0,0,0,0,0.1,0l0,0l0,0h0.1
				l0,0l0,0c0,0,0,0,0.1,0s0.2,0,0.2,0l0,0h0.1l0,0l0,0c0,0,0,0,0.1,0s0.1,0,0.1,0l0,0l0,0c0.1,0,0.2,0,0.2,0l0,0l0,0l0,0l0,0
				c0,0,0,0,0.1,0h0.1l0,0c0,0,0,0,0.1,0c0,0,0,0,0.1,0h0.1c0,0,0,0,0.1,0s0.1,0,0.1,0l0,0c0,0,0,0,0.1,0l0,0l0,0l0,0
				c0,0,0,0.1,0.1,0.1l0,0c0,0,0,0,0,0.1l0,0l0,0c0,0,0.1,0,0,0.1l0,0c0,0,0,0,0,0.1c0,0.1,0,0.1,0,0.1l0,0l0,0c0,0,0.1,0.1,0,0.1
				c0,0,0,0,0,0.1c0,0.1,0,0.2,0,0.2l0,0l0,0l0,0l0,0l0,0c0,0,0,0,0.1,0c0,0,0,0,0,0.1v0.1c0,0,0,0,0,0.1c0,0,0,0,0,0.1l0,0l0,0
				c0,0,0.1,0.1,0,0.1l0,0c0,0,0,0,0,0.1v0.1l0,0l0,0l0,0l0,0l0,0l0,0l0,0l0,0l0,0l0,0v0.1l0,0v0.1c0,0-0.1,0.1,0,0.1l0,0l0,0l0,0
				l0,0l0,0l0,0l0,0l0,0c0,0-0.1,0.1-0.1,0h-0.1h-0.1l0,0c0,0,0,0-0.1,0c0,0,0,0-0.1,0h-0.2h-0.1H175h-0.1l0,0c0,0,0,0-0.1,0l0,0
				c0,0,0,0-0.1,0h-0.1l0,0h-0.1h-0.1h-0.1l0,0h-0.2c0,0,0,0-0.1,0h-0.1c0,0,0,0-0.1,0h-0.1l0,0l0,0c-1.1,0-82.2,0-84.3,0h-0.1
				c-0.1,0-0.1,0-0.1,0l0,0l0,0c0,0,0,0-0.1,0H89l0,0c0,0,0,0,0,0.1c-0.1,0-0.1,0-0.1,0h-0.1l0,0h-0.1h-0.1c0,0,0,0-0.1,0
				c0,0-0.1,0-0.2,0s-0.1,0-0.1,0l0,0l0,0l0,0l0,0l0,0l0,0h-0.1H88h-0.1l0,0l0,0l0,0l0,0c0,0-0.1,0-0.2,0c0,0,0,0-0.1,0
				c0,0,0,0-0.1,0l0,0l0,0h-0.1l0,0c0,0,0,0-0.1,0h-0.1c0,0,0,0-0.1,0s-0.1,0-0.1-0.1l0,0l0,0l0,0l0,0v-0.1v-0.1v-0.1
				c0-0.1,0-0.1,0-0.1l0,0v-0.1c0-0.1,0-0.1,0-0.1l0,0v-0.2c0,0,0,0,0-0.1v-0.1v-0.1v-0.2c0,0,0-0.1,0-0.2c0-0.2,0-0.3,0-0.3
				C87.4,571.1,87.4,571.1,87.3,571C87.4,571,87.4,571,87.3,571z"/>
		</g>
	</g>
	<g>
		<g>
			<path class="st0" d="M25.3,580.3L25.3,580.3L25.3,580.3c0-0.1,0.1-0.1,0.3-0.2c0.1,0,0.1,0,0.1,0s0,0,0.1,0c0,0,0,0,0.1,0l0,0
				l0,0l0,0H26l0,0l0,0l0,0c0,0,0,0,0.1,0h0.1l0,0l0,0h0.1l0,0h0.1l0,0l0,0l0,0l0,0l0,0l0,0l0,0l0,0l0,0l0,0l0,0h0.1l0,0
				c0,0,0.1,0,0.2,0s0.2,0,0.3,0h0.1h0.1h0.1c0.1,0,0.1,0,0.1,0l0,0c0,0,0,0,0.1,0c1.8,0,4.3,0,7.4,0c7.3,0,17.4,0,29,0
				c5.5,0,10.5,0,11.1,0s1.2,0,1.4,0c0.2,0,0.7,0,1,0c0.8,0,9.7,0,10,0c0.1,0,2.8,0,5.9,0c7.9,0,18.2,0,23.7,0c2.5,0,5.2,0,6.1,0
				c0.8,0,1.6,0,1.8,0c0.2,0,7.5,0,16.2,0s18.1,0,20.7,0c6.5,0,11.4,0,14.8,0c0.1,0,0.2,0,0.2,0l0,0c0,0,0,0,0.1,0h0.1
				c0,0,0,0,0.1,0l0,0l0,0h0.1l0,0l0,0c0,0,0,0,0.1,0s0.2,0,0.2,0l0,0h0.1l0,0l0,0c0,0,0,0,0.1,0s0.1,0,0.1,0l0,0l0,0
				c0.1,0,0.2,0,0.2,0l0,0l0,0l0,0l0,0c0,0,0,0,0.1,0h0.1l0,0c0,0,0,0,0.1,0c0,0,0,0,0.1,0h0.1c0,0,0,0,0.1,0s0.1,0,0.1,0l0,0
				c0,0,0,0,0.1,0l0,0l0,0l0,0c0,0,0,0.1,0.1,0.1l0,0c0,0,0,0,0,0.1l0,0l0,0c0,0,0.1,0,0,0.1l0,0c0,0,0,0,0,0.1c0,0.1,0,0.1,0,0.1
				l0,0l0,0c0,0,0.1,0.1,0,0.1c0,0,0,0,0,0.1c0,0.1,0,0.2,0,0.2l0,0l0,0l0,0l0,0l0,0c0,0,0,0,0.1,0c0,0,0,0,0,0.1v0.1c0,0,0,0,0,0.1
				c0,0,0,0,0,0.1l0,0l0,0c0,0,0.1,0.1,0,0.1l0,0c0,0,0,0,0,0.1v0.1l0,0l0,0l0,0l0,0l0,0l0,0l0,0l0,0l0,0l0,0v0.1l0,0v0.1
				c0,0-0.1,0.1,0,0.1l0,0l0,0l0,0l0,0l0,0l0,0l0,0l0,0c0,0-0.1,0.1-0.1,0h-0.1h-0.1l0,0c0,0,0,0-0.1,0c0,0,0,0-0.1,0h-0.2h-0.1
				h-0.1H178l0,0c0,0,0,0-0.1,0l0,0c0,0,0,0-0.1,0h-0.1l0,0h-0.1h-0.1h-0.1l0,0h-0.2c0,0,0,0-0.1,0H177c0,0,0,0-0.1,0h-0.1l0,0l0,0
				c-1.8,0-145.6,0-149.3,0h-0.1c-0.1,0-0.1,0-0.1,0l0,0l0,0c0,0,0,0-0.1,0h-0.1l0,0c0,0,0,0,0,0.1c-0.1,0-0.1,0-0.1,0h-0.1l0,0
				h-0.1h-0.1c0,0,0,0-0.1,0c0,0-0.1,0-0.2,0s-0.1,0-0.1,0l0,0l0,0l0,0l0,0l0,0l0,0h-0.1h-0.1H26l0,0l0,0l0,0l0,0c0,0-0.1,0-0.2,0
				c0,0,0,0-0.1,0c0,0,0,0-0.1,0l0,0l0,0h-0.1l0,0c0,0,0,0-0.1,0h-0.1c0,0,0,0-0.1,0s-0.1,0-0.1-0.1l0,0l0,0l0,0l0,0v-0.1v-0.1v-0.1
				c0-0.1,0-0.1,0-0.1l0,0v-0.1c0-0.1,0-0.1,0-0.1l0,0v-0.2c0,0,0,0,0-0.1V581v-0.1v-0.2c0,0,0-0.1,0-0.2c0-0.2,0-0.3,0-0.3
				C25.4,580.5,25.4,580.4,25.3,580.3C25.4,580.4,25.4,580.3,25.3,580.3z"/>
		</g>
	</g>
	<g>
		<g>
			<path class="st0" d="M28.3,588.6L28.3,588.6L28.3,588.6c0-0.1,0.1-0.1,0.3-0.2c0.1,0,0.1,0,0.1,0s0,0,0.1,0c0,0,0,0,0.1,0l0,0
				l0,0l0,0H29l0,0l0,0l0,0c0,0,0,0,0.1,0h0.1l0,0l0,0h0.1l0,0h0.1l0,0l0,0l0,0l0,0l0,0l0,0l0,0l0,0l0,0l0,0l0,0h0.1l0,0
				c0,0,0.1,0,0.2,0s0.2,0,0.3,0h0.1h0.1h0.1c0.1,0,0.1,0,0.1,0l0,0c0,0,0,0,0.1,0c1.7,0,4.2,0,7.1,0c7,0,16.7,0,27.8,0
				c5.3,0,10.1,0,10.7,0s1.1,0,1.4,0c0.2,0,0.6,0,0.9,0c0.7,0,9.3,0,9.6,0c0.1,0,2.6,0,5.7,0c7.6,0,17.5,0,22.7,0c2.4,0,5,0,5.8,0
				s1.5,0,1.8,0c0.2,0,7.2,0,15.6,0c8.4,0,17.3,0,19.9,0c6.2,0,11,0,14.2,0c0.1,0,0.2,0,0.2,0l0,0c0,0,0,0,0.1,0h0.1c0,0,0,0,0.1,0
				l0,0l0,0h0.1l0,0l0,0c0,0,0,0,0.1,0s0.2,0,0.2,0l0,0h0.1l0,0l0,0c0,0,0,0,0.1,0s0.1,0,0.1,0l0,0l0,0c0.1,0,0.2,0,0.2,0l0,0l0,0
				l0,0l0,0c0,0,0,0,0.1,0h0.1l0,0c0,0,0,0,0.1,0c0,0,0,0,0.1,0h0.1c0,0,0,0,0.1,0s0.1,0,0.1,0l0,0c0,0,0,0,0.1,0l0,0l0,0l0,0
				c0,0,0,0.1,0.1,0.1l0,0c0,0,0,0,0,0.1l0,0l0,0c0,0,0.1,0,0,0.1l0,0c0,0,0,0,0,0.1c0,0.1,0,0.1,0,0.1l0,0l0,0c0,0,0.1,0.1,0,0.1
				c0,0,0,0,0,0.1c0,0.1,0,0.2,0,0.2l0,0l0,0l0,0l0,0l0,0c0,0,0,0,0.1,0c0,0,0,0,0,0.1v0.1c0,0,0,0,0,0.1c0,0,0,0,0,0.1l0,0l0,0
				c0,0,0.1,0.1,0,0.1l0,0c0,0,0,0,0,0.1v0.1l0,0l0,0l0,0l0,0l0,0l0,0l0,0l0,0l0,0l0,0v0.1l0,0v0.1c0,0-0.1,0.1,0,0.1l0,0l0,0l0,0
				l0,0l0,0l0,0l0,0l0,0c0,0-0.1,0.1-0.1,0h-0.1h-0.1l0,0c0,0,0,0-0.1,0c0,0,0,0-0.1,0h-0.2h-0.1h-0.1h-0.1l0,0c0,0,0,0-0.1,0l0,0
				c0,0,0,0-0.1,0h-0.1l0,0h-0.1h-0.1h-0.1l0,0h-0.2c0,0,0,0-0.1,0h-0.1c0,0,0,0-0.1,0h-0.1l0,0l0,0c-1.8,0-139.8,0-143.3,0h-0.1
				c-0.1,0-0.1,0-0.1,0l0,0l0,0c0,0,0,0-0.1,0h-0.1l0,0c0,0,0,0,0,0.1c-0.1,0-0.1,0-0.1,0H30l0,0h-0.1h-0.1c0,0,0,0-0.1,0
				c0,0-0.1,0-0.2,0s-0.1,0-0.1,0l0,0l0,0l0,0l0,0l0,0l0,0h-0.1h-0.1h-0.1l0,0l0,0l0,0l0,0c0,0-0.1,0-0.2,0c0,0,0,0-0.1,0
				c0,0,0,0-0.1,0l0,0l0,0h-0.1l0,0c0,0,0,0-0.1,0h-0.1c0,0,0,0-0.1,0s-0.1,0-0.1-0.1l0,0l0,0l0,0l0,0v-0.1v-0.1V590
				c0-0.1,0-0.1,0-0.1l0,0v-0.1c0-0.1,0-0.1,0-0.1l0,0v-0.2c0,0,0,0,0-0.1v-0.1v-0.1V589c0,0,0-0.1,0-0.2c0-0.2,0-0.3,0-0.3
				C28.4,588.8,28.4,588.8,28.3,588.6C28.4,588.7,28.4,588.7,28.3,588.6z"/>
		</g>
	</g>
	<path class="st0" d="M13.3,418v29.2H189V418H13.3z M32.4,428.4c-1.7,2.9-2.9,5.7-3.5,9.1c-0.1,0.3-0.1,0.4-0.1,0.7
		c0,0.2,0,0.3,0,0.5c0,0.4-0.1,0.6-0.5,0.6c-0.3,0-0.7-0.2-1-0.4c-0.1-0.1-0.3-0.3-0.3-0.5c0-0.1,0.1-0.6,0.1-0.8
		c0.8-3.2,1.7-6.2,3.2-9.2c0-0.1,0-0.1-0.1-0.1c-0.3,0-1,0.1-1.5,0.1c-0.4,0-0.9-0.1-1.1-0.3c0,0,0-0.1,0-0.6s0.3-0.7,0.4-0.7
		c0.2,0,0.2,0.1,1.5,0.1c1.9,0,3.8-0.6,5.8-0.6c0.7,0,1.8,0.8,1.8,1c0,0.4-0.1,0.6-0.3,0.6c-0.1,0-0.3,0.2-0.6,0.2
		c-0.2,0-0.1-0.1-0.4-0.3c-0.4-0.1-0.4-0.2-0.6-0.2c-1.1,0-2.1,0.1-3,0.3c0.1,0.1,0.1,0.2,0.1,0.2C32.4,428.3,32.4,428.4,32.4,428.4
		z M39,428.2c-0.1,0.1-0.1,0.1-0.3,0.5c-1.1,2.9-2.1,5.9-3.1,9.1c0,0.1,0,0.1,0,0.2c0,0.1,0,0.2,0,0.3c0,0.3-0.1,0.7-0.4,1.2
		c0,0.1-0.2,0.1-0.3,0.1s-0.2,0.1-0.2,0.2c-0.1,0.1-0.1,0.2-0.2,0.2c-0.2,0-0.2-0.2-0.3-0.2c-0.2,0-0.5-0.3-0.6-0.3
		s-0.1-0.1-0.1-0.1c0-0.1,0.2-1.2,0.4-1.5c0.1-0.1,0.1-0.2,0.2-0.5c0.8-3.2,1.8-5.8,2.8-8.9c0.2-0.6,0.4-0.6,0.8-2
		c0.1-0.2,0.4-0.2,0.8-0.2c0.4,0,1.1,0.3,1.1,0.6C39.6,427.5,39.5,427.8,39,428.2z M45.4,428.4c-1.7,2.9-2.9,5.7-3.5,9.1
		c-0.1,0.3-0.1,0.4-0.1,0.7c0,0.2,0,0.3,0,0.5c0,0.4-0.1,0.6-0.5,0.6c-0.3,0-0.7-0.2-1-0.4c-0.1-0.1-0.3-0.3-0.3-0.5
		c0-0.1,0.1-0.6,0.1-0.8c0.8-3.2,1.7-6.2,3.2-9.2c0-0.1,0-0.1-0.1-0.1c-0.3,0-1,0.1-1.5,0.1c-0.4,0-0.9-0.1-1.1-0.3c0,0,0-0.1,0-0.6
		s0.3-0.7,0.4-0.7c0.2,0,0.2,0.1,1.5,0.1c1.9,0,3.8-0.6,5.8-0.6c0.7,0,1.8,0.8,1.8,1c0,0.4-0.1,0.6-0.3,0.6c-0.1,0-0.3,0.2-0.6,0.2
		c-0.2,0-0.1-0.1-0.4-0.3c-0.4-0.1-0.4-0.2-0.6-0.2c-1.1,0-2.1,0.1-3,0.3c0.1,0.1,0.1,0.2,0.1,0.2C45.5,428.3,45.5,428.4,45.4,428.4
		z M56.2,437.9c-0.1,0.1-0.2,0.2-0.8,0.2c-0.2,0-0.2,0-0.4,0c-2,0.5-3.7,1.5-5.9,1.5c-0.8,0-1.3-0.7-1.6-1.2
		c-0.1-0.1-0.1-0.2-0.1-0.3c0-0.3,0.1-0.6,0.3-1.1c0.1-0.3,0-0.3,0.3-1.1c1.2-3.5,2.9-6.8,4.4-10.1c0.1-0.2,0.5-0.2,0.6-0.2
		c0.2,0,0.2,0.2,0.6,0.3c0.2,0.1,0.6,0.3,0.6,0.4c0,0.5-0.3,0.7-0.3,1c0,0.1,0,0.1-0.1,0.2c-0.4,0.3-0.7,0.9-1,1.7
		c-0.2,0.4-0.3,0.6-0.5,1.1c-1,2.2-1.9,4.5-2.7,6.8c0,0.1-0.1,0.3-0.1,0.4c0,0.2,0.1,0.4,0.3,0.4c0.1,0,0.3,0,0.8-0.2
		c1.4-0.4,2.8-0.9,4-1.4c0.1,0,0.2,0,0.4,0s0.8,0.2,1.1,0.5c0.1,0.1,0.1,0.1,0.1,0.2c0,0.1,0.1,0.1,0.1,0.3
		C56.2,437.7,56.2,437.8,56.2,437.9z M68.3,427.3c-0.2,0-0.3,0.1-0.5,0.1s-0.3-0.2-0.7-0.2c-1.9,0-3.6,0.5-5,0.9
		c-0.1,0-0.2,0.1-0.2,0.2c-0.4,1-0.7,1.8-1.1,2.8c0,0.1,0,0.1,0.1,0.1c0.9-0.3,1.9-0.8,2.9-0.8c0.5,0,1,0.1,1.5,0.4
		c0.2,0.1,0.3,0.4,0.3,0.6s-0.8,0.4-1,0.4s-0.5-0.1-0.7-0.1c-1.2,0-2.4,0.6-3.4,0.9c-0.2,0-0.5,0.1-0.6,0.3
		c-0.9,1.9-1.5,3.4-1.5,4.4c0,0.3,0.3,0.7,0.5,0.7c0.4,0,1.1-0.1,1.6-0.4c0.6-0.3,1-0.4,1.4-0.6c1.1-0.5,2-1.4,3.2-1.4
		c0.1,0,0.2,0,0.2,0.1c0.1,0.1,0.6,0.4,0.6,0.6c0,0.1,0,0.2-0.1,0.3c-0.1,0-0.3,0.1-0.4,0.3c-0.2,0.2-0.4,0.3-0.5,0.4
		c-1.8,1-3.8,2-6.5,2c-0.1,0-1.2-0.3-1.5-0.8c-0.1-0.2-0.2-0.8-0.2-1c0-1.6,0.7-3.1,1.3-4.5c-0.1-0.1-0.3-0.3-0.3-0.6
		c0-0.1,0-0.2,0-0.2c0.1-0.1,0.1-0.1,0.6-0.2c0.2,0,0.2-0.1,0.3-0.3c0.6-1.2,0.8-1.9,1-2.5c0-0.1,0-0.1-0.1-0.1s-0.5,0.2-0.7,0.2
		c-0.1,0-0.3,0-0.4-0.1c-0.3-0.1-0.5-0.8-0.5-1c0-0.1,0-0.1,0.1-0.1c1.3-0.3,2.4-0.8,3.6-1.2c0.8-0.3,3.4-1,5.4-1
		c0.2,0,0.6,0.1,0.7,0.1c0.5,0.2,1,0.6,1,1C68.6,427.2,68.5,427.3,68.3,427.3z"/>
</g>
</svg>
