<?xml version="1.0" encoding="utf-8"?>
<!-- Generator: Adobe Illustrator 19.2.1, SVG Export Plug-In . SVG Version: 6.00 Build 0)  -->
<svg version="1.1" id="Layer_1" xmlns="http://www.w3.org/2000/svg" xmlns:xlink="http://www.w3.org/1999/xlink" x="0px" y="0px"
	 viewBox="0 0 200 70" style="enable-background:new 0 0 200 70;" xml:space="preserve">
<style type="text/css">
	.st0{enable-background:new    ;}
	.st1{fill:#FFFFFF;}
</style>
<g class="st0">
	<path class="st1" d="M16.9,38.6L17,38c0.2,0,0.3-0.3,0.4-0.8c0-0.1,0.1-0.2,0.1-0.4c0.1-0.3,0.1-0.4,0.1-0.5
		c0.1-0.3,0.3-0.8,0.5-1.3c0.4-1.5,0.8-2.6,1.1-3.4c0.1-0.1,0.1-0.3,0.2-0.4c0.1-0.1,0.1-0.3,0.1-0.3c0-0.1,0-0.1,0.1-0.2
		c0-0.1,0-0.2,0-0.2c-0.2-0.2-0.1-0.5,0.4-0.9c0.2-0.3,0.4-0.4,0.6-0.4s0.4,0,0.7,0c0.3,0,0.8,0,1.5,0c0.1,0,0.2,0.1,0.4,0.2
		c0.5,0.2,0.7,0.3,0.7,0.3c0,0.1,0.1,0.2,0.2,0.2c0.2,0,0.4,0.2,0.7,0.5c0.7,0.8,1,1.6,0.9,2.4c-0.1,0.5-0.1,0.9-0.2,1
		c-0.2,0.2-0.3,0.3-0.3,0.4c0,0.1-0.2,0.4-0.5,0.9s-0.7,0.8-1,1.1c-0.3,0.4-0.8,0.8-1.2,1.1c-1.6,0.7-2.7,1-3.3,1c0,0-0.2,0-0.4,0.1
		s-0.4,0.1-0.5,0.2s-0.1,0.2-0.2,0.5s-0.2,0.5-0.2,0.6c-0.1,0.1-0.3,0.6-0.5,1.5c-0.3,0.8-0.4,1.4-0.5,1.7s-0.1,0.5-0.2,0.5
		s-0.2,0.1-0.3,0.1c-0.2,0-0.3-0.1-0.4-0.3c-0.1-0.1-0.2-0.3-0.1-0.6c0.1-0.3,0.3-1.1,0.6-2.2c0.1-0.3,0.1-0.5,0.2-0.8
		C16.8,39,16.9,38.7,16.9,38.6z M18.8,36.6V37v0.1c0,0.1,0.2,0.1,0.6,0c0.9-0.1,1.8-0.5,2.8-1.1c0.5-0.3,0.9-0.8,1.4-1.4
		c0.7-1.2,1.1-2.1,0.9-2.7c-0.1-0.3-0.2-0.7-0.5-1c-0.6-0.6-1.3-0.8-2.3-0.6c-0.2,0.1-0.4,0.2-0.5,0.3S21,31,20.8,31.4
		c-0.3,0.6-0.6,1.2-0.8,1.9c-0.3,1-0.5,1.8-0.8,2.3S18.8,36.6,18.8,36.6z"/>
</g>
<g class="st0">
	<path class="st1" d="M34.5,29.6c0.7-0.1,1.2-0.1,1.5-0.1s0.4,0.1,0.5,0.3c0.2,0.6,0,0.8-0.4,0.8c-0.2,0.1-0.8,0.1-1.6,0.1
		C33.6,30.8,33,30.9,33,31c0,0-0.1,0.1-0.1,0.2s-0.1,0.1-0.1,0.2c0,0.1,0,0.5-0.2,0.9s-0.3,1-0.5,1.5c-0.4,1.3-0.7,2.1-0.8,2.2
		c-0.1,0.2-0.1,0.4-0.2,0.6c-0.3,0.9-0.6,1.8-0.9,2.8c-0.3,0.9-0.5,1.6-0.6,2.1c0.3,0,0.8-0.1,1.5-0.1c0.7-0.1,1.2-0.1,1.4-0.1
		s0.3,0.1,0.4,0.3c0.3,0.5,0.3,0.8-0.2,0.9c-0.2,0.1-0.6,0.1-1.1,0.1c-1.1,0-1.8,0.1-2.1,0.1c-0.3,0-0.5,0.1-0.5,0.2
		c0,0.2-0.2,0.2-0.6,0.1c-0.2-0.2-0.8-0.3-1.8-0.3c-0.3,0-0.5,0-0.8-0.1c-0.2-0.1-0.3-0.3-0.3-0.4c0-0.3,0.6-0.5,1.7-0.5h1.1
		l0.2-0.4c0.1-0.3,0.2-0.7,0.4-1.1c0.1-0.4,0.3-0.9,0.5-1.4c0.5-1.4,0.7-2.2,0.7-2.3c0.2-0.4,0.4-1.1,0.7-2.1
		c0.6-1.9,0.9-2.9,0.8-2.9s-0.5,0-1.1,0.1s-0.9,0.1-1,0.1c-0.1,0.1-0.2,0.1-0.3,0.1s-0.3-0.1-0.3-0.3s0-0.4,0.1-0.5s0.4-0.2,0.9-0.4
		s1-0.3,1.5-0.3c0.5-0.1,0.9-0.2,1.2-0.4c0.3-0.1,0.5-0.1,0.7-0.1C33.3,29.6,33.8,29.6,34.5,29.6z"/>
	<path class="st1" d="M36.7,37.3L36.7,37.3c0,0.1,0,0.1-0.1,0.2c0,0.1,0,0.2-0.1,0.2c-0.1,0.1-0.1,0.3-0.1,0.6
		c-0.1,0.4-0.3,0.8-0.4,1.4c-0.1,0.5-0.1,1-0.1,1.2c0.1,0.4,0.4,0.8,1.1,1.1c0.3,0.1,0.5,0.2,0.7,0.2c0.3,0.1,0.9,0,1.8-0.3
		c0.1,0,0.3-0.1,0.5-0.1s0.4-0.1,0.6-0.2c0.5-0.1,0.9-0.2,0.9-0.1c0.1,0.1,0.2,0.3,0.1,0.5c0,0.1-0.3,0.3-0.6,0.5s-0.8,0.4-1.1,0.5
		c-0.4,0.2-0.9,0.3-1.5,0.4c-0.6,0.1-1,0-1.3-0.1c-0.5-0.1-1-0.4-1.4-0.8c-0.4-0.4-0.7-0.8-0.8-1.2c0-0.3-0.1-0.7-0.1-1.1
		c0-0.4,0-0.7,0.1-0.8c0,0,0.1-0.1,0-0.2c0-0.1,0-0.3,0.1-0.6s0.1-0.5,0.1-0.7c0.1-0.1,0.1-0.3,0.2-0.3c0.1-0.1,0.1-0.2,0.1-0.3
		s0-0.3,0.2-0.5l0.2-0.3c0-0.1,0.1-0.4,0.3-0.9s0.3-0.8,0.4-0.9l0,0c0.1-0.1,0.1-0.3,0.2-0.4c0.1-0.5,0.5-1.4,1.3-2.6
		c1.1-1.8,1.8-2.7,2.1-2.7c0.1,0,0.3,0.1,0.4,0.2c0.1,0.1,0.2,0.3,0.3,0.4c0.1,0.3,0.1,0.5,0,0.5c-0.2,0.1-0.5,0.6-1,1.3
		s-0.9,1.4-1.3,2L37.7,35c-0.3,0.7-0.6,1.4-0.9,2.2C36.7,37,36.7,37.1,36.7,37.3z"/>
	<path class="st1" d="M44.8,37.3L44.8,37.3c0,0.1,0,0.1-0.1,0.2c0,0.1,0,0.2-0.1,0.2c-0.1,0.1-0.1,0.3-0.1,0.6
		c-0.1,0.4-0.3,0.8-0.4,1.4c-0.1,0.5-0.1,1-0.1,1.2c0.1,0.4,0.4,0.8,1.1,1.1c0.3,0.1,0.5,0.2,0.7,0.2c0.3,0.1,0.9,0,1.8-0.3
		c0.1,0,0.3-0.1,0.5-0.1s0.4-0.1,0.6-0.2c0.5-0.1,0.9-0.2,0.9-0.1c0.1,0.1,0.2,0.3,0.1,0.5c0,0.1-0.3,0.3-0.6,0.5S48.3,42.9,48,43
		c-0.4,0.2-0.9,0.3-1.5,0.4c-0.6,0.1-1,0-1.3-0.1c-0.5-0.1-1-0.4-1.4-0.8c-0.4-0.4-0.7-0.8-0.8-1.2c0-0.3-0.1-0.7-0.1-1.1
		c0-0.4,0-0.7,0.1-0.8c0,0,0.1-0.1,0-0.2c0-0.1,0-0.3,0.1-0.6s0.1-0.5,0.1-0.7c0.1-0.1,0.1-0.3,0.2-0.3c0.1-0.1,0.1-0.2,0.1-0.3
		s0-0.3,0.2-0.5l0.2-0.3c0-0.1,0.1-0.4,0.3-0.9s0.3-0.8,0.4-0.9l0,0c0.1-0.1,0.1-0.3,0.2-0.4c0.1-0.5,0.5-1.4,1.3-2.6
		c1.1-1.8,1.8-2.7,2.1-2.7c0.1,0,0.3,0.1,0.4,0.2c0.1,0.1,0.2,0.3,0.3,0.4c0.1,0.3,0.1,0.5,0,0.5c-0.2,0.1-0.5,0.6-1,1.3
		s-0.9,1.4-1.3,2L45.8,35c-0.3,0.7-0.6,1.4-0.9,2.2C44.8,37,44.8,37.1,44.8,37.3z"/>
</g>
<g>
	<path class="st1" d="M78.8,30.4c-0.1,0-0.2,0-0.4,0.1c-1.2,0.3-2.4,0.4-3.3,1.4c-0.5,1.4-1.2,2.9-1.5,4.4c0.5,0.5,0.9,0.7,1.2,0.7
		c0.1,0,0.1,0,0.3-0.1c1.3-0.9,2.5-2.2,3.2-3.6c0.4-0.7,1-2,1-2.7C79.3,30.5,79.3,30.4,78.8,30.4z"/>
	<path class="st1" d="M62.7,21.5V51h62.7V21.5H62.7z M76.6,37.6c-0.2,0.2-1.2,0.6-2,0.6c-0.7,0-0.9-0.3-1.3-0.5
		c-0.1,0-0.1-0.1-0.2-0.1s-0.1,0-0.2,0.3c-0.6,1.8-1.2,4.5-1.2,4.8c0,0.1,0,0.1-0.1,0.2c-0.1,0.1-0.3,0.2-0.5,0.2
		c-0.1,0-0.2,0-0.3-0.1c-0.3-0.3-0.4-0.2-0.7-0.5L70,42.4c0,0,0-0.1,0.1-0.4c0.2-0.6,0.4-1.9,0.7-2.6c0-0.1,0.1-0.3,0.1-0.4
		c0-0.5,0.7-1.9,0.7-2.5c0-0.1,0-0.1-0.1-0.2c-0.2-0.1-0.4-0.3-0.4-0.5s0-0.2,0.1-0.2s0.3-0.2,0.6-0.2c0,0,0.1,0,0.1-0.1
		c0.4-1.1,0.5-1.3,0.7-2c0-0.1,0-0.1-0.1-0.1s-0.1,0-0.3-0.1c-0.4-0.2-0.3-0.4-0.5-0.5c-0.1-0.1-0.1-0.2-0.1-0.2
		c0-0.3,0.2-0.5,0.7-0.8c2-1.3,4-2.6,6.4-2.6c0.6,0,0.9,0,1.4,0.4s0.7,0.6,0.7,1.4c0,1.1-0.4,1.8-0.9,2.8
		C79.3,35.1,77.9,36.5,76.6,37.6z M85,32c-1.1,2.9-2.1,5.9-3.1,9.1c0,0.1,0,0.1,0,0.2c0,0.1,0,0.2,0,0.3c0,0.3-0.1,0.7-0.4,1.2
		c0,0.1-0.2,0.1-0.3,0.1c-0.1,0-0.2,0.1-0.2,0.2c-0.1,0.1-0.1,0.2-0.2,0.2c-0.2,0-0.2-0.2-0.3-0.2c-0.2,0-0.5-0.3-0.6-0.3
		s-0.1-0.1-0.1-0.1c0-0.1,0.2-1.2,0.4-1.5c0.1-0.1,0.1-0.2,0.2-0.5c0.8-3.2,1.8-5.8,2.8-8.9c0.2-0.6,0.4-0.6,0.8-2
		c0.1-0.2,0.4-0.2,0.8-0.2s1.1,0.3,1.1,0.6c0,0.7-0.1,0.9-0.6,1.4C85.2,31.6,85.2,31.7,85,32z M94.5,41.2c-0.1,0.1-0.2,0.2-0.8,0.2
		c-0.2,0-0.2,0-0.4,0c-2,0.5-3.7,1.5-5.9,1.5c-0.8,0-1.3-0.7-1.6-1.2c-0.1-0.1-0.1-0.2-0.1-0.3c0-0.3,0.1-0.6,0.3-1.1
		c0.1-0.3,0-0.3,0.3-1.1c1.2-3.5,2.9-6.8,4.4-10.1c0.1-0.2,0.5-0.2,0.6-0.2c0.2,0,0.2,0.2,0.6,0.3c0.2,0.1,0.6,0.3,0.6,0.4
		c0,0.5-0.3,0.7-0.3,1c0,0.1,0,0.1-0.1,0.2c-0.4,0.3-0.7,0.9-1,1.7c-0.2,0.4-0.3,0.6-0.5,1.1c-1,2.2-1.9,4.5-2.7,6.8
		c0,0.1-0.1,0.3-0.1,0.4c0,0.2,0.1,0.4,0.3,0.4c0.1,0,0.3,0,0.8-0.2c1.4-0.4,2.8-0.9,4-1.4c0.1,0,0.2,0,0.4,0c0.2,0,0.8,0.2,1.1,0.5
		c0.1,0.1,0.1,0.1,0.1,0.2c0,0.1,0.1,0.1,0.1,0.3C94.5,41,94.5,41.1,94.5,41.2z M103.9,41.2c-0.1,0.1-0.2,0.2-0.8,0.2
		c-0.2,0-0.2,0-0.4,0c-2,0.5-3.7,1.5-5.9,1.5c-0.8,0-1.3-0.7-1.6-1.2c-0.1-0.1-0.1-0.2-0.1-0.3c0-0.3,0.1-0.6,0.3-1.1
		c0.1-0.3,0-0.3,0.3-1.1c1.2-3.5,2.9-6.8,4.4-10.1c0.1-0.2,0.5-0.2,0.6-0.2c0.2,0,0.2,0.2,0.6,0.3c0.2,0.1,0.6,0.3,0.6,0.4
		c0,0.5-0.3,0.7-0.3,1c0,0.1,0,0.1-0.1,0.2c-0.4,0.3-0.7,0.9-1,1.7c-0.2,0.4-0.3,0.6-0.5,1.1c-1,2.2-1.9,4.5-2.7,6.8
		c0,0.1-0.1,0.3-0.1,0.4c0,0.2,0.1,0.4,0.3,0.4c0.1,0,0.3,0,0.8-0.2c1.4-0.4,2.8-0.9,4-1.4c0.1,0,0.2,0,0.4,0c0.2,0,0.8,0.2,1.1,0.5
		c0.1,0.1,0.1,0.1,0.1,0.2c0,0.1,0.1,0.1,0.1,0.3C103.9,41,103.9,41.1,103.9,41.2z M109.5,41.2c0.2,0.1,0.8,0.1,1.4,0.1
		c1.2,0,1.8-0.1,2.2-0.5c0.4-0.4,0.4-0.9,0.7-1.3c0.2-0.2,0.5-0.3,0.9-0.3c0.2,0,0.3,0.1,0.6,0.4c0.1,0.1,0.1,0.2,0.1,0.3
		c0,0.3-0.4,1.8-0.7,2.2c-0.4,0.5-1.2,0.6-3.6,0.6c-1.3,0-3,0-3.4-0.4c-0.5-0.4-0.8-0.9-0.8-1.3c0-0.2,0.3-0.8,2.8-3.2
		c3.6-3.5,4.7-5.6,4.7-6.8c0-0.3-0.2-0.3-0.5-0.3c-1,0-2.4,1.3-2.4,1.7c0,0.1-0.4,0.4-0.6,0.7c-0.1,0.3-0.3,0.4-0.6,0.4
		c-0.2,0-0.4,0.1-0.5,0.1s-0.6-0.3-0.6-0.9c0-0.5,0-0.5,0.5-1.1s1-1,1.8-1.4c0.9-0.6,1.4-0.6,2.5-0.6c0.7,0,2,1.1,2,1.7
		c0,4-4.9,7.1-6.7,9.5c-0.2,0.2-0.2,0.3-0.2,0.3C109.2,41.1,109.3,41.2,109.5,41.2z"/>
</g>
<g class="st0">
	<path class="st1" d="M139.3,38.6l0.1-0.7c0.2,0,0.3-0.3,0.4-0.8c0-0.1,0.1-0.2,0.1-0.4c0.1-0.3,0.1-0.4,0.1-0.5
		c0.1-0.3,0.3-0.8,0.5-1.3c0.4-1.5,0.8-2.6,1.1-3.4c0.1-0.1,0.1-0.3,0.2-0.4c0.1-0.1,0.1-0.3,0.1-0.3s0-0.1,0.1-0.2
		c0-0.1,0-0.2,0-0.2c-0.2-0.2-0.1-0.5,0.4-0.9c0.2-0.3,0.4-0.4,0.6-0.4c0.2,0,0.4,0,0.7,0s0.8,0,1.5,0c0.1,0,0.2,0.1,0.4,0.2
		c0.5,0.2,0.7,0.3,0.7,0.3c0,0.1,0.1,0.2,0.2,0.2c0.2,0,0.4,0.2,0.7,0.5c0.7,0.8,1,1.6,0.9,2.4c-0.1,0.5-0.1,0.9-0.2,1
		c-0.2,0.2-0.3,0.3-0.3,0.4c0,0.1-0.2,0.4-0.5,0.9s-0.7,0.8-1,1.1c-0.3,0.4-0.8,0.8-1.2,1.1c-1.6,0.7-2.7,1-3.3,1c0,0-0.2,0-0.4,0.1
		c-0.3,0-0.4,0.1-0.5,0.2c-0.1,0.1-0.1,0.2-0.2,0.5c-0.1,0.3-0.2,0.5-0.2,0.6c-0.1,0.1-0.3,0.6-0.5,1.5s-0.4,1.4-0.5,1.7
		s-0.1,0.5-0.2,0.5c-0.1,0-0.2,0.1-0.3,0.1c-0.2,0-0.3-0.1-0.4-0.3c-0.1-0.1-0.2-0.3-0.1-0.6c0.1-0.3,0.3-1.1,0.7-2.2
		c0.1-0.3,0.1-0.5,0.2-0.8C139.2,39,139.3,38.7,139.3,38.6z M141.2,36.6V37v0.1c0,0.1,0.2,0.1,0.6,0c0.9-0.1,1.8-0.5,2.8-1.1
		c0.5-0.3,0.9-0.8,1.4-1.4c0.7-1.2,1.1-2.1,0.9-2.7c-0.1-0.3-0.2-0.7-0.5-1c-0.6-0.6-1.3-0.8-2.3-0.6c-0.2,0.1-0.4,0.2-0.5,0.3
		s-0.2,0.4-0.4,0.8c-0.3,0.6-0.6,1.2-0.8,1.9c-0.3,1-0.5,1.8-0.8,2.3S141.2,36.6,141.2,36.6z"/>
	<path class="st1" d="M155.5,29.6c0.7-0.1,1.2-0.1,1.5-0.1s0.4,0.1,0.5,0.3c0.2,0.6,0,0.8-0.4,0.8c-0.2,0.1-0.8,0.1-1.6,0.1
		c-0.9,0.1-1.5,0.2-1.5,0.3c0,0-0.1,0.1-0.1,0.2c-0.1,0.1-0.1,0.1-0.1,0.2c0,0.1,0,0.5-0.2,0.9s-0.3,1-0.5,1.5
		c-0.4,1.3-0.7,2.1-0.8,2.2c-0.1,0.2-0.2,0.4-0.2,0.6c-0.3,0.9-0.5,1.8-0.8,2.8c-0.3,0.9-0.5,1.6-0.6,2.1c0.3,0,0.8-0.1,1.5-0.1
		c0.7-0.1,1.2-0.1,1.4-0.1s0.3,0.1,0.4,0.3c0.3,0.5,0.3,0.8-0.2,0.9c-0.2,0.1-0.6,0.1-1.1,0.1c-1.1,0-1.8,0.1-2.1,0.1
		s-0.5,0.1-0.5,0.2c0,0.2-0.2,0.2-0.6,0.1c-0.2-0.2-0.8-0.3-1.8-0.3c-0.3,0-0.5,0-0.8-0.1c-0.2-0.1-0.3-0.3-0.3-0.4
		c0-0.3,0.6-0.5,1.7-0.5h1.1l0.2-0.4c0.1-0.3,0.2-0.7,0.3-1.1s0.3-0.9,0.5-1.4c0.5-1.4,0.7-2.2,0.7-2.3c0.2-0.4,0.4-1.1,0.7-2.1
		c0.6-1.9,0.9-2.9,0.8-2.9c-0.1,0-0.5,0-1.1,0.1s-0.9,0.1-1,0.1c-0.1,0.1-0.2,0.1-0.3,0.1s-0.3-0.1-0.3-0.3s0-0.4,0.1-0.5
		s0.4-0.2,0.9-0.4s1-0.3,1.5-0.3c0.5-0.1,0.9-0.2,1.2-0.4c0.3-0.1,0.5-0.1,0.7-0.1C154.3,29.6,154.8,29.6,155.5,29.6z"/>
	<path class="st1" d="M157.6,37.3L157.6,37.3c0,0.1,0,0.1-0.1,0.2c0,0.1,0,0.2-0.1,0.2c-0.1,0.1-0.1,0.3-0.1,0.6
		c-0.1,0.4-0.3,0.8-0.4,1.4c-0.1,0.5-0.1,1-0.1,1.2c0.1,0.4,0.4,0.8,1.1,1.1c0.3,0.1,0.5,0.2,0.7,0.2c0.3,0.1,0.9,0,1.8-0.3
		c0.1,0,0.3-0.1,0.5-0.1s0.4-0.1,0.6-0.2c0.5-0.1,0.9-0.2,0.9-0.1c0.1,0.1,0.2,0.3,0.1,0.5c0,0.1-0.3,0.3-0.6,0.5s-0.8,0.4-1.1,0.5
		c-0.4,0.2-0.9,0.3-1.5,0.4c-0.6,0.1-1,0-1.3-0.1c-0.5-0.1-1-0.4-1.4-0.8c-0.4-0.4-0.7-0.8-0.8-1.2c0-0.3-0.1-0.7-0.1-1.1
		c0-0.4,0-0.7,0-0.8c0,0,0.1-0.1,0-0.2c0-0.1,0-0.3,0.1-0.6s0.1-0.5,0.1-0.7c0.1-0.1,0.1-0.3,0.2-0.3c0.1-0.1,0.1-0.2,0.1-0.3
		s0-0.3,0.2-0.5l0.2-0.3c0-0.1,0.1-0.4,0.3-0.9s0.3-0.8,0.4-0.9l0,0c0.1-0.1,0.1-0.3,0.2-0.4c0.1-0.5,0.5-1.4,1.3-2.6
		c1.1-1.8,1.8-2.7,2.1-2.7c0.1,0,0.3,0.1,0.4,0.2c0.1,0.1,0.2,0.3,0.3,0.4c0.1,0.3,0.1,0.5,0,0.5c-0.2,0.1-0.5,0.6-1,1.3
		s-0.9,1.4-1.3,2l-0.8,1.6C158.2,35.7,157.9,36.4,157.6,37.3C157.7,37,157.6,37.1,157.6,37.3z"/>
	<path class="st1" d="M165.8,37.3L165.8,37.3c0,0.1,0,0.1-0.1,0.2c0,0.1,0,0.2-0.1,0.2c-0.1,0.1-0.1,0.3-0.1,0.6
		c-0.1,0.4-0.3,0.8-0.4,1.4c-0.1,0.5-0.1,1-0.1,1.2c0.1,0.4,0.4,0.8,1.1,1.1c0.3,0.1,0.5,0.2,0.7,0.2c0.3,0.1,0.9,0,1.8-0.3
		c0.1,0,0.3-0.1,0.5-0.1s0.4-0.1,0.6-0.2c0.5-0.1,0.9-0.2,0.9-0.1c0.1,0.1,0.2,0.3,0.1,0.5c0,0.1-0.3,0.3-0.6,0.5s-0.8,0.4-1.1,0.5
		c-0.4,0.2-0.9,0.3-1.5,0.4c-0.6,0.1-1,0-1.3-0.1c-0.5-0.1-1-0.4-1.4-0.8c-0.4-0.4-0.7-0.8-0.8-1.2c0-0.3-0.1-0.7-0.1-1.1
		c0-0.4,0-0.7,0-0.8c0,0,0.1-0.1,0-0.2c0-0.1,0-0.3,0.1-0.6s0.1-0.5,0.1-0.7c0.1-0.1,0.1-0.3,0.2-0.3c0.1-0.1,0.1-0.2,0.1-0.3
		s0-0.3,0.2-0.5l0.2-0.3c0-0.1,0.1-0.4,0.3-0.9s0.3-0.8,0.4-0.9l0,0c0.1-0.1,0.1-0.3,0.2-0.4c0.1-0.5,0.5-1.4,1.3-2.6
		c1.1-1.8,1.8-2.7,2.1-2.7c0.1,0,0.3,0.1,0.4,0.2c0.1,0.1,0.2,0.3,0.3,0.4c0.1,0.3,0.1,0.5,0,0.5c-0.2,0.1-0.5,0.6-1,1.3
		s-0.9,1.4-1.3,2l-0.8,1.6C166.4,35.7,166.1,36.4,165.8,37.3C165.8,37,165.8,37.1,165.8,37.3z"/>
	<path class="st1" d="M182.3,32.7L182.3,32.7c-0.2,0-0.4,0-0.9,0.1c-0.4,0.1-0.6,0.2-0.6,0.2s-0.2,0.1-0.4,0.2
		c-0.3,0.1-0.4,0.1-0.5,0.1s-0.2-0.1-0.3-0.4c-0.1-0.2-0.2-0.4-0.1-0.5c0-0.1,0.5-0.3,1.2-0.7c0.3-0.1,0.7-0.1,1.3-0.2
		c0.6,0,1,0,1.3,0c1.2,0.1,1.9,0.6,2,1.5c0.1,0.3,0.1,0.5,0,0.7c-0.1,0.1-0.3,0.4-0.7,0.7c-0.9,0.6-1.5,0.9-1.7,1s-0.3,0.2-0.5,0.3
		c-0.4,0.3-0.7,0.4-0.7,0.5c0.2,0.1,0.4,0.2,0.5,0.4c0.7,0.3,1.3,0.7,1.7,1.4c0.6,1.3,0.2,2.4-1.2,3.2c-0.8,0.5-1.7,0.7-2.7,0.8
		c-0.5,0-1-0.1-1.4-0.2c-0.4-0.2-0.6-0.4-0.6-0.6c0-0.2,0.1-0.3,0.1-0.3s0.3,0,0.6,0c0.7,0.1,1.4,0.1,2.2-0.1s1.4-0.5,1.8-0.9
		c0.4-0.4,0.6-0.7,0.5-1.1c-0.1-0.6-0.6-1.1-1.8-1.4c-0.5-0.1-0.9-0.2-1.1-0.2c-0.2,0-0.5,0-0.7-0.2c-0.1-0.1-0.2-0.3-0.4-0.6
		c0-0.1,0.1-0.2,0.3-0.3s0.9-0.5,2.1-1.2c1.2-0.6,1.9-1.1,2.3-1.4c0.3-0.3,0.4-0.5,0.4-0.6s-0.2-0.2-0.5-0.2
		C182.8,32.6,182.3,32.6,182.3,32.7z"/>
</g>
<g>
	<g>
		<path class="st1" d="M125.5,52C125.5,52,125.5,52.1,125.5,52C125.5,52.1,125.5,52.1,125.5,52c0,0.1-0.1,0.1-0.2,0.1h-0.1l0,0l0,0
			l0,0l0,0l0,0h-0.1l0,0l0,0l0,0l0,0l0,0l0,0l0,0H125l0,0c0,0,0,0-0.1,0l0,0l0,0l0,0l0,0l0,0l0,0l0,0l0,0l0,0l0,0l0,0c0,0,0,0-0.1,0
			l0,0h-0.1c-0.1,0-0.1,0-0.2,0h-0.1h-0.1c0,0,0,0-0.1,0h-0.1l0,0c0,0,0,0-0.1,0c-2.2,0-5.3,0-9.1,0c-8.9,0-21.3,0-35.4,0
			c-6.8,0-12.9,0-13.6,0s-1.4,0-1.7,0c-0.5,0-1.3,0-2,0h-0.1V52c0-0.1,0-0.2,0-0.3c0-0.2,0-0.6,0-0.9c0-0.4,0-1,0-1.7
			c0-1.2,0-2.6,0-4.1c0-2.9,0-5.7,0-5.9s0-3.4,0-7.2c0-1.9,0-3.9,0-5.7c0-1.1,0-2.2,0-3.3v-2.5c0-0.1,0.1-0.1,0.1-0.1h0.2h0.4h0.8h1
			c2.2,0,4.3,0,6.3,0c4.1,0,7.7,0,10.4,0c3.1,0,6.4,0,7.4,0s2,0,2.2,0c0.3,0,9.2,0,19.8,0c2.7,0,5.4,0,8,0c1.3,0,2.6,0,3.8,0
			c0.6,0,1.2,0,1.8,0c0.4,0,0.8,0,1.2,0h0.8h0.2h0.1v0.1v0.4c0,4.9,0,8.8,0,10.5c0,8,0,14,0,18c0,0.1,0,0.1,0,0.1l0,0c0,0,0,0,0,0.1
			c0,0,0,0,0,0.1l0,0l0,0l0,0c0,0,0,0,0,0.1l0,0l0,0c0,0,0,0,0,0.1v0.1l0,0c0,0,0,0.1,0,0l0,0l0,0c0,0,0,0,0,0.1v0.1l0,0l0,0
			c0,0.1,0,0.2,0,0.2l0,0l0,0l0,0l0,0l0,0l0,0l0,0l0,0l0,0c0,0,0,0,0,0.1c0,0,0,0,0,0.1s0,0.1,0,0l0,0l0,0l0,0l0,0l0,0l0,0l0,0l0,0
			l0,0l0,0l0,0l0,0c0,0,0,0-0.1,0h-0.1l0,0l0,0h-0.1l0,0c0,0-0.1,0-0.2,0l0,0l0,0l0,0l0,0l0,0l0,0c0,0,0,0-0.1,0h-0.1l0,0l0,0l0,0
			l0,0h-0.1l0,0l0,0c0,0,0,0-0.1,0l0,0l0,0l0,0l0,0l0,0l0,0l0,0l0,0l0,0l0,0l0,0l0,0h-0.1h-0.1l0,0l0,0l0,0l0,0l0,0l0,0l0,0l0,0
			c0,0,0,0,0-0.1v-0.1v-0.1l0,0l0,0l0,0v-0.1c0,0,0,0,0-0.1c0,0,0,0,0-0.1v-0.1l0,0l0,0l0,0l0,0c0,0,0,0,0-0.1l0,0c0,0,0,0,0-0.1
			l0,0v-0.1l0,0v-0.1l0,0l0,0l0,0c0,0,0,0,0-0.1l0,0l0,0l0,0c0-0.6,0-1.5,0-2.6c0-5.8,0-14,0-23.7c0-0.4,0-0.7,0-1.1h-0.1h-0.9
			c-1.3,0-2.5,0-3.8,0c-2.6,0-5.3,0-8.1,0c-5.5,0-11.3,0-17.3,0c-6,0-12.1,0-18.3,0c-3.1,0-6.2,0-9.3,0h-2.3h-1.1h-0.1V26
			c0,4.8,0,9.7,0,14.4c0,2.4,0,4.7,0,7.1c0,0.9,0,1.8,0,2.7h0.1H65c0.6,0,1.1,0,1.7,0c31,0,56.1,0,57.8,0h0.1c0,0,0.1,0,0,0l0,0l0,0
			c0,0,0,0,0.1,0h0.1l0,0l0,0h0.1c0,0,0,0,0.1,0l0,0c0,0,0,0,0.1,0h0.1l0,0h0.1h0.1l0,0l0,0l0,0l0,0l0,0l0,0l0,0l0,0c0,0,0,0,0.1,0
			l0,0l0,0l0,0l0,0h0.1c0,0,0,0,0.1,0l0,0l0,0l0,0h0.1l0,0l0,0l0,0c0,0,0,0,0.1,0c0,0,0,0,0,0.1l0,0l0,0l0,0l0,0l0,0c0,0,0,0,0,0.1
			v0.1c0,0,0,0,0,0.1l0,0c0,0,0,0,0,0.1v0.1l0,0v0.1l0,0V51l0,0v0.1v0.1c0,0.1,0,0.2,0,0.2C125.5,51.9,125.5,51.9,125.5,52
			C125.5,51.9,125.5,52,125.5,52z"/>
	</g>
</g>
</svg>
