<?xml version="1.0" encoding="utf-8"?>
<!-- Generator: Adobe Illustrator 19.2.1, SVG Export Plug-In . SVG Version: 6.00 Build 0)  -->
<svg version="1.1" id="Layer_1" xmlns="http://www.w3.org/2000/svg" xmlns:xlink="http://www.w3.org/1999/xlink" x="0px" y="0px"
	 viewBox="0 0 200 70" style="enable-background:new 0 0 200 70;" xml:space="preserve">
<style type="text/css">
	.st0{fill:#FFFFFF;}
	.st1{enable-background:new    ;}
</style>
<g>
	<g>
		<path class="st0" d="M194,56.1L194,56.1L194,56.1c0,0.1-0.1,0.1-0.3,0.2c-0.1,0-0.1,0-0.1,0s0,0-0.1,0c0,0,0,0-0.1,0l0,0l0,0l0,0
			h-0.1l0,0l0,0l0,0c0,0,0,0-0.1,0h-0.1l0,0l0,0H193l0,0h-0.1l0,0l0,0l0,0l0,0l0,0l0,0l0,0l0,0l0,0l0,0l0,0h-0.1l0,0
			c0,0-0.1,0-0.2,0c-0.1,0-0.2,0-0.3,0h-0.1h-0.1H192c-0.1,0-0.1,0-0.1,0l0,0c0,0,0,0-0.1,0c-3,0-7.3,0-12.5,0
			c-12.3,0-29.4,0-48.9,0c-0.5,0-1,0-1.5,0h-0.8h-0.4h-0.2c0-0.1,0-0.1,0-0.2c0-1,0-1.9,0-2.9c0-1.1,0-2.2,0-3.3c0-2.1,0-4.1,0-5.8
			c0-3.4,0-5.7,0-6.2c0-1,0-2,0-2.4s0-1.1,0-1.7c0-0.6,0-4.7,0-8.7c0-1,0-2,0-2.9c0-0.5,0-0.9,0-1.3v-0.1h-0.1c-0.3,0-0.5,0-0.7,0
			c-0.5,0-0.7,0-0.8,0c-0.2,0-4.7,0-9.9,0c-13.3,0-30.8,0-40,0c-4.2,0-8.8,0-10.2,0c-1.4,0-2.7,0-3.1,0c-0.1,0-0.7,0-1.8,0h-0.1
			c0,0.1,0,0.3,0,0.4c0,1,0,2.1,0,3.4c0,5,0,11.7,0,19.1v8.8v3V56v0.3v0.1h-0.1h-1h-1.8h-4.4H36c-11,0-19.3,0-24.9,0
			c-0.1,0-0.2,0-0.2,0l0,0c0,0,0,0-0.1,0h-0.1c0,0,0,0-0.1,0l0,0l0,0h-0.1l0,0l0,0c0,0,0,0-0.1,0s-0.2,0-0.2,0l0,0h-0.1l0,0l0,0
			c0,0,0,0-0.1,0s-0.1,0-0.1,0l0,0l0,0c-0.1,0-0.2,0-0.2,0l0,0l0,0l0,0l0,0c0,0,0,0-0.1,0H9.5l0,0c0,0,0,0-0.1,0c0,0,0,0-0.1,0H9.2
			c0,0,0,0-0.1,0s-0.1,0-0.1,0l0,0c0,0,0,0-0.1,0l0,0l0,0l0,0c0,0,0-0.1-0.1-0.1l0,0c0,0,0,0,0-0.1l0,0l0,0c0,0-0.1,0,0-0.1l0,0
			c0,0,0,0,0-0.1s0-0.1,0-0.1l0,0l0,0c0,0-0.1-0.1,0-0.1c0,0,0,0,0-0.1s0-0.2,0-0.2l0,0l0,0l0,0l0,0l0,0c0,0,0,0-0.1,0
			c0,0,0,0,0-0.1v-0.1c0,0,0,0,0-0.1c0,0,0,0,0-0.1l0,0l0,0c0,0-0.1-0.1,0-0.1l0,0c0,0,0,0,0-0.1v-0.1l0,0l0,0l0,0l0,0l0,0l0,0l0,0
			l0,0l0,0l0,0v-0.1l0,0v-0.1c0,0,0.1-0.1,0-0.1l0,0l0,0l0,0l0,0l0,0l0,0l0,0l0,0c0,0,0.1-0.1,0.1,0h0.1H9l0,0c0,0,0,0,0.1,0
			c0,0,0,0,0.1,0h0.2h0.1h0.1h0.1l0,0c0,0,0,0,0.1,0l0,0c0,0,0,0,0.1,0H10l0,0h0.1h0.1h0.1l0,0h0.2c0,0,0,0,0.1,0h0.1c0,0,0,0,0.1,0
			h0.1l0,0l0,0c0,0,0.1,0,0.2,0c5.3,0,12.7,0,21.8,0c4.7,0,9.8,0,15.2,0c2.7,0,5.5,0,8.4,0c0.6,0,1.1,0,1.7,0h0.1v-0.1
			c0-1.5,0-2.9,0-4.4c0-6.1,0-12.4,0-18.9c0-3.4,0-6.8,0-10.3v-1.2V19c0-0.1,0.1-0.1,0.2-0.1h0.3h2.3c0.8,0,1.7,0,2.5,0
			c1.7,0,3.4,0,5.1,0c18.4,0,37.7,0,56.3,0h1.7h1c0.6,0,1.1,0.1,1.5,0.4s0.8,0.7,0.9,1.2c0.2,0.5,0.1,1.2,0.1,1.3v1.7
			c0,2.3,0,4.6,0,6.9c0,4.5,0,9,0,13.4c0,2.2,0,4.4,0,6.5c0,1.1,0,2.1,0,3.2v0.9c0,0.1,0,0.1,0.1,0.1c4,0,8,0,11.8,0
			c15.7,0,29.3,0,39.1,0c4.5,0,8.2,0,10.8,0c0.1,0,0.1,0,0.1,0h0.1c0.1,0,0.1,0,0.1,0l0,0l0,0c0,0,0,0,0.1,0h0.1l0,0c0,0,0,0,0-0.1
			c0.1,0,0.1,0,0.1,0h0.1l0,0h0.1h0.1c0,0,0,0,0.1,0c0,0,0.1,0,0.2,0c0.1,0,0.1,0,0.1,0l0,0l0,0l0,0l0,0l0,0l0,0h0.1h0.1h0.1l0,0
			l0,0l0,0l0,0c0,0,0.1,0,0.2,0c0,0,0,0,0.1,0c0,0,0,0,0.1,0l0,0l0,0h0.1l0,0c0,0,0,0,0.1,0h0.1c0,0,0,0,0.1,0s0.1,0,0.1,0.1l0,0
			l0,0l0,0l0,0v0.1v0.1v0.1c0,0.1,0,0.1,0,0.1l0,0V55c0,0.1,0,0.1,0,0.1l0,0v0.2c0,0,0,0,0,0.1v0.1v0.1v0.2c0,0,0,0.1,0,0.2
			c0,0.2,0,0.3,0,0.3C194,55.9,194,55.9,194,56.1C194,56,194,56,194,56.1z"/>
	</g>
</g>
<g class="st1">
	<path class="st0" d="M26.3,34c-0.5,0-0.8,0.1-1,0.1c-0.1,0.4-0.2,0.8-0.5,1.3c0,0.1-0.1,0.3-0.2,0.5c-0.1,0.4-0.2,0.6-0.2,0.7
		c-0.1,0.1-0.3,0.7-0.7,1.9c-0.4,1.2-0.6,1.8-0.6,1.8l-1,2.6c-0.3,0.5-0.5,1-0.6,1.6c-0.1,0.5-0.3,1-0.4,1.3
		c-0.1,0.3-0.2,0.5-0.2,0.6c0,0.1-0.1,0.1-0.1,0.1s-0.1,0-0.2,0s-0.2-0.1-0.3-0.3c-0.1-0.2-0.2-0.4-0.2-0.6c0-0.2,0.1-0.7,0.3-1.4
		s0.4-1.2,0.6-1.6c0-0.2,0.1-0.4,0.1-0.6c0.1-0.2,0.1-0.3,0.1-0.3c0.1-0.2,0.3-0.4,0.3-0.8c0.1-0.4,0.6-1.9,1.5-4.7
		c0.1-0.2,0.2-0.5,0.3-0.8c0.1-0.1,0.2-0.2,0.2-0.4c0.2-0.5,0.3-0.7,0.4-0.7v0c-2,0.2-3.1,0.3-3.3,0.3c-0.6,0.1-0.9-0.1-0.8-0.5
		c0.1-0.3,0.3-0.5,0.8-0.5c0.3-0.1,0.9-0.2,1.9-0.3c0.9-0.1,2.2-0.2,3.9-0.4c0.1,0,0.4,0,0.9,0.1c0.5,0.1,0.8,0.1,1,0.2
		c0.5,0.1,0.9,0.4,1,0.8c0.1,0.2,0,0.3-0.2,0.4c0,0,0,0-0.1,0c-0.5,0.1-0.9,0.2-1.2,0c-0.1-0.1-0.2-0.1-0.2-0.2
		C27.5,34.1,27.1,34,26.3,34z"/>
	<path class="st0" d="M35.4,33.6c0,0.1,0,0.3,0,0.4c0,0.1,0,0.3,0,0.6c0,0.2,0,0.4,0,0.6c0,0.2,0,0.4-0.1,0.7c0,0.3,0,0.5-0.1,0.7
		c0,0.2-0.1,1-0.2,2.4c-0.3,2.9-0.4,4.9-0.3,6.1c0,0.1,0,0.2,0,0.4c0,0.1,0,0.2,0,0.2c-0.1,0.1-0.3,0.2-0.7,0.1
		c-0.3-0.1-0.5-0.2-0.5-0.4c-0.1-0.1-0.1-0.1-0.1-0.2c0-0.1,0-0.6,0.1-1.6l0.1-3.2l-0.3,0c-0.3,0-0.9,0.1-1.8,0.2
		c-0.9,0.1-1.5,0.2-1.7,0.3c-0.3,0-0.6,0.3-0.9,0.9c-0.1,0.2-0.2,0.4-0.3,0.6c-0.1,0.2-0.2,0.3-0.2,0.4L28,43.1
		c0,0.1-0.1,0.5-0.4,1.1c-0.3,0.6-0.7,1.3-1.2,2.1L26,46.2c-0.2-0.1-0.3-0.2-0.4-0.4c0-0.1,0-0.3,0.1-0.6s0.3-0.6,0.5-1.1
		c0.2-0.5,0.6-1.1,1-2c0.4-0.9,0.7-1.4,0.7-1.5c-0.1-0.2,0-0.4,0.3-0.5c0.3-0.3,0.6-0.6,0.8-1c0.2-0.4,0.9-1.6,2.1-3.7
		c0.5-0.9,1.1-1.8,1.9-2.9c0.3-0.4,0.6-0.6,0.8-0.6c0.2,0,0.5,0.1,0.8,0.4c0.4,0.3,0.6,0.6,0.7,1C35.4,33.4,35.4,33.5,35.4,33.6z
		 M33.6,39.4L33.6,39.4c0.1-0.1,0.1-0.8,0.3-2.2c0.1-1,0.2-2.3,0.3-3.7c-0.1,0-0.5,0.3-1,1s-0.9,1.4-1.3,2.1c-0.4,0.7-0.6,1-0.7,1
		c-0.1,0.1-0.3,0.5-0.7,1.1s-0.5,1-0.4,1c0.5-0.1,0.9-0.2,1.2-0.2c0.8-0.2,1.3-0.3,1.5-0.3c0.2,0,0.4,0,0.5,0
		C33.5,39.4,33.6,39.4,33.6,39.4z"/>
	<path class="st0" d="M42.1,32.2c0,0,0.1,0,0.2,0c0.3,0,0.6,0,0.9,0c0.9,0.1,1.6,0.3,2.1,0.8c0.5,0.4,0.7,1,0.7,1.8
		c0,0.3-0.2,0.8-0.7,1.5c-0.5,0.6-0.9,1.2-1.5,1.7c-0.5,0.5-0.9,0.8-1.1,0.9c0,0,0.3,0.1,0.8,0.3c1.1,0.4,1.8,1.1,2.1,2.2
		c0.1,0.6,0,1.4-0.4,2.3L44.8,44c0,0.1-0.1,0.3-0.4,0.6c-0.2,0.4-0.4,0.6-0.6,0.9c-1.2,1-2.4,1.5-3.6,1.5c-0.7,0-1.2-0.1-1.5-0.3
		c-0.3-0.2-0.6-0.4-0.8-0.5c-0.2-0.1-0.3-0.3-0.4-0.4c-0.2-0.3-0.1-0.5,0.2-0.8c0.1-0.1,0.4,0.1,0.8,0.5c0.5,0.5,1.3,0.6,2.3,0.3
		c1-0.3,1.9-0.9,2.7-1.9c0.4-0.5,0.6-1.1,0.7-1.8s0-1.1-0.2-1.3c-0.7-1-1.9-1.3-3.5-0.9c-0.3,0-0.7,0.1-1.2,0.2
		c-0.2,0.1-0.3,0.2-0.4,0.3c-0.1,0.2-0.4,1-0.9,2.5s-0.9,2.3-1.1,2.4c-0.1,0.1-0.3-0.1-0.6-0.4c-0.3-0.4-0.3-0.8,0-1.2
		c0.1-0.2,0.2-0.5,0.3-0.9c0.2-0.5,0.7-1.8,1.5-3.9c0.8-2.1,1.4-3.6,1.8-4.5c0.4-0.9,0.5-1.4,0.4-1.4c0,0,0-0.1-0.1-0.2
		c0-0.1-0.1-0.1,0-0.2c0-0.1,0.2-0.2,0.6-0.4c0.4-0.2,0.6-0.2,0.8-0.2C42,32.3,42.1,32.2,42.1,32.2z M41.7,33.9
		c0,0.2-0.1,0.4-0.3,0.6l-0.2,0.4c0,0-0.1,0.3-0.3,0.8c-0.8,1.9-1.3,2.9-1.3,3.2c0.9-0.2,1.5-0.3,1.8-0.4c0.3-0.2,0.6-0.4,0.8-0.6
		c0.2-0.2,0.6-0.6,1-1.2c0.5-0.6,0.8-1.1,1-1.5c0.3-0.5,0.5-0.8,0.5-1.1c0-0.2,0-0.5-0.2-0.6c-0.2-0.2-0.5-0.3-1-0.3
		c-0.5,0-1,0-1.3,0.1C41.9,33.5,41.7,33.7,41.7,33.9z"/>
</g>
<g class="st1">
	<path class="st0" d="M79.3,34c-0.5,0-0.8,0.1-1,0.1c-0.1,0.4-0.2,0.8-0.5,1.3c0,0.1-0.1,0.3-0.2,0.5c-0.1,0.4-0.2,0.6-0.2,0.7
		c-0.1,0.1-0.3,0.7-0.7,1.9c-0.4,1.2-0.6,1.8-0.6,1.8l-1,2.6c-0.3,0.5-0.5,1-0.6,1.6c-0.1,0.5-0.3,1-0.4,1.3
		c-0.1,0.3-0.2,0.5-0.2,0.6c0,0.1-0.1,0.1-0.1,0.1s-0.1,0-0.2,0s-0.2-0.1-0.3-0.3c-0.1-0.2-0.2-0.4-0.2-0.6c0-0.2,0.1-0.7,0.3-1.4
		s0.4-1.2,0.6-1.6c0-0.2,0.1-0.4,0.1-0.6c0.1-0.2,0.1-0.3,0.1-0.3c0.1-0.2,0.3-0.4,0.3-0.8c0.1-0.4,0.6-1.9,1.5-4.7
		c0.1-0.2,0.2-0.5,0.3-0.8c0.1-0.1,0.2-0.2,0.2-0.4c0.2-0.5,0.3-0.7,0.4-0.7v0c-2,0.2-3.1,0.3-3.3,0.3c-0.6,0.1-0.9-0.1-0.8-0.5
		c0.1-0.3,0.3-0.5,0.8-0.5c0.3-0.1,0.9-0.2,1.9-0.3c0.9-0.1,2.2-0.2,3.9-0.4c0.1,0,0.4,0,0.9,0.1c0.5,0.1,0.8,0.1,1,0.2
		c0.5,0.1,0.9,0.4,1,0.8c0.1,0.2,0,0.3-0.2,0.4c0,0,0,0-0.1,0c-0.5,0.1-0.9,0.2-1.2,0c-0.1-0.1-0.2-0.1-0.2-0.2
		C80.5,34.1,80.1,34,79.3,34z"/>
	<path class="st0" d="M88.4,33.6c0,0.1,0,0.3,0,0.4c0,0.1,0,0.3,0,0.6c0,0.2,0,0.4,0,0.6c0,0.2,0,0.4-0.1,0.7c0,0.3,0,0.5-0.1,0.7
		c0,0.2-0.1,1-0.2,2.4c-0.3,2.9-0.4,4.9-0.3,6.1c0,0.1,0,0.2,0,0.4c0,0.1,0,0.2,0,0.2c-0.1,0.1-0.3,0.2-0.7,0.1
		c-0.3-0.1-0.5-0.2-0.5-0.4c-0.1-0.1-0.1-0.1-0.1-0.2c0-0.1,0-0.6,0.1-1.6l0.1-3.2l-0.3,0c-0.3,0-0.9,0.1-1.8,0.2
		c-0.9,0.1-1.5,0.2-1.7,0.3c-0.3,0-0.6,0.3-0.9,0.9c-0.1,0.2-0.2,0.4-0.3,0.6c-0.1,0.2-0.2,0.3-0.2,0.4L81,43.1
		c0,0.1-0.1,0.5-0.4,1.1c-0.3,0.6-0.7,1.3-1.2,2.1L79,46.2c-0.2-0.1-0.3-0.2-0.4-0.4c0-0.1,0-0.3,0.1-0.6s0.3-0.6,0.5-1.1
		c0.2-0.5,0.6-1.1,1-2c0.4-0.9,0.7-1.4,0.7-1.5c-0.1-0.2,0-0.4,0.3-0.5c0.3-0.3,0.6-0.6,0.8-1c0.2-0.4,0.9-1.6,2.1-3.7
		c0.5-0.9,1.1-1.8,1.9-2.9c0.3-0.4,0.6-0.6,0.8-0.6c0.2,0,0.5,0.1,0.8,0.4c0.4,0.3,0.6,0.6,0.7,1C88.4,33.4,88.4,33.5,88.4,33.6z
		 M86.6,39.4L86.6,39.4c0.1-0.1,0.1-0.8,0.3-2.2c0.1-1,0.2-2.3,0.3-3.7c-0.1,0-0.5,0.3-1,1s-0.9,1.4-1.3,2.1c-0.4,0.7-0.6,1-0.7,1
		c-0.1,0.1-0.3,0.5-0.7,1.1s-0.5,1-0.4,1c0.5-0.1,0.9-0.2,1.2-0.2c0.8-0.2,1.3-0.3,1.5-0.3c0.2,0,0.4,0,0.5,0
		C86.5,39.4,86.6,39.4,86.6,39.4z"/>
	<path class="st0" d="M95.1,32.2c0,0,0.1,0,0.2,0c0.3,0,0.6,0,0.9,0c0.9,0.1,1.6,0.3,2.1,0.8c0.5,0.4,0.7,1,0.7,1.8
		c0,0.3-0.2,0.8-0.7,1.5c-0.5,0.6-0.9,1.2-1.5,1.7c-0.5,0.5-0.9,0.8-1.1,0.9c0,0,0.3,0.1,0.8,0.3c1.1,0.4,1.8,1.1,2.1,2.2
		c0.1,0.6,0,1.4-0.4,2.3L97.8,44c0,0.1-0.1,0.3-0.4,0.6c-0.2,0.4-0.4,0.6-0.6,0.9c-1.2,1-2.4,1.5-3.6,1.5c-0.7,0-1.2-0.1-1.5-0.3
		c-0.3-0.2-0.6-0.4-0.8-0.5c-0.2-0.1-0.3-0.3-0.4-0.4c-0.2-0.3-0.1-0.5,0.2-0.8c0.1-0.1,0.4,0.1,0.8,0.5c0.5,0.5,1.3,0.6,2.3,0.3
		c1-0.3,1.9-0.9,2.7-1.9c0.4-0.5,0.6-1.1,0.7-1.8s0-1.1-0.2-1.3c-0.7-1-1.9-1.3-3.5-0.9c-0.3,0-0.7,0.1-1.2,0.2
		c-0.2,0.1-0.3,0.2-0.4,0.3c-0.1,0.2-0.4,1-0.9,2.5s-0.9,2.3-1.1,2.4c-0.1,0.1-0.3-0.1-0.6-0.4c-0.3-0.4-0.3-0.8,0-1.2
		c0.1-0.2,0.2-0.5,0.3-0.9c0.2-0.5,0.7-1.8,1.5-3.9c0.8-2.1,1.4-3.6,1.8-4.5c0.4-0.9,0.5-1.4,0.4-1.4c0,0,0-0.1-0.1-0.2
		c0-0.1-0.1-0.1,0-0.2c0-0.1,0.2-0.2,0.6-0.4c0.4-0.2,0.6-0.2,0.8-0.2C95,32.3,95.1,32.2,95.1,32.2z M94.7,33.9
		c0,0.2-0.1,0.4-0.3,0.6l-0.2,0.4c0,0-0.1,0.3-0.3,0.8c-0.8,1.9-1.3,2.9-1.3,3.2c0.9-0.2,1.5-0.3,1.8-0.4c0.3-0.2,0.6-0.4,0.8-0.6
		c0.2-0.2,0.6-0.6,1-1.2c0.5-0.6,0.8-1.1,1-1.5c0.3-0.5,0.5-0.8,0.5-1.1c0-0.2,0-0.5-0.2-0.6c-0.2-0.2-0.5-0.3-1-0.3
		c-0.5,0-1,0-1.3,0.1C94.9,33.5,94.7,33.7,94.7,33.9z"/>
	<path class="st0" d="M110.2,35.1l0.6,0.1c0.2,0,0.4,0.1,0.6,0.4s0.5,0.5,0.6,0.8c0.4,0.6,0.2,1.3-0.4,2.3c-0.1,0.2-0.6,0.6-1.2,1.4
		s-1.1,1.2-1.2,1.3c-0.2,0.1-0.6,0.5-1.2,1.2c-0.6,0.7-0.8,1-0.8,1c0,0.1,0,0.1,0,0.1s0.2-0.1,0.5-0.1s0.8-0.2,1.6-0.3
		s1.3-0.1,1.4-0.1l0.1,0c0.1-0.1,0.2-0.1,0.5-0.1c0.3,0,0.6,0.1,0.9,0.2c0.3,0.1,0.5,0.2,0.5,0.2s0.1,0.2,0.2,0.3
		c0.3,0.3,0.2,0.4-0.2,0.4c-0.2,0-0.4,0-0.7-0.1c-0.3,0-0.6,0-0.7,0c-0.1,0-0.5,0-1,0.1c-0.4-0.1-0.8,0-1.3,0.2
		c-0.5,0.2-1.1,0.3-1.7,0.5c-0.7,0.2-1.1,0.2-1.2,0.2c-0.1,0-0.2-0.1-0.4-0.3c-0.2-0.1-0.3-0.3-0.3-0.3c0-0.1,0-0.2,0-0.4
		c0-0.2,0.1-0.3,0.1-0.3c0,0,0.1-0.1,0.3-0.3c0.2-0.2,0.3-0.4,0.3-0.5c0,0,0.1-0.1,0.3-0.2c0,0,0.1-0.1,0.3-0.4s0.4-0.4,0.5-0.6
		c1.4-1.3,2.1-2.1,2.2-2.4c0.1-0.1,0.2-0.2,0.3-0.3c0.1-0.1,0.3-0.2,0.5-0.4c0.1-0.3,0.3-0.6,0.6-0.9c0.2-0.3,0.4-0.6,0.4-0.8
		c0.1-0.2,0.1-0.4,0-0.4c0,0-0.2-0.1-0.5-0.2c-0.8-0.3-1.6-0.1-2.3,0.4c-0.1,0-0.2,0.1-0.3,0.1c-0.3,0.1-0.5,0.2-0.5,0.1
		c-0.1,0-0.1,0-0.1-0.1s-0.1-0.1-0.1-0.2c-0.1-0.1-0.1-0.1-0.2-0.2l-0.2-0.4l0.6-0.3C108.6,35.1,109.5,34.8,110.2,35.1z"/>
</g>
<g class="st1">
	<path class="st0" d="M149.3,34c-0.5,0-0.8,0.1-1,0.1c-0.1,0.4-0.2,0.8-0.5,1.3c0,0.1-0.1,0.3-0.2,0.5c-0.1,0.4-0.2,0.6-0.2,0.7
		c-0.1,0.1-0.3,0.7-0.7,1.9c-0.4,1.2-0.6,1.8-0.6,1.8l-1,2.6c-0.3,0.5-0.5,1-0.6,1.6s-0.3,1-0.4,1.3c-0.1,0.3-0.2,0.5-0.2,0.6
		c0,0.1-0.1,0.1-0.1,0.1c-0.1,0-0.1,0-0.2,0s-0.2-0.1-0.3-0.3c-0.1-0.2-0.2-0.4-0.2-0.6c0-0.2,0.1-0.7,0.3-1.4
		c0.2-0.7,0.4-1.2,0.6-1.6c0-0.2,0.1-0.4,0.1-0.6c0.1-0.2,0.1-0.3,0.1-0.3c0.1-0.2,0.3-0.4,0.3-0.8c0.1-0.4,0.6-1.9,1.5-4.7
		c0.1-0.2,0.2-0.5,0.3-0.8c0.1-0.1,0.2-0.2,0.2-0.4c0.2-0.5,0.3-0.7,0.4-0.7v0c-2,0.2-3.1,0.3-3.3,0.3c-0.6,0.1-0.9-0.1-0.8-0.5
		c0.1-0.3,0.3-0.5,0.8-0.5c0.3-0.1,0.9-0.2,1.9-0.3c0.9-0.1,2.2-0.2,3.9-0.4c0.1,0,0.4,0,0.9,0.1c0.5,0.1,0.8,0.1,1,0.2
		c0.5,0.1,0.9,0.4,1,0.8c0.1,0.2,0,0.3-0.2,0.4c0,0,0,0-0.1,0c-0.5,0.1-0.9,0.2-1.2,0c-0.1-0.1-0.2-0.1-0.2-0.2
		C150.5,34.1,150.1,34,149.3,34z"/>
	<path class="st0" d="M158.4,33.6c0,0.1,0,0.3,0,0.4c0,0.1,0,0.3,0,0.6c0,0.2,0,0.4,0,0.6c0,0.2,0,0.4-0.1,0.7c0,0.3,0,0.5-0.1,0.7
		c0,0.2-0.1,1-0.2,2.4c-0.3,2.9-0.4,4.9-0.3,6.1c0,0.1,0,0.2,0,0.4c0,0.1,0,0.2,0,0.2c-0.1,0.1-0.3,0.2-0.7,0.1
		c-0.3-0.1-0.5-0.2-0.5-0.4c-0.1-0.1-0.1-0.1-0.1-0.2c0-0.1,0-0.6,0.1-1.6l0.1-3.2l-0.3,0c-0.3,0-0.9,0.1-1.8,0.2
		c-0.9,0.1-1.5,0.2-1.7,0.3c-0.3,0-0.6,0.3-0.9,0.9c-0.1,0.2-0.2,0.4-0.3,0.6c-0.1,0.2-0.2,0.3-0.2,0.4l-0.3,0.4
		c0,0.1-0.1,0.5-0.4,1.1c-0.3,0.6-0.7,1.3-1.2,2.1l-0.3-0.2c-0.2-0.1-0.3-0.2-0.4-0.4c0-0.1,0-0.3,0.1-0.6s0.3-0.6,0.5-1.1
		c0.2-0.5,0.6-1.1,1-2c0.4-0.9,0.7-1.4,0.7-1.5c-0.1-0.2,0-0.4,0.3-0.5c0.3-0.3,0.6-0.6,0.8-1c0.2-0.4,0.9-1.6,2.1-3.7
		c0.5-0.9,1.1-1.8,1.9-2.9c0.3-0.4,0.6-0.6,0.8-0.6c0.2,0,0.5,0.1,0.8,0.4c0.4,0.3,0.6,0.6,0.7,1C158.4,33.4,158.4,33.5,158.4,33.6z
		 M156.6,39.4L156.6,39.4c0.1-0.1,0.1-0.8,0.3-2.2c0.1-1,0.2-2.3,0.3-3.7c-0.1,0-0.5,0.3-1,1s-0.9,1.4-1.3,2.1c-0.4,0.7-0.6,1-0.7,1
		c-0.1,0.1-0.3,0.5-0.7,1.1c-0.3,0.6-0.5,1-0.4,1c0.5-0.1,0.9-0.2,1.2-0.2c0.8-0.2,1.3-0.3,1.5-0.3c0.2,0,0.4,0,0.5,0
		C156.5,39.4,156.6,39.4,156.6,39.4z"/>
	<path class="st0" d="M165.1,32.2c0,0,0.1,0,0.2,0c0.3,0,0.6,0,0.9,0c0.9,0.1,1.6,0.3,2.1,0.8c0.5,0.4,0.7,1,0.7,1.8
		c0,0.3-0.2,0.8-0.7,1.5c-0.5,0.6-0.9,1.2-1.5,1.7c-0.5,0.5-0.9,0.8-1.1,0.9c0,0,0.3,0.1,0.8,0.3c1.1,0.4,1.8,1.1,2.1,2.2
		c0.1,0.6,0,1.4-0.4,2.3l-0.3,0.4c0,0.1-0.1,0.3-0.4,0.6c-0.2,0.4-0.4,0.6-0.6,0.9c-1.2,1-2.4,1.5-3.6,1.5c-0.7,0-1.2-0.1-1.5-0.3
		c-0.3-0.2-0.6-0.4-0.8-0.5c-0.2-0.1-0.3-0.3-0.4-0.4c-0.2-0.3-0.1-0.5,0.2-0.8c0.1-0.1,0.4,0.1,0.8,0.5c0.5,0.5,1.3,0.6,2.3,0.3
		c1-0.3,1.9-0.9,2.7-1.9c0.4-0.5,0.6-1.1,0.7-1.8c0.1-0.7,0-1.1-0.2-1.3c-0.7-1-1.9-1.3-3.5-0.9c-0.3,0-0.7,0.1-1.2,0.2
		c-0.2,0.1-0.3,0.2-0.4,0.3c-0.1,0.2-0.4,1-0.9,2.5s-0.9,2.3-1.1,2.4c-0.1,0.1-0.3-0.1-0.6-0.4c-0.3-0.4-0.3-0.8,0-1.2
		c0.1-0.2,0.2-0.5,0.3-0.9c0.2-0.5,0.7-1.8,1.5-3.9s1.5-3.6,1.8-4.5c0.4-0.9,0.5-1.4,0.4-1.4c0,0,0-0.1-0.1-0.2c0-0.1-0.1-0.1,0-0.2
		c0-0.1,0.2-0.2,0.6-0.4c0.4-0.2,0.6-0.2,0.8-0.2C165,32.3,165.1,32.2,165.1,32.2z M164.7,33.9c0,0.2-0.1,0.4-0.3,0.6l-0.2,0.4
		c0,0-0.1,0.3-0.3,0.8c-0.8,1.9-1.3,2.9-1.3,3.2c0.9-0.2,1.5-0.3,1.8-0.4c0.3-0.2,0.6-0.4,0.8-0.6c0.2-0.2,0.6-0.6,1-1.2
		c0.5-0.6,0.8-1.1,1-1.5c0.3-0.5,0.5-0.8,0.5-1.1c0-0.2,0-0.5-0.2-0.6c-0.2-0.2-0.5-0.3-1-0.3c-0.5,0-1,0-1.3,0.1
		C164.9,33.5,164.7,33.7,164.7,33.9z"/>
	<path class="st0" d="M179.9,35.9L179.9,35.9c-0.2,0-0.4,0-0.8,0.1c-0.4,0.1-0.6,0.2-0.7,0.2s-0.2,0.1-0.4,0.2
		c-0.3,0.1-0.4,0.1-0.5,0.1c-0.1,0-0.2-0.1-0.3-0.4c-0.1-0.2-0.2-0.4-0.1-0.5c0-0.1,0.5-0.3,1.2-0.7c0.3-0.1,0.7-0.1,1.3-0.2
		c0.6,0,1,0,1.3,0c1.2,0.1,1.9,0.6,2,1.5c0.1,0.3,0.1,0.5,0,0.7c-0.1,0.1-0.3,0.4-0.7,0.7c-0.9,0.6-1.5,0.9-1.6,1
		c-0.2,0.1-0.3,0.2-0.5,0.3c-0.4,0.3-0.7,0.4-0.7,0.5c0.2,0.1,0.4,0.2,0.5,0.4c0.7,0.3,1.3,0.7,1.7,1.4c0.6,1.3,0.2,2.4-1.2,3.2
		c-0.8,0.5-1.7,0.7-2.7,0.8c-0.5,0-1-0.1-1.4-0.2c-0.4-0.2-0.6-0.4-0.6-0.6c0-0.2,0.1-0.3,0.1-0.3s0.3,0,0.6,0
		c0.7,0.1,1.4,0.1,2.2-0.1c0.8-0.2,1.4-0.5,1.8-0.9s0.5-0.7,0.5-1.1c-0.1-0.6-0.6-1.1-1.8-1.4c-0.5-0.1-0.9-0.2-1.1-0.2
		c-0.2,0-0.5,0-0.7-0.2c-0.1-0.1-0.2-0.3-0.4-0.6c0-0.1,0.1-0.2,0.3-0.3c0.2-0.1,0.9-0.5,2.1-1.2c1.2-0.6,1.9-1.1,2.3-1.4
		c0.3-0.3,0.4-0.5,0.4-0.6c0-0.1-0.2-0.2-0.5-0.2C180.3,35.8,179.9,35.8,179.9,35.9z"/>
</g>
</svg>
