<?xml version="1.0" encoding="utf-8"?>
<!-- Generator: Adobe Illustrator 19.2.0, SVG Export Plug-In . SVG Version: 6.00 Build 0)  -->
<svg version="1.1" id="Layer_1" xmlns="http://www.w3.org/2000/svg" xmlns:xlink="http://www.w3.org/1999/xlink" x="0px" y="0px"
	 viewBox="0 0 200 200" style="enable-background:new 0 0 200 200;" xml:space="preserve">
<style type="text/css">
	.st0{enable-background:new    ;}
	.st1{fill:#FFFFFF;}
	.st2{fill:none;stroke:#FFFFFF;stroke-width:3;stroke-linecap:round;stroke-linejoin:round;}
</style>
<g class="st0">
	<path class="st1" d="M38.1,26.7c0,0.1,0,0.2-0.2,0.3c-0.6,0.5-1.1,1.4-1.5,2.5c-0.2,0.6-0.4,0.9-0.8,1.7c-1.5,3.3-2.8,6.7-4.1,10.3
		c-0.1,0.1-0.1,0.4-0.1,0.6c0,0.3,0.2,0.6,0.5,0.6c0.1,0,0.4,0,1.3-0.2c2.1-0.5,4.2-1.3,6-2.1c0.1-0.1,0.3-0.1,0.5-0.1
		c0.3,0,1.1,0.3,1.6,0.8c0.1,0.1,0.2,0.2,0.2,0.4c0,0.1,0.2,0.2,0.2,0.5c0,0.1,0,0.3-0.1,0.4c-0.1,0.2-0.4,0.3-1.3,0.3
		c-0.3,0-0.3,0-0.6,0.1c-3.1,0.8-5.5,2.3-8.8,2.3c-1.2,0-2-1.1-2.5-1.7c-0.1-0.1-0.1-0.2-0.1-0.4c0-0.4,0.2-0.9,0.5-1.7
		c0.2-0.5,0-0.5,0.4-1.6c1.8-5.2,4.4-10.1,6.6-15.1c0.1-0.3,0.8-0.3,0.9-0.3c0.3,0,0.2,0.2,0.8,0.4c0.4,0.1,0.9,0.4,0.9,0.6
		C38.5,25.9,38.1,26.3,38.1,26.7z"/>
	<path class="st1" d="M51.7,31.9c1.2,0,1.9-0.1,2.6-0.1c1,0,1.9,0.3,1.9,0.8c0,0.4-0.8,0.5-0.8,0.6c-0.1,0.1-0.1,0.1-0.3,0.2
		c-0.6,0.1-1.5,0.4-2.2,0.5c-0.6,0.1-1,0.1-1.2,0.1c-0.2,0-0.3,0-0.4,0.2c-0.8,3.2-1.9,6-3.8,8c-0.8,0.9-1.6,1.8-2.7,1.8
		c-0.3,0-0.5-0.1-0.7-0.2c-1.1-0.5-2-1.2-2.2-1.9c-0.3-0.8-0.5-1.7-0.5-2.5c0-2.5,1.2-4.6,2.6-6.7c0.4-0.6,0.4-0.5,0.7-0.9
		c1-1.4,2.2-2.8,3.5-2.8c0.5,0,1.1,0.1,1.6,0.6c0.2,0.2,0.3,0.3,0.4,0.5C50.4,31,50.8,31.9,51.7,31.9z M48.4,31.7
		c-0.1-0.3-0.2-0.5-0.3-0.5c-0.1,0-0.3,0.1-0.4,0.3c-0.1,0.2-0.4,0.3-0.6,0.5c-0.9,1.2-3.7,4.9-3.7,8.4c0,0.1,0,0.2,0.1,0.4
		c0.1,0.2,0.5,0.8,0.7,1c0.1,0.1,0.2,0.1,0.3,0.1c0.3,0,0.5-0.2,0.6-0.2c0.2-0.1,0.3-0.2,0.5-0.5c1.7-2.6,3.4-5,3.4-8
		c0-0.1,0-0.5,0-0.6c0-0.2-0.1-0.2-0.2-0.3C48.5,32,48.4,31.9,48.4,31.7z"/>
	<path class="st1" d="M57.5,32.5c0,0.3-0.1,0.7-0.2,1c-0.1,0.4-0.1,0.4-0.1,0.5c0,0.1,0,0.1,0.1,0.1c0,0,0.1,0,0.4-0.2
		c1.6-1.3,3.1-2.1,4.2-2.5c0.1,0,0.3-0.1,0.4-0.1c0.8,0,1.7,0.2,2.2,0.8c0.1,0.1,0.2,0.3,0.2,0.5c0,0.9-0.8,1.3-1.1,1.3
		c-0.4,0-0.9-0.3-1.3-0.3c-0.1,0-0.2,0-0.5,0.1c-3.3,1.5-6.5,4.2-7.6,8.6c-0.2,0.9-0.5,1.3-0.8,1.4c-0.2,0.2-0.4,0.3-0.5,0.3
		c-0.5,0-0.7-0.4-0.9-0.6c-0.3-0.3-0.5-0.8-0.6-1.1c0-1,1.3-2,1.6-3.2c0.8-2.3,1.6-4.5,2.1-6.9c0-0.3,0.1-0.4,0.1-0.5
		c0-0.2-0.2-0.4-0.3-0.7c0-0.2,0.5-0.7,1.2-0.7c0.4,0,0.9,0.2,1,0.3C57.3,31.3,57.5,31.8,57.5,32.5z"/>
	<path class="st1" d="M66.2,44.4c-0.4,0-0.7,0-1.1-0.2c-0.7-0.2-1.7-0.7-1.9-0.8c-0.6-0.3-1.2-1.1-1.5-2.1c-0.2-0.6-0.4-1.7-0.4-2.3
		c0-0.3,0-0.6,0.1-1c0.8-3.1,2.9-5.7,5.2-8.1c0.5-0.5,1.7-1.4,3.2-1.4c0.8,0,1.2,0.1,1.8,0.3c0.3,0.1,1,0.7,1,1.9
		c0,0.8-0.3,1.4-0.7,2.2c-0.3,0.6-0.5,0.9-1,1.4c-2.1,2.3-4.4,5-7,6.4c-0.2,0.1-0.2,0.1-0.2,0.2c0,0.5,0.5,1.1,0.7,1.3
		c0.3,0.2,0.6,0.2,0.9,0.2c0.5,0,1-0.1,2.3-0.8c2.1-1.1,3.3-2.7,5.1-3.9c0.3-0.2,0.5-0.2,0.6-0.2c0.2,0,0.6,0.3,0.6,0.6
		c0,0.3,0,0.3,0,0.4c0,0.1,0,0.3-0.2,0.4c-1.4,1.2-2.1,2.7-6.6,5.2C66.8,44.4,66.6,44.4,66.2,44.4z M70.1,30.7c0-0.2,0-0.4-0.2-0.4
		c-0.2,0-0.4,0.1-0.6,0.3C69,30.8,69,30.7,68.7,31c-2,1.7-4,4.2-4.7,6.9C64,38,64,38,64,38c0.1,0,0.1,0,0.2-0.1
		c1.8-1.3,3.2-3,4.6-4.6c0.5-0.5,0.3-0.6,0.7-1.2C69.9,31.6,70.1,31.2,70.1,30.7z"/>
	<path class="st1" d="M79.1,30.7c0,0.1-0.1,0.6-0.4,1c-2.2,3.1-4.1,6.4-5.1,10c0,0.2,0.1,0.3,0.3,0.3c0.1,0,0.2-0.1,0.3-0.1
		c3.2-1.6,6-5,7.3-8.3c0.1-0.3,0.3-0.5,0.6-0.8c0.4-0.3,0.7-0.4,1.2-0.4c0.5,0,1,0.2,1.4,0.6c0.1,0.1,0.1,0.2,0.1,0.2
		c0,0.1,0,0.3-0.1,0.5c-0.5,1.5-1.8,2.6-2.6,4.1c-1,1.9-1.3,3.1-1.3,3.8c0,0.2,0.1,0.5,0.3,0.5c0.5,0,1.2-0.4,1.7-1
		c2.1-2.4,5-4.1,6.1-7.1c0.1-0.3,0.5-1.1,1.4-1.1c0.6,0,0.5,0.2,0.9,0.2c0.7,0.1,0.8,0.2,1,0.6c0.1,0.2,0.1,0.3,0.1,0.4
		c0,0.6-0.7,0.6-1.1,1.3c-1.5,2.5-2.1,4-2.1,5.5c0,1,0.3,2,1,3c0.1,0.2,0.2,0.2,0.3,0.3c0.2,0.1,0.4,0.4,0.4,0.6
		c0,0.2-0.3,0.5-0.7,0.5c-0.5,0-0.7-0.2-1.1-0.2c-0.3-0.1-0.8-0.4-1.4-1.7c-0.3-0.7-0.8-1.8-0.8-2.7c0-0.1,0-0.2-0.1-0.2
		c-0.1,0-0.1,0-0.2,0.1c-1.5,1.1-2.8,3.5-5.2,3.5c-0.5,0-1.1-0.1-1.5-0.3c-1.3-0.6-1.4-1-1.4-1.5c0-0.4,0-0.4-0.1-0.4
		c-0.1,0-0.1,0.1-0.2,0.1c-0.9,0.9-2.1,1.6-3.1,2.1c-0.2,0.1-0.4,0.2-0.5,0.2c-0.9,0-1.8-0.3-2.5-0.9c-0.1-0.1-0.2-0.2-0.2-0.4
		c-0.1-0.5-0.2-1-0.2-1.4c0-2.8,2-5,3.1-7.4c0.8-1.8,1.1-1.9,1.6-3.1c0.1-0.3,0.8-1,1.8-1c0.3,0,0.6,0.1,0.9,0.2
		C79.1,30.2,79.1,30.4,79.1,30.7z"/>
	<path class="st1" d="M108.3,27.8c-0.1,0.1-0.2,0.2-0.4,0.7c-1.7,4.4-3.1,8.9-4.7,13.6c0,0.1-0.1,0.2-0.1,0.3c0,0.2,0.1,0.3,0.1,0.5
		c0,0.5-0.1,1-0.6,1.8c-0.1,0.1-0.3,0.1-0.4,0.1c-0.1,0-0.3,0.2-0.4,0.3c-0.1,0.1-0.2,0.2-0.3,0.2c-0.2,0-0.2-0.3-0.5-0.3
		c-0.4,0-0.8-0.5-0.9-0.5c-0.1,0-0.2-0.1-0.2-0.2c0-0.2,0.3-1.8,0.6-2.2c0.1-0.2,0.2-0.4,0.3-0.7c1.2-4.7,2.8-8.7,4.2-13.3
		c0.3-0.8,0.6-0.9,1.2-2.9c0.1-0.3,0.5-0.4,1.2-0.4c0.6,0,1.7,0.4,1.7,0.9C109.2,26.8,109,27.1,108.3,27.8z"/>
	<path class="st1" d="M112.5,33.9c0,0.1-0.1,0.2,0,0.2c0.1,0,0.2-0.2,0.2-0.2c1.3-1.5,2.6-2.8,4-3.6c0.3-0.2,0.4-0.2,0.5-0.2
		c0.9,0,1.8,0.5,2.5,1c0.3,0.2,0.6,0.5,0.6,1.2c0,1-0.1,1.6-0.2,2.1c-0.1,0.2,0,0.5-0.2,1c-1.4,4-2.3,6.1-4.3,8
		c-0.2,0.2-0.6,0.2-0.8,0.2c-0.7,0-1.7-0.6-2-0.9c-0.8-0.7-1.2-1.4-1.6-2.2c0-0.1-0.1-0.1-0.2-0.1c-0.1,0-0.1,0-0.2,0.1
		c-1.9,3.5-2.9,6.1-3.9,10.5c-0.2,0.6,0.1,1.1-0.4,1.3c-0.4,0.1-0.7,0.2-1,0.2c-0.4,0-0.6-0.1-0.9-0.4c-0.2-0.2-0.4-0.2-0.4-0.7
		c0-0.1,0-0.3,0.2-0.7c1.8-5.8,5.6-14.2,6.7-20.6c0.1-0.5,0.2-0.5,0.4-0.6c0.4-0.1,0.7-0.3,1.1-0.3c0.5,0,1,0.3,1,0.6
		C113.4,31.1,112.9,32.4,112.5,33.9z M112.7,37.5c-0.2,0.3-0.2,0.5-0.2,0.9c0,0.7,1,3.2,1.7,3.2c0.1,0,0.1,0,0.2-0.1
		c1-0.9,2.1-3.9,2.2-4.3c1.1-3.4,1.2-4.7,1.2-4.8c0-0.1-0.1-0.1-0.1-0.1s-0.1,0-0.2,0.1C115.4,33.7,113.9,35.6,112.7,37.5z"/>
	<path class="st1" d="M130.4,32c0,1.1-0.4,2-0.9,2.5c-0.2,0.3-0.3,0.3-0.4,0.3c-0.3,0-0.8-0.2-1-0.4c-0.3-0.2-0.5-0.5-0.5-1
		c0-0.1,0-0.1,0.1-0.2c0.3-0.5,0.5-0.9,0.5-1.4c0-0.2-0.1-0.6-0.2-0.8s-0.4-0.4-0.7-0.4c-0.2,0-1.6,1.7-1.8,3.1
		c0,0.2-0.1,0.4-0.1,0.8c0,0.2,0.1,1.5,0.2,1.9c0.3,2.2,1,5.6,1,6.8c0,0.2-0.1,0.4-0.2,0.5c-0.5,0.5-1.1,1.1-1.9,1.1
		c-0.3,0-0.6-0.1-0.8-0.1c-2-0.8-3.4-2.4-4.4-4c-0.1-0.1-0.2-0.4-0.2-0.4c0-0.5,0.5-1.1,1.1-1.1c0.6,0,0.9,0.1,1.1,0.4
		c0.7,0.9,1,2.1,1.9,2.9c0.3,0.3,0.5,0.3,0.6,0.3c0.2,0,0.3-0.1,0.3-0.2s0-0.2-0.2-0.9c-0.4-2-1-6.5-1-7.1c0-0.8,0.4-2.5,1.1-3.7
		c0.9-1.4,2.1-1.9,2.7-1.9c1.7,0,2.3,0.4,2.9,1.1C130.3,30.5,130.4,31.4,130.4,32z"/>
	<path class="st1" d="M135.7,31.2c0,0.2-0.1,0.6-0.6,0.9c-0.2,0.1-0.6,0.5-0.9,1.4c-0.7,2.7-1.9,5.6-2.2,7.8
		c-0.1,0.4-0.1,0.5-0.1,0.7c0,0.1,0.2,0.4,0.4,0.4c0.1,0,0.5-0.1,0.7-0.3c1.1-1,1.1-1.2,1.6-1.7c1.9-2,3.5-4.2,4.5-6.7
		c0.2-0.4,0.2-0.5,0.5-0.7c0.3-0.1,0.5-0.2,0.7-0.2c0.2,0,0.5,0.2,0.7,0.3c0.5,0.2,0.6,0.4,0.6,0.5c0,0.5-0.1,0.6-0.2,0.9
		c-1,2.2-1.8,4.4-2.2,6.8c-0.1,0.6-0.2,1.4-0.2,2.2c0,0.8,0.5,1.4,0.5,2c0,0.2-0.1,0.4-0.2,0.5c-0.1,0.1-0.2,0.1-0.4,0.1
		c-0.4,0-0.8-0.2-1.1-0.5c-0.6-0.4-0.6-0.1-0.8-0.6c-0.2-0.6-0.3-1.2-0.3-1.8c0-0.8,0.1-1.7,0.1-2c0-0.1,0-0.2-0.1-0.2
		c-0.1,0-0.3,0.2-0.4,0.4c-1,1.2-2.1,2.3-3.4,2.9c-0.2,0.1-0.3,0.1-0.4,0.1c-0.1,0-1-0.1-1.8-0.6c-0.5-0.3-0.8-0.6-0.9-0.9
		c-0.1-0.4-0.2-1-0.2-1.3c0-1.1,0.4-2.4,0.7-3.4c0.2-0.8,0.2-1.1,0.5-1.9c0.6-1.8,1-3.7,2.1-5.6c0.3-0.6,0.8-0.8,1.3-0.8
		c0.3,0,0.9,0.2,1,0.5C135.5,30.7,135.7,30.9,135.7,31.2z"/>
	<path class="st1" d="M149.5,30.7c0,0.1-0.1,0.6-0.4,1c-2.2,3.1-4.1,6.4-5.1,10c0,0.2,0.1,0.3,0.3,0.3c0.1,0,0.2-0.1,0.3-0.1
		c3.2-1.6,6-5,7.3-8.3c0.1-0.3,0.3-0.5,0.6-0.8c0.4-0.3,0.7-0.4,1.2-0.4c0.5,0,1,0.2,1.4,0.6c0.1,0.1,0.1,0.2,0.1,0.2
		c0,0.1,0,0.3-0.1,0.5c-0.5,1.5-1.8,2.6-2.6,4.1c-1,1.9-1.3,3.1-1.3,3.8c0,0.2,0.1,0.5,0.3,0.5c0.5,0,1.2-0.4,1.7-1
		c2.1-2.4,5-4.1,6.1-7.1c0.1-0.3,0.5-1.1,1.4-1.1c0.6,0,0.5,0.2,0.9,0.2c0.7,0.1,0.8,0.2,1,0.6c0.1,0.2,0.1,0.3,0.1,0.4
		c0,0.6-0.7,0.6-1.1,1.3c-1.5,2.5-2.1,4-2.1,5.5c0,1,0.3,2,1,3c0.1,0.2,0.2,0.2,0.3,0.3c0.2,0.1,0.4,0.4,0.4,0.6
		c0,0.2-0.3,0.5-0.7,0.5c-0.5,0-0.7-0.2-1.1-0.2c-0.3-0.1-0.8-0.4-1.4-1.7c-0.3-0.7-0.8-1.8-0.8-2.7c0-0.1,0-0.2-0.1-0.2
		c-0.1,0-0.1,0-0.2,0.1c-1.5,1.1-2.8,3.5-5.2,3.5c-0.5,0-1.1-0.1-1.5-0.3c-1.3-0.6-1.4-1-1.4-1.5c0-0.4,0-0.4-0.1-0.4
		c-0.1,0-0.1,0.1-0.2,0.1c-0.9,0.9-2.1,1.6-3.1,2.1c-0.2,0.1-0.4,0.2-0.5,0.2c-0.9,0-1.8-0.3-2.5-0.9c-0.1-0.1-0.2-0.2-0.2-0.4
		c-0.1-0.5-0.2-1-0.2-1.4c0-2.8,2-5,3.1-7.4c0.8-1.8,1.1-1.9,1.6-3.1c0.1-0.3,0.8-1,1.8-1c0.3,0,0.6,0.1,0.9,0.2
		C149.5,30.2,149.5,30.4,149.5,30.7z"/>
	<path class="st1" d="M167,43c-0.2,0.5-0.4,0.8-0.6,1c-0.3,0.3-0.7,0.3-1.1,0.3c-0.3,0-1-0.3-1.5-1c-0.2-0.3-0.2-0.5-0.2-0.7
		c0-0.2,0.1-0.5,0.2-0.6c0.2-0.2,0.4-0.5,0.4-0.8s0.1-0.6,0.3-0.8c0.2-0.2,0.5-0.2,1-0.2c0.7,0,1.3,0.5,1.6,0.9
		c0.2,0.4,0.2,0.6,0.2,0.8C167.2,42,167.1,42.7,167,43z"/>
</g>
<g>
	<g>
		<path class="st1" d="M27.4,72.4c0,0,0-0.2,0-0.4c0-0.2,0-0.3,0-0.3v-0.1c0-0.1,0-0.1,0-0.2c0.1-0.1,0.1-0.2,0-0.1c0,0-0.1,0,0,0
			l0.1-0.1c0.1,0,0.1,0,0-0.2c0-0.1,0-0.2,0-0.2c0-0.1,0.1-0.2,0.1-0.3c0-0.1,0-0.2,0.1-0.3c0-0.1,0-0.2,0-0.3c0-0.1,0-0.1,0-0.1
			s0,0,0-0.1s-0.1-0.1,0-0.1c0.1-0.1,0.1-0.7,0-0.7l0,0c0.1,0,0.1,0,0.1-0.2c0-0.1,0-0.2,0-0.3c0-0.1,0-0.1,0-0.2
			c-0.1-0.1-0.1-0.1,0-0.1c0,0,0.1-0.1,0-0.2c0-0.1,0-0.2,0-0.3c0,0,0.1-0.1,0-0.1c0,0,0,0,0-0.1c0.1-0.1,0.1-0.1,0-0.1
			s-0.1-0.1,0-0.1c0,0,0.1-0.2,0.1-0.4c0-0.2,0-0.3,0.1-0.3c0,0,0.1-0.1,0.1-0.2s0-0.1-0.1-0.1c-0.1,0.1-0.1,0.1,0,0
			c0-0.1,0.1-0.1,0.1-0.1s0,0,0-0.1s0-0.2,0.1-0.3c0.2-0.3,0.3-0.4,0.9-0.4c0.2,0,0.3,0,0.3-0.1c0,0,0.1,0,0.2,0s0.2,0,0.3,0
			c0.1,0,0.3,0,0.4,0c0.2,0.1,0.3,0.1,0.3,0s0.1-0.1,0.1,0c0,0,0.1,0.1,0.1,0h0.1c0,0,0.1,0.1,0.2,0c0.1,0,0.2,0,0.2,0s0.6,0,0.7,0
			h0.1c0,0,0.2,0,0.5,0s0.5,0,0.5,0s0.1,0,0.6-0.1c0.1,0,0.3,0,0.3,0h0.1h0.1c0,0,0.2,0,0.3,0c0.2,0,0.3,0,0.3,0
			c0,0.1,0.3,0.1,0.3,0V65c-0.1,0-0.1,0,0,0c0,0,0.1,0,0.1,0.1s0.1,0.1,0.2,0c0.1,0,0.2,0,0.2,0c0.1,0,0.2,0.1,0.4,0.1h0.1
			c-0.1,0,0.5,0,0.9,0c0.9,0,2,0,3.2,0c2.4,0,5.4,0,9.2,0c10.9,0.1,20.8,0.1,27,0.1c6.5,0,16.1,0.1,33.4,0.1c6.9,0,14.8,0,17.6,0.1
			c2.8,0,5.2,0,5.3,0s0.5,0,1.2,0c0.5,0,1.2,0,2,0c0.2,0,1,0,1.8,0s1.5,0,1.5,0s0.1,0,0.2,0c0.1,0,0.2,0,0.2,0s0.1,0,0.2,0
			c0.1,0,0.1,0.1,0.2,0c0.1,0,0.4,0,0.8,0.1c0.1,0,0.2,0,0.3,0c0.2,0,0.2,0,0.3,0.1s0.2,0.1,0.3,0.1c0.3,0,0.8,0.6,0.8,0.8
			c0,0,0,0.2,0.1,0.2c0.1,0.1,0.1,0.2,0.1,0.2v0.1c0,0,0,0.1,0,0.3c-0.1,0.4-0.1,1,0,1.1c0,0.1,0,0.1,0,0.2c0,0-0.1,0.3,0,0.6
			c0,0.3,0,0.6,0,0.6c0,0.1,0,0.2,0,0.2c0,0.1,0,0.2,0,0.3c0,0.1-0.1,0.5-0.1,0.9s0,0.8-0.1,0.8c0,0.1,0,0.1,0,0.2
			c0.1,0.1,0.1,0.6,0,0.8c0,0.1,0,0.2-0.1,0.3c-0.1,0.5-0.3,0.7-1.2,0.7c-0.2,0-0.3,0-0.3,0.1c0,0-0.1,0-0.3,0s-0.4,0-0.6,0
			c-0.2,0-0.3,0-0.4,0c-0.1,0-1.7-0.1-2.3,0c-0.3,0-0.5,0-0.5,0h-0.1c-0.1,0.1-0.1,0.1-0.7,0c0,0-0.1,0-0.2,0h-0.1
			c-0.4,0-0.7,0-1.1,0c-1.5,0-3.2,0-4.8,0c-3.3,0-6.4,0-7.9,0c-3.2,0-3.6,0-8.9,0c-2.7,0-5.3,0-5.8,0c-3.8,0-17.9,0-22.4,0
			c-10.2,0-34.1-0.1-39.5-0.2c-1.3,0-5.6,0-9.5,0c-0.4,0-0.8,0-0.9,0c0,0-0.1,0-0.2,0.1c-0.2,0-0.3,0.1-0.4,0.1
			c-0.1,0.1-0.1,0.1-0.1,0s0-0.1-0.1,0s-0.5,0.1-0.7,0c-0.1,0-0.2-0.1-0.2,0c-0.1,0.1-0.2,0.1-0.4,0c-0.1,0-0.1,0-0.1,0
			c0,0.1-0.3,0-0.4-0.1c0,0-0.1,0-0.2,0c-0.1,0-0.2,0-0.3,0c-0.1,0-0.3,0-0.3,0c-0.1,0-0.1,0-0.1,0S31.3,74,31.2,74
			s-0.7,0.1-0.8,0.1c-0.1,0-0.6-0.1-0.6-0.1s-0.1,0-0.2,0c-0.1,0.1-0.1,0.1-0.2,0s-0.4-0.1-0.9,0c-0.1,0-0.2,0-0.2,0l-0.1-0.1
			c-0.4,0-1-0.3-0.9-0.5c0,0,0-0.1-0.1-0.2s-0.1-0.1-0.1-0.1s0-0.1-0.1-0.1s-0.1,0,0-0.1s0-0.4-0.1-0.5
			C27.3,72.5,27.3,72.4,27.4,72.4z"/>
	</g>
</g>
<g>
	<g>
		<path class="st1" d="M27.4,86c-0.2-0.2,0.3-0.5,0.6-0.5c0.1,0,0.4,0,0.5-0.1c0.2,0,0.4-0.1,0.4,0c0.2,0,0.3,0,0.2,0
			c0,0,0.3,0,0.6,0c0.3,0,0.6,0,0.7,0c0,0,0.2,0,0.5,0c0.4,0,0.5,0,0.7-0.2c0.1-0.1,0.2-0.1,0.1,0c0,0.1,0,0.1,0.1,0h0.1
			c0.1,0.1,0.4,0.1,0.4,0.1s0.1-0.1,0.2-0.1c0.1,0,0.3,0,0.4-0.1c0.1,0,0.2,0,0.2,0s0,0.1,0.1,0.1s0.1,0,0.1-0.1c0,0,0.1,0,0.2,0
			c0.2,0,0.3,0,0.3,0c0-0.1,0.1-0.1,0.1,0c0.1,0.1,0.2,0.1,0.2,0c0,0,0-0.1,0.1-0.1s0.1,0,0.1,0.1s0.1,0.1,0.3,0.1s0.3,0,0.3,0
			s0-0.1,0.1-0.1c0,0,0.1,0,0.1,0.1s1.7,0.2,3.4,0.2c0.7,0,1.5,0,2.2,0c0.5,0,0.9,0,1.1,0c0.1,0,0.2,0,0.3,0s0.1,0,0.1,0
			s0.1,0,0.2,0c0.1,0,0.4,0,0.7,0s0.6,0,0.7,0c3.5,0,9.4,0,9.8-0.1c0.2,0,2.4-0.1,3.6-0.1c0.5,0,1.5,0,2.3,0s1.5,0,1.5,0
			c0.1,0,0.1,0,0.1,0c0,0.1,0,0.1,0.1,0c0,0,0.3-0.1,0.6-0.1s0.9,0,1.4,0c0.7,0,0.9,0,0.9,0.1s0,0.1,0,0.1v-0.1v-0.1
			C64.9,85,65.7,85,68,85c0.4,0,0.9,0,1.1,0c0.3,0,0.5,0,0.5,0c0.2,0,1,0,1.6,0c0.4,0,0.7,0,0.7,0H72c0,0,0.3,0,1,0s1.8,0,3.5,0
			c3.2,0,3.9,0,5.4-0.1c1-0.1,2.3-0.1,2.8-0.1c0,0,0.1,0,0.1,0.1s0,0.1,0,0s0.7-0.1,2,0c0.4,0,0.7,0.1,0.7,0.1l0,0
			c0,0,0.4-0.1,0.9-0.1c0.7,0,0.9,0,0.8,0.1c0,0.1,0,0.1,0,0.1l0.1-0.1c0-0.1,4.5-0.1,4.6,0H94c0-0.1,0.8-0.1,0.8-0.1s0,0,0.1,0H95
			c0,0,0,0,0.1,0v-0.1c-0.1,0,0.7-0.1,1.7-0.1c0.4,0,0.7,0,0.7-0.1h0.1c0,0,0.1,0,0.2,0s0.2,0,0.2,0v0.1c0,0,0,0,0-0.1
			c0,0,0-0.1,0.1,0c0.1,0,0.5,0,0.9,0c0.6,0,0.8,0,0.8,0.1s0,0.1,0,0s0.2-0.1,0.7-0.1c1.4,0,1.4,0,1.4,0.1s0,0.1,0.1,0
			c0-0.1,0.6-0.1,0.6-0.1s0,0,0.1,0s0.3,0,0.6,0c0.3,0,0.5,0,0.5-0.1l0,0c0,0.1,0,0.1,0,0.1s0,0,0-0.1s0.5-0.1,0.6,0h0.1
			c0-0.1,0.4-0.1,0.4,0s0.1,0.1,0.1,0.1v-0.1c-0.1-0.1-0.1-0.1,0-0.1l0.1,0.1c0,0.1,0,0.1,0.1,0s0.2-0.1,0.2,0s0,0.1,0,0.1h0.1
			c0,0,0,0,0.1,0v-0.1c-0.1-0.1,0-0.1,0.1-0.1c0.2,0,0.2,0,0.2,0.1s0,0.1,0.1,0s0.6-0.1,0.6-0.1s0,0.1,0.1,0.1s0.1,0,0.1,0.1
			s0,0.1,0,0.1l0.1-0.1c0-0.1,0.1-0.1,0.1-0.1s0.2,0,0.4,0c0.3,0,0.4,0,0.5,0c0,0,0.4,0,0.7,0c0.6,0,0.7,0,0.7,0.1
			c0.1,0.1,0.2,0.1,0.2,0c0,0,0-0.1-0.1-0.1c0,0-0.1,0,0,0c0,0,0.1,0,0.3,0l0.1,0.1c0,0.1,0,0.1,0.1,0s0.5-0.2,0.6-0.1l0,0
			c0,0,0-0.1,0.1-0.1s0.1,0,0,0s-0.1,0.1,0,0.1c0,0.1,0,0.1,0.1,0v-0.1c0-0.1,0.7-0.1,0.8-0.1c0,0.1,0.1,0,0.1,0c0-0.1,0-0.1,0.1,0
			c0,0.1,0,0.1,0.1,0c0,0,0.2-0.1,0.4-0.1c0.2,0,0.4,0,0.5,0s0.1,0,0.1,0.1c0.1,0.1,0.2,0.1,0.1,0v-0.1c0.1-0.1,0.3,0,0.3,0
			s0,0,0.1,0v-0.1l0,0v0.1c0,0.1,0,0.1,0,0s0.1-0.1,0.1,0c0.1,0.1,0.3,0.1,0.3-0.1c0-0.1,0-0.1,0.1,0c0.1,0,0.1,0,0.1,0
			c0-0.1,0.2-0.1,0.2,0s0,0.1,0,0s0.2-0.1,0.3,0l0.1,0.1c0.1,0,0.1,0,0,0l-0.1-0.1c0-0.1,0.2,0.1,0.3,0.2c0.1,0.1,0.1,0.1,0.1,0
			s0-0.1,0-0.1c-0.1,0,0-0.2,0.1-0.2s0.1,0,0,0.1s0.1,0.2,0.2,0.1c0,0,0.1,0,0.2,0s0.1,0,0.1-0.1s0-0.1,0.1-0.1s0.1,0,0.2,0
			c0,0,0.1-0.1,0.1,0l0,0l0,0c0,0,0.1,0,0.2,0s0.1,0,0.1,0.1s0,0.1,0.1-0.1c0.1-0.1,0.1-0.2,0.2-0.1h0.1h0.1c0.1,0,0.1,0,0.2,0
			s0.1,0,0.2,0c0.1,0.1,0.1,0.1,0.1,0s0-0.1,0-0.1h0.1c0,0,0.1,0,0.2,0.1s0.2,0.1,0.2,0.1v-0.1v-0.1l0,0c0,0.1,0,0.1,0,0
			c0.1-0.1,0.2-0.1,0.2,0c0,0,0.1,0.1,0.1,0s0.4-0.1,0.4,0s0,0.1,0,0c0.1-0.1,0.1-0.1,0.1,0s-0.1,0.1,0,0.2c0,0.1,0.1,0,0.1-0.1
			c0.1-0.1,0.1-0.1,0.1-0.1c0.1,0.1,0.1,0.1,0.1,0c0,0,0-0.1,0.1-0.1c0,0,0.1,0,0.1-0.1c0,0,0.1-0.1,0.2-0.1s0.2,0,0.2-0.1
			s0.1-0.1,0.1,0c0,0,0,0.1-0.1,0.1c0,0,0,0,0,0.1c0.1,0.1,0.1,0.1,0.1,0v-0.1c0,0,0,0,0.1,0.1c0,0,0,0,0.1,0c0-0.1,0.1-0.1,0.1-0.1
			s0.1,0,0-0.1c0-0.1,0-0.1,0.1-0.1s0.1,0,0,0c0,0-0.1,0.1,0,0.1c0,0.1,0,0.1,0.1,0l0.1-0.1c0,0,0.1,0,0.1-0.1h0.1
			c0,0,0,0.1-0.1,0.1s-0.1,0.1-0.1,0.1s0.1,0,0.2,0c0.1-0.1,0.1-0.1,0.1-0.1c-0.1,0,0-0.1,0.1-0.1s0.1,0,0.1,0.1s0.2,0.1,0.3,0
			c0.1-0.1,0.1-0.1,0,0.1c0,0.1-0.1,0.1,0,0.2c0,0.1,0.1,0.1,0.1-0.1c0-0.1,0-0.1,0.1-0.2c0.4-0.1,0.4-0.1,0.4,0s0,0.1,0,0
			c0.1-0.2,0.2-0.2,0.2,0c0,0.1,0.1,0.1,0.1,0s0-0.1,0.1-0.1s0.1,0,0,0.1v0.1c0,0,0.1,0,0.1-0.1c0,0,0,0,0,0.1s0,0.1,0,0.1
			s0,0,0-0.1v-0.1c0,0,0,0,0,0.1v0.1c0,0,0,0,0-0.1s0-0.1,0,0c0.1,0.1,0.1,0.1,0,0c0-0.1,0-0.1,0.1,0c0.1,0,0.1,0,0.2,0s0.1,0,0.1,0
			s0,0,0.1,0c0,0,0.1-0.1,0.2-0.1c1.5-0.1,1.9-0.1,1.9,0s0,0.1,0,0.1v-0.1c0-0.1,0.7-0.2,0.8,0c0,0,0,0,0.1,0c0-0.1,0.7-0.1,0.8,0
			h0.1c0,0,0.1,0,0.3,0c0.2,0,0.5,0,0.7,0s0.3,0,0.3,0l-0.1,0.1c0,0.1,0.1,0.1,0.1,0c0.1-0.1,0.2-0.1,0.2,0v0.1
			c0.1,0.1,0.1,0.1,0-0.1c0-0.1,0-0.2,0.1,0l0.1,0.1c0.1,0,0.1,0,0-0.1c-0.1-0.1-0.1-0.1,0.1-0.1c0.2,0,0.2,0,0.2,0.2
			c-0.1,0.2,0,0.2,0,0.2s0.1,0,0.1-0.1c0-0.3,0-0.3,0.2-0.3s0.2,0,0.2,0.1c0,0,0,0.1,0.1,0.1c0,0,0.1,0,0.1-0.1s0.1-0.1,0.4-0.1
			c0.5,0,0.5,0,0.4,0.1c0,0,0,0.1,0.1,0.1s0.1,0,0.1-0.1s0.3-0.1,0.4,0l0,0c0,0,0-0.1,0.1-0.1c0,0,0.1,0,0.1,0.1v0.1c0,0,0,0,0-0.1
			s0.1-0.1,0.6-0.1c0.3,0,0.6,0,0.6,0.1l0,0c0,0,0,0,0-0.1v-0.1c0,0,0.1,0,0.1,0.1l0.1,0.1c0.1,0,0.1,0,0-0.1c-0.1,0,0-0.1,0-0.1
			s0.1,0,0.1,0.1s0,0.1,0.1,0c0-0.1,0.1-0.1,0.1,0s0,0.1,0.1,0h0.1h0.1c0-0.1,0.4-0.1,0.4,0c0,0.2,0,0.2,0.1,0.1
			c0-0.1,0.1-0.1,0.1,0l0.1,0.1c0.1,0,0.1,0,0.1,0s0-0.1,0.1-0.1c0,0,0.1,0,0.1,0.1s0.2,0.1,0.2,0c0,0,0,0-0.1,0h-0.1h0.1
			c0.1,0,0.1,0,0.1,0.1s0,0.1,0.1,0c0-0.1,0-0.1,0,0s0,0.1,0,0c0.1-0.1,0.1-0.1,0.1,0s0,0.1,0,0.1l0,0c0,0,0.1-0.1,0.2-0.1
			c0.1,0,0.2,0,0.2-0.1v-0.1c0,0,0,0,0,0.1v0.1l0.1-0.1c0-0.1,0-0.1,0.1-0.1c0,0,0.1,0.1,0.1,0h0.1c0,0,0,0,0.1,0
			c0.1-0.1,0.1-0.1,0.3-0.1c0.6,0,0.6,0,0.6,0.1c0,0.2,0.1,0.2,0.1,0c0-0.1,0.1-0.1,0.3-0.1s0.2,0,0.2,0.1l-0.1,0.1c0,0,0,0,0.1,0
			c0,0,0.1,0,0.1,0.1s0,0.1,0.1-0.1c0.1-0.1,0.1-0.2,0.2-0.2c0.1,0,0.2,0,0.3,0s0.1,0,0.1,0.1s0,0.1,0,0c0.1-0.1,0.2-0.1,0.2,0
			s0,0.1,0.1,0c0.1,0,0.1,0,0.1,0c0,0.1,0,0.1,0.1,0c0-0.1,0.3-0.1,0.3,0c0,0,0,0,0.1,0c0.1-0.1,0.4-0.1,0.4,0.1c0,0.1,0,0.1,0,0.1
			v-0.1c0,0,0-0.1,0.1-0.1s0.1,0,0.1,0s0,0,0.1,0c0.1-0.1,0.1-0.1,0.2,0c0.1,0.1,0.2,0.1,0.3,0s0.1-0.1,0.1,0s0,0.1,0,0.2s0,0,0,0
			c0-0.1,0.1-0.1,0.1,0s0.1,0.1,0.1-0.1c0.1-0.2,0.1-0.2,0.1-0.1v0.1c0.1,0,0.2,0,0.2,0.1c0.1,0,0.1,0,0.1-0.1c0-0.2,0-0.2,0.1-0.2
			s0.1,0,0.2,0c0.1,0,0.2,0,0.2,0.1s0,0.1,0.2,0c0.1-0.1,0.2-0.1,0.3,0s0.2,0.1,0.1,0c0,0,0.1-0.1,0.2-0.1c0.1,0,0.2,0,0.2,0h0.1
			c0.2-0.1,0.3-0.1,0.3,0s0,0.1,0.1,0.1c0.2,0,0.3-0.1,0.2-0.2s0.1,0,0.2,0.1c0.1,0.1,0.1,0.1,0.1,0c0,0,0.1-0.1,0.2,0
			c0.1,0,0.1,0,0-0.1s-0.1-0.1,0-0.1c0,0,0.1,0,0.2,0.1c0,0,0.2,0.1,0.3,0.1s0.2,0,0.2,0.1c-0.1,0.1,0.1,0.1,0.2,0
			c0.1-0.1,0.2-0.1,0.3,0s0.1,0.1,0.1,0l0.1-0.1c0.2,0,0.3,0,0.2-0.1c-0.1,0-0.1-0.1,0-0.1c0,0,0.1,0,0-0.1c0,0,0-0.1,0.1-0.1
			s0.3-0.1,0.4-0.1c0.2-0.1,0.7-0.1,0.8-0.1h0.1c0.1-0.1,0.5-0.1,0.7,0c0.1,0,0.2,0.1,0.2,0.1s0,0,0.1,0.1s0.6,0.1,0.7,0
			c0.1,0,0.1,0,0.1,0.1s0,0.1,0.1,0.1c0.2-0.2,0.6-0.1,0.5,0.1c0,0.1,0,0.1,0.1,0c0.1,0,0.1,0,0.1,0s0,0,0.1,0c0-0.1,0.1-0.1,0.2,0
			c0.1,0,0.2,0.1,0.2,0c0.1-0.1,0.3,0,0.3,0.1s0.1,0.2,0.1,0.1s0.5,0,0.5,0s0.1,0,0.3,0s0.3,0,0.4,0c0,0,0.1,0,0.2,0
			c0.1,0,0.1,0,0.2,0.1c0.1,0.1,0.1,0.1,0.1,0s0-0.1,0.2,0c0.1,0,0.2,0.1,0.2,0.1s0,0,0.1,0c0,0,0.1,0.1,0.2,0c0.1,0,0.1,0,0.1,0.1
			s0.1,0.1,0.1,0.1c0.1,0,0.1,0,0.1,0.1S152,84,152,84c0.1,0,0.1,0,0.1,0.1s0,0.1,0.1,0.2c0,0,0.1,0.1,0,0.1c0,0.1,0,0.1,0,0.1
			s0,0.1,0,0.2s0,0.2-0.1,0.2c-0.1-0.1-0.1,0,0.1,0.1c0.1,0.1,0.1,0.1,0,0.1s-0.1,0.2,0,0.4c0,0.1,0,0.1,0,0.1
			c-0.1-0.1-0.1,0.5,0,0.5c0,0,0,0.1-0.1,0.2s-0.1,0.5-0.1,0.6c0,0,0,0.1,0,0.2c-0.1,0.1-0.1,0.2-0.1,0.5c0,0.1,0,0.2-0.1,0.2v0.1
			V88v0.1c0.1,0.1,0.1,0.3,0,0.3s-0.1,0.2-0.1,0.2s0,0.1,0,0.2c-0.1,0.1-0.1,0.2-0.1,0.2l0,0c0,0-0.1,0,0,0.1c0,0.1,0,0.1,0,0.2
			c-0.1,0.1-0.1,0.4-0.1,0.5c0.1,0.1,0.1,0.3,0,0.4c0,0-0.1,0,0-0.1c0-0.1,0-0.1-0.1,0s-0.1,0.1,0,0.2s0.1,0.1,0,0
			c-0.1,0-0.1,0-0.1,0.2c0,0.1,0,0.3-0.1,0.3s-0.1,0.1,0,0.1c0,0,0,0.1,0,0.2s-0.1,0.2-0.1,0.3c0,0.1-0.1,0.1-0.1,0.1
			s-0.1,0-0.1,0.1s-0.1,0.3-0.1,0.4c-0.3,0-0.4,0.1-0.8,0.3c-0.1,0-0.2,0.1-0.1,0c0,0,0,0-0.1,0s-0.2,0-0.2-0.1
			c-0.1-0.1-0.1-0.1-0.4,0c-0.1,0-0.4,0.1-0.6,0c-0.2,0-0.3,0-0.3,0s0,0-0.1,0s-0.2-0.1-0.3,0c-0.1,0-0.5,0.1-0.9,0.1
			c-2.3,0.1-2.5,0.1-2.6,0c-0.1,0-0.1,0-0.2,0c-0.1,0.1-0.1,0-0.1,0c0-0.1,0-0.1,0,0s-0.1,0.1-0.1,0c0,0,0,0-0.1,0
			c-0.1,0.1-0.2,0-0.1-0.1c0.1-0.1,0.1-0.1,0-0.1l-0.1,0.1c-0.1,0.2-0.2,0.2-0.2,0.1s0-0.1-0.1,0l-0.1,0.1c0,0,0,0,0-0.1v-0.1
			c0,0-0.1,0-0.1,0.1l-0.1,0.1c-0.1,0-0.1,0-0.1-0.1c0.1-0.1,0-0.1-0.1-0.1c-0.2,0-0.3,0.1-0.1,0.1c0.1,0,0.1,0,0.1,0.1
			s-0.2,0-0.6,0c-0.1,0-0.2,0-0.2,0s-0.1,0-0.2,0c-0.2,0-0.4,0-0.6,0c-0.1,0-0.1,0-0.1,0s0-0.1-0.1-0.1s-0.1,0-0.1,0.1s-0.3,0-0.3,0
			c-0.1-0.1-0.1-0.1-0.1,0s-0.2,0.1-0.2,0c0,0,0-0.1,0,0c0,0,0.1,0,0,0c-0.1-0.1-0.2-0.1-0.2-0.1c0,0.1-0.1,0.2-0.1,0.1
			c0,0,0,0-0.1,0v0.1v0.1c0,0-0.1,0,0-0.1c0-0.1,0-0.1-0.1,0c-0.1,0-0.1,0.1-0.1,0s-0.2-0.1-0.2,0c0,0,0,0-0.1,0c0-0.1,0-0.1-0.1,0
			s-0.1,0.1,0,0c0.1-0.2,0.1-0.2,0-0.2s-0.1,0-0.1,0.2l0,0l0,0c0-0.1-0.2-0.2-0.3-0.1v0.1l0,0c0,0,0-0.1,0-0.2s0-0.1-0.1-0.1
			s-0.1,0,0,0.1c0.1,0,0,0.1,0,0.1l-0.1,0.1c0,0,0,0-0.1,0h-0.1c0,0,0,0.1-0.1,0.1h-0.1c0,0,0,0,0.1,0c0,0,0.1,0,0-0.1h-0.1
			c-0.1,0-0.1,0-0.2-0.1c0-0.1-0.1-0.1-0.1-0.1v0.1c0.1,0,0.1,0.1-0.1,0.1c-0.1,0-0.1,0-0.1,0.2c0,0.1,0,0.1,0,0
			c0,0-0.1-0.1-0.1-0.2v-0.1c0,0,0,0,0,0.1c0,0,0,0.1,0,0.2s0,0.1,0,0s0-0.1,0-0.1s-0.1,0.1,0,0.1v0.1c0,0-0.1,0-0.1-0.1
			s-0.1-0.2-0.3,0l-0.1,0.1c-0.1,0-0.1,0,0-0.1v-0.1h-0.1c-0.1,0.1-0.1,0-0.1-0.1s0-0.1,0-0.1H137c0,0,0,0,0,0.1c0,0,0,0,0.1,0l0,0
			c0,0.1-0.3,0.1-0.3,0s0-0.1-0.1-0.1s-0.1,0,0-0.1c0-0.1,0-0.1,0-0.1c-0.1,0-0.1,0.1-0.1,0.2s0,0.1,0,0.1l-0.1-0.1l-0.1-0.1
			c0,0-0.1,0,0,0.1c0,0,0,0-0.1,0s-0.1,0-0.1,0c0,0.1,0,0,0-0.1s0-0.2-0.1-0.1c0,0.1,0,0.1,0,0c0-0.2,0-0.2,0-0.2s0,0,0,0.1
			c0,0,0,0.1-0.1,0.2c-0.1,0.2-0.2,0.2-0.1,0.1c0-0.1-0.1-0.2-0.1-0.1l-0.1,0.1l0,0c0.1,0.1,0,0.1-0.1-0.1s-0.2-0.2-0.1,0
			c0,0.1,0,0.1,0,0.2s0,0.1,0,0s0-0.1-0.1-0.1s-0.1,0,0-0.1c0.1-0.2,0-0.2-0.1-0.2s-0.1,0,0,0c0.1-0.1,0.1-0.2,0-0.2l-0.1,0.1
			c0,0.1,0,0.2,0.1,0.2l0,0c0,0.1-0.1,0.1-0.2,0.1c0,0,0,0-0.1,0.1c0,0.1,0,0.1-0.1,0s-0.1-0.1,0,0c0,0.1-0.1,0.1-0.2,0
			c-0.1-0.1-0.1-0.1-0.1,0s-0.1,0.1-0.3,0.1s-0.3,0-0.3,0c0.1,0,0.1,0,0-0.1c-0.1,0-0.1,0-0.1,0s0,0.1-0.1,0.1c0,0,0,0,0-0.1v-0.1
			c0,0-0.1,0.1-0.1,0.2c0,0,0,0-0.1,0.1c-0.1,0-0.1,0-0.1-0.1c0,0,0-0.1-0.1-0.1s-0.1,0,0,0.1c0.1,0,0.1,0.1,0,0.1s-0.1-0.1-0.1-0.2
			c0.1-0.1,0-0.2,0-0.2l0,0c0,0,0,0.1-0.1,0.3l-0.1,0.1c0,0,0-0.1,0.1-0.2s0.1-0.2,0.1-0.2s0-0.1,0.1-0.1s0.1,0,0-0.1
			c0,0-0.1-0.1,0-0.1c0,0,0-0.1,0,0c0,0-0.1,0.1-0.1,0.2s-0.1,0.3-0.2,0.3c-0.2,0-0.3,0-0.2,0.1s0.1,0.1,0,0.1s-0.1,0-0.1-0.1
			c0-0.2-0.1-0.2-0.1-0.1c0,0.2,0,0.2-0.2,0c-0.1-0.1-0.1-0.1-0.1,0s0,0.1-0.1,0c0,0-0.1-0.1-0.1,0c-0.1,0.1-0.3-0.1-0.2-0.1l0,0
			c0,0,0,0,0,0.1c0,0.2-0.3,0.4-0.4,0.2v-0.1c0,0,0,0,0-0.1c-0.1-0.1-0.2,0-0.2,0.1c0,0,0,0-0.1,0s-0.1,0,0-0.1s0-0.2,0-0.1h-0.1
			c0,0-0.1,0,0,0.1c0,0.1,0,0.1-0.1,0.1l-0.1-0.1c0-0.1,0-0.1-0.1,0s-0.1,0.1-0.2,0c-0.1-0.1-0.1-0.1-0.2,0
			c-0.1,0.2-0.2,0.2-0.1,0.1c0-0.1,0-0.1-0.1-0.1s-0.1,0-0.1,0.1c0,0,0,0.1-0.1,0c0,0-0.1,0-0.1-0.1c0-0.2,0-0.3,0-0.3s0,0,0,0.1
			c0,0,0,0.1-0.1,0.2c0,0.1-0.1,0.1-0.1,0v-0.1c0,0-0.1-0.3-0.1-0.2v0.1c0.1,0.2,0,0.3-0.2,0.2c-0.1,0-0.2,0-0.2,0c0,0.1,0,0,0-0.1
			s0-0.1,0-0.2c0,0,0,0-0.1,0.1c0,0.1,0,0.1-0.1,0.1s-0.1,0-0.2,0c-0.1,0.1-0.2,0-0.3-0.1c0-0.1-0.1-0.1-0.1-0.1v0.1
			c0,0,0,0.1-0.1,0.1s-0.2,0-0.2,0.1h-0.1v-0.1l0.1-0.1c0,0,0,0-0.1,0c-0.1,0-0.1,0.1-0.1,0.2s0,0.1-0.1,0c0-0.1-0.1-0.1-0.1,0
			c0,0,0,0-0.1,0c0-0.1-0.1-0.1-0.1,0s0,0.1,0,0.2s0,0.1-0.1,0.1s-0.1,0-0.1-0.1v-0.1c0,0-0.1,0,0,0.2l0,0v-0.1c0,0,0,0-0.1,0
			s-0.1,0-0.1-0.1c0-0.2-0.1-0.2-0.1-0.1c0,0.2-0.2,0.2-0.2,0.1s0-0.1-0.1,0v0.1c0,0,0,0,0-0.1c-0.1-0.1-0.1-0.1-0.1,0s0,0.1,0,0
			l-0.1-0.1c-0.1,0-0.1-0.1-0.1-0.2s0-0.1,0-0.1l-0.1,0.1c0,0.1,0,0.1-0.1,0.1c0,0-0.1,0-0.1,0.1s-0.1,0.1-0.1,0.1s0,0,0-0.1
			c0.1-0.2,0-0.1-0.1,0.1c-0.1,0.1-0.1,0.1-0.2,0.2c0,0,0,0,0-0.1c0.1-0.2,0.1-0.2,0-0.2s-0.1,0-0.2,0v0.1c0,0.1,0,0.1,0,0.1
			c-0.1,0-0.1-0.1-0.1-0.3c0-0.1,0-0.1-0.1,0c0,0.1-0.1,0.1-0.1,0.1c-0.2-0.1-0.4,0.1-0.2,0.2l0,0c-0.1,0-0.1-0.1,0-0.2
			c0-0.1,0-0.1,0,0l-0.2,0.1c-0.1,0-0.2,0-0.3,0.1c-0.1,0-0.1,0-0.1,0c0.1,0,0.1-0.2,0.1-0.2s0,0-0.1,0.1l-0.1,0.1
			c-0.1-0.1-0.2-0.1-0.2,0.1c0,0.1,0,0.1,0,0.1c0-0.1-0.1-0.1-0.2,0s-0.1,0.1-0.1,0s0-0.1,0-0.2c0,0,0,0,0,0.1s0,0.1-0.1,0.1h-0.1
			v0.1l0,0c0,0.1-0.6,0.1-0.6,0l0,0c0,0.1-0.1,0.1-0.3,0c-0.1-0.1-0.2-0.1-0.2,0c0,0,0,0-0.1,0c0-0.1-0.1-0.1-0.2-0.1
			c0,0-0.1,0-0.1-0.1c0,0-0.1,0-0.2,0c-0.1,0.1-0.2,0.1-0.2,0s0-0.1,0,0c0,0,0,0.1-0.1,0.1c0,0-0.1,0-0.1,0.1s0,0.1,0,0
			s0-0.1-0.1-0.1l-0.1,0.1c0,0.1,0,0.1-0.1,0c0-0.1-0.2-0.1-0.1,0c0,0.1,0,0.1,0,0.1h-0.1c0,0,0,0,0-0.1c0.1-0.1,0.1-0.1,0-0.1H121
			c0,0-0.1,0.1-0.1,0.2c-0.1,0.1-0.1,0.1,0,0s0.1-0.2-0.1-0.1c-0.1,0-0.2,0.1-0.2,0c0,0,0,0,0-0.1v-0.1l0,0h-0.1c0-0.1,0,0-0.1,0
			c0,0.1-0.1,0.1-0.1,0.1c-0.1,0-0.1,0-0.2,0.1s-0.1,0.1-0.1,0s0-0.1,0-0.1l-0.1,0.1c-0.1,0-0.1,0,0-0.1c0.1-0.2,0.1-0.2-0.1-0.1
			c-0.1,0.1-0.2,0.1-0.2,0.1s-0.1-0.1-0.1,0h-0.1c0,0,0-0.1,0,0v0.1V93v-0.1c0-0.1,0-0.1,0-0.2c0,0,0,0,0,0.1s0,0.1-0.1,0.2
			s-0.2,0-0.2,0v-0.1c0,0,0,0-0.1,0.1c0,0,0,0.1-0.1,0.1c0,0,0,0,0-0.1s0-0.1,0,0c0,0-0.1,0.1-0.1,0c0,0,0,0,0,0.1s0,0.1-0.1,0
			c0-0.1-0.1-0.2-0.1-0.2s0,0,0,0.1s0,0.1,0,0.1h-0.1v0.1c0,0,0,0,0-0.1s0-0.1,0-0.1h-0.1c0,0,0-0.1-0.1-0.1s-0.1,0-0.1,0.1
			s-0.1,0.2-0.1,0.1l0,0c0,0,0,0.1-0.1,0.1c0,0-0.1,0-0.1,0.1c0,0,0,0.1-0.1,0.1c-0.2,0-0.2,0-0.2-0.1s0-0.1,0,0
			c-0.1,0.1-0.3,0.2-0.4,0.1c0-0.1-0.1-0.1-0.3,0c-0.1,0-0.2,0-0.2,0s0,0-0.1,0c0,0.1-0.1,0.1-0.1,0.1s0,0,0,0.1c0,0,0,0-0.1,0
			c-0.1-0.1-0.1-0.1,0-0.2s0-0.2-0.1-0.1c0,0.1-0.1,0.1-0.1,0.1s-0.1,0-0.1,0.1s-0.1,0.1-0.1,0c-0.1-0.1-0.1-0.1-0.1,0
			s-0.2,0.1-0.2,0s0-0.1-0.1-0.1v0.1l0,0c0,0-0.1,0-0.1,0.1s0,0.1,0,0c0,0,0,0,0,0.1s0,0.1-0.1,0c0-0.1-0.1-0.1-0.1-0.1s0,0,0,0.1
			s0,0.1,0,0.1c-0.1,0-0.1-0.2-0.1-0.3c0,0,0-0.1-0.1-0.1s-0.1,0,0,0.2s0,0.2-0.1,0.2s-0.1,0-0.1-0.2c0-0.1,0-0.1,0-0.2
			c0,0,0,0-0.1,0.1c0,0.1,0,0.1-0.1,0.1c0,0,0,0,0,0.1s0,0.1,0,0.1s0,0,0-0.1s0-0.1,0-0.1v0.1c0,0.1,0,0.1,0,0s0-0.1,0-0.2
			s0-0.1,0-0.1s-0.1,0-0.1,0.1s0,0.1-0.1,0.1v-0.1c0-0.1,0-0.1-0.1,0s-0.2,0.1-0.2-0.1c-0.1-0.2,0,0.1,0,0.3c0,0.1,0,0.1-0.1,0
			s-0.1-0.1-0.1-0.1s-0.1,0.1-0.1,0c0,0,0,0-0.1,0.1c0,0.1-0.1,0.1-0.1,0.1h-0.1c0,0,0,0-0.1,0c-0.1-0.1,0-0.1,0-0.1s0,0,0-0.1
			s-0.1-0.1-0.2,0l0,0h-0.1c-0.1,0-0.1,0-0.1,0s0-0.1-0.1-0.1s-0.1,0,0,0.1s0.1,0.2,0,0.2v-0.1c0-0.1,0-0.1,0-0.1l0,0h-0.1
			c-0.1,0-0.2,0-0.2,0c-0.1,0-0.1,0-0.1,0s0-0.1,0,0v0.1c0,0.1,0,0.1-0.1,0.1s-0.1,0,0-0.1l0.1-0.1v-0.1c0.1,0,0.1,0,0-0.1h-0.1
			c-0.1,0.1-0.1,0.1,0,0.1c0,0,0,0,0,0.1h-0.1c0-0.2-0.1-0.1-0.1,0.1s0,0.2-0.1,0.1s-0.2-0.2-0.2-0.1v0.1c0,0,0,0,0-0.1v-0.1l0,0
			c0,0,0,0.1-0.1,0h-0.1c0,0,0,0-0.1,0c0,0-0.1,0-0.1,0.1c-0.1,0.1-0.1,0.1-0.2,0.1s-0.1,0-0.1,0s0,0-0.1-0.1s-0.1-0.1-0.1-0.1H111
			h-0.1c0,0.1-0.1,0.1-0.1,0s0-0.1-0.1,0c0,0-0.1,0.1-0.1,0c0,0,0,0-0.1,0v0.1v0.1l0,0c0-0.1,0-0.1,0,0c-0.1,0.1-0.1,0.1-0.1,0v-0.1
			c0,0-0.1,0-0.1,0.1s-0.2,0.2-0.4,0.1c-0.1,0-0.1,0-0.1,0l0,0c0,0-0.1,0-0.2,0s-0.2-0.1-0.1-0.1c0,0,0,0,0-0.1s-0.2,0.1-0.2,0.2V94
			c0,0,0,0,0-0.1s0-0.1,0-0.1l-0.1,0.1c0,0,0,0-0.1,0H109c0,0,0,0-0.1,0h-0.1c0,0,0,0,0-0.1s0-0.1-0.1-0.1s-0.2,0-0.2,0
			s-0.1,0,0,0.1c0,0,0,0.1,0,0c0,0-0.1-0.1,0-0.2c0-0.2-0.1-0.1-0.2,0.1s-0.2,0.1-0.2-0.1v-0.1c0,0,0,0,0,0.1s0,0.1-0.1,0h-0.1
			c0,0.1-0.2,0.1-0.3,0c0-0.1-0.1-0.1-0.1,0s0,0.1,0,0.1l0,0c0,0,0-0.1-0.1-0.1s-0.1,0-0.1,0.1v0.1c0,0,0,0,0-0.1v-0.1
			c0,0,0,0.1-0.1,0.1c0,0.1,0,0.1-0.1,0.1c0,0,0-0.1,0-0.2c0.1-0.2,0-0.2-0.1,0s-0.2,0.1-0.2-0.1c0-0.1,0-0.1-0.1,0
			c0,0-0.1,0.1,0,0.1l0,0h-0.1c0,0.1-0.2,0.1-0.2,0c-0.1-0.1-0.3-0.3-0.3-0.2c0,0.1,0,0.1,0,0.1s0,0,0,0.1c0,0,0,0.1,0.1,0h0.1
			c0,0,0,0,0.1,0l0,0c0,0.1-0.3,0-0.3-0.1s-0.2-0.1-0.2,0c0,0,0,0,0.1,0s0.1,0,0.1,0.1s0,0.1,0,0c0,0-0.1,0-0.3,0
			c-0.2,0-0.2,0-0.2-0.2c0-0.1,0-0.1,0-0.1c-0.1,0.1-0.2,0-0.3-0.1c0-0.1-0.1-0.1,0,0c0,0.1,0,0.1,0,0.1v0.1v0.1c0,0,0,0-0.1-0.1
			c0-0.1-0.2-0.1-0.2-0.1s0,0.1-0.1,0h-0.1c0,0,0,0-0.1,0l-0.1-0.1c0-0.1,0-0.1-0.1,0s-0.1,0.1-0.1,0c0,0,0-0.1-0.1-0.1
			c0,0-0.1,0,0,0.1c0,0.1,0,0.1-0.3,0.1s-0.3,0-0.3-0.1s0-0.1,0,0s-0.1,0.1-0.1,0c0,0,0-0.1,0,0v0.1c0,0,0,0-0.1,0s-0.1,0-0.1-0.1
			c0.1-0.1,0-0.1-0.1,0l-0.1,0.1c0,0.1-0.1,0.1-0.1,0s0-0.1-0.1,0s-0.1,0.1-0.1,0s0-0.1,0,0s0,0.1,0,0s0-0.1,0-0.1s0,0,0,0.1
			c0,0,0,0.1-0.1,0.2s-0.1,0.1,0,0c0-0.1,0-0.1-0.1-0.1s-0.1,0-0.1,0.1l-0.1,0.1c-0.1,0-0.1,0,0-0.1c0-0.1,0-0.1,0-0.1s0,0-0.1,0.1
			s-0.2,0.2-0.2,0.1s-0.1-0.1-0.2-0.1s-0.1,0-0.1,0c0-0.1-0.1-0.1-0.1,0s0,0.1-0.1,0.1s-0.1,0-0.1-0.1s-0.2-0.2-0.2-0.2v0.1v0.1
			c0,0-0.1,0-0.1-0.1s-0.1-0.2-0.1-0.1c0,0,0,0.1-0.1,0H101l0,0l0,0v0.1c0,0,0,0,0-0.1v-0.1c0,0-0.1,0-0.1,0.1
			c-0.1,0.1-0.3,0.2-0.3,0.1c0,0,0,0-0.1,0c-0.1,0.1-0.1,0-0.1-0.1c-0.1-0.1-0.1-0.1,0,0c0,0.1,0,0.1-0.1,0c0-0.1-0.1-0.1-0.1,0
			c0,0,0,0.1,0,0c-0.1-0.1-0.2-0.1-0.2,0s0,0.1,0,0.1s0,0,0-0.1c0,0,0,0-0.1,0h-0.1c0,0,0,0-0.1,0v0.1c0,0,0,0.1-0.1,0.1
			s-0.1,0-0.1-0.1s0-0.1,0-0.1s0,0,0,0.1s0.1,0.1-0.5,0.1c-0.2,0-0.4,0-0.4,0v-0.1c-0.1-0.1-0.2,0-0.1,0.1c0,0.1,0,0.1-0.2,0.1
			s-0.3,0-0.3-0.1s0-0.1,0,0s-0.4,0.1-0.4,0c0,0,0-0.1-0.1-0.1c0,0-0.1,0,0,0.1v0.1c0,0,0,0-0.1-0.1c0-0.1,0-0.1-0.1,0
			s-0.8,0.1-0.9,0h-0.1h-0.1h-0.1c0,0,0,0,0-0.1c0.1-0.2,0.1-0.2,0-0.1c0,0-0.1,0.1-0.1,0.2s0,0.1-0.1,0.1l-0.1-0.1c0,0,0,0-0.1,0
			c-0.1,0.1-0.3,0.1-0.4-0.1c-0.1-0.1-0.1-0.1,0,0c0,0.1-0.1,0.2-0.3,0.1c-0.1,0-0.1,0,0-0.1l0.1-0.1c0-0.1-0.2,0-0.2,0.1
			c0,0,0,0.1-0.1,0.1c0,0-0.1,0-0.1-0.1c0,0,0,0-0.1,0c-0.1,0.1-0.1,0-0.1-0.1c-0.1-0.1-0.1-0.1-0.1,0s0,0.1-0.1,0.1s-0.1,0-0.1-0.1
			c0,0,0,0-0.1,0H94c0-0.1,0-0.2,0-0.2s0,0.1,0,0.2s0,0.2-0.2,0.1c0,0-0.9,0-1.6,0s-1.2,0-1.2-0.1c0,0,0-0.1-0.1-0.1
			c0,0-0.1,0,0,0.1c0,0-0.1,0.1-0.3,0c-0.2,0-0.3,0-0.3-0.1c0,0,0,0-0.1,0c0,0-0.1,0-0.1,0.1c0,0-0.1,0.1-0.1,0
			c-0.1,0-0.1,0-0.1-0.1l0,0c0,0.1-0.5,0.1-0.5,0c0,0,0,0-0.1,0c0,0.1-0.4,0.1-0.4,0c0,0,0,0-0.1,0c-0.2,0.1-0.4,0.1-0.4,0
			c0,0,0,0-0.1,0h-0.1c0-0.1,0-0.1,0,0l-0.1,0.1c-0.1,0-0.2,0-0.2,0c-0.1,0-0.5,0-1,0s-1.2,0-1.5,0s-1,0-1.5,0s-1,0-1.1,0
			c-0.2,0.1-1.1,0-1.1,0h-0.1c0,0.1-1.2,0.1-1.2,0.1s0,0-0.1,0c0,0-0.6,0-1.2,0.1c-1.4,0-2.4,0-2.5,0c0,0-1.5,0-2.2,0
			c-0.5,0-1.9,0-2,0c-0.5,0-1.8,0-1.8,0.1h-0.1c0,0-0.2,0-0.5,0c-1.1,0-2.8,0.1-3.6,0.1c-0.7,0-0.9,0-0.9,0l0,0
			c0,0.1-0.2,0.1-0.9,0.1c-0.5,0-1.5,0-2.3,0.1c-0.8,0-1.8,0.1-2.1,0.1c-0.4,0-0.7,0-0.7,0s-0.3,0-0.6,0c-0.4,0-0.6,0-0.6,0
			s-0.1,0.1-0.1,0c0,0-0.2-0.1-0.5,0c-0.3,0-0.6,0-0.8,0c-0.8,0-1.1,0-1.6,0c-0.7,0-2.1,0.1-3,0.1c-0.8,0-1.3,0.1-1.3,0.1h-0.1
			c-0.1,0-0.1,0-0.1,0s0,0.1-0.1,0s-0.5-0.1-0.5,0c0,0,0,0-0.1,0s-0.8,0-1.7,0c-0.3,0-0.5,0-0.6,0c-0.3,0-0.5,0-0.5,0s0,0-0.1,0
			c0,0-0.2,0-0.4,0s-0.5,0-0.6,0s-0.4,0-0.6,0c-0.2,0-0.4,0-0.4-0.1c-0.1,0-0.1,0,0,0c0,0,0,0.1-0.1,0.1s-0.1,0-0.1-0.1
			c0,0,0,0-0.1,0c0,0-0.3,0.1-0.6,0.1h-0.6c0,0-0.3,0-0.5,0c-0.3,0-0.6,0-0.7,0c-0.1,0-0.3,0-0.4,0c-0.3,0-0.7,0-0.7,0l0,0
			c0,0,0,0-0.1,0s-0.1,0-0.1,0l0,0c0,0-0.2,0.1-0.4,0.1s-0.6,0-1,0s-0.9,0-1.3,0.1c-0.1,0-0.3,0-0.4,0c-0.3-0.1-0.8,0-1,0.1
			c0,0-0.2,0-0.5,0.1c-0.2,0-0.5,0.1-0.5,0.1c-0.1,0-0.1,0.1-0.1,0c0,0-0.2,0-0.4,0s-0.4,0-0.4,0h-0.1c-0.2,0.1-0.7,0.1-0.9,0
			c-0.1-0.1-0.1,0-0.2,0.1c-0.1,0.2-0.2,0.2-0.2,0.1c0,0,0-0.1-0.1-0.1c0,0-0.1,0-0.1,0.1c0,0,0,0-0.1,0s-0.1,0-0.2,0h-0.1
			c0-0.1-0.1-0.1-0.2,0c-0.1,0.1-0.5,0.1-0.6,0h-0.1C32.2,95,31.9,95,31.9,95s0,0-0.1,0h-0.1c0-0.1-0.2-0.1-0.3,0c0,0.1,0,0.1-0.1,0
			c-0.1,0-0.1-0.1-0.1,0l-0.1,0.1c-0.1,0-0.2,0-0.2,0c0-0.1-0.2-0.1-0.2-0.1c0,0.1-0.1,0-0.2,0c-0.1-0.1-0.1-0.1-0.1,0s0,0.1-0.1,0
			s-0.1-0.1-0.1,0c0,0,0,0-0.1,0c-0.1-0.1-0.4-0.1-0.4,0c0,0,0,0.1-0.1,0c-0.1,0-0.2,0-0.2,0c-0.1,0-0.1,0-0.1-0.1
			c0,0,0-0.1-0.1-0.1c0,0-0.1,0-0.1,0.1S29,95,29,94.9v-0.1c0,0,0,0-0.1,0s-0.1,0-0.1,0s0-0.1-0.1-0.1c-0.2-0.1-0.4-0.3-0.3-0.4
			c0,0,0-0.1-0.1-0.1s-0.1-0.1-0.1-0.2c0-0.2,0-0.4-0.1-0.4c0,0-0.1-0.1-0.1-0.2s0-0.2-0.1-0.2c-0.1-0.1-0.1-0.1,0-0.1
			s0.1-0.1,0-0.7c0-0.1,0-0.2-0.1-0.2c0,0,0,0,0-0.1c0,0,0-0.1-0.1-0.2c-0.1-0.2-0.1-0.6,0-0.7c0,0,0-0.1,0-0.2
			c-0.1-0.1-0.1-0.1,0-0.2s0.1-0.1,0-0.2s-0.1-0.3,0-0.3s0.1-0.3,0-0.3c0-0.1,0-0.1,0-0.1c0.1,0,0.1,0,0-0.1s-0.1-0.2-0.1-0.3
			c0-0.1,0-0.2,0-0.2c-0.1,0-0.1-0.1,0-0.2c0-0.1,0.1-0.1,0-0.2c0,0,0-0.1,0-0.3c0-0.2,0-0.3,0-0.3s-0.1-0.6-0.1-1.1
			C27.4,86.2,27.4,86.1,27.4,86z M59.2,87.8C59.1,87.8,59,87.9,59.2,87.8C59.1,88,59.1,88,59.2,87.8C59.2,87.9,59.2,87.8,59.2,87.8z
			 M59.2,87.5C59.1,87.6,59.2,87.7,59.2,87.5C59.3,87.6,59.3,87.5,59.2,87.5C59.3,87.5,59.2,87.5,59.2,87.5z M63.5,87.1
			C63.4,87.1,63.4,87.1,63.5,87.1C63.3,87.1,63.3,87.1,63.5,87.1C63.4,87.2,63.5,87.2,63.5,87.1z M66.7,87.5
			C66.6,87.5,66.6,87.5,66.7,87.5C66.6,87.5,66.6,87.5,66.7,87.5C66.6,87.5,66.7,87.5,66.7,87.5C66.7,87.6,66.7,87.6,66.7,87.5
			C66.9,87.5,66.8,87.5,66.7,87.5z M66.7,85.8L66.7,85.8C66.7,86,66.7,86.1,66.7,85.8C66.8,85.8,66.8,85.8,66.7,85.8z M69,87.6
			C68.9,87.6,68.9,87.7,69,87.6c0,0.1,0,0.2,0,0.2C69,87.8,69,87.8,69,87.6C69,87.7,69,87.6,69,87.6z M69.5,85.4
			C69.4,85.4,69.4,85.5,69.5,85.4C69.5,85.5,69.6,85.5,69.5,85.4C69.6,85.4,69.6,85.4,69.5,85.4z M70.5,89.4
			C70.4,89.4,70.4,89.5,70.5,89.4C70.5,89.6,70.5,89.5,70.5,89.4C70.5,89.5,70.5,89.4,70.5,89.4z M70.8,92.6
			C70.7,92.7,70.7,92.8,70.8,92.6C70.9,92.6,70.9,92.6,70.8,92.6L70.8,92.6z M71,85.1C71,85,71,85,71,85.1
			C70.9,85.1,70.9,85.1,71,85.1C71,85.2,71,85.2,71,85.1z M71.5,86.9C71.4,86.9,71.4,86.9,71.5,86.9C71.5,87,71.5,87,71.5,86.9
			C71.6,86.9,71.6,86.9,71.5,86.9z M71.8,88.6L71.8,88.6c-0.1,0.2-0.2,0.2-0.1,0.2L71.8,88.6L71.8,88.6z M72.1,87.4
			C72,87.4,72,87.5,72.1,87.4C72.1,87.6,72.1,87.5,72.1,87.4C72.2,87.4,72.1,87.4,72.1,87.4z M72.2,85.1
			C72.1,85.1,72.1,85.2,72.2,85.1c0,0.1,0,0.2,0,0.2C72.2,85.3,72.2,85.3,72.2,85.1C72.2,85.2,72.2,85.1,72.2,85.1z M74.4,87.1
			C74.4,87,74.3,87,74.4,87.1C74.2,87,74.2,87,74.4,87.1C74.3,87.1,74.4,87.1,74.4,87.1C74.4,87.2,74.4,87.2,74.4,87.1
			C74.5,87.2,74.5,87.2,74.4,87.1z M74.7,89.7C74.7,89.7,74.6,89.8,74.7,89.7c0,0.1,0.1,0.3,0.1,0.2C74.8,89.9,74.7,89.7,74.7,89.7z
			 M74.9,85.1C74.8,85.1,74.7,85.1,74.9,85.1C74.8,85.2,74.9,85.2,74.9,85.1L74.9,85.1z M75.4,86.4C75.4,86.3,75.3,86.4,75.4,86.4
			C75.4,86.6,75.4,86.6,75.4,86.4L75.4,86.4z M75.7,86.8C75.7,86.7,75.6,86.8,75.7,86.8C75.8,86.9,75.8,86.9,75.7,86.8
			C75.8,86.8,75.8,86.8,75.7,86.8z M76,85.6C76,85.6,75.9,85.6,76,85.6C75.9,85.7,76.1,85.7,76,85.6C76.2,85.6,76.1,85.5,76,85.6z
			 M77,87.4C76.9,87.3,76.9,87.3,77,87.4c0,0.2,0,0.2,0,0.2C77.1,87.5,77,87.5,77,87.4z M78.7,89.1C78.7,89.1,78.6,89,78.7,89.1
			C78.6,89,78.6,89.1,78.7,89.1C78.8,89.2,78.8,89.2,78.7,89.1z M79.8,88.7C79.8,88.7,79.7,88.7,79.8,88.7
			C79.7,88.8,79.8,88.8,79.8,88.7C79.9,88.8,79.9,88.8,79.8,88.7C79.9,88.7,79.8,88.7,79.8,88.7z M80.4,86.5c-0.1,0-0.1,0.2,0,0.2
			S80.5,86.6,80.4,86.5C80.5,86.5,80.4,86.5,80.4,86.5z M80.5,88.8L80.5,88.8C80.4,88.9,80.5,88.9,80.5,88.8
			C80.6,88.9,80.6,88.9,80.5,88.8C80.6,88.8,80.6,88.8,80.5,88.8z M80.5,87.1C80.5,87,80.5,87.1,80.5,87.1c0,0.2,0,0.2,0,0.2
			S80.5,87.3,80.5,87.1C80.6,87.1,80.6,87.1,80.5,87.1z M81.3,87.3C81.2,87.3,81.2,87.4,81.3,87.3C81.3,87.4,81.3,87.4,81.3,87.3
			L81.3,87.3z M82.5,90.2L82.5,90.2C82.5,90.3,82.5,90.4,82.5,90.2C82.6,90.3,82.6,90.2,82.5,90.2z M82.6,86.7
			C82.5,86.7,82.5,86.8,82.6,86.7C82.5,86.9,82.5,86.9,82.6,86.7C82.6,86.8,82.6,86.7,82.6,86.7z M82.7,92.8
			C82.7,92.8,82.7,92.9,82.7,92.8C82.7,93,82.7,93,82.7,92.8C82.8,92.8,82.8,92.9,82.7,92.8c0.1,0.1,0.1,0.2,0.2,0.1
			C83,92.9,82.8,92.8,82.7,92.8z M82.9,92.7C82.8,92.7,82.9,92.8,82.9,92.7C83,92.9,83.1,92.8,82.9,92.7C83,92.7,83,92.7,82.9,92.7z
			 M83.2,87.5C83.2,87.5,83.1,87.5,83.2,87.5C83.1,87.6,83.1,87.6,83.2,87.5C83.1,87.7,83.2,87.6,83.2,87.5z M83.4,92.6
			c0,0-0.1,0.1-0.1,0.2c-0.1,0.1-0.1,0.1-0.1,0.1l0.1-0.1C83.4,92.7,83.4,92.6,83.4,92.6z M83.8,86.2C83.7,86.2,83.7,86.3,83.8,86.2
			C83.9,86.3,83.9,86.3,83.8,86.2L83.8,86.2z M84.4,85.5L84.4,85.5C84.3,85.6,84.3,85.7,84.4,85.5C84.5,85.6,84.5,85.5,84.4,85.5z
			 M85,84.9C84.9,84.9,84.9,85,85,84.9C85,85,85.1,85,85,84.9C85.1,85,85.1,84.9,85,84.9z M86.4,89.8C86.3,89.8,86.3,89.8,86.4,89.8
			c0,0.2,0.1,0.2,0.1,0.2l0,0C86.4,89.9,86.4,89.9,86.4,89.8C86.4,89.8,86.4,89.7,86.4,89.8z M86.9,88.8
			C86.8,88.7,86.7,88.7,86.9,88.8C86.8,88.8,86.8,88.8,86.9,88.8S87,88.8,86.9,88.8z M86.9,84.8C86.8,84.8,86.8,84.8,86.9,84.8
			c-0.1,0.1-0.1,0.2,0,0.2S87,85,86.9,84.8C87,84.8,87,84.8,86.9,84.8z M87,85.2c-0.1-0.1-0.1,0,0,0.2c0,0.1,0.1,0.1,0.1,0
			C87.1,85.3,87,85.2,87,85.2z M87.2,88.8C87.1,88.8,87.1,88.8,87.2,88.8C87.1,88.9,87.2,88.9,87.2,88.8
			C87.2,88.9,87.2,88.9,87.2,88.8L87.2,88.8z M87.2,92.7L87.2,92.7c0,0.2,0,0.2,0,0.2C87.2,92.9,87.2,92.7,87.2,92.7z M88,85.3
			C87.9,85.2,87.9,85.3,88,85.3c0.1,0.3,0.2,0.4,0.2,0.4l0,0l-0.1-0.1c0,0,0-0.1-0.1,0c0,0-0.1,0-0.1-0.1C88,85.3,88,85.3,88,85.3z
			 M88.7,92L88.7,92C88.7,92.2,88.7,92.2,88.7,92C88.8,92,88.7,92,88.7,92z M88.9,86.9c-0.1,0-0.2,0-0.2,0.1
			C88.7,87,88.8,87,88.9,86.9C89,86.9,89,86.9,88.9,86.9z M89.3,87.2L89.3,87.2c0,0.1,0,0.2,0,0.2C89.4,87.3,89.4,87.3,89.3,87.2
			C89.4,87.2,89.3,87.2,89.3,87.2z M89.9,90.3C89.8,90.5,89.8,90.5,89.9,90.3C90,90.3,90,90.3,89.9,90.3L89.9,90.3
			C90,90.2,89.9,90.2,89.9,90.3z M91.3,88.4C91.3,88.4,91.2,88.4,91.3,88.4C91.3,88.6,91.4,88.7,91.3,88.4
			C91.4,88.5,91.3,88.4,91.3,88.4z M91.5,85.4C91.5,85.3,91.5,85.3,91.5,85.4C91.4,85.4,91.4,85.5,91.5,85.4c-0.1,0.1,0,0.1,0,0.2
			s0,0.1,0,0C91.6,85.6,91.5,85.5,91.5,85.4z M92,88.2L92,88.2v0.2C92,88.4,92,88.4,92,88.2L92,88.2z M92.9,92.7
			C92.8,92.6,92.8,92.6,92.9,92.7C92.8,92.7,92.9,92.8,92.9,92.7C93,92.8,92.9,92.7,92.9,92.7z M93.6,86.8
			C93.5,86.8,93.5,86.8,93.6,86.8C93.5,87,93.5,87,93.5,87S93.5,86.9,93.6,86.8C93.6,86.9,93.6,86.9,93.6,86.8L93.6,86.8z
			 M94.5,89.5C94.5,89.5,94.4,89.5,94.5,89.5C94.3,89.6,94.4,89.6,94.5,89.5L94.5,89.5z M94.5,92.6C94.4,92.7,94.4,92.8,94.5,92.6
			C94.6,92.7,94.6,92.6,94.5,92.6C94.6,92.5,94.5,92.5,94.5,92.6z M94.9,85.3C94.8,85.2,94.8,85.2,94.9,85.3
			c-0.1,0.1,0.1,0.2,0.2,0.1c0,0,0-0.1,0,0C95,85.3,94.9,85.3,94.9,85.3z M95,87C95,87,94.9,87,95,87C94.8,87.2,94.9,87.2,95,87
			C95.1,87,95.1,87,95,87z M95.1,90.8L95.1,90.8c0,0.2,0,0.2,0,0.2C95.1,90.9,95.1,90.9,95.1,90.8L95.1,90.8z M95.2,87
			c0,0,0,0.1,0,0.2C95.3,87.2,95.3,87.2,95.2,87C95.3,87,95.3,86.9,95.2,87z M96.7,87.9c-0.1,0.1-0.1,0.2,0,0.2s0.2-0.2,0.1-0.3
			C96.8,87.8,96.7,87.8,96.7,87.9z M96.8,86.8C96.7,87,96.7,87,96.8,86.8c0.1-0.1,0.1-0.2,0.1-0.2C96.8,86.6,96.8,86.7,96.8,86.8z
			 M97.5,86.6L97.5,86.6C97.4,86.6,97.5,86.7,97.5,86.6C97.6,86.8,97.6,86.8,97.5,86.6C97.6,86.7,97.5,86.6,97.5,86.6z M97.5,84.7
			c0,0.1,0,0.2,0,0.2C97.6,84.9,97.6,84.7,97.5,84.7C97.6,84.6,97.6,84.7,97.5,84.7z M97.8,86.3C97.7,86.3,97.7,86.4,97.8,86.3
			C97.9,86.4,97.9,86.5,97.8,86.3C97.9,86.4,97.9,86.3,97.8,86.3z M97.9,93C97.8,93,97.8,93.1,97.9,93C97.9,93.1,98,93.1,97.9,93
			C98,93,97.9,92.9,97.9,93z M98.6,92.7L98.6,92.7c0,0.2,0.1,0.3,0.1,0.2C98.7,92.9,98.7,92.7,98.6,92.7z M98.7,85.9
			C98.7,85.8,98.7,85.9,98.7,85.9c-0.1,0.1-0.1,0.2,0,0.2C98.7,86.1,98.7,86,98.7,85.9z M98.8,87.1C98.7,87,98.7,87,98.8,87.1
			C98.8,87.2,98.8,87.2,98.8,87.1v0.2c0,0,0,0.1,0,0.2s0,0.1,0,0s0-0.2,0-0.2C99,87.3,98.9,87.1,98.8,87.1
			C98.8,87.2,98.8,87.2,98.8,87.1z M98.9,92.1L98.9,92.1c0,0.2,0,0.2,0,0.2C98.9,92.3,99,92.1,98.9,92.1z M99.3,92.4
			C99.3,92.4,99.2,92.4,99.3,92.4c-0.1,0.1-0.1,0.2,0,0.2C99.3,92.5,99.4,92.4,99.3,92.4z M99.4,86.5L99.4,86.5
			c-0.2,0.1-0.2,0.2-0.1,0.2C99.4,86.6,99.4,86.5,99.4,86.5z M99.4,90.9L99.4,90.9c-0.1,0.2-0.1,0.2-0.1,0.2
			C99.4,91.1,99.4,91,99.4,90.9L99.4,90.9z M99.9,89.3C99.9,89.3,99.8,89.3,99.9,89.3C99.8,89.4,99.9,89.4,99.9,89.3
			C100,89.3,100,89.3,99.9,89.3z M100.3,92.8c0,0,0,0.1,0,0.2C100.3,93.2,100.3,93.2,100.3,92.8C100.3,92.8,100.3,92.7,100.3,92.8z
			 M100.5,89.8C100.4,89.8,100.4,89.8,100.5,89.8C100.4,89.9,100.4,89.9,100.5,89.8C100.5,89.9,100.5,89.9,100.5,89.8L100.5,89.8z
			 M100.7,86.6c0,0.2,0,0.2,0.1,0.3h0.1v-0.1C100.8,86.7,100.7,86.7,100.7,86.6C100.7,86.6,100.7,86.5,100.7,86.6z M100.8,88.9
			c0,0.2,0,0.2,0,0.2S100.9,89,100.8,88.9C100.9,88.8,100.9,88.8,100.8,88.9z M101.6,86.9c-0.1,0.1-0.1,0.1,0,0.2
			C101.6,87.2,101.7,87.2,101.6,86.9C101.6,86.8,101.6,86.8,101.6,86.9z M101.6,92.7C101.6,92.7,101.5,92.7,101.6,92.7
			C101.5,92.7,101.6,92.8,101.6,92.7C101.7,92.9,101.7,92.9,101.6,92.7C101.7,92.7,101.6,92.7,101.6,92.7z M101.9,92.7
			c-0.1,0-0.1,0-0.1,0.2c0,0.1,0,0.1,0.1,0C101.9,92.8,101.9,92.7,101.9,92.7z M102,89.7C102,89.7,101.9,89.7,102,89.7
			c0,0.1,0,0.2,0,0.2C102,89.9,102,89.8,102,89.7L102,89.7z M102,87.6C102,87.6,101.9,87.7,102,87.6C102,87.9,102,87.9,102,87.6
			C102,87.6,102,87.6,102,87.6z M102,88C102,88.2,102,88.2,102,88C102.1,88,102.1,88,102,88C102.1,87.9,102,87.9,102,88z
			 M102.4,84.9C102.3,84.7,102.3,84.7,102.4,84.9C102.3,85,102.4,85,102.4,84.9C102.5,85,102.5,85,102.4,84.9z M102.5,89L102.5,89
			C102.5,89.1,102.5,89.1,102.5,89c0.1,0.1,0.2,0,0.2,0c0-0.1,0-0.1,0,0C102.6,89,102.6,89,102.5,89z M102.8,85.3
			c0-0.1-0.1,0.1-0.1,0.2s0,0.1,0.1,0C102.8,85.4,102.8,85.3,102.8,85.3z M103,86.5C102.9,86.5,102.9,86.6,103,86.5
			C103.1,86.7,103.1,86.7,103,86.5C103.1,86.6,103.1,86.5,103,86.5z M103.1,88.7C103.1,88.8,103.1,88.8,103.1,88.7
			c0.1-0.1,0.2-0.1,0.2-0.2S103.1,88.5,103.1,88.7C103.2,88.6,103.2,88.7,103.1,88.7z M103.3,89.5L103.3,89.5
			C103.3,89.6,103.3,89.7,103.3,89.5C103.4,89.6,103.4,89.5,103.3,89.5z M103.5,85L103.5,85c-0.1,0.1-0.1,0.2,0,0.2
			C103.5,85.2,103.5,85.1,103.5,85L103.5,85z M103.6,84.8C103.5,84.8,103.5,84.8,103.6,84.8C103.5,84.9,103.6,84.9,103.6,84.8
			C103.7,84.8,103.7,84.8,103.6,84.8z M103.9,88L103.9,88v0.2C103.9,88.2,103.9,88.1,103.9,88L103.9,88z M104.3,87.8
			C104.2,87.8,104.1,87.9,104.3,87.8C104.3,87.9,104.3,87.9,104.3,87.8L104.3,87.8z M104.3,84.7L104.3,84.7c0,0.1,0,0.2,0.1,0.2
			C104.4,84.8,104.4,84.7,104.3,84.7z M104.4,87.3C104.3,87.5,104.3,87.6,104.4,87.3C104.5,87.3,104.5,87.2,104.4,87.3
			C104.5,87.2,104.4,87.2,104.4,87.3z M104.9,92.6c-0.1,0-0.1,0.1,0,0.2C105,92.8,105,92.8,104.9,92.6C105,92.7,105,92.6,104.9,92.6
			z M105.3,85.5C105.3,85.5,105.2,85.5,105.3,85.5C105.2,85.5,105.3,85.6,105.3,85.5C105.3,85.7,105.4,85.7,105.3,85.5
			C105.4,85.5,105.3,85.5,105.3,85.5z M105.5,85.2C105.4,85.3,105.5,85.4,105.5,85.2C105.6,85.3,105.6,85.2,105.5,85.2
			C105.6,85.1,105.5,85.1,105.5,85.2z M105.7,85.8C105.7,85.7,105.7,85.7,105.7,85.8C105.6,85.8,105.6,85.9,105.7,85.8
			C105.8,86,105.8,85.9,105.7,85.8z M106.8,87.9c-0.1,0-0.1,0.1-0.1,0.2s0,0.1,0.1,0C106.9,87.9,106.9,87.9,106.8,87.9z M107,85.4
			C107,85.4,107,85.5,107,85.4C106.9,85.5,106.9,85.6,107,85.4C107.1,85.5,107.1,85.4,107,85.4z M107.5,92.7L107.5,92.7
			c0,0.2,0,0.2,0.1,0.2C107.6,92.8,107.6,92.7,107.5,92.7z M107.6,88.9L107.6,88.9C107.5,89.1,107.5,89.1,107.6,88.9
			C107.6,89,107.7,89,107.6,88.9C107.7,89,107.7,88.9,107.6,88.9C107.7,88.9,107.7,88.8,107.6,88.9z M108.6,89.6L108.6,89.6
			C108.5,89.8,108.5,89.8,108.6,89.6C108.5,89.7,108.6,89.6,108.6,89.6C108.6,89.8,108.6,89.8,108.6,89.6
			C108.6,89.7,108.6,89.6,108.6,89.6z M109,86.7L109,86.7l-0.1,0.2C109,86.9,109,86.8,109,86.7C109,86.8,109,86.7,109,86.7z
			 M109.3,89.8L109.3,89.8c0,0.1,0,0.2,0,0.2S109.4,89.9,109.3,89.8C109.4,89.8,109.3,89.7,109.3,89.8z M109.6,87.2
			C109.4,87.2,109.4,87.3,109.6,87.2c0,0.1,0,0.2,0,0.2l0,0C109.7,87.3,109.7,87.2,109.6,87.2z M109.6,85.7
			C109.5,85.7,109.5,85.7,109.6,85.7c0,0.1,0.1,0.3,0.1,0.2C109.7,85.8,109.6,85.7,109.6,85.7z M109.9,88.9
			C109.8,89,109.8,89,109.9,88.9C109.8,89,109.8,89,109.9,88.9C109.9,89,109.9,89,109.9,88.9C110,89,110,89,109.9,88.9
			C110,88.9,109.9,88.9,109.9,88.9z M109.9,87.6C109.9,87.6,109.8,87.7,109.9,87.6C109.8,87.8,109.9,87.8,109.9,87.6
			C110,87.7,109.9,87.6,109.9,87.6z M110.1,87C110,87,110,87,110.1,87C110.2,87.2,110.2,87.2,110.1,87C110.2,87.1,110.2,87,110.1,87
			z M110.3,86.1L110.3,86.1C110.3,86.3,110.4,86.3,110.3,86.1L110.3,86.1z M110.6,88.8C110.6,88.7,110.6,88.7,110.6,88.8
			C110.5,88.9,110.6,88.9,110.6,88.8C110.7,88.9,110.7,88.8,110.6,88.8z M110.7,88.6C110.7,88.5,110.6,88.5,110.7,88.6
			C110.6,88.6,110.6,88.7,110.7,88.6C110.7,88.7,110.7,88.7,110.7,88.6z M110.8,87c-0.1,0-0.2,0.3-0.2,0.3s0.1-0.1,0.1-0.2
			C110.8,87,110.9,87,110.8,87z M110.9,85.9C110.9,85.8,110.8,85.8,110.9,85.9c-0.1,0.1,0,0.2,0,0.2C111,86.1,111,86,110.9,85.9z
			 M111.3,89.4c-0.1,0,0,0.1,0.1,0.2s0.1,0.1,0.1,0.1C111.4,89.6,111.3,89.4,111.3,89.4z M111.5,89.1L111.5,89.1
			C111.4,89.2,111.4,89.2,111.5,89.1C111.6,89.2,111.6,89.2,111.5,89.1z M111.6,92.8c-0.1,0.1-0.1,0.2,0,0.2S111.7,92.9,111.6,92.8
			C111.7,92.7,111.7,92.7,111.6,92.8z M111.8,87.6C111.7,87.6,111.7,87.7,111.8,87.6C111.8,87.8,111.8,87.7,111.8,87.6
			C111.8,87.7,111.8,87.6,111.8,87.6z M112,88.6C112,88.6,111.9,88.6,112,88.6c-0.1,0.2-0.1,0.2,0,0.2C112,88.7,112,88.6,112,88.6z
			 M112.1,88.9C112.1,88.9,112,88.9,112.1,88.9C112,89,112.1,89,112.1,88.9C112.1,89.1,112.2,89,112.1,88.9
			C112.2,88.9,112.1,88.9,112.1,88.9z M112.3,90.7C112.2,90.7,112.2,90.7,112.3,90.7C112.2,90.8,112.2,90.8,112.3,90.7
			C112.3,90.8,112.3,90.8,112.3,90.7L112.3,90.7z M112.3,88.7L112.3,88.7L112.3,88.7L112.3,88.7C112.3,88.8,112.4,88.8,112.3,88.7
			C112.4,88.8,112.3,88.7,112.3,88.7z M112.5,89.3C112.4,89.3,112.4,89.3,112.5,89.3C112.5,89.5,112.5,89.6,112.5,89.3
			C112.5,89.3,112.5,89.3,112.5,89.3z M112.5,92.6L112.5,92.6c0,0.2,0,0.2,0.1,0.2c0,0,0.1,0,0.1-0.1
			C112.6,92.7,112.5,92.6,112.5,92.6z M113,87.2C113,87.2,112.9,87.2,113,87.2C112.8,87.3,112.9,87.4,113,87.2
			C113,87.3,113,87.2,113,87.2z M114.1,88.7C113.9,88.7,113.9,88.7,114.1,88.7c0.1,0.2,0.3,0.1,0.3,0c0,0,0-0.1-0.1,0
			C114.2,88.7,114.1,88.7,114.1,88.7z M114.2,92.8c0,0-0.1,0.1-0.1,0.2s0,0.1,0,0C114.1,93,114.2,92.9,114.2,92.8
			C114.3,92.9,114.3,92.8,114.2,92.8C114.3,92.8,114.2,92.8,114.2,92.8z M114.2,85L114.2,85C114.2,85.1,114.3,85.1,114.2,85
			C114.3,85,114.3,85,114.2,85z M114.2,86.6L114.2,86.6C114.2,86.7,114.2,86.8,114.2,86.6C114.3,86.6,114.3,86.6,114.2,86.6z
			 M114.7,87.1C114.6,87.1,114.6,87.1,114.7,87.1c-0.1,0.1,0,0.2,0,0.2C114.7,87.3,114.7,87.2,114.7,87.1z M114.7,84.6
			C114.7,84.5,114.7,84.5,114.7,84.6c-0.1,0.1-0.1,0.2,0,0.2C114.8,84.9,114.8,84.8,114.7,84.6z M114.9,88.7
			C114.8,88.7,114.8,88.8,114.9,88.7C114.9,88.8,115,88.8,114.9,88.7C115,88.7,115,88.7,114.9,88.7z M115.3,87.1
			c-0.1,0-0.2,0.2-0.2,0.3C115.2,87.4,115.4,87.2,115.3,87.1C115.4,87.1,115.3,87.1,115.3,87.1z M115.2,85.9L115.2,85.9
			C115.2,86,115.2,86,115.2,85.9C115.4,86,115.4,85.9,115.2,85.9z M115.7,92.4C115.6,92.3,115.6,92.3,115.7,92.4
			C115.7,92.5,115.7,92.5,115.7,92.4L115.7,92.4z M116.3,91.2L116.3,91.2C116.3,91.4,116.3,91.4,116.3,91.2
			C116.4,91.2,116.4,91.1,116.3,91.2z M116.5,86.8L116.5,86.8C116.4,86.8,116.3,86.9,116.5,86.8L116.5,86.8
			C116.5,87,116.6,86.9,116.5,86.8z M116.4,88.2L116.4,88.2C116.4,88.3,116.4,88.3,116.4,88.2C116.5,88.1,116.5,88.1,116.4,88.2z
			 M116.6,87.5c-0.1,0-0.1,0.1,0,0.2c0.1,0.2,0.1,0.2,0.1,0C116.7,87.6,116.7,87.6,116.6,87.5C116.7,87.7,116.7,87.7,116.6,87.5
			C116.7,87.6,116.6,87.5,116.6,87.5z M116.8,92.1C116.7,92.1,116.7,92.1,116.8,92.1C116.7,92.2,116.7,92.2,116.8,92.1
			C116.9,92.1,116.9,92,116.8,92.1z M116.8,85.7c0,0,0,0.1,0,0.2s0,0.1,0,0C116.8,85.8,116.8,85.7,116.8,85.7z M117,92.7
			C116.9,92.7,117,92.8,117,92.7C117.1,92.8,117.1,92.7,117,92.7C117.1,92.6,117.1,92.6,117,92.7z M117.2,86.9L117.2,86.9
			C117.1,86.9,117.1,87,117.2,86.9C117.2,87,117.2,87.1,117.2,86.9C117.2,87,117.2,87,117.2,86.9z M117.6,92.6c0,0-0.1,0-0.2,0
			s-0.1,0,0,0.1C117.4,92.7,117.5,92.7,117.6,92.6C117.6,92.7,117.7,92.7,117.6,92.6C117.7,92.7,117.6,92.6,117.6,92.6z M117.6,85.4
			c-0.1-0.1-0.1,0,0,0.2c0.1,0.1,0.1,0.1,0.1,0C117.6,85.5,117.6,85.5,117.6,85.4z M117.6,84.9C117.5,84.9,117.5,85,117.6,84.9
			c-0.1,0.2-0.1,0.2,0,0.2h0.1C117.7,85.1,117.7,85,117.6,84.9C117.7,85,117.6,84.9,117.6,84.9z M118,92.7L118,92.7
			C117.8,92.8,117.8,92.8,118,92.7C118,92.9,118,92.8,118,92.7z M118.2,86.9C118.1,86.9,118.1,86.9,118.2,86.9
			C118.1,86.9,118.1,87,118.2,86.9C118.2,87.1,118.2,87,118.2,86.9z M118.3,89.3C118.3,89.3,118.2,89.3,118.3,89.3
			C118.3,89.4,118.4,89.4,118.3,89.3C118.4,89.3,118.4,89.3,118.3,89.3z M118.6,89.5C118.5,89.4,118.5,89.4,118.6,89.5
			C118.4,89.5,118.4,89.5,118.6,89.5C118.7,89.7,118.7,89.7,118.6,89.5z M118.4,86.6L118.4,86.6c-0.1,0.2-0.1,0.2,0,0.2
			S118.5,86.8,118.4,86.6C118.5,86.8,118.5,86.7,118.4,86.6C118.5,86.6,118.5,86.6,118.4,86.6z M118.6,84.7
			C118.5,84.6,118.5,84.7,118.6,84.7c0,0.1,0.1,0.1,0.2,0.1s0.1,0,0-0.1C118.7,84.7,118.6,84.7,118.6,84.7z M118.9,92.4
			C118.9,92.3,118.9,92.3,118.9,92.4c-0.1,0.2-0.1,0.2-0.1,0.2C118.9,92.6,118.9,92.5,118.9,92.4z M119.1,84.2
			c-0.1,0.1-0.1,0.1,0,0.2S119.2,84.4,119.1,84.2C119.3,84.1,119.2,84.1,119.1,84.2z M119.4,92.1L119.4,92.1
			c-0.1,0.1-0.1,0.2-0.1,0.2C119.4,92.3,119.4,92.2,119.4,92.1C119.4,92.1,119.5,92.1,119.4,92.1z M119.9,92.2L119.9,92.2
			C119.8,92.3,119.9,92.3,119.9,92.2C120.2,92.4,120.1,92.3,119.9,92.2z M120.2,92.5C120.2,92.5,120.1,92.5,120.2,92.5
			c-0.1,0.1-0.1,0.2,0,0.2C120.2,92.7,120.2,92.6,120.2,92.5C120.3,92.5,120.3,92.5,120.2,92.5z M120.3,91.6
			C120.3,91.7,120.2,91.7,120.3,91.6C120.2,91.8,120.3,91.8,120.3,91.6C120.4,91.6,120.4,91.6,120.3,91.6z M120.8,87.4L120.8,87.4
			C120.7,87.5,120.8,87.5,120.8,87.4C120.8,87.5,120.9,87.5,120.8,87.4C120.9,87.4,120.9,87.4,120.8,87.4z M121.8,84.5
			C121.7,84.4,121.7,84.5,121.8,84.5C121.8,84.6,121.9,84.7,121.8,84.5C121.9,84.6,121.9,84.5,121.8,84.5z M121.9,87.8
			C121.9,87.8,121.9,87.9,121.9,87.8c0,0.1,0,0.2,0,0.2S122,87.9,121.9,87.8C122,87.9,121.9,87.8,121.9,87.8z M122.3,86.8
			C122.3,86.8,122.2,86.8,122.3,86.8c-0.2,0.2-0.2,0.2-0.1,0.3s0.2,0,0.1-0.1V86.8C122.3,86.8,122.3,86.8,122.3,86.8z M122.5,91.3
			C122.4,91.2,122.4,91.3,122.5,91.3C122.6,91.4,122.6,91.4,122.5,91.3C122.6,91.3,122.6,91.3,122.5,91.3z M122.7,86.3
			C122.7,86.3,122.6,86.3,122.7,86.3c-0.1,0.1-0.1,0.2,0,0.2c0,0,0.1,0,0.1,0.1c0,0,0,0,0-0.1C122.7,86.4,122.7,86.3,122.7,86.3z
			 M124,92.2L124,92.2C123.9,92.2,123.9,92.2,124,92.2C124,92.3,124.1,92.3,124,92.2z M124.1,83.9c-0.1,0.1-0.1,0.2,0,0.2
			C124.1,84.1,124.1,84.1,124.1,83.9C124.1,84,124.1,83.9,124.1,83.9C124.2,84,124.2,84,124.1,83.9
			C124.2,83.8,124.2,83.8,124.1,83.9z M124.1,85.4C124,85.6,124,85.7,124.1,85.4C124.2,85.4,124.2,85.3,124.1,85.4
			C124.2,85.3,124.2,85.3,124.1,85.4z M124.5,84.3L124.5,84.3C124.4,84.4,124.4,84.4,124.5,84.3C124.5,84.5,124.6,84.4,124.5,84.3z
			 M124.6,84.9C124.5,84.9,124.4,85,124.6,84.9C124.6,85,124.7,85,124.6,84.9C124.7,84.9,124.7,84.9,124.6,84.9z M124.8,92.1
			L124.8,92.1L124.8,92.1c0,0.2,0,0.2,0.1,0.2L124.8,92.1C124.8,92.2,124.8,92.1,124.8,92.1z M125.1,92.1
			C125.1,92.1,125.1,92.2,125.1,92.1C125,92.2,125,92.2,125.1,92.1C125.1,92.3,125.2,92.2,125.1,92.1
			C125.2,92.2,125.2,92.1,125.1,92.1z M125.4,87.8c-0.1,0-0.2,0-0.2,0c0,0.1,0.2,0.1,0.3,0.1C125.5,87.9,125.5,87.8,125.4,87.8z
			 M125.7,92C125.7,92,125.6,92,125.7,92C125.5,92.1,125.5,92.1,125.7,92C125.7,92.1,125.7,92.1,125.7,92z M125.9,91
			c-0.1,0.1-0.1,0.2,0,0.2S126,91,125.9,91C126,91,126,91,125.9,91z M126.6,85.6C126.5,85.5,126.5,85.5,126.6,85.6
			C126.6,85.7,126.6,85.7,126.6,85.6L126.6,85.6z M126.9,92.1c-0.1,0-0.1,0.2,0,0.2C126.9,92.3,126.9,92.3,126.9,92.1
			C126.8,92.2,126.9,92.2,126.9,92.1C126.9,92.2,126.9,92.2,126.9,92.1C126.9,92.2,126.9,92.1,126.9,92.1z M128.5,92.3h-0.1
			C128.4,92.3,128.4,92.4,128.5,92.3C128.6,92.4,128.6,92.4,128.5,92.3z M128.9,90C128.9,90,128.8,90.1,128.9,90
			C128.8,90.1,128.8,90.1,128.9,90C128.9,90.2,128.9,90.1,128.9,90C129,90.1,128.9,90,128.9,90z M129,92.1c-0.1,0-0.1,0.2,0,0.2
			C129,92.4,129.1,92.3,129,92.1C129,92.2,129,92.1,129,92.1z M129.1,86.8C129.1,86.9,129.1,86.9,129.1,86.8
			C129.3,86.8,129.3,86.8,129.1,86.8C129.2,86.7,129.1,86.7,129.1,86.8z M129.1,83.8L129.1,83.8c-0.1,0.1-0.1,0.2,0,0.2
			C129.1,84,129.1,83.9,129.1,83.8C129.2,83.8,129.2,83.8,129.1,83.8z M129.3,91.2C129.3,91.1,129.3,91.1,129.3,91.2
			C129.2,91.2,129.2,91.2,129.3,91.2C129.4,91.2,129.4,91.2,129.3,91.2z M129.4,92c0,0.1-0.1,0.1-0.1,0.2c-0.1,0.1-0.1,0.1,0,0h0.1
			C129.4,92.2,129.4,92.1,129.4,92L129.4,92z M129.6,91.3l-0.1,0.1C129.5,91.4,129.5,91.4,129.6,91.3
			C129.7,91.4,129.7,91.3,129.6,91.3C129.7,91.3,129.7,91.3,129.6,91.3z M129.9,87.2C129.8,87.2,129.8,87.3,129.9,87.2
			c-0.1,0.1-0.1,0.2,0,0.2C129.9,87.4,129.9,87.4,129.9,87.2C130,87.2,130,87.2,129.9,87.2z M130.3,85.2
			C130.3,85.2,130.2,85.2,130.3,85.2c-0.1,0.2-0.1,0.2,0,0.2h0.1C130.4,85.3,130.4,85.3,130.3,85.2L130.3,85.2z M130.4,92.3
			L130.4,92.3c-0.1,0,0,0.1,0,0.2s0.1,0.1,0.1,0c0,0,0-0.1,0,0c0,0,0,0,0-0.1C130.6,92.2,130.5,92.1,130.4,92.3
			C130.5,92.3,130.5,92.3,130.4,92.3z M130.8,84.7L130.8,84.7C130.7,84.8,130.8,84.8,130.8,84.7C130.9,84.8,130.9,84.8,130.8,84.7
			C130.9,84.7,130.9,84.7,130.8,84.7z M131.3,92.2C131.2,92.2,131.2,92.3,131.3,92.2C131.3,92.4,131.3,92.3,131.3,92.2L131.3,92.2z
			 M131.5,92.5C131.4,92.6,131.4,92.6,131.5,92.5C131.6,92.5,131.6,92.4,131.5,92.5C131.5,92.4,131.5,92.4,131.5,92.5z M131.9,92.3
			c-0.1,0,0,0.2,0,0.2c0.1,0.1,0.1,0,0.1-0.1S131.9,92.3,131.9,92.3z M132.6,85.9c0,0-0.1,0.1-0.1,0.2s0,0.1,0,0
			C132.6,86,132.6,85.9,132.6,85.9z M133.3,88.7c-0.1,0-0.1,0.2,0,0.2c0,0,0,0,0,0.1s0,0.1,0,0S133.4,88.9,133.3,88.7
			C133.3,88.8,133.3,88.8,133.3,88.7C133.4,88.7,133.4,88.7,133.3,88.7z M133.7,91.5C133.6,91.5,133.6,91.5,133.7,91.5
			c-0.1,0.1-0.1,0.1-0.1,0.1C133.6,91.7,133.6,91.6,133.7,91.5C133.7,91.6,133.7,91.5,133.7,91.5z M133.6,92.4c0,0,0,0.1,0,0.2
			s0,0.1,0.1,0C133.7,92.4,133.7,92.4,133.6,92.4z M134.1,84.1C134,84,134,84.1,134.1,84.1C134.2,84.2,134.2,84.2,134.1,84.1
			C134.2,84.1,134.2,84.1,134.1,84.1z M134.2,92.5c-0.1,0-0.1,0.1,0,0.2s0.1,0.1,0.1,0S134.3,92.5,134.2,92.5z M134.4,87.3
			C134.4,87.2,134.3,87.3,134.4,87.3C134.3,87.5,134.3,87.5,134.4,87.3L134.4,87.3z M135.1,86.6L135.1,86.6c0,0.1,0,0.2,0,0.2
			C135.2,86.7,135.2,86.7,135.1,86.6C135.2,86.6,135.2,86.6,135.1,86.6z M135.2,84.3L135.2,84.3C135.1,84.4,135.2,84.4,135.2,84.3
			C135.3,84.5,135.3,84.3,135.2,84.3z M137.3,83.9c-0.1,0-0.1,0.1,0,0.2c0,0.1,0,0.1,0,0C137.3,83.9,137.3,83.9,137.3,83.9z
			 M137.4,92.3L137.4,92.3C137.3,92.4,137.3,92.4,137.4,92.3C137.5,92.4,137.5,92.4,137.4,92.3C137.5,92.3,137.5,92.3,137.4,92.3z
			 M137.7,92.5c-0.1,0-0.1,0.2,0,0.2C137.7,92.6,137.7,92.6,137.7,92.5C137.7,92.5,137.7,92.4,137.7,92.5z M138.1,83.8
			C138,83.8,138,83.8,138.1,83.8C137.9,84,138,84,138.1,83.8C138.1,83.9,138.1,83.9,138.1,83.8z M138.5,92.2L138.5,92.2
			c0,0.1,0,0.2,0,0.2C138.6,92.4,138.6,92.3,138.5,92.2C138.6,92.2,138.6,92.2,138.5,92.2z M140.3,84.2
			C140.3,84.2,140.2,84.2,140.3,84.2C140.2,84.3,140.3,84.3,140.3,84.2C140.3,84.3,140.3,84.2,140.3,84.2
			C140.3,84.1,140.3,84.1,140.3,84.2z M140.4,85.2L140.4,85.2c-0.1,0.1-0.1,0.1-0.1,0.1C140.4,85.4,140.5,85.2,140.4,85.2z
			 M140.9,83.8C140.9,83.8,140.8,83.8,140.9,83.8c-0.2,0.1-0.2,0.2-0.1,0.2C140.9,83.9,140.9,83.8,140.9,83.8z M141.3,92.6
			C141.3,92.5,141.3,92.5,141.3,92.6c-0.1,0.1,0,0.2,0,0.2C141.4,92.7,141.4,92.7,141.3,92.6z M141.9,83.8c-0.1,0-0.1,0.1,0,0.2
			s0.1,0,0.1-0.1L141.9,83.8z M142.2,92.5C142.1,92.4,142.1,92.4,142.2,92.5c-0.1,0.1,0,0.2,0,0.2S142.2,92.6,142.2,92.5z
			 M142.2,91.8c-0.1,0.1-0.1,0.1-0.1,0.2c0,0,0,0,0.1,0c0-0.1,0.1-0.1,0.2-0.2c0.1-0.1,0.1-0.1,0-0.1
			C142.3,91.7,142.2,91.7,142.2,91.8z M142.5,86.1c-0.1,0-0.1,0,0.1,0.1c0.1,0,0.1,0.1,0.2,0C142.8,86.2,142.6,86.1,142.5,86.1z
			 M142.6,92.4c-0.1,0.1-0.1,0.2,0,0.3C142.7,92.7,142.8,92.6,142.6,92.4C142.7,92.3,142.7,92.3,142.6,92.4z"/>
		<path class="st1" d="M113.5,93.2c0.1,0.1,0.2,0.1,0.2,0C113.7,93.2,113.7,93.1,113.5,93.2C113.6,93.1,113.5,93.1,113.5,93.2
			C113.6,93.1,113.6,93.1,113.5,93.2C113.4,93.1,113.4,93.1,113.5,93.2C113.4,93.1,113.5,93.1,113.5,93.2z"/>
		<path class="st1" d="M113.9,84.6L113.9,84.6C114,84.6,114,84.6,113.9,84.6C114,84.5,113.9,84.5,113.9,84.6
			C113.9,84.5,113.9,84.6,113.9,84.6z"/>
		<path class="st1" d="M116,93.2C116.1,93.2,116.1,93.1,116,93.2C116.1,93,116.1,92.9,116,93.2L116,93.2z"/>
		<path class="st1" d="M140.3,83.8C140.4,83.9,140.5,83.9,140.3,83.8c0.1-0.1,0.1-0.1,0.1-0.1C140.4,83.6,140.4,83.7,140.3,83.8
			C140.3,83.7,140.3,83.7,140.3,83.8z"/>
	</g>
</g>
<g>
	<g>
		<path class="st1" d="M27.4,111.1c0.1,0.1,0.1,0.2,0.1,0.2s0.1,0,0.2,0s0.3,0.1,0.4,0.1c0.1,0.1,0.2,0.1,0.3,0h0.1
			c0,0,0.2,0.1,0.5,0.1c0.2,0,0.5,0,0.5,0c0.1,0.1,0.4,0.1,0.4,0.1s0.1,0,0.3,0c0.2,0.1,0.4,0.1,0.5,0.1s0.2,0,0.2,0l0.1,0.1
			c0.1,0,0.2,0,0.3,0.1c0.1,0.1,0.2,0.1,0.3,0.1c0.1,0,0.2,0,0.2,0s0.1,0,0.2,0c0.1,0,0.3,0,0.4,0.1c0.2,0.1,0.3,0.1,0.4,0
			c0.1-0.1,0.2,0,0.2,0s0.1,0.1,0.2,0.1c0.1,0,0.3,0,0.5,0s0.4,0,0.4,0c0.1-0.1,0.1-0.1,0.1,0s0,0.1,0.1,0.1
			c0.2-0.1,0.5-0.1,0.5-0.1h0.1c0-0.1,0.4-0.1,0.9-0.2c0.1,0,0.1,0,0.2,0h0.1h0.5c0.7,0,1.4,0,2.2,0c1.5,0,3,0,4.4,0
			c0.3,0,1.1,0,2,0c2.4,0,8.2,0,8.7,0.1c0.3,0,0.6,0,0.7,0c0.1,0,0.3-0.1,0.4,0c0.3,0,3.3,0.1,8.5,0.1c6.1,0,19.1,0.1,20,0.1
			c0.4,0,0.8,0,1,0.1s0.2,0.1,0.2,0s0.4-0.1,1.3-0.1c0.7,0,3.4,0,6,0s4.8,0,4.9,0c0.2,0,0.3,0,0.3,0s0.2-0.1,0.7,0
			c1.2,0.1,5.2,0,5.5,0c0.2-0.1,0.2-0.1,0.3,0c0,0.1,0.5,0.1,2.7,0.1c0.8,0,1.4,0,1.9,0s0.8,0,0.8,0s0.2,0,0.4,0
			c0.7,0,44.8,0.1,53.4,0.1c0.3,0,0.6,0,0.7,0c1.4,0,3.8-0.1,4.8-0.1c0.3,0,0.8-0.1,1.9-0.1c0.6,0,0.9-0.3,1-1
			c0-0.1,0.1-0.2,0.1-0.2c0.1,0,0.2-0.4,0.3-1c0,0,0,0,0.1,0c0,0,0.1,0,0.1-0.1s0-0.2,0.1-0.2c0,0,0.1-0.1,0.1-0.2s0-0.2,0-0.2
			s0,0,0-0.1c0,0,0-0.1,0.1-0.2c0.1,0,0.1-0.1,0.1,0c0,0,0,0,0.1,0c0,0,0.1-0.1,0-0.1v-0.1c0,0,0.1-0.1,0.1-0.2s0-0.1,0-0.1
			c0.1,0,0.1-0.2,0-0.3c-0.1,0,0-0.4,0.1-0.3c0,0,0,0,0-0.1s0-0.2,0-0.2s0-0.1,0-0.2s0-0.2,0-0.1c0,0,0.1,0,0.1-0.1s0-0.1,0.1-0.1
			c0,0,0-0.1,0-0.2c-0.1-0.1-0.1-0.2,0-0.2c0,0,0.1-0.1,0-0.2c0-0.1,0-0.2,0.1-0.3c0.1-0.1,0.1-0.1,0-0.2c0,0-0.1-0.1,0-0.2
			c0-0.1,0-0.1,0-0.1s0-0.3,0-0.4c0,0,0,0,0-0.1l0,0c0,0,0.1-0.1,0.1-0.2s0-0.1,0-0.1s0,0,0-0.1v-0.1c0,0-0.1-0.1,0-0.2
			c0-0.1,0-0.1-0.1-0.1c-0.1,0.1-0.1,0,0-0.1c0.2-0.2-0.3-0.6-0.7-0.6c-0.1,0-0.2-0.1-0.3-0.1c0,0-0.1,0-0.2,0c-0.1,0-0.1,0-0.1,0
			s0,0-0.1,0s-0.2,0-0.3,0s-0.3-0.1-0.4-0.1c-0.5-0.1-0.7-0.1-0.8-0.2c0,0-0.1-0.1-0.2-0.1c-0.1,0-0.2,0-0.2-0.1s-0.6-0.1-1.3-0.1
			c-0.2,0-0.3,0-0.3-0.1s0-0.1-0.1-0.1c0,0-0.1,0-0.2-0.1c0,0-0.1-0.1-0.2,0c-0.1,0-0.1,0-0.1,0c0-0.1-0.1-0.1-0.2,0
			c-0.1,0-0.1,0.1-0.1,0c0,0-0.1,0-0.2,0c-0.1,0-0.2,0.1-0.2,0.1s0,0.1-0.1,0.1c0,0,0,0,0-0.1c0,0,0-0.1-0.1-0.1s-0.2,0-0.3,0
			s-0.2,0-0.2-0.1s-0.3,0-0.5,0.1s-1.1,0.2-1.8,0.2c-0.3,0-0.6,0-0.7,0.1c0.1,0-0.2,0-0.6,0c-0.3,0-0.8,0-1.3,0c-1.1,0-2.5,0-4.2,0
			c-3.3,0-7.6,0-11.7,0.1c-3.3,0-8.9,0-12.5,0.1c-5.3,0-56.8,0-58.3,0c-0.4,0-3.3,0-5,0c-0.3,0-4.2,0-8.5,0c-4.4,0-8.1,0-8.3,0.1
			c-0.2,0-0.3,0-0.3,0s-0.2,0-0.7,0c-0.4,0-1,0-1.8,0c-1.5,0-3.6,0-5.8,0c-2.3,0-4.5,0-6.2,0c-0.6,0-1.1,0-1.5,0c-0.1,0-0.2,0-0.2,0
			c-0.1,0-0.3,0-0.3,0c-0.1,0-0.1,0-0.1,0s-0.2,0-0.9,0c-0.2,0-0.4,0-0.4,0h-0.1c0,0-0.1,0-0.2,0c-0.1-0.1-3.4-0.1-3.7,0
			c-0.2,0-0.4,0.1-0.6,0.1c-0.4,0-0.6,0.3-0.7,0.5c0,0.1-0.1,0.2-0.1,0.2c-0.1,0-0.2,0.4-0.2,0.6c0,0.3-0.1,0.7-0.1,0.7
			c0,0.1,0,0.1,0.1,0.2s0.1,0.1,0,0.2c-0.2,0.1-0.2,0.3-0.2,0.5c0.1,0.2,0,0.2-0.1,0.3c-0.1,0.1-0.1,0.2-0.1,0.6c0,0.3,0,0.5,0,0.6
			c0,0-0.1,0.2-0.1,0.3c0,0.1,0,0.2-0.1,0.3c0,0.1,0,0.1,0,0.2c0,0,0,0.1-0.1,0.1c-0.1,0.1-0.1,0.3-0.1,0.3c0.1,0,0,0.5,0,0.6
			c-0.1,0.1-0.1,0.3-0.2,0.6c0,0.4-0.1,0.8-0.2,0.8C27.3,110.7,27.3,111,27.4,111.1z"/>
	</g>
</g>
<g>
	<g>
		<path class="st1" d="M27.4,129.8c0.1,0.1,0.1,0.2,0.1,0.2s0.1,0,0.2,0s0.3,0.1,0.4,0.1c0.1,0.1,0.2,0.1,0.3,0h0.1
			c0,0,0.2,0.1,0.5,0.1c0.2,0,0.5,0,0.5,0c0.1,0.1,0.4,0.1,0.4,0.1s0.1,0,0.3,0c0.2,0.1,0.4,0.1,0.5,0.1s0.2,0,0.2,0l0.1,0.1
			c0.1,0,0.2,0,0.3,0.1c0.1,0.1,0.2,0.1,0.3,0.1c0.1,0,0.2,0,0.2,0s0.1,0,0.2,0c0.1,0,0.3,0,0.4,0.1c0.2,0.1,0.3,0.1,0.4,0
			c0.1-0.1,0.2,0,0.2,0s0.1,0.1,0.2,0.1c0.1,0,0.3,0,0.5,0s0.4,0,0.4,0c0.1-0.1,0.1-0.1,0.1,0s0,0.1,0.1,0.1
			c0.2-0.1,0.5-0.1,0.5-0.1h0.1c0-0.1,0.4-0.1,0.9-0.2c0.1,0,0.1,0,0.2,0h0.1h0.3c0.5,0,1,0,1.5,0c1,0,2,0,3,0c0.2,0,0.8,0,1.4,0
			c1.7,0,5.6,0,6,0.1c0.2,0,0.4,0,0.5,0s0.2-0.1,0.3,0c0.2,0,2.2,0.1,5.8,0.1c4.1,0,13,0.1,13.7,0.1c0.3,0,0.6,0,0.7,0.1
			s0.2,0.1,0.2,0s0.3-0.1,0.9-0.1c0.5,0,2.3,0,4.1,0c1.8,0,3.3,0,3.4,0s0.2,0,0.2,0s0.2-0.1,0.5,0c0.8,0.1,3.5,0,3.7,0
			c0.1-0.1,0.2-0.1,0.2,0s0.4,0.1,1.9,0.1c0.5,0,1,0,1.3,0s0.5,0,0.5,0s0.1,0,0.3,0c0.2,0,8,0,16.5,0.1c8.3,0,17.2,0,20.1,0.1
			c0.3,0,0.6,0,0.7,0c1.4,0,3.8-0.1,4.8-0.1c0.3,0,0.8-0.1,1.9-0.1c0.6,0,0.9-0.3,1-1c0-0.1,0.1-0.2,0.1-0.2c0.1,0,0.2-0.4,0.3-1
			c0,0,0,0,0.1,0c0,0,0.1,0,0.1-0.1s0-0.2,0.1-0.2c0,0,0.1-0.1,0.1-0.2c0-0.1,0-0.2,0-0.2s0,0,0-0.1c0,0,0-0.1,0.1-0.2
			c0.1,0,0.1-0.1,0.1,0c0,0,0,0,0.1,0c0,0,0.1-0.1,0-0.1v-0.1c0,0,0.1-0.1,0.1-0.2s0-0.1,0-0.1c0.1,0,0.1-0.2,0-0.3
			c-0.1,0,0-0.4,0.1-0.3c0,0,0,0,0-0.1s0-0.2,0-0.2s0-0.1,0-0.2s0-0.2,0-0.1c0,0,0.1,0,0.1-0.1s0-0.1,0.1-0.1c0,0,0-0.1,0-0.2
			c-0.1-0.1-0.1-0.2,0-0.2c0,0,0.1-0.1,0-0.2c0-0.1,0-0.2,0.1-0.3c0.1-0.1,0.1-0.1,0-0.2c0,0-0.1-0.1,0-0.2c0-0.1,0-0.1,0-0.1
			s0-0.3,0-0.4c0,0,0,0,0-0.1l0,0c0,0,0.1-0.1,0.1-0.2s0-0.1,0-0.1s0,0,0-0.1v-0.1c0,0-0.1-0.1,0-0.2c0-0.1,0-0.1-0.1-0.1
			c-0.1,0.1-0.1,0,0-0.1c0.2-0.2-0.3-0.6-0.7-0.6c-0.1,0-0.2-0.1-0.3-0.1c0,0-0.1,0-0.2,0c-0.1,0-0.1,0-0.1,0s0,0-0.1,0
			s-0.2,0-0.3,0s-0.3-0.1-0.4-0.1c-0.5-0.1-0.7-0.1-0.8-0.2c0,0-0.1-0.1-0.2-0.1c-0.1,0-0.2,0-0.2-0.1s-0.6-0.1-1.3-0.1
			c-0.2,0-0.3,0-0.3-0.1s0-0.1-0.1-0.1c0,0-0.1,0-0.2-0.1c0,0-0.1-0.1-0.2,0c-0.1,0-0.1,0-0.1,0c0-0.1-0.1-0.1-0.2,0
			c-0.1,0-0.1,0.1-0.1,0c0,0-0.1,0-0.2,0s-0.2,0.1-0.2,0.1s0,0.1-0.1,0.1c0,0,0,0,0-0.1c0,0,0-0.1-0.1-0.1s-0.2,0-0.3,0
			c-0.1,0-0.2,0-0.2-0.1s-0.3,0-0.5,0.1s-1.1,0.2-1.8,0.2c-0.3,0-0.6,0-0.7,0.1c0,0-0.2,0-0.4,0c-0.2,0-0.5,0-0.9,0
			c-0.7,0-1.7,0-2.9,0c-2.3,0-5.2,0-8,0.1c-2.2,0-6.1,0-8.5,0.1c-3.7,0-38.8,0-39.9,0c-0.3,0-2.2,0-3.4,0c-0.2,0-2.9,0-5.8,0
			c-3,0-5.5,0-5.7,0.1c-0.1,0-0.2,0-0.2,0s-0.2,0-0.4,0c-0.3,0-0.7,0-1.2,0c-1,0-2.4,0-4,0s-3.1,0-4.2,0c-0.4,0-0.8,0-1.1,0
			c-0.1,0-0.2,0-0.2,0c-0.1,0-0.3,0-0.3,0c-0.1,0-0.1,0-0.1,0s-0.2,0-0.9,0c-0.2,0-0.4,0-0.4,0h-0.1c0,0-0.1,0-0.2,0
			c-0.1-0.1-3.4-0.1-3.7,0c-0.2,0-0.4,0.1-0.6,0.1c-0.4,0-0.6,0.3-0.7,0.5c0,0.1-0.1,0.2-0.1,0.2c-0.1,0-0.2,0.4-0.2,0.6
			c0,0.3-0.1,0.7-0.1,0.7c0,0.1,0,0.1,0.1,0.2s0.1,0.1,0,0.2c-0.2,0.1-0.2,0.3-0.2,0.5c0.1,0.2,0,0.2-0.1,0.3
			c-0.1,0.1-0.1,0.2-0.1,0.6c0,0.3,0,0.5,0,0.6c0,0-0.1,0.2-0.1,0.3c0,0.1,0,0.2-0.1,0.3c0,0.1,0,0.1,0,0.2c0,0,0,0.1-0.1,0.1
			c-0.1,0.1-0.1,0.3-0.1,0.3c0.1,0,0,0.5,0,0.6c-0.1,0.1-0.1,0.3-0.2,0.6c0,0.4-0.1,0.8-0.2,0.8C27.3,129.3,27.3,129.6,27.4,129.8z"
			/>
	</g>
</g>
<g>
	<g>
		<g>
			<path class="st2" d="M28.7,155.7l1.4-0.8c0.1,0.2,10.4-0.5,10.6-0.3c0,0,1.8-1.1,1.8-1c0.1,0.1,5.4,2.5,5.5,2.6l1.7-1
				c0.1,0.2,8.5,0.6,8.6,0.8l1.7-1"/>
		</g>
	</g>
</g>
<g>
	<g>
		<g>
			<path class="st2" d="M29.7,168.4l1.4-0.8c0.1,0.2,10.5-0.5,10.6-0.3c0,0,1.7-1,1.8-1c0.1,0.1,5.4,2.5,5.5,2.6l1.7-1
				c0.1,0.2,8.5,0.6,8.6,0.8l1.7-1c0.1,0.1,6.1,2.1,6.2,2.2c0,0,7.5-4.4,7.5-4.3c0.1,0.1,5,2.8,5,2.9l1.5-0.9"/>
		</g>
	</g>
</g>
</svg>
